<?xml version="1.0" encoding="UTF-8" standalone="no"?>
<svg
   version="1.1"
   width="221.6219mm"
   height="172.5929mm"
   viewBox="0 0 221.6219 172.5929"
   id="svg2451"
   sodipodi:docname="accelerator-brd.svg"
   inkscape:version="1.3.2 (091e20e, 2023-11-25, custom)"
   xmlns:inkscape="http://www.inkscape.org/namespaces/inkscape"
   xmlns:sodipodi="http://sodipodi.sourceforge.net/DTD/sodipodi-0.dtd"
   xmlns="http://www.w3.org/2000/svg"
   xmlns:svg="http://www.w3.org/2000/svg"
   xmlns:rdf="http://www.w3.org/1999/02/22-rdf-syntax-ns#"
   xmlns:cc="http://creativecommons.org/ns#"
   xmlns:dc="http://purl.org/dc/elements/1.1/">
  <sodipodi:namedview
     id="namedview2451"
     pagecolor="#ffffff"
     bordercolor="#000000"
     borderopacity="0.25"
     inkscape:showpageshadow="2"
     inkscape:pageopacity="0.0"
     inkscape:pagecheckerboard="0"
     inkscape:deskcolor="#d1d1d1"
     inkscape:document-units="mm"
     inkscape:zoom="1.0449628"
     inkscape:cx="343.5529"
     inkscape:cy="518.20026"
     inkscape:window-width="2560"
     inkscape:window-height="1369"
     inkscape:window-x="2552"
     inkscape:window-y="-8"
     inkscape:window-maximized="1"
     inkscape:current-layer="svg2451" />
  <defs
     id="defs2451">
    <inkscape:path-effect
       effect="fillet_chamfer"
       id="path-effect2459"
       nodesatellites_param="F,0,1,1,0,0.5,0,1 @ F,0,1,1,0,0.5,0,1 @ F,0,1,1,0,0.5,0,1 @ F,0,1,1,0,0.5,0,1 @ F,0,0,1,0,1,0,1 @ F,0,0,1,0,1,0,1 @ F,0,1,1,0,0.5,0,1 @ F,0,1,1,0,0.5,0,1 @ F,0,1,1,0,0.5,0,1 @ F,0,1,1,0,0.5,0,1 @ F,0,0,1,0,1,0,1 @ F,0,0,1,0,1,0,1 | F,0,0,1,0,1,0,1 @ F,0,0,1,0,1,0,1 @ F,0,1,1,0,0.5,0,1 @ F,0,1,1,0,0.5,0,1 @ F,0,0,1,0,0,0,1 @ F,0,0,1,0,0,0,1 @ F,0,0,1,0,0,0,1 @ F,0,0,1,0,0,0,1 @ F,0,0,1,0,0,0,1 @ F,0,0,1,0,0,0,1 @ F,0,0,1,0,0,0,1 @ F,0,0,1,0,0,0,1 @ F,0,0,1,0,0,0,1 @ F,0,0,1,0,0,0,1 @ F,0,0,1,0,0,0,1 @ F,0,0,1,0,0,0,1 @ F,0,0,1,0,0,0,1 @ F,0,0,1,0,0,0,1 @ F,0,0,1,0,0,0,1 @ F,0,0,1,0,0,0,1 @ F,0,0,1,0,0,0,1 @ F,0,0,1,0,0,0,1 @ F,0,0,1,0,0,0,1 @ F,0,0,1,0,0,0,1 @ F,0,1,1,0,0.5,0,1 @ F,0,1,1,0,0.5,0,1 @ F,0,0,1,0,1,0,1 @ F,0,0,1,0,1,0,1 @ F,0,1,1,0,0.5,0,1 @ F,0,1,1,0,0.5,0,1 @ F,0,0,1,0,0,0,1 @ F,0,0,1,0,0,0,1 @ F,0,0,1,0,0,0,1 @ F,0,0,1,0,0,0,1 @ F,0,0,1,0,0,0,1 @ F,0,0,1,0,0,0,1 @ F,0,0,1,0,0,0,1 @ F,0,0,1,0,0,0,1 @ F,0,0,1,0,0,0,1 @ F,0,0,1,0,0,0,1 @ F,0,0,1,0,0,0,1 @ F,0,0,1,0,0,0,1 @ F,0,0,1,0,0,0,1 @ F,0,0,1,0,0,0,1 @ F,0,0,1,0,0,0,1 @ F,0,0,1,0,0,0,1 @ F,0,0,1,0,0,0,1 @ F,0,0,1,0,0,0,1 @ F,0,0,1,0,0,0,1 @ F,0,0,1,0,0,0,1 @ F,0,0,1,0,0,0,1 @ F,0,1,1,0,0.5,0,1 @ F,0,1,1,0,0.5,0,1"
       is_visible="true"
       lpeversion="1"
       radius="0.5"
       unit="mm"
       method="auto"
       mode="F"
       chamfer_steps="1"
       flexible="false"
       use_knot_distance="true"
       apply_no_radius="true"
       apply_with_radius="true"
       only_selected="true"
       hide_knots="false" />
  </defs>
  <title
     id="title1">SVG Image created as accelerator-brd.svg date 2024/06/08 21:26:16 </title>
  <desc
     id="desc1">Image generated by PCBNEW </desc>
  <path
     id="path2459-3"
     style="fill:none;stroke:#000000;stroke-width:0.1"
     d="M 118.139 125.018 L 118.618 125.018 L 119.097 125.018 L 119.575 125.018 L 120.054 125.018 L 120.533 125.018 L 121.011 125.018 L 121.49 125.018 L 121.97 125.018 L 122.447 125.018 L 122.926 125.018 L 123.405 125.018 L 123.883 125.018 L 124.362 125.018 L 124.842 125.018 L 125.195 124.871 L 125.342 124.518 L 125.342 124.02 L 125.342 123.522 L 125.342 123.024 L 125.342 122.526 L 125.342 122.027 L 125.342 121.53 L 125.342 121.033 L 125.342 120.535 L 125.342 120.036 L 125.342 119.538 L 125.342 119.04 L 125.342 118.542 L 125.342 118.045 L 125.342 117.547 L 125.342 117.05 L 125.342 116.552 L 125.342 116.055 L 125.342 115.557 L 125.342 115.061 L 125.342 114.563 L 125.342 114.066 L 125.342 113.567 L 125.342 113.07 L 125.342 112.572 L 125.342 112.074 L 125.342 111.577 L 125.342 111.079 L 125.342 110.582 L 125.342 110.085 L 125.342 109.587 L 125.342 109.09 L 125.342 108.593 L 125.342 108.094 L 125.342 107.597 L 125.342 107.098 L 125.342 106.601 L 125.342 106.103 L 125.342 105.605 L 125.342 105.106 L 125.342 104.608 L 125.342 104.109 L 125.342 103.611 L 125.342 103.113 L 125.342 102.616 L 125.342 102.117 L 125.342 101.62 L 125.342 101.122 L 125.342 100.624 L 125.342 100.125 L 125.342 99.628 L 125.342 99.1302 L 125.342 98.6319 L 125.342 98.1334 L 125.342 97.6347 L 125.342 97.1359 L 125.342 96.6372 L 125.342 96.1387 L 125.342 95.6406 L 125.342 95.1428 L 125.342 94.6456 L 125.342 94.1471 L 125.342 93.6494 L 125.342 93.1507 L 125.342 92.653 L 125.342 92.1546 L 125.342 91.6574 L 125.342 91.1597 L 125.342 90.6616 L 125.342 90.1633 L 125.342 89.6649 L 125.342 89.1666 L 125.342 88.6684 L 125.342 88.1705 L 125.342 87.6731 L 125.342 87.1762 L 125.342 86.6783 L 125.342 86.1796 L 125.342 85.6819 L 125.342 85.1836 L 125.342 84.6849 L 125.342 84.1878 L 125.342 83.6906 L 125.342 83.1935 L 125.342 82.695 L 125.342 82.1971 L 125.342 81.6998 L 125.342 81.2018 L 125.342 80.7033 L 125.342 80.2061 L 125.342 79.7087 L 125.342 79.21 L 125.342 78.7117 L 125.342 78.2139 L 125.342 77.717 L 125.342 77.2196 L 125.342 76.7221 L 125.342 76.2234 L 125.342 75.7265 L 125.342 75.229 L 125.342 74.7311 L 125.342 74.2332 L 125.342 73.7356 L 125.342 73.2386 L 125.342 72.7402 L 125.342 72.243 L 125.342 71.7451 L 125.342 71.2469 L 125.342 70.7488 L 125.342 70.2513 L 125.342 69.7525 L 125.342 69.2552 L 125.342 68.7577 L 125.342 68.2605 L 125.342 67.762 L 125.342 67.265 L 125.342 66.7681 L 125.342 66.2699 L 125.342 65.7731 L 125.342 65.2747 L 125.342 64.7774 L 125.342 64.2801 L 125.342 63.7822 L 125.342 63.2846 L 125.342 62.7867 L 125.342 62.2881 L 125.342 61.7901 L 125.342 61.2923 L 125.342 60.7948 L 125.342 60.2977 L 125.342 59.8 L 125.342 59.3022 L 125.342 58.8041 L 125.342 58.3065 L 125.342 57.8096 L 125.342 57.3119 L 125.342 56.8144 L 125.342 56.3167 L 125.342 55.8191 L 125.342 55.3209 L 125.342 54.8226 L 125.342 54.3244 L 125.342 53.8263 L 125.342 53.3293 L 125.342 52.8312 L 125.342 52.3327 L 125.342 51.8343 L 125.342 51.3357 L 125.342 50.838 L 125.342 50.3399 L 125.342 49.8422 L 125.342 49.3446 L 125.342 48.847 L 125.195 48.4935 L 124.842 48.347 L 124.359 48.347 L 123.877 48.347 L 123.396 48.347 L 122.913 48.347 L 122.43 48.347 L 121.948 48.347 L 121.466 48.347 L 120.983 48.347 L 120.501 48.347 L 120.019 48.347 L 119.536 48.347 L 119.055 48.347 L 118.572 48.347 L 118.089 48.347 L 117.735 48.4935 L 117.589 48.847 L 117.589 49.3401 L 117.589 49.8333 L 117.589 50.3264 L 117.589 50.8194 L 117.589 51.3136 L 117.589 51.8074 L 117.589 52.3001 L 117.589 52.7941 L 117.589 53.2871 L 117.589 53.7798 L 117.589 54.2735 L 117.589 54.7678 L 117.589 55.2604 L 117.589 55.7534 L 117.589 56.2466 L 117.589 56.7399 L 117.589 57.2332 L 117.589 57.726 L 117.589 58.2197 L 117.589 58.7133 L 117.589 59.2073 L 117.589 59.7003 L 117.589 60.1949 L 117.589 60.6884 L 117.589 61.1818 L 117.589 61.6761 L 117.589 62.1696 L 117.589 62.6636 L 117.589 63.1569 L 117.589 63.6505 L 117.589 64.1441 L 117.589 64.6378 L 117.589 65.1315 L 117.589 65.6252 L 117.589 66.1182 L 117.589 66.6125 L 117.589 67.107 L 117.513 67.4897 L 117.296 67.8141 L 116.972 68.0309 L 116.589 68.107 L 116.089 68.107 L 115.588 68.107 L 115.089 68.107 L 114.589 68.107 L 114.089 68.107 L 113.589 68.107 L 113.089 68.107 L 112.589 68.107 L 112.09 68.107 L 111.59 68.107 L 111.09 68.107 L 110.59 68.107 L 110.091 68.107 L 109.59 68.107 L 109.09 68.107 L 108.59 68.107 L 108.09 68.107 L 107.589 68.107 L 107.089 68.107 L 106.588 68.107 L 106.089 68.107 L 105.589 68.107 L 105.089 68.107 L 104.706 68.0309 L 104.382 67.8141 L 104.165 67.4897 L 104.089 67.107 L 104.089 66.6139 L 104.089 66.1207 L 104.089 65.6276 L 104.089 65.1346 L 104.089 64.6404 L 104.089 64.1466 L 104.089 63.6539 L 104.089 63.1599 L 104.089 62.6669 L 104.089 62.1742 L 104.089 61.6805 L 104.089 61.1862 L 104.089 60.6936 L 104.089 60.2006 L 104.089 59.7074 L 104.089 59.2141 L 104.089 58.7208 L 104.089 58.228 L 104.089 57.7344 L 104.089 57.2408 L 104.089 56.7467 L 104.089 56.2537 L 104.089 55.7591 L 104.089 55.2656 L 104.089 54.7722 L 104.089 54.2779 L 104.089 53.7844 L 104.089 53.2904 L 104.089 52.7972 L 104.089 52.3035 L 104.089 51.8099 L 104.089 51.3163 L 104.089 50.8225 L 104.089 50.3288 L 104.089 49.8358 L 104.089 49.3415 L 104.089 48.847 L 103.943 48.4935 L 103.589 48.347 L 103.102 48.347 L 102.616 48.347 L 102.131 48.347 L 101.644 48.347 L 101.157 48.347 L 100.671 48.347 L 100.185 48.347 L 99.6978 48.347 L 99.2123 48.347 L 98.7261 48.347 L 98.2395 48.347 L 97.7536 48.347 L 97.2673 48.347 L 96.78 48.347 L 96.4264 48.4935 L 96.28 48.847 L 96.28 49.3452 L 96.28 49.8428 L 96.28 50.3411 L 96.28 50.839 L 96.28 51.3375 L 96.28 51.8345 L 96.28 52.3322 L 96.28 52.83 L 96.28 53.3286 L 96.28 53.8268 L 96.28 54.3245 L 96.28 54.8225 L 96.28 55.3202 L 96.28 55.8176 L 96.28 56.3149 L 96.28 56.8127 L 96.28 57.3099 L 96.28 57.8074 L 96.28 58.3042 L 96.28 58.8017 L 96.28 59.2991 L 96.28 59.7978 L 96.28 60.2953 L 96.28 60.793 L 96.28 61.2907 L 96.28 61.7878 L 96.28 62.2859 L 96.28 62.7828 L 96.28 63.2802 L 96.28 63.7776 L 96.28 64.275 L 96.28 64.7719 L 96.28 65.2703 L 96.28 65.7679 L 96.28 66.2664 L 96.28 66.7637 L 96.28 67.2615 L 96.28 67.7598 L 96.28 68.2583 L 96.28 68.7569 L 96.28 69.2554 L 96.28 69.7537 L 96.28 70.2515 L 96.28 70.7488 L 96.28 71.2474 L 96.28 71.7453 L 96.28 72.2431 L 96.28 72.7409 L 96.28 73.2396 L 96.28 73.7368 L 96.28 74.2346 L 96.28 74.7329 L 96.28 75.2314 L 96.28 75.7301 L 96.28 76.2289 L 96.28 76.7276 L 96.28 77.2261 L 96.28 77.7242 L 96.28 78.222 L 96.28 78.7192 L 96.28 79.2176 L 96.28 79.7153 L 96.28 80.2141 L 96.28 80.7117 L 96.28 81.2102 L 96.28 81.7074 L 96.28 82.2051 L 96.28 82.7031 L 96.28 83.2014 L 96.28 83.6998 L 96.28 84.1982 L 96.28 84.6964 L 96.28 85.1943 L 96.28 85.6917 L 96.28 86.1885 L 96.28 86.6864 L 96.28 87.1852 L 96.28 87.6829 L 96.28 88.1812 L 96.28 88.6798 L 96.28 89.177 L 96.28 89.6742 L 96.28 90.1713 L 96.28 90.6698 L 96.28 91.1677 L 96.28 91.665 L 96.28 92.1629 L 96.28 92.6614 L 96.28 93.1587 L 96.28 93.656 L 96.28 94.1548 L 96.28 94.6531 L 96.28 95.1509 L 96.28 95.6478 L 96.28 96.1452 L 96.28 96.6426 L 96.28 97.1413 L 96.28 97.6382 L 96.28 98.1358 L 96.28 98.6337 L 96.28 99.1316 L 96.28 99.6292 L 96.28 100.126 L 96.28 100.625 L 96.28 101.122 L 96.28 101.62 L 96.28 102.118 L 96.28 102.616 L 96.28 103.113 L 96.28 103.612 L 96.28 104.11 L 96.28 104.607 L 96.28 105.104 L 96.28 105.603 L 96.28 106.1 L 96.28 106.597 L 96.28 107.095 L 96.28 107.592 L 96.28 108.09 L 96.28 108.587 L 96.28 109.085 L 96.28 109.583 L 96.28 110.08 L 96.28 110.578 L 96.28 111.077 L 96.28 111.575 L 96.28 112.072 L 96.28 112.57 L 96.28 113.067 L 96.28 113.565 L 96.28 114.063 L 96.28 114.561 L 96.28 115.058 L 96.28 115.555 L 96.28 116.053 L 96.28 116.55 L 96.28 117.048 L 96.28 117.546 L 96.28 118.044 L 96.28 118.542 L 96.28 119.04 L 96.28 119.538 L 96.28 120.035 L 96.28 120.534 L 96.28 121.032 L 96.28 121.531 L 96.28 122.029 L 96.28 122.527 L 96.28 123.025 L 96.28 123.523 L 96.28 124.02 L 96.28 124.518 L 96.4264 124.871 L 96.78 125.018 L 97.2705 125.018 L 97.7599 125.018 L 98.2491 125.018 L 98.7392 125.018 L 99.2296 125.018 L 99.7192 125.018 L 100.209 125.018 L 100.7 125.018 L 101.189 125.018 L 101.679 125.018 L 102.169 125.018 L 102.658 125.018 L 103.148 125.018 L 103.639 125.018 L 103.993 124.871 L 104.139 124.518 L 104.139 124.021 L 104.139 123.525 L 104.139 123.029 L 104.139 122.533 L 104.139 122.035 L 104.139 121.538 L 104.139 121.042 L 104.139 120.545 L 104.139 120.049 L 104.139 119.553 L 104.139 119.056 L 104.139 118.559 L 104.139 118.063 L 104.139 117.567 L 104.139 117.07 L 104.139 116.574 L 104.139 116.078 L 104.139 115.581 L 104.139 115.085 L 104.139 114.588 L 104.139 114.091 L 104.139 113.594 L 104.139 113.097 L 104.139 112.6 L 104.139 112.103 L 104.139 111.606 L 104.139 111.109 L 104.139 110.612 L 104.139 110.116 L 104.139 109.619 L 104.139 109.122 L 104.139 108.625 L 104.139 108.128 L 104.139 107.631 L 104.139 107.135 L 104.139 106.638 L 104.139 106.14 L 104.215 105.757 L 104.432 105.433 L 104.756 105.216 L 105.139 105.14 L 105.639 105.14 L 106.14 105.14 L 106.639 105.14 L 107.139 105.14 L 107.639 105.14 L 108.139 105.14 L 108.639 105.14 L 109.139 105.14 L 109.638 105.14 L 110.138 105.14 L 110.638 105.14 L 111.138 105.14 L 111.637 105.14 L 112.138 105.14 L 112.638 105.14 L 113.138 105.14 L 113.638 105.14 L 114.139 105.14 L 114.639 105.14 L 115.14 105.14 L 115.639 105.14 L 116.139 105.14 L 116.639 105.14 L 117.022 105.216 L 117.346 105.433 L 117.563 105.757 L 117.639 106.14 L 117.639 106.636 L 117.639 107.133 L 117.639 107.629 L 117.639 108.125 L 117.639 108.623 L 117.639 109.119 L 117.639 109.615 L 117.639 110.113 L 117.639 110.609 L 117.639 111.105 L 117.639 111.601 L 117.639 112.099 L 117.639 112.595 L 117.639 113.091 L 117.639 113.587 L 117.639 114.084 L 117.639 114.58 L 117.639 115.076 L 117.639 115.573 L 117.639 116.07 L 117.639 116.567 L 117.639 117.063 L 117.639 117.561 L 117.639 118.058 L 117.639 118.554 L 117.639 119.052 L 117.639 119.549 L 117.639 120.046 L 117.639 120.542 L 117.639 121.039 L 117.639 121.536 L 117.639 122.033 L 117.639 122.53 L 117.639 123.026 L 117.639 123.523 L 117.639 124.02 L 117.639 124.518 L 117.785 124.871 L 118.139 125.018 L 118.139 125.018 M 116.639 153.14 L 116.139 153.14 L 115.638 153.14 L 115.139 153.14 L 114.639 153.14 L 114.139 153.14 L 113.639 153.14 L 113.139 153.14 L 112.639 153.14 L 112.14 153.14 L 111.64 153.14 L 111.14 153.14 L 110.64 153.14 L 110.141 153.14 L 109.64 153.14 L 109.14 153.14 L 108.64 153.14 L 108.14 153.14 L 107.639 153.14 L 107.139 153.14 L 106.638 153.14 L 106.139 153.14 L 105.639 153.14 L 105.139 153.14 L 104.756 153.064 L 104.432 152.847 L 104.215 152.523 L 104.139 152.14 L 104.139 151.653 L 104.139 151.167 L 104.139 150.68 L 104.139 150.194 L 104.139 149.708 L 104.139 149.221 L 104.139 148.735 L 104.139 148.248 L 104.139 147.761 L 104.139 147.275 L 104.139 146.789 L 104.139 146.303 L 104.139 145.818 L 104.139 145.332 L 104.139 144.845 L 104.139 144.359 L 104.139 143.873 L 104.139 143.386 L 104.139 142.899 L 104.139 142.413 L 104.139 141.928 L 104.139 141.441 L 104.139 140.955 L 104.139 140.468 L 104.139 139.981 L 104.139 139.495 L 104.139 139.008 L 104.139 138.522 L 104.139 138.036 L 104.139 137.549 L 104.139 137.063 L 104.139 136.578 L 104.139 136.092 L 104.139 135.605 L 104.139 135.118 L 104.139 134.633 L 103.993 134.279 L 103.639 134.133 L 103.148 134.133 L 102.659 134.133 L 102.17 134.133 L 101.68 134.133 L 101.189 134.133 L 100.7 134.133 L 100.21 134.133 L 99.7192 134.133 L 99.2302 134.133 L 98.7404 134.133 L 98.2502 134.133 L 97.7607 134.133 L 97.2709 134.133 L 96.78 134.133 L 96.4264 134.279 L 96.28 134.633 L 96.28 135.131 L 96.28 135.629 L 96.28 136.126 L 96.28 136.623 L 96.28 137.121 L 96.28 137.619 L 96.28 138.117 L 96.28 138.615 L 96.28 139.114 L 96.28 139.612 L 96.28 140.109 L 96.28 140.608 L 96.28 141.106 L 96.28 141.604 L 96.28 142.103 L 96.28 142.601 L 96.28 143.1 L 96.28 143.599 L 96.28 144.096 L 96.28 144.593 L 96.28 145.09 L 96.28 145.588 L 96.28 146.086 L 96.28 146.584 L 96.28 147.083 L 96.28 147.58 L 96.28 148.078 L 96.28 148.575 L 96.28 149.073 L 96.28 149.572 L 96.28 150.07 L 96.28 150.568 L 96.28 151.067 L 96.28 151.564 L 96.28 152.063 L 96.28 152.56 L 96.28 153.058 L 96.28 153.556 L 96.28 154.054 L 96.28 154.552 L 96.28 155.05 L 96.28 155.547 L 96.28 156.045 L 96.28 156.543 L 96.28 157.041 L 96.28 157.539 L 96.28 158.037 L 96.28 158.534 L 96.28 159.031 L 96.28 159.53 L 96.28 160.029 L 96.28 160.526 L 96.28 161.025 L 96.28 161.523 L 96.28 162.021 L 96.28 162.519 L 96.28 163.017 L 96.28 163.515 L 96.28 164.014 L 96.28 164.512 L 96.28 165.009 L 96.28 165.506 L 96.28 166.004 L 96.28 166.502 L 96.28 167 L 96.28 167.497 L 96.28 167.996 L 96.28 168.495 L 96.28 168.993 L 96.28 169.49 L 96.28 169.988 L 96.28 170.486 L 96.28 170.984 L 96.28 171.481 L 96.2039 171.864 L 95.9871 172.188 L 95.6627 172.405 L 95.28 172.481 L 94.7815 172.481 L 94.2838 172.481 L 93.7854 172.481 L 93.2864 172.481 L 92.7871 172.481 L 92.2881 172.481 L 91.79 172.481 L 91.2911 172.481 L 90.7918 172.481 L 90.2929 172.481 L 89.7942 172.481 L 89.2965 172.481 L 88.7981 172.481 L 88.2988 172.481 L 87.8002 172.481 L 87.3015 172.481 L 86.8039 172.481 L 86.3062 172.481 L 85.8071 172.481 L 85.3085 172.481 L 84.8098 172.481 L 84.3107 172.481 L 83.8128 172.481 L 83.3142 172.481 L 82.8155 172.481 L 82.317 172.481 L 81.8191 172.481 L 81.3198 172.481 L 80.8218 172.481 L 80.3229 172.481 L 79.8235 172.481 L 79.325 172.481 L 78.8264 172.481 L 78.328 172.481 L 77.8287 172.481 L 77.33 172.481 L 76.832 172.481 L 76.3324 172.481 L 75.834 172.481 L 75.3356 172.481 L 74.8373 172.481 L 74.338 172.481 L 73.8392 172.481 L 73.341 172.481 L 72.8422 172.481 L 72.3429 172.481 L 71.8446 172.481 L 71.3461 172.481 L 70.8474 172.481 L 70.3488 172.481 L 69.8503 172.481 L 69.3519 172.481 L 68.8526 172.481 L 68.3537 172.481 L 67.8553 172.481 L 67.3575 172.481 L 66.8591 172.481 L 66.3601 172.481 L 65.8621 172.481 L 65.3636 172.481 L 64.8649 172.481 L 64.3674 172.481 L 63.8684 172.481 L 63.3707 172.481 L 62.8719 172.481 L 62.3732 172.481 L 61.8747 172.481 L 61.3753 172.481 L 60.8775 172.481 L 60.379 172.481 L 59.8797 172.481 L 59.3811 172.481 L 58.8832 172.481 L 58.3849 172.481 L 57.8861 172.481 L 57.3871 172.481 L 56.8879 172.481 L 56.3886 172.481 L 55.8892 172.481 L 55.3899 172.481 L 54.8907 172.481 L 54.3917 172.481 L 53.893 172.481 L 53.3947 172.481 L 52.8968 172.481 L 52.3983 172.481 L 51.8992 172.481 L 51.4008 172.481 L 50.9032 172.481 L 50.4043 172.481 L 49.9062 172.481 L 49.407 172.481 L 48.9089 172.481 L 48.4099 172.481 L 47.9121 172.481 L 47.4135 172.481 L 46.9143 172.481 L 46.4167 172.481 L 45.9186 172.481 L 45.4201 172.481 L 44.9215 172.481 L 44.4227 172.481 L 43.9239 172.481 L 43.4252 172.481 L 42.9267 172.481 L 42.4286 172.481 L 41.931 172.481 L 41.4319 172.481 L 40.9336 172.481 L 40.4342 172.481 L 39.9358 172.481 L 39.4366 172.481 L 38.9386 172.481 L 38.4401 172.481 L 37.9412 172.481 L 37.4422 172.481 L 36.9432 172.481 L 36.4444 172.481 L 35.9458 172.481 L 35.4478 172.481 L 34.9486 172.481 L 34.4503 172.481 L 33.9514 172.481 L 33.4519 172.481 L 32.9539 172.481 L 32.4558 172.481 L 31.9578 172.481 L 31.4586 172.481 L 30.9601 172.481 L 30.4624 172.481 L 29.9642 172.481 L 29.4658 172.481 L 28.9674 172.481 L 28.4695 172.481 L 27.9707 172.481 L 27.4714 172.481 L 26.972 172.481 L 26.4727 172.481 L 25.9739 172.481 L 25.4759 172.481 L 24.9765 172.481 L 24.4786 172.481 L 23.98 172.481 L 23.4813 172.481 L 22.9827 172.481 L 22.4848 172.481 L 21.9857 172.481 L 21.4882 172.481 L 20.9905 172.481 L 20.4911 172.481 L 19.9926 172.481 L 19.4936 172.481 L 18.9947 172.481 L 18.4966 172.481 L 17.9981 172.481 L 17.4999 172.481 L 17.001 172.481 L 16.5023 172.481 L 16.0046 172.481 L 15.5055 172.481 L 15.0063 172.481 L 14.5079 172.481 L 14.0086 172.481 L 13.5096 172.481 L 13.0109 172.481 L 12.5126 172.481 L 12.0151 172.481 L 11.5162 172.481 L 11.0181 172.481 L 10.5205 172.481 L 10.0215 172.481 L 9.52371 172.481 L 9.02606 172.481 L 8.52813 172.481 L 8.03019 172.481 L 7.53163 172.481 L 7.03289 172.481 L 6.53407 172.481 L 6.03541 172.481 L 5.53662 172.481 L 5.03882 172.481 L 4.54044 172.481 L 4.04182 172.481 L 3.54285 172.481 L 3.04445 172.481 L 2.54551 172.481 L 2.04696 172.481 L 1.54904 172.481 L 1.05 172.481 L 0.6673 172.405 L 0.3429 172.188 L 0.1261 171.864 L 0.05 171.481 L 0.05 170.981 L 0.05 170.48 L 0.05 169.98 L 0.05 169.48 L 0.05 168.979 L 0.05 168.48 L 0.05 167.98 L 0.05 167.479 L 0.05 166.979 L 0.05 166.479 L 0.05 165.979 L 0.05 165.479 L 0.05 164.98 L 0.05 164.481 L 0.05 163.981 L 0.05 163.481 L 0.05 162.981 L 0.05 162.481 L 0.05 161.98 L 0.05 161.481 L 0.05 160.981 L 0.05 160.481 L 0.05 159.981 L 0.05 159.481 L 0.05 158.98 L 0.05 158.481 L 0.05 157.981 L 0.05 157.481 L 0.05 156.981 L 0.05 156.482 L 0.05 155.982 L 0.05 155.482 L 0.05 154.982 L 0.05 154.482 L 0.05 153.981 L 0.05 153.481 L 0.05 152.98 L 0.05 152.481 L 0.05 151.982 L 0.05 151.482 L 0.05 150.983 L 0.05 150.482 L 0.05 149.983 L 0.05 149.483 L 0.05 148.984 L 0.05 148.483 L 0.05 147.983 L 0.05 147.482 L 0.05 146.982 L 0.05 146.481 L 0.05 145.981 L 0.05 145.481 L 0.05 144.981 L 0.05 144.481 L 0.05 143.983 L 0.05 143.482 L 0.05 142.982 L 0.05 142.483 L 0.05 141.983 L 0.05 141.484 L 0.05 140.983 L 0.05 140.483 L 0.05 139.983 L 0.05 139.484 L 0.05 138.983 L 0.05 138.484 L 0.05 137.983 L 0.05 137.485 L 0.05 136.985 L 0.05 136.484 L 0.05 135.985 L 0.05 135.486 L 0.05 134.986 L 0.05 134.486 L 0.05 133.987 L 0.05 133.488 L 0.05 132.988 L 0.05 132.487 L 0.05 131.986 L 0.05 131.488 L 0.05 130.989 L 0.05 130.489 L 0.05 129.99 L 0.05 129.49 L 0.05 128.99 L 0.05 128.49 L 0.05 127.99 L 0.05 127.49 L 0.05 126.99 L 0.05 126.49 L 0.05 125.99 L 0.05 125.49 L 0.05 124.99 L 0.05 124.49 L 0.05 123.991 L 0.05 123.491 L 0.05 122.992 L 0.05 122.493 L 0.05 121.994 L 0.05 121.493 L 0.05 120.993 L 0.05 120.493 L 0.05 119.994 L 0.05 119.495 L 0.05 118.995 L 0.05 118.495 L 0.05 117.995 L 0.05 117.495 L 0.05 116.995 L 0.05 116.495 L 0.05 115.995 L 0.05 115.496 L 0.05 114.996 L 0.05 114.496 L 0.05 113.997 L 0.05 113.497 L 0.05 112.997 L 0.05 112.497 L 0.05 111.997 L 0.05 111.497 L 0.05 110.998 L 0.05 110.497 L 0.05 109.998 L 0.05 109.499 L 0.05 108.999 L 0.05 108.5 L 0.05 107.999 L 0.05 107.5 L 0.05 106.999 L 0.05 106.5 L 0.05 105.999 L 0.05 105.499 L 0.05 104.999 L 0.05 104.499 L 0.05 103.999 L 0.05 103.499 L 0.05 102.999 L 0.05 102.5 L 0.05 102 L 0.05 101.501 L 0.05 101.001 L 0.05 100.501 L 0.05 100.002 L 0.05 99.5016 L 0.05 99.0009 L 0.05 98.5016 L 0.05 98.0016 L 0.05 97.5008 L 0.05 97.0016 L 0.05 96.5017 L 0.05 96.0012 L 0.05 95.5023 L 0.05 95.0028 L 0.05 94.5028 L 0.05 94.0023 L 0.05 93.5034 L 0.05 93.0041 L 0.05 92.5043 L 0.05 92.0042 L 0.05 91.5038 L 0.05 91.0031 L 0.05 90.5041 L 0.05 90.0048 L 0.05 89.5053 L 0.05 89.0056 L 0.05 88.5058 L 0.05 88.0058 L 0.05 87.5056 L 0.05 87.0055 L 0.05 86.5052 L 0.05 86.005 L 0.05 85.5048 L 0.05 85.0046 L 0.05 84.5045 L 0.05 84.0045 L 0.05 83.5046 L 0.05 83.0049 L 0.05 82.5054 L 0.05 82.0061 L 0.05 81.5071 L 0.05 81.0065 L 0.05 80.5063 L 0.05 80.0064 L 0.05 79.5069 L 0.05 79.0078 L 0.05 78.5073 L 0.05 78.0073 L 0.05 77.5079 L 0.05 77.009 L 0.05 76.5089 L 0.05 76.0095 L 0.05 75.5107 L 0.05 75.0108 L 0.05 74.5117 L 0.05 74.0115 L 0.05 73.5122 L 0.05 73.012 L 0.05 72.5126 L 0.05 72.0125 L 0.05 71.5133 L 0.05 71.0134 L 0.05 70.5128 L 0.05 70.0134 L 0.05 69.5133 L 0.05 69.0144 L 0.05 68.515 L 0.05 68.0152 L 0.05 67.5151 L 0.05 67.0146 L 0.05 66.5155 L 0.05 66.0161 L 0.05 65.5166 L 0.05 65.017 L 0.05 64.5173 L 0.05 64.0176 L 0.05 63.5179 L 0.05 63.0184 L 0.05 62.519 L 0.05 62.0183 L 0.05 61.5178 L 0.05 61.0177 L 0.05 60.518 L 0.05 60.0187 L 0.05 59.5199 L 0.05 59.0202 L 0.05 58.5197 L 0.05 58.0198 L 0.05 57.5207 L 0.05 57.0209 L 0.05 56.5206 L 0.05 56.0213 L 0.05 55.5215 L 0.05 55.0214 L 0.05 54.5224 L 0.05 54.0218 L 0.05 53.5226 L 0.05 53.0219 L 0.05 52.5227 L 0.05 52.0223 L 0.05 51.5234 L 0.05 51.0236 L 0.05 50.5241 L 0.05 50.0251 L 0.05 49.5253 L 0.05 49.025 L 0.05 48.5254 L 0.05 48.0266 L 0.05 47.5275 L 0.05 47.0283 L 0.05 46.5288 L 0.05 46.0294 L 0.05 45.5302 L 0.05 45.0311 L 0.05 44.5312 L 0.05 44.0306 L 0.05 43.5306 L 0.05 43.0313 L 0.05 42.5305 L 0.05 42.0307 L 0.05 41.5319 L 0.05 41.0321 L 0.05 40.5315 L 0.05 40.0322 L 0.05 39.5325 L 0.05 39.0323 L 0.05 38.532 L 0.05 38.0315 L 0.05 37.5312 L 0.05 37.0312 L 0.05 36.5316 L 0.05 36.0325 L 0.05 35.5324 L 0.05 35.0332 L 0.05 34.5332 L 0.05 34.0328 L 0.05 33.5321 L 0.05 33.0331 L 0.05 32.5325 L 0.05 32.0322 L 0.05 31.5326 L 0.05 31.0337 L 0.05 30.5342 L 0.05 30.0344 L 0.05 29.5346 L 0.05 29.0349 L 0.05 28.5342 L 0.05 28.0344 L 0.05 27.5356 L 0.05 27.0366 L 0.05 26.5365 L 0.05 26.037 L 0.05 25.537 L 0.05 25.0369 L 0.05 24.5371 L 0.05 24.0368 L 0.05 23.5363 L 0.05 23.0361 L 0.05 22.5367 L 0.05 22.0361 L 0.05 21.5371 L 0.05 21.0381 L 0.05 20.5383 L 0.05 20.0384 L 0.05 19.538 L 0.05 19.0377 L 0.05 18.5383 L 0.05 18.0384 L 0.05 17.5388 L 0.05 17.0385 L 0.05 16.5384 L 0.05 16.0393 L 0.05 15.5388 L 0.05 15.0397 L 0.05 14.5397 L 0.05 14.0403 L 0.05 13.5411 L 0.05 13.042 L 0.05 12.5433 L 0.05 12.0438 L 0.05 11.5442 L 0.05 11.044 L 0.05 10.5443 L 0.05 10.0453 L 0.05 9.54527 L 0.05 9.04536 L 0.05 8.54515 L 0.05 8.04493 L 0.05 7.54567 L 0.05 7.04602 L 0.05 6.5461 L 0.05 6.04618 L 0.05 5.54598 L 0.05 5.04666 L 0.05 4.54668 L 0.05 4.04795 L 0.05 3.54842 L 0.05 3.04906 L 0.05 2.54887 L 0.05 2.04894 L 0.05 1.54975 L 0.05 1.05 L 0.1261 0.6673 L 0.3429 0.3429 L 0.6673 0.1261 L 1.05 0.05 L 1.5485 0.05 L 2.04621 0.05 L 2.54461 0.05 L 3.04356 0.05 L 3.54287 0.05 L 4.04193 0.05 L 4.54001 0.05 L 5.03892 0.05 L 5.53818 0.05 L 6.03706 0.05 L 6.53578 0.05 L 7.03354 0.05 L 7.53194 0.05 L 8.0312 0.05 L 8.52981 0.05 L 9.02851 0.05 L 9.52614 0.05 L 10.0238 0.05 L 10.5229 0.05 L 11.0215 0.05 L 11.5202 0.05 L 12.0193 0.05 L 12.5172 0.05 L 13.0158 0.05 L 13.5145 0.05 L 14.013 0.05 L 14.5109 0.05 L 15.0102 0.05 L 15.5082 0.05 L 16.0071 0.05 L 16.5065 0.05 L 17.005 0.05 L 17.5036 0.05 L 18.002 0.05 L 18.5013 0.05 L 19 0.05 L 19.498 0.05 L 19.9976 0.05 L 20.496 0.05 L 20.9944 0.05 L 21.4927 0.05 L 21.992 0.05 L 22.4908 0.05 L 22.989 0.05 L 23.4878 0.05 L 23.9871 0.05 L 24.4854 0.05 L 24.9839 0.05 L 25.4826 0.05 L 25.9812 0.05 L 26.4797 0.05 L 26.9781 0.05 L 27.4774 0.05 L 27.9763 0.05 L 28.4747 0.05 L 28.9725 0.05 L 29.4709 0.05 L 29.9699 0.05 L 30.4679 0.05 L 30.9664 0.05 L 31.4651 0.05 L 31.9626 0.05 L 32.4616 0.05 L 32.9593 0.05 L 33.4581 0.05 L 33.9568 0.05 L 34.4553 0.05 L 34.9547 0.05 L 35.4525 0.05 L 35.951 0.05 L 36.4503 0.05 L 36.9489 0.05 L 37.4468 0.05 L 37.9451 0.05 L 38.4439 0.05 L 38.9429 0.05 L 39.4421 0.05 L 39.9414 0.05 L 40.4408 0.05 L 40.9401 0.05 L 41.4393 0.05 L 41.9383 0.05 L 42.437 0.05 L 42.9353 0.05 L 43.4332 0.05 L 43.9317 0.05 L 44.4308 0.05 L 44.9292 0.05 L 45.4268 0.05 L 45.9257 0.05 L 46.4238 0.05 L 46.923 0.05 L 47.4211 0.05 L 47.9201 0.05 L 48.4179 0.05 L 48.9165 0.05 L 49.4157 0.05 L 49.9133 0.05 L 50.4114 0.05 L 50.9099 0.05 L 51.4085 0.05 L 51.9073 0.05 L 52.4061 0.05 L 52.9048 0.05 L 53.4033 0.05 L 53.9014 0.05 L 54.399 0.05 L 54.8981 0.05 L 55.3964 0.05 L 55.8958 0.05 L 56.3942 0.05 L 56.8934 0.05 L 57.3914 0.05 L 57.8899 0.05 L 58.3888 0.05 L 58.8878 0.05 L 59.3868 0.05 L 59.8856 0.05 L 60.3842 0.05 L 60.8822 0.05 L 61.3814 0.05 L 61.8797 0.05 L 62.3786 0.05 L 62.8781 0.05 L 63.3761 0.05 L 63.8742 0.05 L 64.3722 0.05 L 64.8714 0.05 L 65.3699 0.05 L 65.8676 0.05 L 66.3658 0.05 L 66.8642 0.05 L 67.3626 0.05 L 67.8605 0.05 L 68.3593 0.05 L 68.8586 0.05 L 69.358 0.05 L 69.8573 0.05 L 70.3561 0.05 L 70.8541 0.05 L 71.3535 0.05 L 71.8514 0.05 L 72.35 0.05 L 72.8487 0.05 L 73.3473 0.05 L 73.8452 0.05 L 74.3443 0.05 L 74.8418 0.05 L 75.3395 0.05 L 75.8389 0.05 L 76.3374 0.05 L 76.8364 0.05 L 77.3353 0.05 L 77.8334 0.05 L 78.3319 0.05 L 78.8301 0.05 L 79.329 0.05 L 79.8277 0.05 L 80.3254 0.05 L 80.8245 0.05 L 81.3237 0.05 L 81.8221 0.05 L 82.3214 0.05 L 82.8204 0.05 L 83.3191 0.05 L 83.8174 0.05 L 84.3149 0.05 L 84.8138 0.05 L 85.3119 0.05 L 85.8095 0.05 L 86.3085 0.05 L 86.8063 0.05 L 87.3039 0.05 L 87.8019 0.05 L 88.2998 0.05 L 88.7984 0.05 L 89.2971 0.05 L 89.7959 0.05 L 90.2946 0.05 L 90.7934 0.05 L 91.2912 0.05 L 91.7896 0.05 L 92.2882 0.05 L 92.7872 0.05 L 93.2856 0.05 L 93.7845 0.05 L 94.283 0.05 L 94.781 0.05 L 95.28 0.05 L 95.6627 0.1261 L 95.9871 0.3429 L 96.2039 0.6673 L 96.28 1.05 L 96.28 1.54544 L 96.28 2.04027 L 96.28 2.53526 L 96.28 3.03148 L 96.28 3.52799 L 96.28 4.02368 L 96.28 4.51882 L 96.28 5.01379 L 96.28 5.50927 L 96.28 6.00547 L 96.28 6.50152 L 96.28 6.99711 L 96.28 7.49237 L 96.28 7.98775 L 96.28 8.48399 L 96.28 8.97997 L 96.28 9.47675 L 96.28 9.97345 L 96.28 10.4693 L 96.28 10.9656 L 96.28 11.4617 L 96.28 11.957 L 96.28 12.4531 L 96.28 12.9492 L 96.28 13.4449 L 96.28 13.9398 L 96.28 14.4353 L 96.28 14.9309 L 96.28 15.4262 L 96.28 15.9226 L 96.28 16.4178 L 96.28 16.9131 L 96.28 17.4081 L 96.28 17.9042 L 96.28 18.4009 L 96.28 18.8975 L 96.28 19.3935 L 96.28 19.8884 L 96.28 20.3852 L 96.28 20.8814 L 96.28 21.3765 L 96.28 21.8714 L 96.28 22.367 L 96.28 22.8627 L 96.28 23.3591 L 96.28 23.8553 L 96.28 24.3505 L 96.28 24.8466 L 96.28 25.3425 L 96.28 25.8385 L 96.28 26.3335 L 96.28 26.8299 L 96.28 27.3262 L 96.28 27.8223 L 96.28 28.3186 L 96.28 28.8144 L 96.28 29.3099 L 96.28 29.805 L 96.28 30.3009 L 96.28 30.7967 L 96.28 31.2927 L 96.28 31.7886 L 96.28 32.285 L 96.28 32.7814 L 96.28 33.2777 L 96.28 33.7736 L 96.28 34.2694 L 96.28 34.7651 L 96.28 35.2608 L 96.28 35.7565 L 96.28 36.2522 L 96.28 36.7482 L 96.28 37.2442 L 96.28 37.7407 L 96.28 38.2372 L 96.28 38.7318 L 96.4264 39.0854 L 96.78 39.2318 L 97.267 39.2318 L 97.7528 39.2318 L 98.2384 39.2318 L 98.7249 39.2318 L 99.2118 39.2318 L 99.6978 39.2318 L 100.184 39.2318 L 100.671 39.2318 L 101.157 39.2318 L 101.643 39.2318 L 102.13 39.2318 L 102.615 39.2318 L 103.102 39.2318 L 103.589 39.2318 L 103.943 39.0854 L 104.089 38.7318 L 104.089 38.2421 L 104.089 37.752 L 104.089 37.2624 L 104.089 36.7725 L 104.089 36.2833 L 104.089 35.7929 L 104.089 35.3038 L 104.089 34.814 L 104.089 34.3237 L 104.089 33.8343 L 104.089 33.3448 L 104.089 32.8557 L 104.089 32.3652 L 104.089 31.8757 L 104.089 31.3854 L 104.089 30.8966 L 104.089 30.4077 L 104.089 29.9176 L 104.089 29.4274 L 104.089 28.9381 L 104.089 28.4495 L 104.089 27.9592 L 104.089 27.4699 L 104.089 26.9805 L 104.089 26.4902 L 104.089 26.0007 L 104.089 25.5106 L 104.089 25.0214 L 104.089 24.5318 L 104.089 24.0423 L 104.089 23.5529 L 104.089 23.0644 L 104.089 22.5758 L 104.089 22.0853 L 104.089 21.5951 L 104.089 21.107 L 104.165 20.7243 L 104.382 20.3999 L 104.706 20.1831 L 105.089 20.107 L 105.589 20.107 L 106.09 20.107 L 106.589 20.107 L 107.089 20.107 L 107.589 20.107 L 108.089 20.107 L 108.589 20.107 L 109.089 20.107 L 109.588 20.107 L 110.088 20.107 L 110.588 20.107 L 111.088 20.107 L 111.587 20.107 L 112.088 20.107 L 112.588 20.107 L 113.088 20.107 L 113.588 20.107 L 114.089 20.107 L 114.589 20.107 L 115.09 20.107 L 115.589 20.107 L 116.089 20.107 L 116.589 20.107 L 116.972 20.1831 L 117.296 20.3999 L 117.513 20.7243 L 117.589 21.107 L 117.589 21.5968 L 117.589 22.0869 L 117.589 22.5765 L 117.589 23.0663 L 117.589 23.5555 L 117.589 24.0459 L 117.589 24.535 L 117.589 25.0249 L 117.589 25.5152 L 117.589 26.0045 L 117.589 26.494 L 117.589 26.9832 L 117.589 27.4736 L 117.589 27.9631 L 117.589 28.4534 L 117.589 28.9423 L 117.589 29.4312 L 117.589 29.9212 L 117.589 30.4114 L 117.589 30.9008 L 117.589 31.3893 L 117.589 31.8796 L 117.589 32.369 L 117.589 32.8583 L 117.589 33.3486 L 117.589 33.8382 L 117.589 34.3282 L 117.589 34.8175 L 117.589 35.3071 L 117.589 35.7966 L 117.589 36.286 L 117.589 36.7744 L 117.589 37.263 L 117.589 37.7536 L 117.589 38.2437 L 117.589 38.7318 L 117.735 39.0854 L 118.089 39.2318 L 118.572 39.2318 L 119.054 39.2318 L 119.535 39.2318 L 120.018 39.2318 L 120.501 39.2318 L 120.983 39.2318 L 121.465 39.2318 L 121.948 39.2318 L 122.43 39.2318 L 122.912 39.2318 L 123.394 39.2318 L 123.876 39.2318 L 124.359 39.2318 L 124.842 39.2318 L 125.195 39.0854 L 125.342 38.7318 L 125.342 38.2372 L 125.342 37.7432 L 125.342 37.249 L 125.342 36.7536 L 125.342 36.2579 L 125.342 35.7631 L 125.342 35.2687 L 125.342 34.7746 L 125.342 34.2799 L 125.342 33.7845 L 125.342 33.2893 L 125.342 32.7945 L 125.342 32.3001 L 125.342 31.8055 L 125.342 31.3101 L 125.342 30.8149 L 125.342 30.3189 L 125.342 29.8231 L 125.342 29.328 L 125.342 28.8325 L 125.342 28.3372 L 125.342 27.8427 L 125.342 27.3475 L 125.342 26.8522 L 125.342 26.3573 L 125.342 25.8632 L 125.342 25.3686 L 125.342 24.8738 L 125.342 24.3793 L 125.342 23.8837 L 125.342 23.3893 L 125.342 22.8948 L 125.342 22.4006 L 125.342 21.9053 L 125.342 21.4095 L 125.342 20.9137 L 125.342 20.4185 L 125.342 19.9244 L 125.342 19.4284 L 125.342 18.933 L 125.342 18.4388 L 125.342 17.9447 L 125.342 17.4498 L 125.342 16.955 L 125.342 16.4594 L 125.342 15.964 L 125.342 15.4696 L 125.342 14.9744 L 125.342 14.4792 L 125.342 13.984 L 125.342 13.4899 L 125.342 12.9943 L 125.342 12.4988 L 125.342 12.0036 L 125.342 11.5081 L 125.342 11.013 L 125.342 10.5183 L 125.342 10.0241 L 125.342 9.529 L 125.342 9.03401 L 125.342 8.53881 L 125.342 8.0437 L 125.342 7.54814 L 125.342 7.05257 L 125.342 6.55711 L 125.342 6.06201 L 125.342 5.56699 L 125.342 5.07218 L 125.342 4.57722 L 125.342 4.08237 L 125.342 3.5875 L 125.342 3.09232 L 125.342 2.59712 L 125.342 2.10138 L 125.342 1.6057 L 125.342 1.1119 L 125.418 0.7292 L 125.635 0.4048 L 125.959 0.188 L 126.342 0.1119 L 126.84 0.1119 L 127.338 0.1119 L 127.837 0.1119 L 128.335 0.1119 L 128.835 0.1119 L 129.334 0.1119 L 129.832 0.1119 L 130.331 0.1119 L 130.83 0.1119 L 131.329 0.1119 L 131.828 0.1119 L 132.325 0.1119 L 132.824 0.1119 L 133.323 0.1119 L 133.822 0.1119 L 134.32 0.1119 L 134.818 0.1119 L 135.316 0.1119 L 135.815 0.1119 L 136.313 0.1119 L 136.812 0.1119 L 137.311 0.1119 L 137.809 0.1119 L 138.308 0.1119 L 138.806 0.1119 L 139.305 0.1119 L 139.803 0.1119 L 140.302 0.1119 L 140.8 0.1119 L 141.299 0.1119 L 141.798 0.1119 L 142.297 0.1119 L 142.795 0.1119 L 143.294 0.1119 L 143.793 0.1119 L 144.292 0.1119 L 144.79 0.1119 L 145.289 0.1119 L 145.788 0.1119 L 146.286 0.1119 L 146.785 0.1119 L 147.284 0.1119 L 147.783 0.1119 L 148.281 0.1119 L 148.78 0.1119 L 149.279 0.1119 L 149.777 0.1119 L 150.276 0.1119 L 150.774 0.1119 L 151.273 0.1119 L 151.772 0.1119 L 152.27 0.1119 L 152.769 0.1119 L 153.268 0.1119 L 153.767 0.1119 L 154.264 0.1119 L 154.763 0.1119 L 155.262 0.1119 L 155.76 0.1119 L 156.258 0.1119 L 156.757 0.1119 L 157.255 0.1119 L 157.753 0.1119 L 158.251 0.1119 L 158.75 0.1119 L 159.249 0.1119 L 159.747 0.1119 L 160.247 0.1119 L 160.744 0.1119 L 161.243 0.1119 L 161.742 0.1119 L 162.241 0.1119 L 162.739 0.1119 L 163.237 0.1119 L 163.736 0.1119 L 164.235 0.1119 L 164.734 0.1119 L 165.233 0.1119 L 165.733 0.1119 L 166.232 0.1119 L 166.731 0.1119 L 167.23 0.1119 L 167.729 0.1119 L 168.227 0.1119 L 168.725 0.1119 L 169.224 0.1119 L 169.723 0.1119 L 170.221 0.1119 L 170.719 0.1119 L 171.218 0.1119 L 171.716 0.1119 L 172.215 0.1119 L 172.713 0.1119 L 173.212 0.1119 L 173.71 0.1119 L 174.208 0.1119 L 174.708 0.1119 L 175.205 0.1119 L 175.703 0.1119 L 176.202 0.1119 L 176.7 0.1119 L 177.199 0.1119 L 177.698 0.1119 L 178.197 0.1119 L 178.695 0.1119 L 179.193 0.1119 L 179.691 0.1119 L 180.19 0.1119 L 180.688 0.1119 L 181.188 0.1119 L 181.686 0.1119 L 182.185 0.1119 L 182.683 0.1119 L 183.182 0.1119 L 183.681 0.1119 L 184.18 0.1119 L 184.679 0.1119 L 185.178 0.1119 L 185.676 0.1119 L 186.174 0.1119 L 186.673 0.1119 L 187.172 0.1119 L 187.671 0.1119 L 188.17 0.1119 L 188.668 0.1119 L 189.166 0.1119 L 189.664 0.1119 L 190.163 0.1119 L 190.662 0.1119 L 191.16 0.1119 L 191.658 0.1119 L 192.156 0.1119 L 192.654 0.1119 L 193.152 0.1119 L 193.651 0.1119 L 194.151 0.1119 L 194.65 0.1119 L 195.149 0.1119 L 195.648 0.1119 L 196.146 0.1119 L 196.645 0.1119 L 197.143 0.1119 L 197.642 0.1119 L 198.141 0.1119 L 198.639 0.1119 L 199.137 0.1119 L 199.636 0.1119 L 200.134 0.1119 L 200.631 0.1119 L 201.131 0.1119 L 201.629 0.1119 L 202.128 0.1119 L 202.627 0.1119 L 203.125 0.1119 L 203.624 0.1119 L 204.122 0.1119 L 204.621 0.1119 L 205.12 0.1119 L 205.617 0.1119 L 206.116 0.1119 L 206.616 0.1119 L 207.114 0.1119 L 207.613 0.1119 L 208.112 0.1119 L 208.611 0.1119 L 209.109 0.1119 L 209.607 0.1119 L 210.106 0.1119 L 210.604 0.1119 L 211.101 0.1119 L 211.6 0.1119 L 212.098 0.1119 L 212.596 0.1119 L 213.094 0.1119 L 213.592 0.1119 L 214.09 0.1119 L 214.589 0.1119 L 215.088 0.1119 L 215.586 0.1119 L 216.085 0.1119 L 216.583 0.1119 L 217.081 0.1119 L 217.58 0.1119 L 218.079 0.1119 L 218.577 0.1119 L 219.076 0.1119 L 219.575 0.1119 L 220.073 0.1119 L 220.572 0.1119 L 220.955 0.188 L 221.107 0.2896 L 221.279 0.4048 L 221.496 0.7292 L 221.572 1.1119 L 221.572 1.61221 L 221.572 2.11247 L 221.572 2.6127 L 221.572 3.11314 L 221.572 3.61351 L 221.572 4.11309 L 221.572 4.61276 L 221.572 5.11346 L 221.572 5.61412 L 221.572 6.11388 L 221.572 6.61428 L 221.572 7.11383 L 221.572 7.61286 L 221.572 8.11226 L 221.572 8.61185 L 221.572 9.11175 L 221.572 9.61228 L 221.572 10.1124 L 221.572 10.6127 L 221.572 11.1124 L 221.572 11.6123 L 221.572 12.1118 L 221.572 12.612 L 221.572 13.1124 L 221.572 13.6124 L 221.572 14.1117 L 221.572 14.6115 L 221.572 15.1115 L 221.572 15.6114 L 221.572 16.1109 L 221.572 16.6114 L 221.572 17.1109 L 221.572 17.6109 L 221.572 18.1113 L 221.572 18.6119 L 221.572 19.1123 L 221.572 19.6125 L 221.572 20.1121 L 221.572 20.6111 L 221.572 21.1112 L 221.572 21.6104 L 221.572 22.1104 L 221.572 22.6102 L 221.572 23.1095 L 221.572 23.6093 L 221.572 24.1095 L 221.572 24.6099 L 221.572 25.1105 L 221.572 25.6111 L 221.572 26.1117 L 221.572 26.6121 L 221.572 27.1123 L 221.572 27.6121 L 221.572 28.1115 L 221.572 28.6103 L 221.572 29.1107 L 221.572 29.6105 L 221.572 30.1095 L 221.572 30.6098 L 221.572 31.1093 L 221.572 31.61 L 221.572 32.1097 L 221.572 32.6094 L 221.572 33.1091 L 221.572 33.6098 L 221.572 34.1091 L 221.572 34.6094 L 221.572 35.1083 L 221.572 35.608 L 221.572 36.1085 L 221.572 36.6074 L 221.572 37.107 L 221.572 37.6072 L 221.572 38.1068 L 221.572 38.6058 L 221.572 39.1053 L 221.572 39.6053 L 221.572 40.1057 L 221.572 40.6065 L 221.572 41.1052 L 221.572 41.6043 L 221.572 42.1036 L 221.572 42.6032 L 221.572 43.1029 L 221.572 43.6028 L 221.572 44.1028 L 221.572 44.6028 L 221.572 45.103 L 221.572 45.6031 L 221.572 46.1032 L 221.572 46.6033 L 221.572 47.1033 L 221.572 47.6031 L 221.572 48.1028 L 221.572 48.6024 L 221.572 49.1017 L 221.572 49.6008 L 221.572 50.0997 L 221.572 50.5994 L 221.572 51.0999 L 221.572 51.6001 L 221.572 52.0999 L 221.572 52.5993 L 221.572 53.0983 L 221.572 53.598 L 221.572 54.0984 L 221.572 54.5982 L 221.572 55.0975 L 221.572 55.5974 L 221.572 56.0979 L 221.572 56.5977 L 221.572 57.0969 L 221.572 57.5966 L 221.572 58.0968 L 221.572 58.5963 L 221.572 59.0961 L 221.572 59.5963 L 221.572 60.0958 L 221.572 60.5956 L 221.572 61.0957 L 221.572 61.5949 L 221.572 62.0955 L 221.572 62.5953 L 221.572 63.0941 L 221.572 63.5942 L 221.572 64.0934 L 221.572 64.5938 L 221.572 65.0931 L 221.572 65.5937 L 221.572 66.0933 L 221.572 66.5939 L 221.572 67.0935 L 221.572 67.5942 L 221.572 68.0937 L 221.572 68.5943 L 221.572 69.0936 L 221.572 69.594 L 221.572 70.0931 L 221.572 70.5932 L 221.572 71.092 L 221.572 71.5916 L 221.572 72.0921 L 221.572 72.5913 L 221.572 73.0913 L 221.572 73.592 L 221.572 74.0913 L 221.572 74.5913 L 221.572 75.0921 L 221.572 75.5913 L 221.572 76.0912 L 221.572 76.5917 L 221.572 77.0906 L 221.572 77.5901 L 221.572 78.0901 L 221.572 78.5906 L 221.572 79.0895 L 221.572 79.5888 L 221.572 80.0886 L 221.572 80.5887 L 221.572 81.0891 L 221.572 81.5898 L 221.572 82.0888 L 221.572 82.5881 L 221.572 83.0876 L 221.572 83.5873 L 221.572 84.0871 L 221.572 84.5871 L 221.572 85.0873 L 221.572 85.5874 L 221.572 86.0877 L 221.572 86.5879 L 221.572 87.0881 L 221.572 87.5883 L 221.572 88.0884 L 221.572 88.5884 L 221.572 89.0883 L 221.572 89.588 L 221.572 90.0875 L 221.572 90.5868 L 221.572 91.0858 L 221.572 91.5864 L 221.572 92.0866 L 221.572 92.5865 L 221.572 93.086 L 221.572 93.5851 L 221.572 94.0856 L 221.572 94.5856 L 221.572 95.085 L 221.572 95.5839 L 221.572 96.084 L 221.572 96.5834 L 221.572 97.0822 L 221.572 97.5821 L 221.572 98.0812 L 221.572 98.5814 L 221.572 99.0807 L 221.572 99.5809 L 221.572 100.08 L 221.572 100.58 L 221.572 101.08 L 221.572 101.579 L 221.572 102.08 L 221.572 102.58 L 221.572 103.08 L 221.572 103.578 L 221.572 104.078 L 221.572 104.578 L 221.572 105.078 L 221.572 105.578 L 221.572 106.077 L 221.572 106.577 L 221.572 107.076 L 221.572 107.576 L 221.572 108.076 L 221.572 108.575 L 221.572 109.075 L 221.572 109.575 L 221.572 110.074 L 221.572 110.575 L 221.572 111.075 L 221.572 111.575 L 221.572 112.075 L 221.572 112.574 L 221.572 113.073 L 221.572 113.573 L 221.572 114.073 L 221.572 114.573 L 221.572 115.072 L 221.572 115.572 L 221.572 116.072 L 221.572 116.572 L 221.572 117.071 L 221.572 117.572 L 221.572 118.071 L 221.572 118.571 L 221.572 119.07 L 221.572 119.571 L 221.572 120.07 L 221.572 120.571 L 221.572 121.069 L 221.572 121.569 L 221.572 122.069 L 221.572 122.568 L 221.572 123.068 L 221.572 123.568 L 221.572 124.067 L 221.572 124.566 L 221.572 125.065 L 221.572 125.565 L 221.572 126.064 L 221.572 126.563 L 221.572 127.063 L 221.572 127.562 L 221.572 128.062 L 221.572 128.562 L 221.572 129.062 L 221.572 129.562 L 221.572 130.062 L 221.572 130.562 L 221.572 131.061 L 221.572 131.561 L 221.572 132.061 L 221.572 132.561 L 221.572 133.06 L 221.572 133.561 L 221.572 134.061 L 221.572 134.561 L 221.572 135.062 L 221.572 135.562 L 221.572 136.061 L 221.572 136.56 L 221.572 137.061 L 221.572 137.56 L 221.572 138.06 L 221.572 138.56 L 221.572 139.061 L 221.572 139.56 L 221.572 140.06 L 221.572 140.561 L 221.572 141.06 L 221.572 141.559 L 221.572 142.059 L 221.572 142.558 L 221.572 143.058 L 221.572 143.558 L 221.572 144.059 L 221.572 144.559 L 221.572 145.057 L 221.572 145.556 L 221.572 146.056 L 221.572 146.556 L 221.572 147.056 L 221.572 147.556 L 221.572 148.056 L 221.572 148.556 L 221.572 149.057 L 221.572 149.557 L 221.572 150.056 L 221.572 150.557 L 221.572 151.056 L 221.572 151.555 L 221.572 152.055 L 221.572 152.555 L 221.572 153.055 L 221.572 153.555 L 221.572 154.055 L 221.572 154.555 L 221.572 155.054 L 221.572 155.554 L 221.572 156.055 L 221.572 156.554 L 221.572 157.054 L 221.572 157.553 L 221.572 158.053 L 221.572 158.553 L 221.572 159.052 L 221.572 159.551 L 221.572 160.05 L 221.572 160.549 L 221.572 161.049 L 221.572 161.549 L 221.572 162.049 L 221.572 162.548 L 221.572 163.048 L 221.572 163.548 L 221.572 164.048 L 221.572 164.548 L 221.572 165.047 L 221.572 165.547 L 221.572 166.047 L 221.572 166.547 L 221.572 167.047 L 221.572 167.546 L 221.572 168.046 L 221.572 168.545 L 221.572 169.044 L 221.572 169.544 L 221.572 170.044 L 221.572 170.544 L 221.572 171.043 L 221.572 171.543 L 221.496 171.926 L 221.279 172.25 L 220.955 172.467 L 220.572 172.543 L 220.073 172.543 L 219.576 172.543 L 219.077 172.543 L 218.578 172.543 L 218.079 172.543 L 217.58 172.543 L 217.082 172.543 L 216.583 172.543 L 216.084 172.543 L 215.585 172.543 L 215.086 172.543 L 214.588 172.543 L 214.09 172.543 L 213.591 172.543 L 213.092 172.543 L 212.593 172.543 L 212.096 172.543 L 211.598 172.543 L 211.099 172.543 L 210.6 172.543 L 210.102 172.543 L 209.603 172.543 L 209.105 172.543 L 208.606 172.543 L 208.107 172.543 L 207.609 172.543 L 207.111 172.543 L 206.612 172.543 L 206.114 172.543 L 205.615 172.543 L 205.115 172.543 L 204.617 172.543 L 204.118 172.543 L 203.62 172.543 L 203.121 172.543 L 202.622 172.543 L 202.124 172.543 L 201.624 172.543 L 201.126 172.543 L 200.627 172.543 L 200.129 172.543 L 199.63 172.543 L 199.131 172.543 L 198.633 172.543 L 198.134 172.543 L 197.635 172.543 L 197.136 172.543 L 196.638 172.543 L 196.139 172.543 L 195.641 172.543 L 195.142 172.543 L 194.644 172.543 L 194.145 172.543 L 193.646 172.543 L 193.147 172.543 L 192.649 172.543 L 192.151 172.543 L 191.652 172.543 L 191.154 172.543 L 190.656 172.543 L 190.157 172.543 L 189.659 172.543 L 189.16 172.543 L 188.663 172.543 L 188.164 172.543 L 187.665 172.543 L 187.167 172.543 L 186.667 172.543 L 186.169 172.543 L 185.671 172.543 L 185.172 172.543 L 184.673 172.543 L 184.175 172.543 L 183.677 172.543 L 183.178 172.543 L 182.679 172.543 L 182.18 172.543 L 181.68 172.543 L 181.181 172.543 L 180.682 172.543 L 180.183 172.543 L 179.684 172.543 L 179.185 172.543 L 178.687 172.543 L 178.189 172.543 L 177.69 172.543 L 177.191 172.543 L 176.693 172.543 L 176.195 172.543 L 175.696 172.543 L 175.198 172.543 L 174.699 172.543 L 174.201 172.543 L 173.702 172.543 L 173.204 172.543 L 172.705 172.543 L 172.206 172.543 L 171.709 172.543 L 171.21 172.543 L 170.712 172.543 L 170.213 172.543 L 169.715 172.543 L 169.216 172.543 L 168.717 172.543 L 168.219 172.543 L 167.721 172.543 L 167.223 172.543 L 166.724 172.543 L 166.226 172.543 L 165.726 172.543 L 165.228 172.543 L 164.728 172.543 L 164.23 172.543 L 163.732 172.543 L 163.233 172.543 L 162.734 172.543 L 162.235 172.543 L 161.736 172.543 L 161.238 172.543 L 160.74 172.543 L 160.241 172.543 L 159.742 172.543 L 159.243 172.543 L 158.744 172.543 L 158.246 172.543 L 157.748 172.543 L 157.25 172.543 L 156.751 172.543 L 156.252 172.543 L 155.754 172.543 L 155.256 172.543 L 154.758 172.543 L 154.259 172.543 L 153.761 172.543 L 153.263 172.543 L 152.763 172.543 L 152.264 172.543 L 151.765 172.543 L 151.266 172.543 L 150.768 172.543 L 150.268 172.543 L 149.77 172.543 L 149.272 172.543 L 148.773 172.543 L 148.275 172.543 L 147.777 172.543 L 147.278 172.543 L 146.78 172.543 L 146.282 172.543 L 145.783 172.543 L 145.284 172.543 L 144.785 172.543 L 144.287 172.543 L 143.789 172.543 L 143.29 172.543 L 142.792 172.543 L 142.293 172.543 L 141.794 172.543 L 141.296 172.543 L 140.797 172.543 L 140.298 172.543 L 139.8 172.543 L 139.3 172.543 L 138.801 172.543 L 138.303 172.543 L 137.805 172.543 L 137.307 172.543 L 136.808 172.543 L 136.31 172.543 L 135.812 172.543 L 135.313 172.543 L 134.816 172.543 L 134.318 172.543 L 133.82 172.543 L 133.322 172.543 L 132.824 172.543 L 132.325 172.543 L 131.826 172.543 L 131.327 172.543 L 130.829 172.543 L 130.331 172.543 L 129.832 172.543 L 129.334 172.543 L 128.835 172.543 L 128.336 172.543 L 127.837 172.543 L 127.339 172.543 L 126.841 172.543 L 126.342 172.543 L 125.959 172.467 L 125.635 172.25 L 125.418 171.926 L 125.342 171.543 L 125.342 171.044 L 125.342 170.546 L 125.342 170.047 L 125.342 169.549 L 125.342 169.051 L 125.342 168.552 L 125.342 168.053 L 125.342 167.554 L 125.342 167.054 L 125.342 166.556 L 125.342 166.058 L 125.342 165.558 L 125.342 165.059 L 125.342 164.56 L 125.342 164.06 L 125.342 163.561 L 125.342 163.061 L 125.342 162.562 L 125.342 162.064 L 125.342 161.566 L 125.342 161.068 L 125.342 160.569 L 125.342 160.07 L 125.342 159.572 L 125.342 159.072 L 125.342 158.574 L 125.342 158.075 L 125.342 157.577 L 125.342 157.078 L 125.342 156.579 L 125.342 156.08 L 125.342 155.581 L 125.342 155.081 L 125.342 154.583 L 125.342 154.084 L 125.342 153.585 L 125.342 153.087 L 125.342 152.588 L 125.342 152.089 L 125.342 151.59 L 125.342 151.092 L 125.342 150.594 L 125.342 150.095 L 125.342 149.596 L 125.342 149.097 L 125.342 148.598 L 125.342 148.099 L 125.342 147.602 L 125.342 147.103 L 125.342 146.604 L 125.342 146.104 L 125.342 145.606 L 125.342 145.107 L 125.342 144.607 L 125.342 144.109 L 125.342 143.61 L 125.342 143.111 L 125.342 142.612 L 125.342 142.113 L 125.342 141.614 L 125.342 141.116 L 125.342 140.618 L 125.342 140.119 L 125.342 139.62 L 125.342 139.121 L 125.342 138.623 L 125.342 138.124 L 125.342 137.624 L 125.342 137.125 L 125.342 136.627 L 125.342 136.129 L 125.342 135.63 L 125.342 135.131 L 125.342 134.633 L 125.195 134.279 L 124.842 134.133 L 124.363 134.133 L 123.884 134.133 L 123.406 134.133 L 122.927 134.133 L 122.448 134.133 L 121.97 134.133 L 121.491 134.133 L 121.011 134.133 L 120.533 134.133 L 120.055 134.133 L 119.576 134.133 L 119.097 134.133 L 118.619 134.133 L 118.139 134.133 L 117.785 134.279 L 117.639 134.633 L 117.639 135.119 L 117.639 135.606 L 117.639 136.093 L 117.639 136.579 L 117.639 137.065 L 117.639 137.552 L 117.639 138.038 L 117.639 138.525 L 117.639 139.012 L 117.639 139.498 L 117.639 139.984 L 117.639 140.47 L 117.639 140.955 L 117.639 141.441 L 117.639 141.928 L 117.639 142.414 L 117.639 142.9 L 117.639 143.387 L 117.639 143.874 L 117.639 144.36 L 117.639 144.845 L 117.639 145.332 L 117.639 145.818 L 117.639 146.305 L 117.639 146.792 L 117.639 147.278 L 117.639 147.765 L 117.639 148.251 L 117.639 148.737 L 117.639 149.224 L 117.639 149.71 L 117.639 150.195 L 117.639 150.681 L 117.639 151.168 L 117.639 151.655 L 117.639 152.14 L 117.563 152.523 L 117.346 152.847 L 117.022 153.064 L 116.639 153.14 L 116.639 153.14"
     sodipodi:nodetypes="ccccccccccccccccccccccccccccccccccccccccccccccccccccccccccccccccccc" />
  <metadata
     id="metadata2459">
    <rdf:RDF>
      <cc:Work
         rdf:about="">
        <dc:title>SVG Image created as accelerator-brd.svg date 2024/06/08 21:26:16 </dc:title>
      </cc:Work>
    </rdf:RDF>
  </metadata>
</svg>
