999
"DXF R12 Output" (www.mydxf.blogspot.com)
 0 
SECTION
 2 
HEADER
 9 
$ACADVER
 1 
AC1009
 9 
$EXTMIN
 10 
 0 
 20 
 0 
 9 
$EXTMAX
 10 
 8.5 
 20 
 11 
 0 
ENDSEC
 0 
SECTION
 2 
ENTITIES
0
LINE
8
switch_pitch_right
10
129.104990
20
38.605290
11
110.054990
21
38.605290
0
LINE
8
switch_pitch_right
10
129.104990
20
57.655290
11
129.104990
21
38.605290
0
LINE
8
switch_pitch_right
10
110.054990
20
38.605290
11
110.054990
21
57.655290
0
LINE
8
switch_pitch_right
10
110.054990
20
57.655290
11
129.104990
21
57.655290
0
LINE
8
switch_pitch_right
10
171.984990
20
76.700090
11
133.884990
21
76.700090
0
LINE
8
switch_pitch_right
10
171.984990
20
95.750090
11
171.984990
21
76.700090
0
LINE
8
switch_pitch_right
10
133.884990
20
76.700090
11
133.884990
21
95.750090
0
LINE
8
switch_pitch_right
10
133.884990
20
95.750090
11
171.984990
21
95.750090
0
LINE
8
switch_pitch_right
10
29.109989
20
57.670090
11
10.059989
21
57.670090
0
LINE
8
switch_pitch_right
10
29.109989
20
76.720090
11
29.109989
21
57.670090
0
LINE
8
switch_pitch_right
10
10.059989
20
57.670090
11
10.059989
21
76.720090
0
LINE
8
switch_pitch_right
10
10.059989
20
76.720090
11
29.109989
21
76.720090
0
LINE
8
switch_pitch_right
10
19.599989
20
76.730090
11
0.549989
21
76.730090
0
LINE
8
switch_pitch_right
10
19.599989
20
95.780090
11
19.599989
21
76.730090
0
LINE
8
switch_pitch_right
10
0.549989
20
76.730090
11
0.549989
21
95.780090
0
LINE
8
switch_pitch_right
10
0.549989
20
95.780090
11
19.599989
21
95.780090
0
LINE
8
switch_pitch_right
10
105.304990
20
57.665290
11
86.254990
21
57.665290
0
LINE
8
switch_pitch_right
10
105.304990
20
76.715290
11
105.304990
21
57.665290
0
LINE
8
switch_pitch_right
10
86.254990
20
57.665290
11
86.254990
21
76.715290
0
LINE
8
switch_pitch_right
10
86.254990
20
76.715290
11
105.304990
21
76.715290
0
LINE
8
switch_pitch_right
10
114.849990
20
76.700090
11
95.799990
21
76.700090
0
LINE
8
switch_pitch_right
10
114.849990
20
95.750090
11
114.849990
21
76.700090
0
LINE
8
switch_pitch_right
10
95.799990
20
76.700090
11
95.799990
21
95.750090
0
LINE
8
switch_pitch_right
10
95.799990
20
95.750090
11
114.849990
21
95.750090
0
LINE
8
switch_pitch_right
10
152.943690
20
19.570090
11
119.606190
21
19.570090
0
LINE
8
switch_pitch_right
10
152.943690
20
38.620090
11
152.943690
21
19.570090
0
LINE
8
switch_pitch_right
10
119.606190
20
19.570090
11
119.606190
21
38.620090
0
LINE
8
switch_pitch_right
10
119.606190
20
38.620090
11
152.943690
21
38.620090
0
LINE
8
switch_pitch_right
10
171.989990
20
19.560090
11
152.939990
21
19.560090
0
LINE
8
switch_pitch_right
10
171.989990
20
38.610090
11
171.989990
21
19.560090
0
LINE
8
switch_pitch_right
10
152.939990
20
19.560090
11
152.939990
21
38.610090
0
LINE
8
switch_pitch_right
10
152.939990
20
38.610090
11
171.989990
21
38.610090
0
LINE
8
switch_pitch_right
10
124.376190
20
0.535290
11
100.563690
21
0.535290
0
LINE
8
switch_pitch_right
10
124.376190
20
19.585290
11
124.376190
21
0.535290
0
LINE
8
switch_pitch_right
10
100.563690
20
0.535290
11
100.563690
21
19.585290
0
LINE
8
switch_pitch_right
10
100.563690
20
19.585290
11
124.376190
21
19.585290
0
LINE
8
switch_pitch_right
10
143.389990
20
57.660090
11
124.339990
21
57.660090
0
LINE
8
switch_pitch_right
10
143.389990
20
76.710090
11
143.389990
21
57.660090
0
LINE
8
switch_pitch_right
10
124.339990
20
57.660090
11
124.339990
21
76.710090
0
LINE
8
switch_pitch_right
10
124.339990
20
76.710090
11
143.389990
21
76.710090
0
LINE
8
switch_pitch_right
10
95.779990
20
76.730090
11
76.729990
21
76.730090
0
LINE
8
switch_pitch_right
10
95.779990
20
95.780090
11
95.779990
21
76.730090
0
LINE
8
switch_pitch_right
10
76.729990
20
76.730090
11
76.729990
21
95.780090
0
LINE
8
switch_pitch_right
10
76.729990
20
95.780090
11
95.779990
21
95.780090
0
LINE
8
switch_pitch_right
10
86.244990
20
57.645290
11
67.194990
21
57.645290
0
LINE
8
switch_pitch_right
10
86.244990
20
76.695290
11
86.244990
21
57.645290
0
LINE
8
switch_pitch_right
10
67.194990
20
57.645290
11
67.194990
21
76.695290
0
LINE
8
switch_pitch_right
10
67.194990
20
76.695290
11
86.244990
21
76.695290
0
LINE
8
switch_pitch_right
10
119.599990
20
19.560090
11
100.549990
21
19.560090
0
LINE
8
switch_pitch_right
10
119.599990
20
38.610090
11
119.599990
21
19.560090
0
LINE
8
switch_pitch_right
10
100.549990
20
19.560090
11
100.549990
21
38.610090
0
LINE
8
switch_pitch_right
10
100.549990
20
38.610090
11
119.599990
21
38.610090
0
LINE
8
switch_pitch_right
10
110.069990
20
38.610090
11
91.019990
21
38.610090
0
LINE
8
switch_pitch_right
10
110.069990
20
57.660090
11
110.069990
21
38.610090
0
LINE
8
switch_pitch_right
10
91.019990
20
38.610090
11
91.019990
21
57.660090
0
LINE
8
switch_pitch_right
10
91.019990
20
57.660090
11
110.069990
21
57.660090
0
LINE
8
switch_pitch_right
10
62.444990
20
19.565290
11
43.394990
21
19.565290
0
LINE
8
switch_pitch_right
10
62.444990
20
38.615290
11
62.444990
21
19.565290
0
LINE
8
switch_pitch_right
10
43.394990
20
19.565290
11
43.394990
21
38.615290
0
LINE
8
switch_pitch_right
10
43.394990
20
38.615290
11
62.444990
21
38.615290
0
LINE
8
switch_pitch_right
10
52.924990
20
38.605290
11
33.874989
21
38.605290
0
LINE
8
switch_pitch_right
10
52.924990
20
57.655290
11
52.924990
21
38.605290
0
LINE
8
switch_pitch_right
10
33.874989
20
38.605290
11
33.874989
21
57.655290
0
LINE
8
switch_pitch_right
10
33.874989
20
57.655290
11
52.924990
21
57.655290
0
LINE
8
switch_pitch_right
10
171.996190
20
0.515290
11
148.183690
21
0.515290
0
LINE
8
switch_pitch_right
10
171.996190
20
19.565290
11
171.996190
21
0.515290
0
LINE
8
switch_pitch_right
10
148.183690
20
0.515290
11
148.183690
21
19.565290
0
LINE
8
switch_pitch_right
10
148.183690
20
19.565290
11
171.996190
21
19.565290
0
LINE
8
switch_pitch_right
10
171.997190
20
57.665290
11
143.422190
21
57.665290
0
LINE
8
switch_pitch_right
10
171.997190
20
76.715290
11
171.997190
21
57.665290
0
LINE
8
switch_pitch_right
10
143.422190
20
57.665290
11
143.422190
21
76.715290
0
LINE
8
switch_pitch_right
10
143.422190
20
76.715290
11
171.997190
21
76.715290
0
LINE
8
switch_pitch_right
10
133.874690
20
76.705290
11
114.824690
21
76.705290
0
LINE
8
switch_pitch_right
10
133.874690
20
95.755290
11
133.874690
21
76.705290
0
LINE
8
switch_pitch_right
10
114.824690
20
76.705290
11
114.824690
21
95.755290
0
LINE
8
switch_pitch_right
10
114.824690
20
95.755290
11
133.874690
21
95.755290
0
LINE
8
switch_pitch_right
10
71.974690
20
38.595290
11
52.924690
21
38.595290
0
LINE
8
switch_pitch_right
10
71.974690
20
57.645290
11
71.974690
21
38.595290
0
LINE
8
switch_pitch_right
10
52.924690
20
38.595290
11
52.924690
21
57.645290
0
LINE
8
switch_pitch_right
10
52.924690
20
57.645290
11
71.974690
21
57.645290
0
LINE
8
switch_pitch_right
10
91.014690
20
38.615290
11
71.964690
21
38.615290
0
LINE
8
switch_pitch_right
10
91.014690
20
57.665290
11
91.014690
21
38.615290
0
LINE
8
switch_pitch_right
10
71.964690
20
38.615290
11
71.964690
21
57.665290
0
LINE
8
switch_pitch_right
10
71.964690
20
57.665290
11
91.014690
21
57.665290
0
LINE
8
switch_pitch_right
10
57.699990
20
76.720090
11
38.649989
21
76.720090
0
LINE
8
switch_pitch_right
10
57.699990
20
95.770090
11
57.699990
21
76.720090
0
LINE
8
switch_pitch_right
10
38.649989
20
76.720090
11
38.649989
21
95.770090
0
LINE
8
switch_pitch_right
10
38.649989
20
95.770090
11
57.699990
21
95.770090
0
LINE
8
switch_pitch_right
10
171.986190
20
38.600090
11
129.123690
21
38.600090
0
LINE
8
switch_pitch_right
10
171.986190
20
57.650090
11
171.986190
21
38.600090
0
LINE
8
switch_pitch_right
10
129.123690
20
38.600090
11
129.123690
21
57.650090
0
LINE
8
switch_pitch_right
10
129.123690
20
57.650090
11
171.986190
21
57.650090
0
LINE
8
switch_pitch_right
10
57.688690
20
0.510090
11
5.301189
21
0.510090
0
LINE
8
switch_pitch_right
10
57.688690
20
19.560090
11
57.688690
21
0.510090
0
LINE
8
switch_pitch_right
10
5.301189
20
0.510090
11
5.301189
21
19.560090
0
LINE
8
switch_pitch_right
10
5.301189
20
19.560090
11
57.688690
21
19.560090
0
LINE
8
switch_pitch_right
10
148.191190
20
0.510090
11
124.378690
21
0.510090
0
LINE
8
switch_pitch_right
10
148.191190
20
19.560090
11
148.191190
21
0.510090
0
LINE
8
switch_pitch_right
10
124.378690
20
0.510090
11
124.378690
21
19.560090
0
LINE
8
switch_pitch_right
10
124.378690
20
19.560090
11
148.191190
21
19.560090
0
LINE
8
switch_pitch_right
10
24.344989
20
19.565090
11
5.294989
21
19.565090
0
LINE
8
switch_pitch_right
10
24.344989
20
38.615090
11
24.344989
21
19.565090
0
LINE
8
switch_pitch_right
10
5.294989
20
19.565090
11
5.294989
21
38.615090
0
LINE
8
switch_pitch_right
10
5.294989
20
38.615090
11
24.344989
21
38.615090
0
LINE
8
switch_pitch_right
10
33.874989
20
38.625090
11
14.824989
21
38.625090
0
LINE
8
switch_pitch_right
10
33.874989
20
57.675090
11
33.874989
21
38.625090
0
LINE
8
switch_pitch_right
10
14.824989
20
38.625090
11
14.824989
21
57.675090
0
LINE
8
switch_pitch_right
10
14.824989
20
57.675090
11
33.874989
21
57.675090
0
LINE
8
switch_pitch_right
10
100.559990
20
19.559890
11
81.509990
21
19.559890
0
LINE
8
switch_pitch_right
10
100.559990
20
38.609890
11
100.559990
21
19.559890
0
LINE
8
switch_pitch_right
10
81.509990
20
19.559890
11
81.509990
21
38.609890
0
LINE
8
switch_pitch_right
10
81.509990
20
38.609890
11
100.559990
21
38.609890
0
LINE
8
switch_pitch_right
10
38.644989
20
76.715090
11
19.594989
21
76.715090
0
LINE
8
switch_pitch_right
10
38.644989
20
95.765090
11
38.644989
21
76.715090
0
LINE
8
switch_pitch_right
10
19.594989
20
76.715090
11
19.594989
21
95.765090
0
LINE
8
switch_pitch_right
10
19.594989
20
95.765090
11
38.644989
21
95.765090
0
LINE
8
switch_pitch_right
10
124.379990
20
57.669890
11
105.329990
21
57.669890
0
LINE
8
switch_pitch_right
10
124.379990
20
76.719890
11
124.379990
21
57.669890
0
LINE
8
switch_pitch_right
10
105.329990
20
57.669890
11
105.329990
21
76.719890
0
LINE
8
switch_pitch_right
10
105.329990
20
76.719890
11
124.379990
21
76.719890
0
LINE
8
switch_pitch_right
10
67.209990
20
57.659890
11
48.159990
21
57.659890
0
LINE
8
switch_pitch_right
10
67.209990
20
76.709890
11
67.209990
21
57.659890
0
LINE
8
switch_pitch_right
10
48.159990
20
57.659890
11
48.159990
21
76.709890
0
LINE
8
switch_pitch_right
10
48.159990
20
76.709890
11
67.209990
21
76.709890
0
LINE
8
switch_pitch_right
10
81.494990
20
19.535090
11
62.444990
21
19.535090
0
LINE
8
switch_pitch_right
10
81.494990
20
38.585090
11
81.494990
21
19.535090
0
LINE
8
switch_pitch_right
10
62.444990
20
19.535090
11
62.444990
21
38.585090
0
LINE
8
switch_pitch_right
10
62.444990
20
38.585090
11
81.494990
21
38.585090
0
LINE
8
switch_pitch_right
10
48.159990
20
57.660090
11
29.109989
21
57.660090
0
LINE
8
switch_pitch_right
10
48.159990
20
76.710090
11
48.159990
21
57.660090
0
LINE
8
switch_pitch_right
10
29.109989
20
57.660090
11
29.109989
21
76.710090
0
LINE
8
switch_pitch_right
10
29.109989
20
76.710090
11
48.159990
21
76.710090
0
LINE
8
switch_pitch_right
10
100.566190
20
0.500090
11
57.703790
21
0.500090
0
LINE
8
switch_pitch_right
10
100.566190
20
19.550090
11
100.566190
21
0.500090
0
LINE
8
switch_pitch_right
10
57.703790
20
0.500090
11
57.703790
21
19.550090
0
LINE
8
switch_pitch_right
10
57.703790
20
19.550090
11
100.566190
21
19.550090
0
LINE
8
switch_pitch_right
10
43.399990
20
19.550090
11
24.349989
21
19.550090
0
LINE
8
switch_pitch_right
10
43.399990
20
38.600090
11
43.399990
21
19.550090
0
LINE
8
switch_pitch_right
10
24.349989
20
19.550090
11
24.349989
21
38.600090
0
LINE
8
switch_pitch_right
10
24.349989
20
38.600090
11
43.399990
21
38.600090
0
LINE
8
switch_pitch_right
10
76.729990
20
76.720090
11
57.679990
21
76.720090
0
LINE
8
switch_pitch_right
10
76.729990
20
95.770090
11
76.729990
21
76.720090
0
LINE
8
switch_pitch_right
10
57.679990
20
76.720090
11
57.679990
21
95.770090
0
LINE
8
switch_pitch_right
10
57.679990
20
95.770090
11
76.729990
21
95.770090
0
LINE
8
pcb_right
10
1.049989
20
96.280090
11
171.480990
21
96.280090
0
LINE
8
pcb_right
10
171.480990
20
96.280090
11
171.863673
21
96.203970
0
LINE
8
pcb_right
10
171.863673
20
96.203970
11
172.188097
21
95.987197
0
LINE
8
pcb_right
10
172.188097
20
95.987197
11
172.404870
21
95.662773
0
LINE
8
pcb_right
10
172.404870
20
95.662773
11
172.480990
21
95.280090
0
LINE
8
pcb_right
10
172.480990
20
95.280090
11
172.480990
21
1.050080
0
LINE
8
pcb_right
10
172.480990
20
1.050080
11
172.404870
21
0.667397
0
LINE
8
pcb_right
10
172.404870
20
0.667397
11
172.188097
21
0.342973
0
LINE
8
pcb_right
10
172.188097
20
0.342973
11
171.863673
21
0.126200
0
LINE
8
pcb_right
10
171.863673
20
0.126200
11
171.480990
21
0.050080
0
LINE
8
pcb_right
10
171.480990
20
0.050080
11
1.049989
21
0.050080
0
LINE
8
pcb_right
10
1.049989
20
0.050080
11
0.667306
21
0.126200
0
LINE
8
pcb_right
10
0.667306
20
0.126200
11
0.342882
21
0.342973
0
LINE
8
pcb_right
10
0.342882
20
0.342973
11
0.126109
21
0.667397
0
LINE
8
pcb_right
10
0.126109
20
0.667397
11
0.049989
21
1.050080
0
LINE
8
pcb_right
10
0.049989
20
1.050080
11
0.049989
21
95.280090
0
LINE
8
pcb_right
10
0.049989
20
95.280090
11
0.126109
21
95.662773
0
LINE
8
pcb_right
10
0.126109
20
95.662773
11
0.342882
21
95.987197
0
LINE
8
pcb_right
10
0.342882
20
95.987197
11
0.667306
21
96.203970
0
LINE
8
pcb_right
10
0.667306
20
96.203970
11
1.049989
21
96.280090
0
LINE
8
pcb_right
10
1.049989
20
96.280090
11
1.049989
21
96.280090
 0 
ENDSEC
 0 
EOF