999
"DXF R12 Output" (www.mydxf.blogspot.com)
 0 
SECTION
 2 
HEADER
 9 
$ACADVER
 1 
AC1009
 9 
$EXTMIN
 10 
 0 
 20 
 0 
 9 
$EXTMAX
 10 
 8.5 
 20 
 11 
 0 
ENDSEC
 0 
SECTION
 2 
ENTITIES
0
LINE
8
switch_pitch_left
10
95.790000
20
19.570000
11
76.740000
21
19.570000
0
LINE
8
switch_pitch_left
10
95.790000
20
38.620000
11
95.790000
21
19.570000
0
LINE
8
switch_pitch_left
10
76.740000
20
19.570000
11
76.740000
21
38.620000
0
LINE
8
switch_pitch_left
10
76.740000
20
38.620000
11
95.790000
21
38.620000
0
LINE
8
switch_pitch_left
10
19.570000
20
19.600000
11
0.520000
21
19.600000
0
LINE
8
switch_pitch_left
10
19.570000
20
38.650000
11
19.570000
21
19.600000
0
LINE
8
switch_pitch_left
10
0.520000
20
19.600000
11
0.520000
21
38.650000
0
LINE
8
switch_pitch_left
10
0.520000
20
38.650000
11
19.570000
21
38.650000
0
LINE
8
switch_pitch_left
10
57.666200
20
0.545200
11
33.853700
21
0.545200
0
LINE
8
switch_pitch_left
10
57.666200
20
19.595200
11
57.666200
21
0.545200
0
LINE
8
switch_pitch_left
10
33.853700
20
0.545200
11
33.853700
21
19.595200
0
LINE
8
switch_pitch_left
10
33.853700
20
19.595200
11
57.666200
21
19.595200
0
LINE
8
switch_pitch_left
10
76.734200
20
19.585000
11
33.871700
21
19.585000
0
LINE
8
switch_pitch_left
10
76.734200
20
38.635000
11
76.734200
21
19.585000
0
LINE
8
switch_pitch_left
10
33.871700
20
19.585000
11
33.871700
21
38.635000
0
LINE
8
switch_pitch_left
10
33.871700
20
38.635000
11
76.734200
21
38.635000
0
LINE
8
switch_pitch_left
10
86.260000
20
38.620000
11
67.210000
21
38.620000
0
LINE
8
switch_pitch_left
10
86.260000
20
57.670000
11
86.260000
21
38.620000
0
LINE
8
switch_pitch_left
10
67.210000
20
38.620000
11
67.210000
21
57.670000
0
LINE
8
switch_pitch_left
10
67.210000
20
57.670000
11
86.260000
21
57.670000
0
LINE
8
switch_pitch_left
10
81.490000
20
57.700000
11
62.440000
21
57.700000
0
LINE
8
switch_pitch_left
10
81.490000
20
76.750000
11
81.490000
21
57.700000
0
LINE
8
switch_pitch_left
10
62.440000
20
57.700000
11
62.440000
21
76.750000
0
LINE
8
switch_pitch_left
10
62.440000
20
76.750000
11
81.490000
21
76.750000
0
LINE
8
switch_pitch_left
10
148.185000
20
76.745000
11
129.135000
21
76.745000
0
LINE
8
switch_pitch_left
10
148.185000
20
95.795000
11
148.185000
21
76.745000
0
LINE
8
switch_pitch_left
10
129.135000
20
76.745000
11
129.135000
21
95.795000
0
LINE
8
switch_pitch_left
10
129.135000
20
95.795000
11
148.185000
21
95.795000
0
LINE
8
switch_pitch_left
10
171.981200
20
0.549800
11
148.168700
21
0.549800
0
LINE
8
switch_pitch_left
10
171.981200
20
19.599800
11
171.981200
21
0.549800
0
LINE
8
switch_pitch_left
10
148.168700
20
0.549800
11
148.168700
21
19.599800
0
LINE
8
switch_pitch_left
10
148.168700
20
19.599800
11
171.981200
21
19.599800
0
LINE
8
switch_pitch_left
10
124.375000
20
38.635200
11
105.325000
21
38.635200
0
LINE
8
switch_pitch_left
10
124.375000
20
57.685200
11
124.375000
21
38.635200
0
LINE
8
switch_pitch_left
10
105.325000
20
38.635200
11
105.325000
21
57.685200
0
LINE
8
switch_pitch_left
10
105.325000
20
57.685200
11
124.375000
21
57.685200
0
LINE
8
switch_pitch_left
10
19.590000
20
38.620000
11
0.540000
21
38.620000
0
LINE
8
switch_pitch_left
10
19.590000
20
57.670000
11
19.590000
21
38.620000
0
LINE
8
switch_pitch_left
10
0.540000
20
38.620000
11
0.540000
21
57.670000
0
LINE
8
switch_pitch_left
10
0.540000
20
57.670000
11
19.590000
21
57.670000
0
LINE
8
switch_pitch_left
10
105.291200
20
0.540000
11
81.478700
21
0.540000
0
LINE
8
switch_pitch_left
10
105.291200
20
19.590000
11
105.291200
21
0.540000
0
LINE
8
switch_pitch_left
10
81.478700
20
0.540000
11
81.478700
21
19.590000
0
LINE
8
switch_pitch_left
10
81.478700
20
19.590000
11
105.291200
21
19.590000
0
LINE
8
switch_pitch_left
10
71.960000
20
76.750000
11
52.910000
21
76.750000
0
LINE
8
switch_pitch_left
10
71.960000
20
95.800000
11
71.960000
21
76.750000
0
LINE
8
switch_pitch_left
10
52.910000
20
76.750000
11
52.910000
21
95.800000
0
LINE
8
switch_pitch_left
10
52.910000
20
95.800000
11
71.960000
21
95.800000
0
LINE
8
switch_pitch_left
10
148.166200
20
0.560000
11
105.303800
21
0.560000
0
LINE
8
switch_pitch_left
10
148.166200
20
19.610000
11
148.166200
21
0.560000
0
LINE
8
switch_pitch_left
10
105.303800
20
0.560000
11
105.303800
21
19.610000
0
LINE
8
switch_pitch_left
10
105.303800
20
19.610000
11
148.166200
21
19.610000
0
LINE
8
switch_pitch_left
10
67.178800
20
38.655200
11
33.841200
21
38.655200
0
LINE
8
switch_pitch_left
10
67.178800
20
57.705200
11
67.178800
21
38.655200
0
LINE
8
switch_pitch_left
10
33.841200
20
38.655200
11
33.841200
21
57.705200
0
LINE
8
switch_pitch_left
10
33.841200
20
57.705200
11
67.178800
21
57.705200
0
LINE
8
switch_pitch_left
10
81.486300
20
0.535200
11
57.673700
21
0.535200
0
LINE
8
switch_pitch_left
10
81.486300
20
19.585200
11
81.486300
21
0.535200
0
LINE
8
switch_pitch_left
10
57.673700
20
0.535200
11
57.673700
21
19.585200
0
LINE
8
switch_pitch_left
10
57.673700
20
19.585200
11
81.486300
21
19.585200
0
LINE
8
switch_pitch_left
10
143.395000
20
38.645200
11
124.345000
21
38.645200
0
LINE
8
switch_pitch_left
10
143.395000
20
57.695200
11
143.395000
21
38.645200
0
LINE
8
switch_pitch_left
10
124.345000
20
38.645200
11
124.345000
21
57.695200
0
LINE
8
switch_pitch_left
10
124.345000
20
57.695200
11
143.395000
21
57.695200
0
LINE
8
switch_pitch_left
10
129.110000
20
76.740000
11
110.060000
21
76.740000
0
LINE
8
switch_pitch_left
10
129.110000
20
95.790000
11
129.110000
21
76.740000
0
LINE
8
switch_pitch_left
10
110.060000
20
76.740000
11
110.060000
21
95.790000
0
LINE
8
switch_pitch_left
10
110.060000
20
95.790000
11
129.110000
21
95.790000
0
LINE
8
switch_pitch_left
10
167.220000
20
76.730000
11
148.170000
21
76.730000
0
LINE
8
switch_pitch_left
10
167.220000
20
95.780000
11
167.220000
21
76.730000
0
LINE
8
switch_pitch_left
10
148.170000
20
76.730000
11
148.170000
21
95.780000
0
LINE
8
switch_pitch_left
10
148.170000
20
95.780000
11
167.220000
21
95.780000
0
LINE
8
switch_pitch_left
10
162.450000
20
38.640000
11
143.400000
21
38.640000
0
LINE
8
switch_pitch_left
10
162.450000
20
57.690000
11
162.450000
21
38.640000
0
LINE
8
switch_pitch_left
10
143.400000
20
38.640000
11
143.400000
21
57.690000
0
LINE
8
switch_pitch_left
10
143.400000
20
57.690000
11
162.450000
21
57.690000
0
LINE
8
switch_pitch_left
10
138.645000
20
57.680000
11
119.595000
21
57.680000
0
LINE
8
switch_pitch_left
10
138.645000
20
76.730000
11
138.645000
21
57.680000
0
LINE
8
switch_pitch_left
10
119.595000
20
57.680000
11
119.595000
21
76.730000
0
LINE
8
switch_pitch_left
10
119.595000
20
76.730000
11
138.645000
21
76.730000
0
LINE
8
switch_pitch_left
10
19.565000
20
57.685200
11
0.515000
21
57.685200
0
LINE
8
switch_pitch_left
10
19.565000
20
76.735200
11
19.565000
21
57.685200
0
LINE
8
switch_pitch_left
10
0.515000
20
57.685200
11
0.515000
21
76.735200
0
LINE
8
switch_pitch_left
10
0.515000
20
76.735200
11
19.565000
21
76.735200
0
LINE
8
switch_pitch_left
10
62.447500
20
57.680000
11
33.872500
21
57.680000
0
LINE
8
switch_pitch_left
10
62.447500
20
76.730000
11
62.447500
21
57.680000
0
LINE
8
switch_pitch_left
10
33.872500
20
57.680000
11
33.872500
21
76.730000
0
LINE
8
switch_pitch_left
10
33.872500
20
76.730000
11
62.447500
21
76.730000
0
LINE
8
switch_pitch_left
10
19.595000
20
0.545200
11
0.545000
21
0.545200
0
LINE
8
switch_pitch_left
10
19.595000
20
19.595200
11
19.595000
21
0.545200
0
LINE
8
switch_pitch_left
10
0.545000
20
0.545200
11
0.545000
21
19.595200
0
LINE
8
switch_pitch_left
10
0.545000
20
19.595200
11
19.595000
21
19.595200
0
LINE
8
switch_pitch_left
10
105.310000
20
38.640000
11
86.260000
21
38.640000
0
LINE
8
switch_pitch_left
10
105.310000
20
57.690000
11
105.310000
21
38.640000
0
LINE
8
switch_pitch_left
10
86.260000
20
38.640000
11
86.260000
21
57.690000
0
LINE
8
switch_pitch_left
10
86.260000
20
57.690000
11
105.310000
21
57.690000
0
LINE
8
switch_pitch_left
10
157.690000
20
57.680000
11
138.640000
21
57.680000
0
LINE
8
switch_pitch_left
10
157.690000
20
76.730000
11
157.690000
21
57.680000
0
LINE
8
switch_pitch_left
10
138.640000
20
57.680000
11
138.640000
21
76.730000
0
LINE
8
switch_pitch_left
10
138.640000
20
76.730000
11
157.690000
21
76.730000
0
LINE
8
switch_pitch_left
10
19.600000
20
76.730000
11
0.550000
21
76.730000
0
LINE
8
switch_pitch_left
10
19.600000
20
95.780000
11
19.600000
21
76.730000
0
LINE
8
switch_pitch_left
10
0.550000
20
76.730000
11
0.550000
21
95.780000
0
LINE
8
switch_pitch_left
10
0.550000
20
95.780000
11
19.600000
21
95.780000
0
LINE
8
switch_pitch_left
10
91.015000
20
76.735200
11
71.965000
21
76.735200
0
LINE
8
switch_pitch_left
10
91.015000
20
95.785200
11
91.015000
21
76.735200
0
LINE
8
switch_pitch_left
10
71.965000
20
76.735200
11
71.965000
21
95.785200
0
LINE
8
switch_pitch_left
10
71.965000
20
95.785200
11
91.015000
21
95.785200
0
LINE
8
switch_pitch_left
10
114.830000
20
19.590000
11
95.780000
21
19.590000
0
LINE
8
switch_pitch_left
10
114.830000
20
38.640000
11
114.830000
21
19.590000
0
LINE
8
switch_pitch_left
10
95.780000
20
19.590000
11
95.780000
21
38.640000
0
LINE
8
switch_pitch_left
10
95.780000
20
38.640000
11
114.830000
21
38.640000
0
LINE
8
switch_pitch_left
10
171.970000
20
19.610000
11
152.920000
21
19.610000
0
LINE
8
switch_pitch_left
10
171.970000
20
38.660000
11
171.970000
21
19.610000
0
LINE
8
switch_pitch_left
10
152.920000
20
19.610000
11
152.920000
21
38.660000
0
LINE
8
switch_pitch_left
10
152.920000
20
38.660000
11
171.970000
21
38.660000
0
LINE
8
switch_pitch_left
10
52.930000
20
76.740000
11
33.880000
21
76.740000
0
LINE
8
switch_pitch_left
10
52.930000
20
95.790000
11
52.930000
21
76.740000
0
LINE
8
switch_pitch_left
10
33.880000
20
76.740000
11
33.880000
21
95.790000
0
LINE
8
switch_pitch_left
10
33.880000
20
95.790000
11
52.930000
21
95.790000
0
LINE
8
switch_pitch_left
10
100.550000
20
57.700000
11
81.500000
21
57.700000
0
LINE
8
switch_pitch_left
10
100.550000
20
76.750000
11
100.550000
21
57.700000
0
LINE
8
switch_pitch_left
10
81.500000
20
57.700000
11
81.500000
21
76.750000
0
LINE
8
switch_pitch_left
10
81.500000
20
76.750000
11
100.550000
21
76.750000
0
LINE
8
switch_pitch_left
10
133.905000
20
19.595200
11
114.855000
21
19.595200
0
LINE
8
switch_pitch_left
10
133.905000
20
38.645200
11
133.905000
21
19.595200
0
LINE
8
switch_pitch_left
10
114.855000
20
19.595200
11
114.855000
21
38.645200
0
LINE
8
switch_pitch_left
10
114.855000
20
38.645200
11
133.905000
21
38.645200
0
LINE
8
switch_pitch_left
10
152.935000
20
19.595200
11
133.885000
21
19.595200
0
LINE
8
switch_pitch_left
10
152.935000
20
38.645200
11
152.935000
21
19.595200
0
LINE
8
switch_pitch_left
10
133.885000
20
19.595200
11
133.885000
21
38.645200
0
LINE
8
switch_pitch_left
10
133.885000
20
38.645200
11
152.935000
21
38.645200
0
LINE
8
switch_pitch_left
10
110.060000
20
76.740000
11
91.010000
21
76.740000
0
LINE
8
switch_pitch_left
10
110.060000
20
95.790000
11
110.060000
21
76.740000
0
LINE
8
switch_pitch_left
10
91.010000
20
76.740000
11
91.010000
21
95.790000
0
LINE
8
switch_pitch_left
10
91.010000
20
95.790000
11
110.060000
21
95.790000
0
LINE
8
switch_pitch_left
10
119.610000
20
57.690000
11
100.560000
21
57.690000
0
LINE
8
switch_pitch_left
10
119.610000
20
76.740000
11
119.610000
21
57.690000
0
LINE
8
switch_pitch_left
10
100.560000
20
57.690000
11
100.560000
21
76.740000
0
LINE
8
switch_pitch_left
10
100.560000
20
76.740000
11
119.610000
21
76.740000
0
LINE
8
pcb_left
10
1.049999
20
96.280000
11
171.481000
21
96.280000
0
LINE
8
pcb_left
10
171.481000
20
96.280000
11
171.863683
21
96.203880
0
LINE
8
pcb_left
10
171.863683
20
96.203880
11
172.188107
21
95.987107
0
LINE
8
pcb_left
10
172.188107
20
95.987107
11
172.404880
21
95.662683
0
LINE
8
pcb_left
10
172.404880
20
95.662683
11
172.481000
21
95.280000
0
LINE
8
pcb_left
10
172.481000
20
95.280000
11
172.481000
21
1.050000
0
LINE
8
pcb_left
10
172.481000
20
1.050000
11
172.404880
21
0.667317
0
LINE
8
pcb_left
10
172.404880
20
0.667317
11
172.188107
21
0.342893
0
LINE
8
pcb_left
10
172.188107
20
0.342893
11
171.863683
21
0.126120
0
LINE
8
pcb_left
10
171.863683
20
0.126120
11
171.481000
21
0.050000
0
LINE
8
pcb_left
10
171.481000
20
0.050000
11
1.049999
21
0.050000
0
LINE
8
pcb_left
10
1.049999
20
0.050000
11
0.667316
21
0.126120
0
LINE
8
pcb_left
10
0.667316
20
0.126120
11
0.342892
21
0.342893
0
LINE
8
pcb_left
10
0.342892
20
0.342893
11
0.126119
21
0.667317
0
LINE
8
pcb_left
10
0.126119
20
0.667317
11
0.049999
21
1.050000
0
LINE
8
pcb_left
10
0.049999
20
1.050000
11
0.049999
21
95.280000
0
LINE
8
pcb_left
10
0.049999
20
95.280000
11
0.126119
21
95.662683
0
LINE
8
pcb_left
10
0.126119
20
95.662683
11
0.342892
21
95.987107
0
LINE
8
pcb_left
10
0.342892
20
95.987107
11
0.667316
21
96.203880
0
LINE
8
pcb_left
10
0.667316
20
96.203880
11
1.049999
21
96.280000
0
LINE
8
pcb_left
10
1.049999
20
96.280000
11
1.049999
21
96.280000
 0 
ENDSEC
 0 
EOF