<?xml version="1.0" encoding="UTF-8" standalone="no"?>
<svg
   version="1.1"
   width="193.53101mm"
   height="117.33001mm"
   viewBox="0 0 193.53101 117.33001"
   id="svg6844"
   xmlns="http://www.w3.org/2000/svg"
   xmlns:svg="http://www.w3.org/2000/svg"
   xmlns:rdf="http://www.w3.org/1999/02/22-rdf-syntax-ns#"
   xmlns:cc="http://creativecommons.org/ns#"
   xmlns:dc="http://purl.org/dc/elements/1.1/">
  <defs
     id="defs6844" />
  <title
     id="title1">SVG Image created as accelerator-brd.svg date 2024/05/05 21:37:06 </title>
  <desc
     id="desc1">Image generated by PCBNEW </desc>
  <metadata
     id="metadata4">
    <rdf:RDF>
      <cc:Work
         rdf:about="">
        <dc:title>SVG Image created as accelerator-brd.svg date 2024/05/05 21:37:06 </dc:title>
      </cc:Work>
    </rdf:RDF>
  </metadata>
  <g
     id="layer19"
     transform="translate(-46.444978,-152.435)"
     style="display:inline">
    <g
       id="layer29-9"
       style="display:inline">
      <path
         id="path6845-6-2-7-83"
         style="display:inline;fill:none;stroke:#000000;stroke-width:0.1"
         d="m 144.71049,262.41501 c 0,0.82843 -0.67157,1.5 -1.5,1.5 -0.82843,0 -1.5,-0.67157 -1.5,-1.5 0,-0.82843 0.67157,-1.5 1.5,-1.5 0.82843,0 1.5,0.67157 1.5,1.5 z m -73.615489,0 c 0,0.82843 -0.671573,1.5 -1.5,1.5 -0.828427,0 -1.5,-0.67157 -1.5,-1.5 0,-0.82843 0.671573,-1.5 1.5,-1.5 0.828427,0 1.5,0.67157 1.5,1.5 z M 218.326,159.785 c 0,0.82843 -0.67157,1.5 -1.5,1.5 -0.82843,0 -1.5,-0.67157 -1.5,-1.5 0,-0.82843 0.67157,-1.5 1.5,-1.5 0.82843,0 1.5,0.67157 1.5,1.5 z m 0,102.63001 c 0,0.82843 -0.67157,1.5 -1.5,1.5 -0.82843,0 -1.5,-0.67157 -1.5,-1.5 0,-0.82843 0.67157,-1.5 1.5,-1.5 0.82843,0 1.5,0.67157 1.5,1.5 z M 144.71049,159.785 c 0,0.82843 -0.67157,1.5 -1.5,1.5 -0.82843,0 -1.5,-0.67157 -1.5,-1.5 0,-0.82843 0.67157,-1.5 1.5,-1.5 0.82843,0 1.5,0.67157 1.5,1.5 z m -73.615489,0 c 0,0.82843 -0.671573,1.5 -1.5,1.5 -0.828427,0 -1.5,-0.67157 -1.5,-1.5 0,-0.82843 0.671573,-1.5 1.5,-1.5 0.828427,0 1.5,0.67157 1.5,1.5 z m 158.830999,2.7 v 97.23 H 56.494999 v -97.23 z" />
    </g>
  </g>
</svg>
