%TF.GenerationSoftware,KiCad,Pcbnew,8.0.2*%
%TF.CreationDate,2024-05-06T20:09:12+09:00*%
%TF.ProjectId,plate,706c6174-652e-46b6-9963-61645f706362,v1.0.0*%
%TF.SameCoordinates,Original*%
%TF.FileFunction,Soldermask,Bot*%
%TF.FilePolarity,Negative*%
%FSLAX46Y46*%
G04 Gerber Fmt 4.6, Leading zero omitted, Abs format (unit mm)*
G04 Created by KiCad (PCBNEW 8.0.2) date 2024-05-06 20:09:12*
%MOMM*%
%LPD*%
G01*
G04 APERTURE LIST*
%ADD10C,0.600000*%
G04 APERTURE END LIST*
D10*
%TO.C,REF08*%
X215700000Y-201700000D03*
X215700000Y-200900000D03*
X215700000Y-200100000D03*
X215700000Y-199300000D03*
X215700000Y-198500000D03*
X215700000Y-197700000D03*
X215700000Y-196900000D03*
%TD*%
%TO.C,REF07*%
X202090000Y-201710000D03*
X202090000Y-200910000D03*
X202090000Y-200110000D03*
X202090000Y-199310000D03*
X202090000Y-198510000D03*
X202090000Y-197710000D03*
X202090000Y-196910000D03*
%TD*%
%TO.C,REF06*%
X215690000Y-161490000D03*
X215690000Y-160690000D03*
X215690000Y-159890000D03*
X215690000Y-159090000D03*
X215690000Y-158290000D03*
X215690000Y-157490000D03*
X215690000Y-156690000D03*
%TD*%
%TO.C,REF05*%
X202090000Y-161480000D03*
X202090000Y-160680000D03*
X202090000Y-159880000D03*
X202090000Y-159080000D03*
X202090000Y-158280000D03*
X202090000Y-157480000D03*
X202090000Y-156680000D03*
%TD*%
%TO.C,REF02*%
X215690000Y-89520000D03*
X215690000Y-88720000D03*
X215690000Y-87920000D03*
X215690000Y-87120000D03*
X215690000Y-86320000D03*
X215690000Y-85520000D03*
X215690000Y-84720000D03*
%TD*%
%TO.C,REF01*%
X202080000Y-89530000D03*
X202080000Y-88730000D03*
X202080000Y-87930000D03*
X202080000Y-87130000D03*
X202080000Y-86330000D03*
X202080000Y-85530000D03*
X202080000Y-84730000D03*
%TD*%
%TO.C,REF04*%
X215680000Y-129750000D03*
X215680000Y-128950000D03*
X215680000Y-128150000D03*
X215680000Y-127350000D03*
X215680000Y-126550000D03*
X215680000Y-125750000D03*
X215680000Y-124950000D03*
%TD*%
%TO.C,REF03*%
X202120000Y-129740000D03*
X202120000Y-128940000D03*
X202120000Y-128140000D03*
X202120000Y-127340000D03*
X202120000Y-126540000D03*
X202120000Y-125740000D03*
X202120000Y-124940000D03*
%TD*%
M02*
