M48
; DRILL file {KiCad 8.0.2} date 2024-05-06T20:09:05+0900
; FORMAT={-:-/ absolute / inch / decimal}
; #@! TF.CreationDate,2024-05-06T20:09:05+09:00
; #@! TF.GenerationSoftware,Kicad,Pcbnew,8.0.2
; #@! TF.FileFunction,NonPlated,1,2,NPTH
FMAT,2
INCH
; #@! TA.AperFunction,NonPlated,NPTH,ComponentDrill
T1C0.0236
%
G90
G05
T1
X7.9559Y-3.3358
X7.9559Y-3.3673
X7.9559Y-3.3988
X7.9559Y-3.4303
X7.9559Y-3.4618
X7.9559Y-3.4933
X7.9559Y-3.5248
X7.9563Y-6.1685
X7.9563Y-6.2
X7.9563Y-6.2315
X7.9563Y-6.263
X7.9563Y-6.2945
X7.9563Y-6.326
X7.9563Y-6.3575
X7.9563Y-7.7524
X7.9563Y-7.7839
X7.9563Y-7.8154
X7.9563Y-7.8469
X7.9563Y-7.8783
X7.9563Y-7.9098
X7.9563Y-7.9413
X7.9575Y-4.9189
X7.9575Y-4.9504
X7.9575Y-4.9819
X7.9575Y-5.0134
X7.9575Y-5.0449
X7.9575Y-5.0764
X7.9575Y-5.1079
X8.4913Y-4.9193
X8.4913Y-4.9508
X8.4913Y-4.9823
X8.4913Y-5.0138
X8.4913Y-5.0453
X8.4913Y-5.0768
X8.4913Y-5.1083
X8.4917Y-3.3354
X8.4917Y-3.3669
X8.4917Y-3.3984
X8.4917Y-3.4299
X8.4917Y-3.4614
X8.4917Y-3.4929
X8.4917Y-3.5244
X8.4917Y-6.1689
X8.4917Y-6.2004
X8.4917Y-6.2319
X8.4917Y-6.2634
X8.4917Y-6.2949
X8.4917Y-6.3264
X8.4917Y-6.3579
X8.4921Y-7.752
X8.4921Y-7.7835
X8.4921Y-7.815
X8.4921Y-7.8465
X8.4921Y-7.878
X8.4921Y-7.9094
X8.4921Y-7.9409
M30
