<?xml version="1.0" encoding="UTF-8" standalone="no"?>
<svg
   version="1.1"
   width="48.099998mm"
   height="33.16mm"
   viewBox="0 0 48.099999 33.16"
   id="svg1964"
   sodipodi:docname="daughterboard-brd.svg"
   inkscape:version="1.3.2 (091e20e, 2023-11-25, custom)"
   xmlns:inkscape="http://www.inkscape.org/namespaces/inkscape"
   xmlns:sodipodi="http://sodipodi.sourceforge.net/DTD/sodipodi-0.dtd"
   xmlns="http://www.w3.org/2000/svg"
   xmlns:svg="http://www.w3.org/2000/svg"
   xmlns:rdf="http://www.w3.org/1999/02/22-rdf-syntax-ns#"
   xmlns:cc="http://creativecommons.org/ns#"
   xmlns:dc="http://purl.org/dc/elements/1.1/">
  <sodipodi:namedview
     id="namedview1964"
     pagecolor="#ffffff"
     bordercolor="#000000"
     borderopacity="0.25"
     inkscape:showpageshadow="2"
     inkscape:pageopacity="0.0"
     inkscape:pagecheckerboard="0"
     inkscape:deskcolor="#d1d1d1"
     inkscape:document-units="mm"
     inkscape:zoom="2.089976"
     inkscape:cx="-36.364053"
     inkscape:cy="-27.033803"
     inkscape:window-width="2560"
     inkscape:window-height="1369"
     inkscape:window-x="-8"
     inkscape:window-y="-8"
     inkscape:window-maximized="1"
     inkscape:current-layer="svg1964" />
  <defs
     id="defs1964">
    <inkscape:path-effect
       effect="fillet_chamfer"
       id="path-effect1967"
       is_visible="true"
       lpeversion="1"
       nodesatellites_param="F,0,0,1,0,1,0,1 @ F,0,0,1,0,1,0,1 @ F,0,0,1,0,1,0,1 @ F,0,0,1,0,1,0,1 @ F,0,0,1,0,1,0,1 @ F,0,0,1,0,1,0,1 @ F,0,0,1,0,1,0,1 @ F,0,0,1,0,1,0,1 @ F,0,0,1,0,1,0,1 @ F,0,0,1,0,1,0,1 @ F,0,0,1,0,1,0,1 @ F,0,0,1,0,1,0,1"
       radius="1"
       unit="mm"
       method="auto"
       mode="F"
       chamfer_steps="1"
       flexible="false"
       use_knot_distance="true"
       apply_no_radius="true"
       apply_with_radius="true"
       only_selected="false"
       hide_knots="false" />
  </defs>
  <title
     id="title1">SVG Image created as daughterboard-brd.svg date 2024/05/06 22:17:28 </title>
  <desc
     id="desc1">Image generated by PCBNEW </desc>
  <path
     id="path1967"
     style="fill:none;stroke:#000000;stroke-width:0.1"
     d="m 27.55,19.61 h 0.4992 0.4997 0.4993 0.5004 0.4996 0.4992 0.5009 0.5008 0.5008 0.4996 0.4998 0.5 0.5001 0.5004 0.501 0.4996 0.5006 0.4995 0.5005 0.4993 0.4994 0.5007 0.5005 0.4992 0.5004 0.5005 0.5001 0.4995 0.4999 0.4992 0.5004 0.5005 0.5003 0.5002 0.499 0.5009 0.4995 0.4988 0.5007 l 0.3836,0.0762 0.3244,0.2176 0.216,0.3232 0.076,0.383 v 0.4997 0.5009 0.4998 0.4998 0.4997 0.5001 0.5 0.4999 0.4993 0.4998 0.4995 0.5005 0.4992 0.5005 0.5001 0.5005 0.5 0.5009 0.5001 0.5002 0.4994 0.5003 0.4998 l -0.0762,0.3836 -0.2176,0.3244 -0.3232,0.216 -0.383,0.076 h -0.5009 -0.4997 -0.4997 -0.4997 -0.4993 -0.4994 -0.501 -0.4998 -0.5 -0.5005 -0.5005 -0.5004 -0.5007 -0.4993 -0.4991 -0.5 -0.5 -0.499 -0.4999 -0.5 -0.4994 -0.5009 -0.4992 -0.4997 -0.4995 -0.4991 -0.5007 -0.4994 -0.5003 -0.5007 -0.5008 -0.5006 -0.5001 -0.4991 -0.5004 -0.5 -0.4994 -0.4996 -0.4995 -0.5001 -0.5004 -0.4993 -0.5 -0.5004 -0.5003 -0.4999 -0.499 -0.5 H 22.553 22.0528 21.553 21.0524 20.5532 20.0523 19.5522 19.0515 18.551 18.0513 17.5514 17.0505 16.5508 16.0502 15.5511 15.0514 14.5522 14.0518 13.5514 13.0512 12.5511 12.0516 11.5508 11.0507 10.551 10.05 9.5502 9.0506 8.5508 8.0512 7.551 7.0508 6.5507 6.0509 5.5511 5.0504 4.5497 4.0493 3.5502 3.0495 2.5489 2.0493 1.5504 1.05 L 0.6673,33.0339 0.3429,32.8171 0.1261,32.4927 0.05,32.11 V 31.6103 31.1094 30.6096 30.1098 29.6101 29.11 28.61 28.1101 27.6108 27.111 26.6115 26.111 25.6118 25.1113 24.6112 24.1107 23.6107 23.1098 22.6097 22.1095 21.6101 21.1098 20.61 L 0.1262,20.2264 0.3438,19.902 0.667,19.686 1.05,19.61 h 0.4992 0.4997 0.4993 0.5004 0.4996 0.4992 0.5009 0.5008 0.5008 0.4996 0.4998 0.5 0.5001 0.5004 0.501 0.4996 0.5006 0.4995 0.5005 0.4993 0.4995 0.5006 0.5005 0.4992 0.5004 0.5005 0.5001 0.4995 0.4999 0.4992 0.5004 0.5005 0.5003 0.5002 0.499 0.5009 0.4995 0.4988 0.5007 L 20.9336,19.5338 21.258,19.3162 21.474,18.993 21.55,18.61 V 18.158 17.7072 17.2556 16.804 16.353 15.9021 15.4516 15.0005 14.55 L 21.4738,14.1664 21.2562,13.842 20.933,13.626 20.55,13.55 h -0.4991 -0.4998 -0.4993 -0.5004 -0.4996 -0.4992 -0.5009 -0.5008 -0.5008 -0.4996 -0.4998 -0.5 -0.5001 -0.5004 -0.501 H 12.5496 12.049 11.5495 11.049 10.5497 10.0503 9.5497 9.0491 8.5499 8.0495 7.549 7.0489 6.5494 6.0495 5.5503 5.0499 4.5494 4.0491 3.5489 3.0499 2.549 2.0495 1.5507 1.05 L 0.6664,13.4738 0.342,13.2562 0.126,12.933 0.05,12.55 V 12.0503 11.5494 11.0496 10.5498 10.0501 9.55 9.05 8.5501 8.0508 7.551 7.0515 6.551 6.0518 5.5513 5.0512 4.5507 4.0507 3.5498 3.0497 2.5495 2.0501 1.5498 1.05 L 0.1261,0.6673 0.3429,0.3429 0.6673,0.1261 1.05,0.05 H 1.5509 2.0506 2.5503 3.05 3.5493 4.0487 4.5497 5.0496 5.5495 6.05 6.5505 7.0509 7.5516 8.0509 8.55 h 0.5 0.5 0.499 0.4999 0.5 0.4994 0.5009 0.4992 0.4997 0.4995 0.4991 0.5007 0.4994 0.5003 0.5007 0.5008 0.5006 0.5001 0.4991 0.5004 0.5001 0.4993 0.4996 0.4995 0.5001 0.5004 0.4993 0.5 0.5004 0.5003 0.4999 0.499 0.5 0.5003 0.5003 0.4997 0.5006 0.4992 0.5009 0.5001 0.5007 0.5005 0.4997 0.4999 0.501 0.4996 0.5006 0.4991 0.4997 0.4992 0.5004 0.5004 0.5002 0.5001 0.4995 0.5008 0.5001 0.4997 0.501 0.4998 0.4996 0.4998 0.4996 0.5002 0.5002 0.5001 0.4998 0.4998 0.5007 0.5007 0.5005 0.499 0.5007 0.5006 0.4996 0.4989 0.5004 l 0.3827,0.0761 0.3244,0.2168 0.2168,0.3244 L 48.05,1.05 V 1.5497 2.0506 2.5504 3.0502 3.5499 4.05 4.55 5.0499 5.5492 6.049 6.5485 7.049 v 0.4992 0.5005 0.5001 0.5005 0.5 0.5009 0.5001 0.5002 0.4994 0.5003 0.4998 l -0.0762,0.3836 -0.2176,0.3244 -0.3232,0.216 -0.383,0.076 h -0.4992 -0.4997 -0.4993 -0.5004 -0.4996 -0.4992 -0.5009 -0.5008 -0.5008 -0.4996 -0.4998 -0.5 -0.5001 -0.5004 -0.501 H 39.0496 38.549 38.0495 37.549 37.0497 36.5503 36.0496 35.5491 35.0499 34.5495 34.049 33.5489 33.0494 32.5495 32.0503 31.5499 31.0494 30.5491 30.0489 29.5499 29.049 28.5495 28.0507 27.55 l -0.3836,0.0762 -0.3244,0.2176 -0.216,0.3232 -0.076,0.383 v 0.452 0.4508 0.4516 0.4516 0.451 0.4509 0.4505 0.4511 0.4505 l 0.0762,0.3836 0.2176,0.3244 0.3232,0.216 z"
     sodipodi:nodetypes="ccccccccccccccccccccccccccccccccccccccccccccccccccccccccccccccccccccccccccccccccccccccccccccccccccccccccccccccccccccccccccccccccccccccccccccccccccccccccccccccccccccccccccccccccccccccccccccccccccccccccccccccccccccccccccccccccccccccccccccccccccccccccccccccccccccccccccccccccccccccccccccccccccccccccccccccccccccccccccccccccccccccccccccccccccccccccccccccccccccccccccccccccccccccccccccccccccccccccccccccccccccccccccccccccccccccccccccccccccccccccccccccccccccccccccccccccccccccccccccccccccccccccccccccccccc" />
  <metadata
     id="metadata1967">
    <rdf:RDF>
      <cc:Work
         rdf:about="">
        <dc:title>SVG Image created as daughterboard-brd.svg date 2024/05/06 22:17:28 </dc:title>
      </cc:Work>
    </rdf:RDF>
  </metadata>
</svg>
