999
"DXF R12 Output" (www.mydxf.blogspot.com)
 0 
SECTION
 2 
HEADER
 9 
$ACADVER
 1 
AC1009
 9 
$EXTMIN
 10 
 0 
 20 
 0 
 9 
$EXTMAX
 10 
 8.5 
 20 
 11 
 0 
ENDSEC
 0 
SECTION
 2 
ENTITIES
0
LINE
8
daughterboard_right
10
3.400000
20
6.800000
11
3.316000
21
6.379000
0
LINE
8
daughterboard_right
10
3.316000
20
6.379000
11
3.078000
21
6.022000
0
LINE
8
daughterboard_right
10
3.078000
20
6.022000
11
2.721000
21
5.783000
0
LINE
8
daughterboard_right
10
2.721000
20
5.783000
11
2.300000
21
5.700000
0
LINE
8
daughterboard_right
10
2.300000
20
5.700000
11
1.879000
21
5.783000
0
LINE
8
daughterboard_right
10
1.879000
20
5.783000
11
1.522000
21
6.022000
0
LINE
8
daughterboard_right
10
1.522000
20
6.022000
11
1.283000
21
6.379000
0
LINE
8
daughterboard_right
10
1.283000
20
6.379000
11
1.200000
21
6.800000
0
LINE
8
daughterboard_right
10
1.200000
20
6.800000
11
1.283000
21
7.221000
0
LINE
8
daughterboard_right
10
1.283000
20
7.221000
11
1.522000
21
7.577000
0
LINE
8
daughterboard_right
10
1.522000
20
7.577000
11
1.879000
21
7.816000
0
LINE
8
daughterboard_right
10
1.879000
20
7.816000
11
2.300000
21
7.900000
0
LINE
8
daughterboard_right
10
2.300000
20
7.900000
11
2.721000
21
7.816000
0
LINE
8
daughterboard_right
10
2.721000
20
7.816000
11
3.078000
21
7.577000
0
LINE
8
daughterboard_right
10
3.078000
20
7.577000
11
3.316000
21
7.221000
0
LINE
8
daughterboard_right
10
3.316000
20
7.221000
11
3.400000
21
6.800000
0
LINE
8
daughterboard_right
10
46.900000
20
6.800000
11
46.816000
21
6.379000
0
LINE
8
daughterboard_right
10
46.816000
20
6.379000
11
46.577000
21
6.022000
0
LINE
8
daughterboard_right
10
46.577000
20
6.022000
11
46.220000
21
5.783000
0
LINE
8
daughterboard_right
10
46.220000
20
5.783000
11
45.800000
21
5.700000
0
LINE
8
daughterboard_right
10
45.800000
20
5.700000
11
45.379000
21
5.783000
0
LINE
8
daughterboard_right
10
45.379000
20
5.783000
11
45.022000
21
6.022000
0
LINE
8
daughterboard_right
10
45.022000
20
6.022000
11
44.783000
21
6.379000
0
LINE
8
daughterboard_right
10
44.783000
20
6.379000
11
44.700000
21
6.800000
0
LINE
8
daughterboard_right
10
44.700000
20
6.800000
11
44.783000
21
7.220000
0
LINE
8
daughterboard_right
10
44.783000
20
7.220000
11
45.022000
21
7.578000
0
LINE
8
daughterboard_right
10
45.022000
20
7.578000
11
45.379000
21
7.816000
0
LINE
8
daughterboard_right
10
45.379000
20
7.816000
11
45.800000
21
7.900000
0
LINE
8
daughterboard_right
10
45.800000
20
7.900000
11
46.220000
21
7.816000
0
LINE
8
daughterboard_right
10
46.220000
20
7.816000
11
46.578000
21
7.577000
0
LINE
8
daughterboard_right
10
46.578000
20
7.577000
11
46.817000
21
7.220000
0
LINE
8
daughterboard_right
10
46.817000
20
7.220000
11
46.900000
21
6.800000
0
LINE
8
daughterboard_right
10
18.000000
20
8.046000
11
18.483000
21
8.046000
0
LINE
8
daughterboard_right
10
18.483000
20
8.046000
11
18.967000
21
8.046000
0
LINE
8
daughterboard_right
10
18.967000
20
8.046000
11
19.452000
21
8.046000
0
LINE
8
daughterboard_right
10
19.452000
20
8.046000
11
19.936000
21
8.046000
0
LINE
8
daughterboard_right
10
19.936000
20
8.046000
11
20.420000
21
8.046000
0
LINE
8
daughterboard_right
10
20.420000
20
8.046000
11
20.904000
21
8.046000
0
LINE
8
daughterboard_right
10
20.904000
20
8.046000
11
21.387000
21
8.046000
0
LINE
8
daughterboard_right
10
21.387000
20
8.046000
11
21.870000
21
8.046000
0
LINE
8
daughterboard_right
10
21.870000
20
8.046000
11
22.353000
21
8.046000
0
LINE
8
daughterboard_right
10
22.353000
20
8.046000
11
22.838000
21
8.046000
0
LINE
8
daughterboard_right
10
22.838000
20
8.046000
11
23.322000
21
8.046000
0
LINE
8
daughterboard_right
10
23.322000
20
8.046000
11
23.807000
21
8.046000
0
LINE
8
daughterboard_right
10
23.807000
20
8.046000
11
24.291000
21
8.046000
0
LINE
8
daughterboard_right
10
24.291000
20
8.046000
11
24.775000
21
8.046000
0
LINE
8
daughterboard_right
10
24.775000
20
8.046000
11
25.258000
21
8.046000
0
LINE
8
daughterboard_right
10
25.258000
20
8.046000
11
25.742000
21
8.046000
0
LINE
8
daughterboard_right
10
25.742000
20
8.046000
11
26.227000
21
8.046000
0
LINE
8
daughterboard_right
10
26.227000
20
8.046000
11
26.711000
21
8.046000
0
LINE
8
daughterboard_right
10
26.711000
20
8.046000
11
27.195000
21
8.046000
0
LINE
8
daughterboard_right
10
27.195000
20
8.046000
11
27.679000
21
8.046000
0
LINE
8
daughterboard_right
10
27.679000
20
8.046000
11
28.163000
21
8.046000
0
LINE
8
daughterboard_right
10
28.163000
20
8.046000
11
28.647000
21
8.046000
0
LINE
8
daughterboard_right
10
28.647000
20
8.046000
11
29.130000
21
8.046000
0
LINE
8
daughterboard_right
10
29.130000
20
8.046000
11
29.615000
21
8.046000
0
LINE
8
daughterboard_right
10
29.615000
20
8.046000
11
30.100000
21
8.046000
0
LINE
8
daughterboard_right
10
30.100000
20
8.046000
11
30.100000
21
8.046000
0
LINE
8
daughterboard_right
10
30.100000
20
8.046000
11
30.100000
21
7.546000
0
LINE
8
daughterboard_right
10
30.100000
20
7.546000
11
30.100000
21
7.047000
0
LINE
8
daughterboard_right
10
30.100000
20
7.047000
11
30.100000
21
6.548000
0
LINE
8
daughterboard_right
10
30.100000
20
6.548000
11
30.100000
21
6.049000
0
LINE
8
daughterboard_right
10
30.100000
20
6.049000
11
30.100000
21
5.549000
0
LINE
8
daughterboard_right
10
30.100000
20
5.549000
11
30.100000
21
5.049000
0
LINE
8
daughterboard_right
10
30.100000
20
5.049000
11
30.100000
21
4.549000
0
LINE
8
daughterboard_right
10
30.100000
20
4.549000
11
30.100000
21
4.049000
0
LINE
8
daughterboard_right
10
30.100000
20
4.049000
11
30.100000
21
3.549000
0
LINE
8
daughterboard_right
10
30.100000
20
3.549000
11
30.100000
21
3.050000
0
LINE
8
daughterboard_right
10
30.100000
20
3.050000
11
30.100000
21
2.550000
0
LINE
8
daughterboard_right
10
30.100000
20
2.550000
11
30.100000
21
2.051000
0
LINE
8
daughterboard_right
10
30.100000
20
2.051000
11
30.100000
21
1.550000
0
LINE
8
daughterboard_right
10
30.100000
20
1.550000
11
30.100000
21
1.051000
0
LINE
8
daughterboard_right
10
30.100000
20
1.051000
11
30.100000
21
0.551000
0
LINE
8
daughterboard_right
10
30.100000
20
0.551000
11
30.100000
21
0.050000
0
LINE
8
daughterboard_right
10
30.100000
20
0.050000
11
30.100000
21
0.050000
0
LINE
8
daughterboard_right
10
30.100000
20
0.050000
11
29.616000
21
0.050000
0
LINE
8
daughterboard_right
10
29.616000
20
0.050000
11
29.132000
21
0.050000
0
LINE
8
daughterboard_right
10
29.132000
20
0.050000
11
28.648000
21
0.050000
0
LINE
8
daughterboard_right
10
28.648000
20
0.050000
11
28.164000
21
0.050000
0
LINE
8
daughterboard_right
10
28.164000
20
0.050000
11
27.680000
21
0.050000
0
LINE
8
daughterboard_right
10
27.680000
20
0.050000
11
27.196000
21
0.050000
0
LINE
8
daughterboard_right
10
27.196000
20
0.050000
11
26.713000
21
0.050000
0
LINE
8
daughterboard_right
10
26.713000
20
0.050000
11
26.230000
21
0.050000
0
LINE
8
daughterboard_right
10
26.230000
20
0.050000
11
25.746000
21
0.050000
0
LINE
8
daughterboard_right
10
25.746000
20
0.050000
11
25.261000
21
0.050000
0
LINE
8
daughterboard_right
10
25.261000
20
0.050000
11
24.777000
21
0.050000
0
LINE
8
daughterboard_right
10
24.777000
20
0.050000
11
24.293000
21
0.050000
0
LINE
8
daughterboard_right
10
24.293000
20
0.050000
11
23.808000
21
0.050000
0
LINE
8
daughterboard_right
10
23.808000
20
0.050000
11
23.324000
21
0.050000
0
LINE
8
daughterboard_right
10
23.324000
20
0.050000
11
22.841000
21
0.050000
0
LINE
8
daughterboard_right
10
22.841000
20
0.050000
11
22.357000
21
0.050000
0
LINE
8
daughterboard_right
10
22.357000
20
0.050000
11
21.872000
21
0.050000
0
LINE
8
daughterboard_right
10
21.872000
20
0.050000
11
21.388000
21
0.050000
0
LINE
8
daughterboard_right
10
21.388000
20
0.050000
11
20.904000
21
0.050000
0
LINE
8
daughterboard_right
10
20.904000
20
0.050000
11
20.420000
21
0.050000
0
LINE
8
daughterboard_right
10
20.420000
20
0.050000
11
19.937000
21
0.050000
0
LINE
8
daughterboard_right
10
19.937000
20
0.050000
11
19.453000
21
0.050000
0
LINE
8
daughterboard_right
10
19.453000
20
0.050000
11
18.969000
21
0.050000
0
LINE
8
daughterboard_right
10
18.969000
20
0.050000
11
18.485000
21
0.050000
0
LINE
8
daughterboard_right
10
18.485000
20
0.050000
11
18.000000
21
0.050000
0
LINE
8
daughterboard_right
10
18.000000
20
0.050000
11
18.000000
21
0.050000
0
LINE
8
daughterboard_right
10
18.000000
20
0.050000
11
18.000000
21
0.550000
0
LINE
8
daughterboard_right
10
18.000000
20
0.550000
11
18.000000
21
1.049000
0
LINE
8
daughterboard_right
10
18.000000
20
1.049000
11
18.000000
21
1.548000
0
LINE
8
daughterboard_right
10
18.000000
20
1.548000
11
18.000000
21
2.047000
0
LINE
8
daughterboard_right
10
18.000000
20
2.047000
11
18.000000
21
2.547000
0
LINE
8
daughterboard_right
10
18.000000
20
2.547000
11
18.000000
21
3.048000
0
LINE
8
daughterboard_right
10
18.000000
20
3.048000
11
18.000000
21
3.547000
0
LINE
8
daughterboard_right
10
18.000000
20
3.547000
11
18.000000
21
4.048000
0
LINE
8
daughterboard_right
10
18.000000
20
4.048000
11
18.000000
21
4.547000
0
LINE
8
daughterboard_right
10
18.000000
20
4.547000
11
18.000000
21
5.046000
0
LINE
8
daughterboard_right
10
18.000000
20
5.046000
11
18.000000
21
5.546000
0
LINE
8
daughterboard_right
10
18.000000
20
5.546000
11
18.000000
21
6.046000
0
LINE
8
daughterboard_right
10
18.000000
20
6.046000
11
18.000000
21
6.546000
0
LINE
8
daughterboard_right
10
18.000000
20
6.546000
11
18.000000
21
7.046000
0
LINE
8
daughterboard_right
10
18.000000
20
7.046000
11
18.000000
21
7.545000
0
LINE
8
daughterboard_right
10
18.000000
20
7.545000
11
18.000000
21
8.046000
0
LINE
8
daughterboard_right
10
30.772000
20
15.550000
11
31.251000
21
15.550000
0
LINE
8
daughterboard_right
10
31.251000
20
15.550000
11
31.730000
21
15.550000
0
LINE
8
daughterboard_right
10
31.730000
20
15.550000
11
32.210000
21
15.550000
0
LINE
8
daughterboard_right
10
32.210000
20
15.550000
11
32.690000
21
15.550000
0
LINE
8
daughterboard_right
10
32.690000
20
15.550000
11
33.170000
21
15.550000
0
LINE
8
daughterboard_right
10
33.170000
20
15.550000
11
33.649000
21
15.550000
0
LINE
8
daughterboard_right
10
33.649000
20
15.550000
11
34.128000
21
15.550000
0
LINE
8
daughterboard_right
10
34.128000
20
15.550000
11
34.608000
21
15.550000
0
LINE
8
daughterboard_right
10
34.608000
20
15.550000
11
35.089000
21
15.550000
0
LINE
8
daughterboard_right
10
35.089000
20
15.550000
11
35.568000
21
15.550000
0
LINE
8
daughterboard_right
10
35.568000
20
15.550000
11
36.047000
21
15.550000
0
LINE
8
daughterboard_right
10
36.047000
20
15.550000
11
36.528000
21
15.550000
0
LINE
8
daughterboard_right
10
36.528000
20
15.550000
11
37.009000
21
15.550000
0
LINE
8
daughterboard_right
10
37.009000
20
15.550000
11
37.489000
21
15.550000
0
LINE
8
daughterboard_right
10
37.489000
20
15.550000
11
37.969000
21
15.550000
0
LINE
8
daughterboard_right
10
37.969000
20
15.550000
11
38.448000
21
15.550000
0
LINE
8
daughterboard_right
10
38.448000
20
15.550000
11
38.929000
21
15.550000
0
LINE
8
daughterboard_right
10
38.929000
20
15.550000
11
39.409000
21
15.550000
0
LINE
8
daughterboard_right
10
39.409000
20
15.550000
11
39.889000
21
15.550000
0
LINE
8
daughterboard_right
10
39.889000
20
15.550000
11
40.369000
21
15.550000
0
LINE
8
daughterboard_right
10
40.369000
20
15.550000
11
40.848000
21
15.550000
0
LINE
8
daughterboard_right
10
40.848000
20
15.550000
11
41.327000
21
15.550000
0
LINE
8
daughterboard_right
10
41.327000
20
15.550000
11
41.327000
21
15.550000
0
LINE
8
daughterboard_right
10
41.327000
20
15.550000
11
41.327000
21
15.049000
0
LINE
8
daughterboard_right
10
41.327000
20
15.049000
11
41.327000
21
14.550000
0
LINE
8
daughterboard_right
10
41.327000
20
14.550000
11
41.327000
21
14.051000
0
LINE
8
daughterboard_right
10
41.327000
20
14.051000
11
41.327000
21
13.552000
0
LINE
8
daughterboard_right
10
41.327000
20
13.552000
11
41.327000
21
13.052000
0
LINE
8
daughterboard_right
10
41.327000
20
13.052000
11
41.327000
21
12.552000
0
LINE
8
daughterboard_right
10
41.327000
20
12.552000
11
41.327000
21
12.052000
0
LINE
8
daughterboard_right
10
41.327000
20
12.052000
11
41.327000
21
11.552000
0
LINE
8
daughterboard_right
10
41.327000
20
11.552000
11
41.327000
21
11.052000
0
LINE
8
daughterboard_right
10
41.327000
20
11.052000
11
41.327000
21
10.553000
0
LINE
8
daughterboard_right
10
41.327000
20
10.553000
11
41.327000
21
10.053000
0
LINE
8
daughterboard_right
10
41.327000
20
10.053000
11
41.327000
21
9.554000
0
LINE
8
daughterboard_right
10
41.327000
20
9.554000
11
41.327000
21
9.053000
0
LINE
8
daughterboard_right
10
41.327000
20
9.053000
11
41.327000
21
8.554000
0
LINE
8
daughterboard_right
10
41.327000
20
8.554000
11
41.327000
21
8.054000
0
LINE
8
daughterboard_right
10
41.327000
20
8.054000
11
41.327000
21
7.553000
0
LINE
8
daughterboard_right
10
41.327000
20
7.553000
11
41.327000
21
7.553000
0
LINE
8
daughterboard_right
10
41.327000
20
7.553000
11
40.848000
21
7.553000
0
LINE
8
daughterboard_right
10
40.848000
20
7.553000
11
40.369000
21
7.553000
0
LINE
8
daughterboard_right
10
40.369000
20
7.553000
11
39.889000
21
7.553000
0
LINE
8
daughterboard_right
10
39.889000
20
7.553000
11
39.409000
21
7.553000
0
LINE
8
daughterboard_right
10
39.409000
20
7.553000
11
38.929000
21
7.553000
0
LINE
8
daughterboard_right
10
38.929000
20
7.553000
11
38.450000
21
7.553000
0
LINE
8
daughterboard_right
10
38.450000
20
7.553000
11
37.971000
21
7.553000
0
LINE
8
daughterboard_right
10
37.971000
20
7.553000
11
37.490000
21
7.553000
0
LINE
8
daughterboard_right
10
37.490000
20
7.553000
11
37.010000
21
7.553000
0
LINE
8
daughterboard_right
10
37.010000
20
7.553000
11
36.531000
21
7.553000
0
LINE
8
daughterboard_right
10
36.531000
20
7.553000
11
36.051000
21
7.553000
0
LINE
8
daughterboard_right
10
36.051000
20
7.553000
11
35.571000
21
7.553000
0
LINE
8
daughterboard_right
10
35.571000
20
7.553000
11
35.090000
21
7.553000
0
LINE
8
daughterboard_right
10
35.090000
20
7.553000
11
34.609000
21
7.553000
0
LINE
8
daughterboard_right
10
34.609000
20
7.553000
11
34.130000
21
7.553000
0
LINE
8
daughterboard_right
10
34.130000
20
7.553000
11
33.650000
21
7.553000
0
LINE
8
daughterboard_right
10
33.650000
20
7.553000
11
33.170000
21
7.553000
0
LINE
8
daughterboard_right
10
33.170000
20
7.553000
11
32.690000
21
7.553000
0
LINE
8
daughterboard_right
10
32.690000
20
7.553000
11
32.210000
21
7.553000
0
LINE
8
daughterboard_right
10
32.210000
20
7.553000
11
31.730000
21
7.553000
0
LINE
8
daughterboard_right
10
31.730000
20
7.553000
11
31.251000
21
7.553000
0
LINE
8
daughterboard_right
10
31.251000
20
7.553000
11
30.772000
21
7.553000
0
LINE
8
daughterboard_right
10
30.772000
20
7.553000
11
30.772000
21
7.553000
0
LINE
8
daughterboard_right
10
30.772000
20
7.553000
11
30.772000
21
8.053000
0
LINE
8
daughterboard_right
10
30.772000
20
8.053000
11
30.772000
21
8.552000
0
LINE
8
daughterboard_right
10
30.772000
20
8.552000
11
30.772000
21
9.051000
0
LINE
8
daughterboard_right
10
30.772000
20
9.051000
11
30.772000
21
9.551000
0
LINE
8
daughterboard_right
10
30.772000
20
9.551000
11
30.772000
21
10.051000
0
LINE
8
daughterboard_right
10
30.772000
20
10.051000
11
30.772000
21
10.551000
0
LINE
8
daughterboard_right
10
30.772000
20
10.551000
11
30.772000
21
11.050000
0
LINE
8
daughterboard_right
10
30.772000
20
11.050000
11
30.772000
21
11.551000
0
LINE
8
daughterboard_right
10
30.772000
20
11.551000
11
30.772000
21
12.050000
0
LINE
8
daughterboard_right
10
30.772000
20
12.050000
11
30.772000
21
12.549000
0
LINE
8
daughterboard_right
10
30.772000
20
12.549000
11
30.772000
21
13.049000
0
LINE
8
daughterboard_right
10
30.772000
20
13.049000
11
30.772000
21
13.549000
0
LINE
8
daughterboard_right
10
30.772000
20
13.549000
11
30.772000
21
14.049000
0
LINE
8
daughterboard_right
10
30.772000
20
14.049000
11
30.772000
21
14.549000
0
LINE
8
daughterboard_right
10
30.772000
20
14.549000
11
30.772000
21
15.048000
0
LINE
8
daughterboard_right
10
30.772000
20
15.048000
11
30.772000
21
15.550000
0
LINE
8
daughterboard_right
10
0.050000
20
13.550000
11
0.550000
21
13.550000
0
LINE
8
daughterboard_right
10
0.550000
20
13.550000
11
1.051000
21
13.550000
0
LINE
8
daughterboard_right
10
1.051000
20
13.550000
11
1.551000
21
13.550000
0
LINE
8
daughterboard_right
10
1.551000
20
13.550000
11
2.051000
21
13.550000
0
LINE
8
daughterboard_right
10
2.051000
20
13.550000
11
2.552000
21
13.550000
0
LINE
8
daughterboard_right
10
2.552000
20
13.550000
11
3.052000
21
13.550000
0
LINE
8
daughterboard_right
10
3.052000
20
13.550000
11
3.552000
21
13.550000
0
LINE
8
daughterboard_right
10
3.552000
20
13.550000
11
4.052000
21
13.550000
0
LINE
8
daughterboard_right
10
4.052000
20
13.550000
11
4.552000
21
13.550000
0
LINE
8
daughterboard_right
10
4.552000
20
13.550000
11
5.053000
21
13.550000
0
LINE
8
daughterboard_right
10
5.053000
20
13.550000
11
5.553000
21
13.550000
0
LINE
8
daughterboard_right
10
5.553000
20
13.550000
11
6.053000
21
13.550000
0
LINE
8
daughterboard_right
10
6.053000
20
13.550000
11
6.554000
21
13.550000
0
LINE
8
daughterboard_right
10
6.554000
20
13.550000
11
7.053000
21
13.550000
0
LINE
8
daughterboard_right
10
7.053000
20
13.550000
11
7.553000
21
13.550000
0
LINE
8
daughterboard_right
10
7.553000
20
13.550000
11
8.053000
21
13.550000
0
LINE
8
daughterboard_right
10
8.053000
20
13.550000
11
8.554000
21
13.550000
0
LINE
8
daughterboard_right
10
8.554000
20
13.550000
11
9.053000
21
13.550000
0
LINE
8
daughterboard_right
10
9.053000
20
13.550000
11
9.553000
21
13.550000
0
LINE
8
daughterboard_right
10
9.553000
20
13.550000
11
10.053000
21
13.550000
0
LINE
8
daughterboard_right
10
10.053000
20
13.550000
11
10.553000
21
13.550000
0
LINE
8
daughterboard_right
10
10.553000
20
13.550000
11
11.053000
21
13.550000
0
LINE
8
daughterboard_right
10
11.053000
20
13.550000
11
11.553000
21
13.550000
0
LINE
8
daughterboard_right
10
11.553000
20
13.550000
11
12.052000
21
13.550000
0
LINE
8
daughterboard_right
10
12.052000
20
13.550000
11
12.553000
21
13.550000
0
LINE
8
daughterboard_right
10
12.553000
20
13.550000
11
13.053000
21
13.550000
0
LINE
8
daughterboard_right
10
13.053000
20
13.550000
11
13.553000
21
13.550000
0
LINE
8
daughterboard_right
10
13.553000
20
13.550000
11
14.052000
21
13.550000
0
LINE
8
daughterboard_right
10
14.052000
20
13.550000
11
14.552000
21
13.550000
0
LINE
8
daughterboard_right
10
14.552000
20
13.550000
11
15.052000
21
13.550000
0
LINE
8
daughterboard_right
10
15.052000
20
13.550000
11
15.552000
21
13.550000
0
LINE
8
daughterboard_right
10
15.552000
20
13.550000
11
16.052000
21
13.550000
0
LINE
8
daughterboard_right
10
16.052000
20
13.550000
11
16.552000
21
13.550000
0
LINE
8
daughterboard_right
10
16.552000
20
13.550000
11
17.052000
21
13.550000
0
LINE
8
daughterboard_right
10
17.052000
20
13.550000
11
17.552000
21
13.550000
0
LINE
8
daughterboard_right
10
17.552000
20
13.550000
11
18.051000
21
13.550000
0
LINE
8
daughterboard_right
10
18.051000
20
13.550000
11
18.551000
21
13.550000
0
LINE
8
daughterboard_right
10
18.551000
20
13.550000
11
19.051000
21
13.550000
0
LINE
8
daughterboard_right
10
19.051000
20
13.550000
11
19.551000
21
13.550000
0
LINE
8
daughterboard_right
10
19.551000
20
13.550000
11
20.051000
21
13.550000
0
LINE
8
daughterboard_right
10
20.051000
20
13.550000
11
20.551000
21
13.550000
0
LINE
8
daughterboard_right
10
20.551000
20
13.550000
11
21.051000
21
13.550000
0
LINE
8
daughterboard_right
10
21.051000
20
13.550000
11
21.550000
21
13.550000
0
LINE
8
daughterboard_right
10
21.550000
20
13.550000
11
22.051000
21
13.550000
0
LINE
8
daughterboard_right
10
22.051000
20
13.550000
11
22.551000
21
13.550000
0
LINE
8
daughterboard_right
10
22.551000
20
13.550000
11
23.051000
21
13.550000
0
LINE
8
daughterboard_right
10
23.051000
20
13.550000
11
23.551000
21
13.550000
0
LINE
8
daughterboard_right
10
23.551000
20
13.550000
11
24.050000
21
13.550000
0
LINE
8
daughterboard_right
10
24.050000
20
13.550000
11
24.551000
21
13.550000
0
LINE
8
daughterboard_right
10
24.551000
20
13.550000
11
25.051000
21
13.550000
0
LINE
8
daughterboard_right
10
25.051000
20
13.550000
11
25.551000
21
13.550000
0
LINE
8
daughterboard_right
10
25.551000
20
13.550000
11
26.051000
21
13.550000
0
LINE
8
daughterboard_right
10
26.051000
20
13.550000
11
26.551000
21
13.550000
0
LINE
8
daughterboard_right
10
26.551000
20
13.550000
11
27.051000
21
13.550000
0
LINE
8
daughterboard_right
10
27.051000
20
13.550000
11
27.550000
21
13.550000
0
LINE
8
daughterboard_right
10
27.550000
20
13.550000
11
28.050000
21
13.550000
0
LINE
8
daughterboard_right
10
28.050000
20
13.550000
11
28.551000
21
13.550000
0
LINE
8
daughterboard_right
10
28.551000
20
13.550000
11
29.051000
21
13.550000
0
LINE
8
daughterboard_right
10
29.051000
20
13.550000
11
29.550000
21
13.550000
0
LINE
8
daughterboard_right
10
29.550000
20
13.550000
11
30.050000
21
13.550000
0
LINE
8
daughterboard_right
10
30.050000
20
13.550000
11
30.549000
21
13.550000
0
LINE
8
daughterboard_right
10
30.549000
20
13.550000
11
31.050000
21
13.550000
0
LINE
8
daughterboard_right
10
31.050000
20
13.550000
11
31.550000
21
13.550000
0
LINE
8
daughterboard_right
10
31.550000
20
13.550000
11
32.050000
21
13.550000
0
LINE
8
daughterboard_right
10
32.050000
20
13.550000
11
32.550000
21
13.550000
0
LINE
8
daughterboard_right
10
32.550000
20
13.550000
11
33.051000
21
13.550000
0
LINE
8
daughterboard_right
10
33.051000
20
13.550000
11
33.550000
21
13.550000
0
LINE
8
daughterboard_right
10
33.550000
20
13.550000
11
34.050000
21
13.550000
0
LINE
8
daughterboard_right
10
34.050000
20
13.550000
11
34.549000
21
13.550000
0
LINE
8
daughterboard_right
10
34.549000
20
13.550000
11
35.050000
21
13.550000
0
LINE
8
daughterboard_right
10
35.050000
20
13.550000
11
35.550000
21
13.550000
0
LINE
8
daughterboard_right
10
35.550000
20
13.550000
11
36.051000
21
13.550000
0
LINE
8
daughterboard_right
10
36.051000
20
13.550000
11
36.551000
21
13.550000
0
LINE
8
daughterboard_right
10
36.551000
20
13.550000
11
37.050000
21
13.550000
0
LINE
8
daughterboard_right
10
37.050000
20
13.550000
11
37.551000
21
13.550000
0
LINE
8
daughterboard_right
10
37.551000
20
13.550000
11
38.051000
21
13.550000
0
LINE
8
daughterboard_right
10
38.051000
20
13.550000
11
38.550000
21
13.550000
0
LINE
8
daughterboard_right
10
38.550000
20
13.550000
11
39.051000
21
13.550000
0
LINE
8
daughterboard_right
10
39.051000
20
13.550000
11
39.551000
21
13.550000
0
LINE
8
daughterboard_right
10
39.551000
20
13.550000
11
40.050000
21
13.550000
0
LINE
8
daughterboard_right
10
40.050000
20
13.550000
11
40.550000
21
13.550000
0
LINE
8
daughterboard_right
10
40.550000
20
13.550000
11
41.049000
21
13.550000
0
LINE
8
daughterboard_right
10
41.049000
20
13.550000
11
41.549000
21
13.550000
0
LINE
8
daughterboard_right
10
41.549000
20
13.550000
11
42.049000
21
13.550000
0
LINE
8
daughterboard_right
10
42.049000
20
13.550000
11
42.549000
21
13.550000
0
LINE
8
daughterboard_right
10
42.549000
20
13.550000
11
43.050000
21
13.550000
0
LINE
8
daughterboard_right
10
43.050000
20
13.550000
11
43.551000
21
13.550000
0
LINE
8
daughterboard_right
10
43.551000
20
13.550000
11
44.050000
21
13.550000
0
LINE
8
daughterboard_right
10
44.050000
20
13.550000
11
44.550000
21
13.550000
0
LINE
8
daughterboard_right
10
44.550000
20
13.550000
11
45.050000
21
13.550000
0
LINE
8
daughterboard_right
10
45.050000
20
13.550000
11
45.550000
21
13.550000
0
LINE
8
daughterboard_right
10
45.550000
20
13.550000
11
46.049000
21
13.550000
0
LINE
8
daughterboard_right
10
46.049000
20
13.550000
11
46.548000
21
13.550000
0
LINE
8
daughterboard_right
10
46.548000
20
13.550000
11
47.049000
21
13.550000
0
LINE
8
daughterboard_right
10
47.049000
20
13.550000
11
47.549000
21
13.550000
0
LINE
8
daughterboard_right
10
47.549000
20
13.550000
11
48.050000
21
13.550000
0
LINE
8
daughterboard_right
10
48.050000
20
13.550000
11
48.050000
21
13.049000
0
LINE
8
daughterboard_right
10
48.050000
20
13.049000
11
48.050000
21
12.550000
0
LINE
8
daughterboard_right
10
48.050000
20
12.550000
11
48.050000
21
12.049000
0
LINE
8
daughterboard_right
10
48.050000
20
12.049000
11
48.050000
21
11.549000
0
LINE
8
daughterboard_right
10
48.050000
20
11.549000
11
48.050000
21
11.049000
0
LINE
8
daughterboard_right
10
48.050000
20
11.049000
11
48.050000
21
10.549000
0
LINE
8
daughterboard_right
10
48.050000
20
10.549000
11
48.050000
21
10.049000
0
LINE
8
daughterboard_right
10
48.050000
20
10.049000
11
48.050000
21
9.549000
0
LINE
8
daughterboard_right
10
48.050000
20
9.549000
11
48.050000
21
9.049000
0
LINE
8
daughterboard_right
10
48.050000
20
9.049000
11
48.050000
21
8.548000
0
LINE
8
daughterboard_right
10
48.050000
20
8.548000
11
48.050000
21
8.049000
0
LINE
8
daughterboard_right
10
48.050000
20
8.049000
11
48.050000
21
7.548000
0
LINE
8
daughterboard_right
10
48.050000
20
7.548000
11
48.050000
21
7.048000
0
LINE
8
daughterboard_right
10
48.050000
20
7.048000
11
48.050000
21
6.548000
0
LINE
8
daughterboard_right
10
48.050000
20
6.548000
11
48.050000
21
6.048000
0
LINE
8
daughterboard_right
10
48.050000
20
6.048000
11
48.050000
21
5.547000
0
LINE
8
daughterboard_right
10
48.050000
20
5.547000
11
48.050000
21
5.048000
0
LINE
8
daughterboard_right
10
48.050000
20
5.048000
11
48.050000
21
4.549000
0
LINE
8
daughterboard_right
10
48.050000
20
4.549000
11
48.050000
21
4.049000
0
LINE
8
daughterboard_right
10
48.050000
20
4.049000
11
48.050000
21
3.549000
0
LINE
8
daughterboard_right
10
48.050000
20
3.549000
11
48.050000
21
3.049000
0
LINE
8
daughterboard_right
10
48.050000
20
3.049000
11
48.050000
21
2.549000
0
LINE
8
daughterboard_right
10
48.050000
20
2.549000
11
48.050000
21
2.049000
0
LINE
8
daughterboard_right
10
48.050000
20
2.049000
11
48.050000
21
1.549000
0
LINE
8
daughterboard_right
10
48.050000
20
1.549000
11
48.050000
21
1.048000
0
LINE
8
daughterboard_right
10
48.050000
20
1.048000
11
48.050000
21
0.548000
0
LINE
8
daughterboard_right
10
48.050000
20
0.548000
11
48.050000
21
0.050000
0
LINE
8
daughterboard_right
10
48.050000
20
0.050000
11
47.549000
21
0.050000
0
LINE
8
daughterboard_right
10
47.549000
20
0.050000
11
47.048000
21
0.050000
0
LINE
8
daughterboard_right
10
47.048000
20
0.050000
11
46.549000
21
0.050000
0
LINE
8
daughterboard_right
10
46.549000
20
0.050000
11
46.048000
21
0.050000
0
LINE
8
daughterboard_right
10
46.048000
20
0.050000
11
45.548000
21
0.050000
0
LINE
8
daughterboard_right
10
45.548000
20
0.050000
11
45.047000
21
0.050000
0
LINE
8
daughterboard_right
10
45.047000
20
0.050000
11
44.548000
21
0.050000
0
LINE
8
daughterboard_right
10
44.548000
20
0.050000
11
44.047000
21
0.050000
0
LINE
8
daughterboard_right
10
44.047000
20
0.050000
11
43.547000
21
0.050000
0
LINE
8
daughterboard_right
10
43.547000
20
0.050000
11
43.047000
21
0.050000
0
LINE
8
daughterboard_right
10
43.047000
20
0.050000
11
42.546000
21
0.050000
0
LINE
8
daughterboard_right
10
42.546000
20
0.050000
11
42.046000
21
0.050000
0
LINE
8
daughterboard_right
10
42.046000
20
0.050000
11
41.545000
21
0.050000
0
LINE
8
daughterboard_right
10
41.545000
20
0.050000
11
41.046000
21
0.050000
0
LINE
8
daughterboard_right
10
41.046000
20
0.050000
11
40.547000
21
0.050000
0
LINE
8
daughterboard_right
10
40.547000
20
0.050000
11
40.046000
21
0.050000
0
LINE
8
daughterboard_right
10
40.046000
20
0.050000
11
39.546000
21
0.050000
0
LINE
8
daughterboard_right
10
39.546000
20
0.050000
11
39.046000
21
0.050000
0
LINE
8
daughterboard_right
10
39.046000
20
0.050000
11
38.546000
21
0.050000
0
LINE
8
daughterboard_right
10
38.546000
20
0.050000
11
38.046000
21
0.050000
0
LINE
8
daughterboard_right
10
38.046000
20
0.050000
11
37.546000
21
0.050000
0
LINE
8
daughterboard_right
10
37.546000
20
0.050000
11
37.046000
21
0.050000
0
LINE
8
daughterboard_right
10
37.046000
20
0.050000
11
36.547000
21
0.050000
0
LINE
8
daughterboard_right
10
36.547000
20
0.050000
11
36.047000
21
0.050000
0
LINE
8
daughterboard_right
10
36.047000
20
0.050000
11
35.547000
21
0.050000
0
LINE
8
daughterboard_right
10
35.547000
20
0.050000
11
35.046000
21
0.050000
0
LINE
8
daughterboard_right
10
35.046000
20
0.050000
11
34.547000
21
0.050000
0
LINE
8
daughterboard_right
10
34.547000
20
0.050000
11
34.048000
21
0.050000
0
LINE
8
daughterboard_right
10
34.048000
20
0.050000
11
33.547000
21
0.050000
0
LINE
8
daughterboard_right
10
33.547000
20
0.050000
11
33.047000
21
0.050000
0
LINE
8
daughterboard_right
10
33.047000
20
0.050000
11
32.547000
21
0.050000
0
LINE
8
daughterboard_right
10
32.547000
20
0.050000
11
32.047000
21
0.050000
0
LINE
8
daughterboard_right
10
32.047000
20
0.050000
11
31.547000
21
0.050000
0
LINE
8
daughterboard_right
10
31.547000
20
0.050000
11
31.047000
21
0.050000
0
LINE
8
daughterboard_right
10
31.047000
20
0.050000
11
30.548000
21
0.050000
0
LINE
8
daughterboard_right
10
30.548000
20
0.050000
11
30.048000
21
0.050000
0
LINE
8
daughterboard_right
10
30.048000
20
0.050000
11
29.548000
21
0.050000
0
LINE
8
daughterboard_right
10
29.548000
20
0.050000
11
29.048000
21
0.050000
0
LINE
8
daughterboard_right
10
29.048000
20
0.050000
11
28.549000
21
0.050000
0
LINE
8
daughterboard_right
10
28.549000
20
0.050000
11
28.049000
21
0.050000
0
LINE
8
daughterboard_right
10
28.049000
20
0.050000
11
27.549000
21
0.050000
0
LINE
8
daughterboard_right
10
27.549000
20
0.050000
11
27.049000
21
0.050000
0
LINE
8
daughterboard_right
10
27.049000
20
0.050000
11
26.549000
21
0.050000
0
LINE
8
daughterboard_right
10
26.549000
20
0.050000
11
26.048000
21
0.050000
0
LINE
8
daughterboard_right
10
26.048000
20
0.050000
11
25.549000
21
0.050000
0
LINE
8
daughterboard_right
10
25.549000
20
0.050000
11
25.048000
21
0.050000
0
LINE
8
daughterboard_right
10
25.048000
20
0.050000
11
24.548000
21
0.050000
0
LINE
8
daughterboard_right
10
24.548000
20
0.050000
11
24.049000
21
0.050000
0
LINE
8
daughterboard_right
10
24.049000
20
0.050000
11
23.548000
21
0.050000
0
LINE
8
daughterboard_right
10
23.548000
20
0.050000
11
23.048000
21
0.050000
0
LINE
8
daughterboard_right
10
23.048000
20
0.050000
11
22.549000
21
0.050000
0
LINE
8
daughterboard_right
10
22.549000
20
0.050000
11
22.049000
21
0.050000
0
LINE
8
daughterboard_right
10
22.049000
20
0.050000
11
21.549000
21
0.050000
0
LINE
8
daughterboard_right
10
21.549000
20
0.050000
11
21.049000
21
0.050000
0
LINE
8
daughterboard_right
10
21.049000
20
0.050000
11
20.549000
21
0.050000
0
LINE
8
daughterboard_right
10
20.549000
20
0.050000
11
20.049000
21
0.050000
0
LINE
8
daughterboard_right
10
20.049000
20
0.050000
11
19.549000
21
0.050000
0
LINE
8
daughterboard_right
10
19.549000
20
0.050000
11
19.049000
21
0.050000
0
LINE
8
daughterboard_right
10
19.049000
20
0.050000
11
18.549000
21
0.050000
0
LINE
8
daughterboard_right
10
18.549000
20
0.050000
11
18.050000
21
0.050000
0
LINE
8
daughterboard_right
10
18.050000
20
0.050000
11
17.550000
21
0.050000
0
LINE
8
daughterboard_right
10
17.550000
20
0.050000
11
17.050000
21
0.050000
0
LINE
8
daughterboard_right
10
17.050000
20
0.050000
11
16.549000
21
0.050000
0
LINE
8
daughterboard_right
10
16.549000
20
0.050000
11
16.050000
21
0.050000
0
LINE
8
daughterboard_right
10
16.050000
20
0.050000
11
15.549000
21
0.050000
0
LINE
8
daughterboard_right
10
15.549000
20
0.050000
11
15.049000
21
0.050000
0
LINE
8
daughterboard_right
10
15.049000
20
0.050000
11
14.549000
21
0.050000
0
LINE
8
daughterboard_right
10
14.549000
20
0.050000
11
14.049000
21
0.050000
0
LINE
8
daughterboard_right
10
14.049000
20
0.050000
11
13.550000
21
0.050000
0
LINE
8
daughterboard_right
10
13.550000
20
0.050000
11
13.049000
21
0.050000
0
LINE
8
daughterboard_right
10
13.049000
20
0.050000
11
12.549000
21
0.050000
0
LINE
8
daughterboard_right
10
12.549000
20
0.050000
11
12.049000
21
0.050000
0
LINE
8
daughterboard_right
10
12.049000
20
0.050000
11
11.549000
21
0.050000
0
LINE
8
daughterboard_right
10
11.549000
20
0.050000
11
11.049000
21
0.050000
0
LINE
8
daughterboard_right
10
11.049000
20
0.050000
11
10.549000
21
0.050000
0
LINE
8
daughterboard_right
10
10.549000
20
0.050000
11
10.049000
21
0.050000
0
LINE
8
daughterboard_right
10
10.049000
20
0.050000
11
9.549000
21
0.050000
0
LINE
8
daughterboard_right
10
9.549000
20
0.050000
11
9.048000
21
0.050000
0
LINE
8
daughterboard_right
10
9.048000
20
0.050000
11
8.549000
21
0.050000
0
LINE
8
daughterboard_right
10
8.549000
20
0.050000
11
8.049000
21
0.050000
0
LINE
8
daughterboard_right
10
8.049000
20
0.050000
11
7.550000
21
0.050000
0
LINE
8
daughterboard_right
10
7.550000
20
0.050000
11
7.050000
21
0.050000
0
LINE
8
daughterboard_right
10
7.050000
20
0.050000
11
6.550000
21
0.050000
0
LINE
8
daughterboard_right
10
6.550000
20
0.050000
11
6.050000
21
0.050000
0
LINE
8
daughterboard_right
10
6.050000
20
0.050000
11
5.550000
21
0.050000
0
LINE
8
daughterboard_right
10
5.550000
20
0.050000
11
5.049000
21
0.050000
0
LINE
8
daughterboard_right
10
5.049000
20
0.050000
11
4.548000
21
0.050000
0
LINE
8
daughterboard_right
10
4.548000
20
0.050000
11
4.049000
21
0.050000
0
LINE
8
daughterboard_right
10
4.049000
20
0.050000
11
3.549000
21
0.050000
0
LINE
8
daughterboard_right
10
3.549000
20
0.050000
11
3.050000
21
0.050000
0
LINE
8
daughterboard_right
10
3.050000
20
0.050000
11
2.550000
21
0.050000
0
LINE
8
daughterboard_right
10
2.550000
20
0.050000
11
2.051000
21
0.050000
0
LINE
8
daughterboard_right
10
2.051000
20
0.050000
11
1.551000
21
0.050000
0
LINE
8
daughterboard_right
10
1.551000
20
0.050000
11
1.050000
21
0.050000
0
LINE
8
daughterboard_right
10
1.050000
20
0.050000
11
0.550000
21
0.050000
0
LINE
8
daughterboard_right
10
0.550000
20
0.050000
11
0.050000
21
0.050000
0
LINE
8
daughterboard_right
10
0.050000
20
0.050000
11
0.050000
21
0.550000
0
LINE
8
daughterboard_right
10
0.050000
20
0.550000
11
0.050000
21
1.050000
0
LINE
8
daughterboard_right
10
0.050000
20
1.050000
11
0.050000
21
1.550000
0
LINE
8
daughterboard_right
10
0.050000
20
1.550000
11
0.050000
21
2.050000
0
LINE
8
daughterboard_right
10
0.050000
20
2.050000
11
0.050000
21
2.550000
0
LINE
8
daughterboard_right
10
0.050000
20
2.550000
11
0.050000
21
3.050000
0
LINE
8
daughterboard_right
10
0.050000
20
3.050000
11
0.050000
21
3.550000
0
LINE
8
daughterboard_right
10
0.050000
20
3.550000
11
0.050000
21
4.051000
0
LINE
8
daughterboard_right
10
0.050000
20
4.051000
11
0.050000
21
4.551000
0
LINE
8
daughterboard_right
10
0.050000
20
4.551000
11
0.050000
21
5.051000
0
LINE
8
daughterboard_right
10
0.050000
20
5.051000
11
0.050000
21
5.550000
0
LINE
8
daughterboard_right
10
0.050000
20
5.550000
11
0.050000
21
6.051000
0
LINE
8
daughterboard_right
10
0.050000
20
6.051000
11
0.050000
21
6.551000
0
LINE
8
daughterboard_right
10
0.050000
20
6.551000
11
0.050000
21
7.051000
0
LINE
8
daughterboard_right
10
0.050000
20
7.051000
11
0.050000
21
7.551000
0
LINE
8
daughterboard_right
10
0.050000
20
7.551000
11
0.050000
21
8.052000
0
LINE
8
daughterboard_right
10
0.050000
20
8.052000
11
0.050000
21
8.551000
0
LINE
8
daughterboard_right
10
0.050000
20
8.551000
11
0.050000
21
9.050000
0
LINE
8
daughterboard_right
10
0.050000
20
9.050000
11
0.050000
21
9.550000
0
LINE
8
daughterboard_right
10
0.050000
20
9.550000
11
0.050000
21
10.051000
0
LINE
8
daughterboard_right
10
0.050000
20
10.051000
11
0.050000
21
10.550000
0
LINE
8
daughterboard_right
10
0.050000
20
10.550000
11
0.050000
21
11.050000
0
LINE
8
daughterboard_right
10
0.050000
20
11.050000
11
0.050000
21
11.551000
0
LINE
8
daughterboard_right
10
0.050000
20
11.551000
11
0.050000
21
12.051000
0
LINE
8
daughterboard_right
10
0.050000
20
12.051000
11
0.050000
21
12.551000
0
LINE
8
daughterboard_right
10
0.050000
20
12.551000
11
0.050000
21
13.051000
0
LINE
8
daughterboard_right
10
0.050000
20
13.051000
11
0.050000
21
13.550000
0
LINE
8
daughterboard_right
10
9.550000
20
15.050000
11
9.550000
21
14.550000
0
LINE
8
daughterboard_right
10
9.550000
20
14.550000
11
9.550000
21
14.049000
0
LINE
8
daughterboard_right
10
9.550000
20
14.049000
11
9.550000
21
14.550000
0
LINE
8
daughterboard_right
10
9.550000
20
14.550000
11
9.550000
21
15.050000
0
LINE
8
daughterboard_right
10
14.550000
20
15.050000
11
14.550000
21
14.550000
0
LINE
8
daughterboard_right
10
14.550000
20
14.550000
11
14.550000
21
14.049000
0
LINE
8
daughterboard_right
10
14.550000
20
14.049000
11
14.550000
21
14.550000
0
LINE
8
daughterboard_right
10
14.550000
20
14.550000
11
14.550000
21
15.050000
0
LINE
8
daughterboard_right
10
9.050000
20
1.450000
11
9.050000
21
1.933000
0
LINE
8
daughterboard_right
10
9.050000
20
1.933000
11
9.050000
21
2.417000
0
LINE
8
daughterboard_right
10
9.050000
20
2.417000
11
9.050000
21
2.902000
0
LINE
8
daughterboard_right
10
9.050000
20
2.902000
11
9.050000
21
3.386000
0
LINE
8
daughterboard_right
10
9.050000
20
3.386000
11
9.050000
21
3.869000
0
LINE
8
daughterboard_right
10
9.050000
20
3.869000
11
9.050000
21
4.354000
0
LINE
8
daughterboard_right
10
9.050000
20
4.354000
11
9.050000
21
4.837000
0
LINE
8
daughterboard_right
10
9.050000
20
4.837000
11
9.050000
21
5.320000
0
LINE
8
daughterboard_right
10
9.050000
20
5.320000
11
9.050000
21
5.803000
0
LINE
8
daughterboard_right
10
9.050000
20
5.803000
11
9.050000
21
6.288000
0
LINE
8
daughterboard_right
10
9.050000
20
6.288000
11
9.050000
21
6.772000
0
LINE
8
daughterboard_right
10
9.050000
20
6.772000
11
9.050000
21
7.257000
0
LINE
8
daughterboard_right
10
9.050000
20
7.257000
11
9.050000
21
7.741000
0
LINE
8
daughterboard_right
10
9.050000
20
7.741000
11
9.050000
21
8.225000
0
LINE
8
daughterboard_right
10
9.050000
20
8.225000
11
9.050000
21
8.708000
0
LINE
8
daughterboard_right
10
9.050000
20
8.708000
11
9.050000
21
9.192000
0
LINE
8
daughterboard_right
10
9.050000
20
9.192000
11
9.050000
21
9.677000
0
LINE
8
daughterboard_right
10
9.050000
20
9.677000
11
9.050000
21
10.161000
0
LINE
8
daughterboard_right
10
9.050000
20
10.161000
11
9.050000
21
10.645000
0
LINE
8
daughterboard_right
10
9.050000
20
10.645000
11
9.050000
21
11.129000
0
LINE
8
daughterboard_right
10
9.050000
20
11.129000
11
9.050000
21
11.613000
0
LINE
8
daughterboard_right
10
9.050000
20
11.613000
11
9.050000
21
12.097000
0
LINE
8
daughterboard_right
10
9.050000
20
12.097000
11
9.050000
21
12.580000
0
LINE
8
daughterboard_right
10
9.050000
20
12.580000
11
9.050000
21
13.065000
0
LINE
8
daughterboard_right
10
9.050000
20
13.065000
11
9.050000
21
13.550000
0
LINE
8
daughterboard_right
10
9.050000
20
13.550000
11
9.550000
21
13.550000
0
LINE
8
daughterboard_right
10
9.550000
20
13.550000
11
10.049000
21
13.550000
0
LINE
8
daughterboard_right
10
10.049000
20
13.550000
11
10.550000
21
13.550000
0
LINE
8
daughterboard_right
10
10.550000
20
13.550000
11
11.049000
21
13.550000
0
LINE
8
daughterboard_right
10
11.049000
20
13.550000
11
11.548000
21
13.550000
0
LINE
8
daughterboard_right
10
11.548000
20
13.550000
11
12.050000
21
13.550000
0
LINE
8
daughterboard_right
10
12.050000
20
13.550000
11
12.550000
21
13.550000
0
LINE
8
daughterboard_right
10
12.550000
20
13.550000
11
13.050000
21
13.550000
0
LINE
8
daughterboard_right
10
13.050000
20
13.550000
11
13.550000
21
13.550000
0
LINE
8
daughterboard_right
10
13.550000
20
13.550000
11
14.050000
21
13.550000
0
LINE
8
daughterboard_right
10
14.050000
20
13.550000
11
14.549000
21
13.550000
0
LINE
8
daughterboard_right
10
14.549000
20
13.550000
11
15.050000
21
13.550000
0
LINE
8
daughterboard_right
10
15.050000
20
13.550000
11
15.050000
21
13.066000
0
LINE
8
daughterboard_right
10
15.050000
20
13.066000
11
15.050000
21
12.582000
0
LINE
8
daughterboard_right
10
15.050000
20
12.582000
11
15.050000
21
12.098000
0
LINE
8
daughterboard_right
10
15.050000
20
12.098000
11
15.050000
21
11.614000
0
LINE
8
daughterboard_right
10
15.050000
20
11.614000
11
15.050000
21
11.130000
0
LINE
8
daughterboard_right
10
15.050000
20
11.130000
11
15.050000
21
10.646000
0
LINE
8
daughterboard_right
10
15.050000
20
10.646000
11
15.050000
21
10.163000
0
LINE
8
daughterboard_right
10
15.050000
20
10.163000
11
15.050000
21
9.680000
0
LINE
8
daughterboard_right
10
15.050000
20
9.680000
11
15.050000
21
9.196000
0
LINE
8
daughterboard_right
10
15.050000
20
9.196000
11
15.050000
21
8.711000
0
LINE
8
daughterboard_right
10
15.050000
20
8.711000
11
15.050000
21
8.227000
0
LINE
8
daughterboard_right
10
15.050000
20
8.227000
11
15.050000
21
7.743000
0
LINE
8
daughterboard_right
10
15.050000
20
7.743000
11
15.050000
21
7.258000
0
LINE
8
daughterboard_right
10
15.050000
20
7.258000
11
15.050000
21
6.774000
0
LINE
8
daughterboard_right
10
15.050000
20
6.774000
11
15.050000
21
6.291000
0
LINE
8
daughterboard_right
10
15.050000
20
6.291000
11
15.050000
21
5.807000
0
LINE
8
daughterboard_right
10
15.050000
20
5.807000
11
15.050000
21
5.322000
0
LINE
8
daughterboard_right
10
15.050000
20
5.322000
11
15.050000
21
4.838000
0
LINE
8
daughterboard_right
10
15.050000
20
4.838000
11
15.050000
21
4.354000
0
LINE
8
daughterboard_right
10
15.050000
20
4.354000
11
15.050000
21
3.870000
0
LINE
8
daughterboard_right
10
15.050000
20
3.870000
11
15.050000
21
3.387000
0
LINE
8
daughterboard_right
10
15.050000
20
3.387000
11
15.050000
21
2.903000
0
LINE
8
daughterboard_right
10
15.050000
20
2.903000
11
15.050000
21
2.419000
0
LINE
8
daughterboard_right
10
15.050000
20
2.419000
11
15.050000
21
1.935000
0
LINE
8
daughterboard_right
10
15.050000
20
1.935000
11
15.050000
21
1.450000
0
LINE
8
daughterboard_right
10
15.050000
20
1.450000
11
14.550000
21
1.450000
0
LINE
8
daughterboard_right
10
14.550000
20
1.450000
11
14.051000
21
1.450000
0
LINE
8
daughterboard_right
10
14.051000
20
1.450000
11
13.550000
21
1.450000
0
LINE
8
daughterboard_right
10
13.550000
20
1.450000
11
13.051000
21
1.450000
0
LINE
8
daughterboard_right
10
13.051000
20
1.450000
11
12.552000
21
1.450000
0
LINE
8
daughterboard_right
10
12.552000
20
1.450000
11
12.050000
21
1.450000
0
LINE
8
daughterboard_right
10
12.050000
20
1.450000
11
11.550000
21
1.450000
0
LINE
8
daughterboard_right
10
11.550000
20
1.450000
11
11.050000
21
1.450000
0
LINE
8
daughterboard_right
10
11.050000
20
1.450000
11
10.550000
21
1.450000
0
LINE
8
daughterboard_right
10
10.550000
20
1.450000
11
10.050000
21
1.450000
0
LINE
8
daughterboard_right
10
10.050000
20
1.450000
11
9.551000
21
1.450000
0
LINE
8
daughterboard_right
10
9.551000
20
1.450000
11
9.050000
21
1.450000
0
LINE
8
daughterboard_right
10
14.550000
20
15.550000
11
14.050000
21
15.550000
0
LINE
8
daughterboard_right
10
14.050000
20
15.550000
11
13.549000
21
15.550000
0
LINE
8
daughterboard_right
10
13.549000
20
15.550000
11
13.048000
21
15.550000
0
LINE
8
daughterboard_right
10
13.048000
20
15.550000
11
12.549000
21
15.550000
0
LINE
8
daughterboard_right
10
12.549000
20
15.550000
11
12.049000
21
15.550000
0
LINE
8
daughterboard_right
10
12.049000
20
15.550000
11
11.549000
21
15.550000
0
LINE
8
daughterboard_right
10
11.549000
20
15.550000
11
11.048000
21
15.550000
0
LINE
8
daughterboard_right
10
11.048000
20
15.550000
11
10.548000
21
15.550000
0
LINE
8
daughterboard_right
10
10.548000
20
15.550000
11
10.049000
21
15.550000
0
LINE
8
daughterboard_right
10
10.049000
20
15.550000
11
9.550000
21
15.550000
0
LINE
8
daughterboard_right
10
9.550000
20
15.550000
11
10.050000
21
15.550000
0
LINE
8
daughterboard_right
10
10.050000
20
15.550000
11
10.551000
21
15.550000
0
LINE
8
daughterboard_right
10
10.551000
20
15.550000
11
11.052000
21
15.550000
0
LINE
8
daughterboard_right
10
11.052000
20
15.550000
11
11.551000
21
15.550000
0
LINE
8
daughterboard_right
10
11.551000
20
15.550000
11
12.051000
21
15.550000
0
LINE
8
daughterboard_right
10
12.051000
20
15.550000
11
12.551000
21
15.550000
0
LINE
8
daughterboard_right
10
12.551000
20
15.550000
11
13.052000
21
15.550000
0
LINE
8
daughterboard_right
10
13.052000
20
15.550000
11
13.552000
21
15.550000
0
LINE
8
daughterboard_right
10
13.552000
20
15.550000
11
14.051000
21
15.550000
0
LINE
8
daughterboard_right
10
14.051000
20
15.550000
11
14.550000
21
15.550000
 0 
ENDSEC
 0 
EOF