999
"DXF R12 Output" (www.mydxf.blogspot.com)
 0 
SECTION
 2 
HEADER
 9 
$ACADVER
 1 
AC1009
 9 
$EXTMIN
 10 
 0 
 20 
 0 
 9 
$EXTMAX
 10 
 8.5 
 20 
 11 
 0 
ENDSEC
 0 
SECTION
 2 
ENTITIES
0
LINE
8
Layer 1
10
27.550000
20
13.550000
11
28.049200
21
13.550000
0
LINE
8
Layer 1
10
28.049200
20
13.550000
11
28.548900
21
13.550000
0
LINE
8
Layer 1
10
28.548900
20
13.550000
11
29.048200
21
13.550000
0
LINE
8
Layer 1
10
29.048200
20
13.550000
11
29.548600
21
13.550000
0
LINE
8
Layer 1
10
29.548600
20
13.550000
11
30.048200
21
13.550000
0
LINE
8
Layer 1
10
30.048200
20
13.550000
11
30.547400
21
13.550000
0
LINE
8
Layer 1
10
30.547400
20
13.550000
11
31.048300
21
13.550000
0
LINE
8
Layer 1
10
31.048300
20
13.550000
11
31.549100
21
13.550000
0
LINE
8
Layer 1
10
31.549100
20
13.550000
11
32.049900
21
13.550000
0
LINE
8
Layer 1
10
32.049900
20
13.550000
11
32.549500
21
13.550000
0
LINE
8
Layer 1
10
32.549500
20
13.550000
11
33.049300
21
13.550000
0
LINE
8
Layer 1
10
33.049300
20
13.550000
11
33.549300
21
13.550000
0
LINE
8
Layer 1
10
33.549300
20
13.550000
11
34.049400
21
13.550000
0
LINE
8
Layer 1
10
34.049400
20
13.550000
11
34.549800
21
13.550000
0
LINE
8
Layer 1
10
34.549800
20
13.550000
11
35.050800
21
13.550000
0
LINE
8
Layer 1
10
35.050800
20
13.550000
11
35.550400
21
13.550000
0
LINE
8
Layer 1
10
35.550400
20
13.550000
11
36.051000
21
13.550000
0
LINE
8
Layer 1
10
36.051000
20
13.550000
11
36.550500
21
13.550000
0
LINE
8
Layer 1
10
36.550500
20
13.550000
11
37.051000
21
13.550000
0
LINE
8
Layer 1
10
37.051000
20
13.550000
11
37.550300
21
13.550000
0
LINE
8
Layer 1
10
37.550300
20
13.550000
11
38.049700
21
13.550000
0
LINE
8
Layer 1
10
38.049700
20
13.550000
11
38.550400
21
13.550000
0
LINE
8
Layer 1
10
38.550400
20
13.550000
11
39.050900
21
13.550000
0
LINE
8
Layer 1
10
39.050900
20
13.550000
11
39.550100
21
13.550000
0
LINE
8
Layer 1
10
39.550100
20
13.550000
11
40.050500
21
13.550000
0
LINE
8
Layer 1
10
40.050500
20
13.550000
11
40.551000
21
13.550000
0
LINE
8
Layer 1
10
40.551000
20
13.550000
11
41.051100
21
13.550000
0
LINE
8
Layer 1
10
41.051100
20
13.550000
11
41.550600
21
13.550000
0
LINE
8
Layer 1
10
41.550600
20
13.550000
11
42.050500
21
13.550000
0
LINE
8
Layer 1
10
42.050500
20
13.550000
11
42.549700
21
13.550000
0
LINE
8
Layer 1
10
42.549700
20
13.550000
11
43.050100
21
13.550000
0
LINE
8
Layer 1
10
43.050100
20
13.550000
11
43.550600
21
13.550000
0
LINE
8
Layer 1
10
43.550600
20
13.550000
11
44.050900
21
13.550000
0
LINE
8
Layer 1
10
44.050900
20
13.550000
11
44.551100
21
13.550000
0
LINE
8
Layer 1
10
44.551100
20
13.550000
11
45.050100
21
13.550000
0
LINE
8
Layer 1
10
45.050100
20
13.550000
11
45.551000
21
13.550000
0
LINE
8
Layer 1
10
45.551000
20
13.550000
11
46.050500
21
13.550000
0
LINE
8
Layer 1
10
46.050500
20
13.550000
11
46.549300
21
13.550000
0
LINE
8
Layer 1
10
46.549300
20
13.550000
11
47.050000
21
13.550000
0
LINE
8
Layer 1
10
47.050000
20
13.550000
11
47.433600
21
13.473800
0
LINE
8
Layer 1
10
47.433600
20
13.473800
11
47.758000
21
13.256200
0
LINE
8
Layer 1
10
47.758000
20
13.256200
11
47.974000
21
12.933000
0
LINE
8
Layer 1
10
47.974000
20
12.933000
11
48.050000
21
12.550000
0
LINE
8
Layer 1
10
48.050000
20
12.550000
11
48.050000
21
12.050300
0
LINE
8
Layer 1
10
48.050000
20
12.050300
11
48.050000
21
11.549400
0
LINE
8
Layer 1
10
48.050000
20
11.549400
11
48.050000
21
11.049600
0
LINE
8
Layer 1
10
48.050000
20
11.049600
11
48.050000
21
10.549800
0
LINE
8
Layer 1
10
48.050000
20
10.549800
11
48.050000
21
10.050100
0
LINE
8
Layer 1
10
48.050000
20
10.050100
11
48.050000
21
9.550000
0
LINE
8
Layer 1
10
48.050000
20
9.550000
11
48.050000
21
9.050000
0
LINE
8
Layer 1
10
48.050000
20
9.050000
11
48.050000
21
8.550100
0
LINE
8
Layer 1
10
48.050000
20
8.550100
11
48.050000
21
8.050800
0
LINE
8
Layer 1
10
48.050000
20
8.050800
11
48.050000
21
7.551000
0
LINE
8
Layer 1
10
48.050000
20
7.551000
11
48.050000
21
7.051500
0
LINE
8
Layer 1
10
48.050000
20
7.051500
11
48.050000
21
6.551000
0
LINE
8
Layer 1
10
48.050000
20
6.551000
11
48.050000
21
6.051800
0
LINE
8
Layer 1
10
48.050000
20
6.051800
11
48.050000
21
5.551300
0
LINE
8
Layer 1
10
48.050000
20
5.551300
11
48.050000
21
5.051200
0
LINE
8
Layer 1
10
48.050000
20
5.051200
11
48.050000
21
4.550700
0
LINE
8
Layer 1
10
48.050000
20
4.550700
11
48.050000
21
4.050700
0
LINE
8
Layer 1
10
48.050000
20
4.050700
11
48.050000
21
3.549800
0
LINE
8
Layer 1
10
48.050000
20
3.549800
11
48.050000
21
3.049700
0
LINE
8
Layer 1
10
48.050000
20
3.049700
11
48.050000
21
2.549500
0
LINE
8
Layer 1
10
48.050000
20
2.549500
11
48.050000
21
2.050100
0
LINE
8
Layer 1
10
48.050000
20
2.050100
11
48.050000
21
1.549800
0
LINE
8
Layer 1
10
48.050000
20
1.549800
11
48.050000
21
1.050000
0
LINE
8
Layer 1
10
48.050000
20
1.050000
11
47.973800
21
0.666400
0
LINE
8
Layer 1
10
47.973800
20
0.666400
11
47.756200
21
0.342000
0
LINE
8
Layer 1
10
47.756200
20
0.342000
11
47.433000
21
0.126000
0
LINE
8
Layer 1
10
47.433000
20
0.126000
11
47.050000
21
0.050000
0
LINE
8
Layer 1
10
47.050000
20
0.050000
11
46.549100
21
0.050000
0
LINE
8
Layer 1
10
46.549100
20
0.050000
11
46.049400
21
0.050000
0
LINE
8
Layer 1
10
46.049400
20
0.050000
11
45.549700
21
0.050000
0
LINE
8
Layer 1
10
45.549700
20
0.050000
11
45.050000
21
0.050000
0
LINE
8
Layer 1
10
45.050000
20
0.050000
11
44.550700
21
0.050000
0
LINE
8
Layer 1
10
44.550700
20
0.050000
11
44.051300
21
0.050000
0
LINE
8
Layer 1
10
44.051300
20
0.050000
11
43.550300
21
0.050000
0
LINE
8
Layer 1
10
43.550300
20
0.050000
11
43.050500
21
0.050000
0
LINE
8
Layer 1
10
43.050500
20
0.050000
11
42.550500
21
0.050000
0
LINE
8
Layer 1
10
42.550500
20
0.050000
11
42.050000
21
0.050000
0
LINE
8
Layer 1
10
42.050000
20
0.050000
11
41.549500
21
0.050000
0
LINE
8
Layer 1
10
41.549500
20
0.050000
11
41.049100
21
0.050000
0
LINE
8
Layer 1
10
41.049100
20
0.050000
11
40.548400
21
0.050000
0
LINE
8
Layer 1
10
40.548400
20
0.050000
11
40.049100
21
0.050000
0
LINE
8
Layer 1
10
40.049100
20
0.050000
11
39.550000
21
0.050000
0
LINE
8
Layer 1
10
39.550000
20
0.050000
11
39.050000
21
0.050000
0
LINE
8
Layer 1
10
39.050000
20
0.050000
11
38.550000
21
0.050000
0
LINE
8
Layer 1
10
38.550000
20
0.050000
11
38.051000
21
0.050000
0
LINE
8
Layer 1
10
38.051000
20
0.050000
11
37.551100
21
0.050000
0
LINE
8
Layer 1
10
37.551100
20
0.050000
11
37.051100
21
0.050000
0
LINE
8
Layer 1
10
37.051100
20
0.050000
11
36.551700
21
0.050000
0
LINE
8
Layer 1
10
36.551700
20
0.050000
11
36.050800
21
0.050000
0
LINE
8
Layer 1
10
36.050800
20
0.050000
11
35.551600
21
0.050000
0
LINE
8
Layer 1
10
35.551600
20
0.050000
11
35.051900
21
0.050000
0
LINE
8
Layer 1
10
35.051900
20
0.050000
11
34.552400
21
0.050000
0
LINE
8
Layer 1
10
34.552400
20
0.050000
11
34.053300
21
0.050000
0
LINE
8
Layer 1
10
34.053300
20
0.050000
11
33.552600
21
0.050000
0
LINE
8
Layer 1
10
33.552600
20
0.050000
11
33.053200
21
0.050000
0
LINE
8
Layer 1
10
33.053200
20
0.050000
11
32.552900
21
0.050000
0
LINE
8
Layer 1
10
32.552900
20
0.050000
11
32.052200
21
0.050000
0
LINE
8
Layer 1
10
32.052200
20
0.050000
11
31.551400
21
0.050000
0
LINE
8
Layer 1
10
31.551400
20
0.050000
11
31.050800
21
0.050000
0
LINE
8
Layer 1
10
31.050800
20
0.050000
11
30.550700
21
0.050000
0
LINE
8
Layer 1
10
30.550700
20
0.050000
11
30.051600
21
0.050000
0
LINE
8
Layer 1
10
30.051600
20
0.050000
11
29.551200
21
0.050000
0
LINE
8
Layer 1
10
29.551200
20
0.050000
11
29.051200
21
0.050000
0
LINE
8
Layer 1
10
29.051200
20
0.050000
11
28.551800
21
0.050000
0
LINE
8
Layer 1
10
28.551800
20
0.050000
11
28.052200
21
0.050000
0
LINE
8
Layer 1
10
28.052200
20
0.050000
11
27.552700
21
0.050000
0
LINE
8
Layer 1
10
27.552700
20
0.050000
11
27.052600
21
0.050000
0
LINE
8
Layer 1
10
27.052600
20
0.050000
11
26.552200
21
0.050000
0
LINE
8
Layer 1
10
26.552200
20
0.050000
11
26.052900
21
0.050000
0
LINE
8
Layer 1
10
26.052900
20
0.050000
11
25.552900
21
0.050000
0
LINE
8
Layer 1
10
25.552900
20
0.050000
11
25.052500
21
0.050000
0
LINE
8
Layer 1
10
25.052500
20
0.050000
11
24.552200
21
0.050000
0
LINE
8
Layer 1
10
24.552200
20
0.050000
11
24.052300
21
0.050000
0
LINE
8
Layer 1
10
24.052300
20
0.050000
11
23.553300
21
0.050000
0
LINE
8
Layer 1
10
23.553300
20
0.050000
11
23.053300
21
0.050000
0
LINE
8
Layer 1
10
23.053300
20
0.050000
11
22.553000
21
0.050000
0
LINE
8
Layer 1
10
22.553000
20
0.050000
11
22.052800
21
0.050000
0
LINE
8
Layer 1
10
22.052800
20
0.050000
11
21.553000
21
0.050000
0
LINE
8
Layer 1
10
21.553000
20
0.050000
11
21.052400
21
0.050000
0
LINE
8
Layer 1
10
21.052400
20
0.050000
11
20.553200
21
0.050000
0
LINE
8
Layer 1
10
20.553200
20
0.050000
11
20.052300
21
0.050000
0
LINE
8
Layer 1
10
20.052300
20
0.050000
11
19.552200
21
0.050000
0
LINE
8
Layer 1
10
19.552200
20
0.050000
11
19.051500
21
0.050000
0
LINE
8
Layer 1
10
19.051500
20
0.050000
11
18.551000
21
0.050000
0
LINE
8
Layer 1
10
18.551000
20
0.050000
11
18.051300
21
0.050000
0
LINE
8
Layer 1
10
18.051300
20
0.050000
11
17.551400
21
0.050000
0
LINE
8
Layer 1
10
17.551400
20
0.050000
11
17.050500
21
0.050000
0
LINE
8
Layer 1
10
17.050500
20
0.050000
11
16.550800
21
0.050000
0
LINE
8
Layer 1
10
16.550800
20
0.050000
11
16.050200
21
0.050000
0
LINE
8
Layer 1
10
16.050200
20
0.050000
11
15.551100
21
0.050000
0
LINE
8
Layer 1
10
15.551100
20
0.050000
11
15.051400
21
0.050000
0
LINE
8
Layer 1
10
15.051400
20
0.050000
11
14.552200
21
0.050000
0
LINE
8
Layer 1
10
14.552200
20
0.050000
11
14.051800
21
0.050000
0
LINE
8
Layer 1
10
14.051800
20
0.050000
11
13.551400
21
0.050000
0
LINE
8
Layer 1
10
13.551400
20
0.050000
11
13.051200
21
0.050000
0
LINE
8
Layer 1
10
13.051200
20
0.050000
11
12.551100
21
0.050000
0
LINE
8
Layer 1
10
12.551100
20
0.050000
11
12.051600
21
0.050000
0
LINE
8
Layer 1
10
12.051600
20
0.050000
11
11.550800
21
0.050000
0
LINE
8
Layer 1
10
11.550800
20
0.050000
11
11.050700
21
0.050000
0
LINE
8
Layer 1
10
11.050700
20
0.050000
11
10.551000
21
0.050000
0
LINE
8
Layer 1
10
10.551000
20
0.050000
11
10.050000
21
0.050000
0
LINE
8
Layer 1
10
10.050000
20
0.050000
11
9.550200
21
0.050000
0
LINE
8
Layer 1
10
9.550200
20
0.050000
11
9.050600
21
0.050000
0
LINE
8
Layer 1
10
9.050600
20
0.050000
11
8.550800
21
0.050000
0
LINE
8
Layer 1
10
8.550800
20
0.050000
11
8.051200
21
0.050000
0
LINE
8
Layer 1
10
8.051200
20
0.050000
11
7.551000
21
0.050000
0
LINE
8
Layer 1
10
7.551000
20
0.050000
11
7.050800
21
0.050000
0
LINE
8
Layer 1
10
7.050800
20
0.050000
11
6.550700
21
0.050000
0
LINE
8
Layer 1
10
6.550700
20
0.050000
11
6.050900
21
0.050000
0
LINE
8
Layer 1
10
6.050900
20
0.050000
11
5.551100
21
0.050000
0
LINE
8
Layer 1
10
5.551100
20
0.050000
11
5.050400
21
0.050000
0
LINE
8
Layer 1
10
5.050400
20
0.050000
11
4.549700
21
0.050000
0
LINE
8
Layer 1
10
4.549700
20
0.050000
11
4.049300
21
0.050000
0
LINE
8
Layer 1
10
4.049300
20
0.050000
11
3.550200
21
0.050000
0
LINE
8
Layer 1
10
3.550200
20
0.050000
11
3.049500
21
0.050000
0
LINE
8
Layer 1
10
3.049500
20
0.050000
11
2.548900
21
0.050000
0
LINE
8
Layer 1
10
2.548900
20
0.050000
11
2.049300
21
0.050000
0
LINE
8
Layer 1
10
2.049300
20
0.050000
11
1.550400
21
0.050000
0
LINE
8
Layer 1
10
1.550400
20
0.050000
11
1.050000
21
0.050000
0
LINE
8
Layer 1
10
1.050000
20
0.050000
11
0.667300
21
0.126100
0
LINE
8
Layer 1
10
0.667300
20
0.126100
11
0.342900
21
0.342900
0
LINE
8
Layer 1
10
0.342900
20
0.342900
11
0.126100
21
0.667300
0
LINE
8
Layer 1
10
0.126100
20
0.667300
11
0.050000
21
1.050000
0
LINE
8
Layer 1
10
0.050000
20
1.050000
11
0.050000
21
1.549700
0
LINE
8
Layer 1
10
0.050000
20
1.549700
11
0.050000
21
2.050600
0
LINE
8
Layer 1
10
0.050000
20
2.050600
11
0.050000
21
2.550400
0
LINE
8
Layer 1
10
0.050000
20
2.550400
11
0.050000
21
3.050200
0
LINE
8
Layer 1
10
0.050000
20
3.050200
11
0.050000
21
3.549900
0
LINE
8
Layer 1
10
0.050000
20
3.549900
11
0.050000
21
4.050000
0
LINE
8
Layer 1
10
0.050000
20
4.050000
11
0.050000
21
4.550000
0
LINE
8
Layer 1
10
0.050000
20
4.550000
11
0.050000
21
5.049900
0
LINE
8
Layer 1
10
0.050000
20
5.049900
11
0.050000
21
5.549200
0
LINE
8
Layer 1
10
0.050000
20
5.549200
11
0.050000
21
6.049000
0
LINE
8
Layer 1
10
0.050000
20
6.049000
11
0.050000
21
6.548500
0
LINE
8
Layer 1
10
0.050000
20
6.548500
11
0.050000
21
7.049000
0
LINE
8
Layer 1
10
0.050000
20
7.049000
11
0.050000
21
7.548200
0
LINE
8
Layer 1
10
0.050000
20
7.548200
11
0.050000
21
8.048700
0
LINE
8
Layer 1
10
0.050000
20
8.048700
11
0.050000
21
8.548800
0
LINE
8
Layer 1
10
0.050000
20
8.548800
11
0.050000
21
9.049300
0
LINE
8
Layer 1
10
0.050000
20
9.049300
11
0.050000
21
9.549300
0
LINE
8
Layer 1
10
0.050000
20
9.549300
11
0.050000
21
10.050200
0
LINE
8
Layer 1
10
0.050000
20
10.050200
11
0.050000
21
10.550300
0
LINE
8
Layer 1
10
0.050000
20
10.550300
11
0.050000
21
11.050500
0
LINE
8
Layer 1
10
0.050000
20
11.050500
11
0.050000
21
11.549900
0
LINE
8
Layer 1
10
0.050000
20
11.549900
11
0.050000
21
12.050200
0
LINE
8
Layer 1
10
0.050000
20
12.050200
11
0.050000
21
12.550000
0
LINE
8
Layer 1
10
0.050000
20
12.550000
11
0.126200
21
12.933600
0
LINE
8
Layer 1
10
0.126200
20
12.933600
11
0.343800
21
13.258000
0
LINE
8
Layer 1
10
0.343800
20
13.258000
11
0.667000
21
13.474000
0
LINE
8
Layer 1
10
0.667000
20
13.474000
11
1.050000
21
13.550000
0
LINE
8
Layer 1
10
1.050000
20
13.550000
11
1.549200
21
13.550000
0
LINE
8
Layer 1
10
1.549200
20
13.550000
11
2.048900
21
13.550000
0
LINE
8
Layer 1
10
2.048900
20
13.550000
11
2.548200
21
13.550000
0
LINE
8
Layer 1
10
2.548200
20
13.550000
11
3.048600
21
13.550000
0
LINE
8
Layer 1
10
3.048600
20
13.550000
11
3.548200
21
13.550000
0
LINE
8
Layer 1
10
3.548200
20
13.550000
11
4.047400
21
13.550000
0
LINE
8
Layer 1
10
4.047400
20
13.550000
11
4.548300
21
13.550000
0
LINE
8
Layer 1
10
4.548300
20
13.550000
11
5.049100
21
13.550000
0
LINE
8
Layer 1
10
5.049100
20
13.550000
11
5.549900
21
13.550000
0
LINE
8
Layer 1
10
5.549900
20
13.550000
11
6.049500
21
13.550000
0
LINE
8
Layer 1
10
6.049500
20
13.550000
11
6.549300
21
13.550000
0
LINE
8
Layer 1
10
6.549300
20
13.550000
11
7.049300
21
13.550000
0
LINE
8
Layer 1
10
7.049300
20
13.550000
11
7.549400
21
13.550000
0
LINE
8
Layer 1
10
7.549400
20
13.550000
11
8.049800
21
13.550000
0
LINE
8
Layer 1
10
8.049800
20
13.550000
11
8.550800
21
13.550000
0
LINE
8
Layer 1
10
8.550800
20
13.550000
11
9.050400
21
13.550000
0
LINE
8
Layer 1
10
9.050400
20
13.550000
11
9.551000
21
13.550000
0
LINE
8
Layer 1
10
9.551000
20
13.550000
11
10.050500
21
13.550000
0
LINE
8
Layer 1
10
10.050500
20
13.550000
11
10.551000
21
13.550000
0
LINE
8
Layer 1
10
10.551000
20
13.550000
11
11.050300
21
13.550000
0
LINE
8
Layer 1
10
11.050300
20
13.550000
11
11.549800
21
13.550000
0
LINE
8
Layer 1
10
11.549800
20
13.550000
11
12.050400
21
13.550000
0
LINE
8
Layer 1
10
12.050400
20
13.550000
11
12.550900
21
13.550000
0
LINE
8
Layer 1
10
12.550900
20
13.550000
11
13.050100
21
13.550000
0
LINE
8
Layer 1
10
13.050100
20
13.550000
11
13.550500
21
13.550000
0
LINE
8
Layer 1
10
13.550500
20
13.550000
11
14.051000
21
13.550000
0
LINE
8
Layer 1
10
14.051000
20
13.550000
11
14.551100
21
13.550000
0
LINE
8
Layer 1
10
14.551100
20
13.550000
11
15.050600
21
13.550000
0
LINE
8
Layer 1
10
15.050600
20
13.550000
11
15.550500
21
13.550000
0
LINE
8
Layer 1
10
15.550500
20
13.550000
11
16.049700
21
13.550000
0
LINE
8
Layer 1
10
16.049700
20
13.550000
11
16.550100
21
13.550000
0
LINE
8
Layer 1
10
16.550100
20
13.550000
11
17.050600
21
13.550000
0
LINE
8
Layer 1
10
17.050600
20
13.550000
11
17.550900
21
13.550000
0
LINE
8
Layer 1
10
17.550900
20
13.550000
11
18.051100
21
13.550000
0
LINE
8
Layer 1
10
18.051100
20
13.550000
11
18.550100
21
13.550000
0
LINE
8
Layer 1
10
18.550100
20
13.550000
11
19.051000
21
13.550000
0
LINE
8
Layer 1
10
19.051000
20
13.550000
11
19.550500
21
13.550000
0
LINE
8
Layer 1
10
19.550500
20
13.550000
11
20.049300
21
13.550000
0
LINE
8
Layer 1
10
20.049300
20
13.550000
11
20.550000
21
13.550000
0
LINE
8
Layer 1
10
20.550000
20
13.550000
11
20.933600
21
13.626200
0
LINE
8
Layer 1
10
20.933600
20
13.626200
11
21.258000
21
13.843800
0
LINE
8
Layer 1
10
21.258000
20
13.843800
11
21.474000
21
14.167000
0
LINE
8
Layer 1
10
21.474000
20
14.167000
11
21.550000
21
14.550000
0
LINE
8
Layer 1
10
21.550000
20
14.550000
11
21.550000
21
15.002000
0
LINE
8
Layer 1
10
21.550000
20
15.002000
11
21.550000
21
15.452800
0
LINE
8
Layer 1
10
21.550000
20
15.452800
11
21.550000
21
15.904400
0
LINE
8
Layer 1
10
21.550000
20
15.904400
11
21.550000
21
16.356000
0
LINE
8
Layer 1
10
21.550000
20
16.356000
11
21.550000
21
16.807000
0
LINE
8
Layer 1
10
21.550000
20
16.807000
11
21.550000
21
17.257900
0
LINE
8
Layer 1
10
21.550000
20
17.257900
11
21.550000
21
17.708400
0
LINE
8
Layer 1
10
21.550000
20
17.708400
11
21.550000
21
18.159500
0
LINE
8
Layer 1
10
21.550000
20
18.159500
11
21.550000
21
18.610000
0
LINE
8
Layer 1
10
21.550000
20
18.610000
11
21.473800
21
18.993600
0
LINE
8
Layer 1
10
21.473800
20
18.993600
11
21.256200
21
19.318000
0
LINE
8
Layer 1
10
21.256200
20
19.318000
11
20.933000
21
19.534000
0
LINE
8
Layer 1
10
20.933000
20
19.534000
11
20.550000
21
19.610000
0
LINE
8
Layer 1
10
20.550000
20
19.610000
11
20.050900
21
19.610000
0
LINE
8
Layer 1
10
20.050900
20
19.610000
11
19.551100
21
19.610000
0
LINE
8
Layer 1
10
19.551100
20
19.610000
11
19.051800
21
19.610000
0
LINE
8
Layer 1
10
19.051800
20
19.610000
11
18.551400
21
19.610000
0
LINE
8
Layer 1
10
18.551400
20
19.610000
11
18.051800
21
19.610000
0
LINE
8
Layer 1
10
18.051800
20
19.610000
11
17.552600
21
19.610000
0
LINE
8
Layer 1
10
17.552600
20
19.610000
11
17.051700
21
19.610000
0
LINE
8
Layer 1
10
17.051700
20
19.610000
11
16.550900
21
19.610000
0
LINE
8
Layer 1
10
16.550900
20
19.610000
11
16.050100
21
19.610000
0
LINE
8
Layer 1
10
16.050100
20
19.610000
11
15.550500
21
19.610000
0
LINE
8
Layer 1
10
15.550500
20
19.610000
11
15.050700
21
19.610000
0
LINE
8
Layer 1
10
15.050700
20
19.610000
11
14.550700
21
19.610000
0
LINE
8
Layer 1
10
14.550700
20
19.610000
11
14.050600
21
19.610000
0
LINE
8
Layer 1
10
14.050600
20
19.610000
11
13.550200
21
19.610000
0
LINE
8
Layer 1
10
13.550200
20
19.610000
11
13.049200
21
19.610000
0
LINE
8
Layer 1
10
13.049200
20
19.610000
11
12.549600
21
19.610000
0
LINE
8
Layer 1
10
12.549600
20
19.610000
11
12.049000
21
19.610000
0
LINE
8
Layer 1
10
12.049000
20
19.610000
11
11.549500
21
19.610000
0
LINE
8
Layer 1
10
11.549500
20
19.610000
11
11.049000
21
19.610000
0
LINE
8
Layer 1
10
11.049000
20
19.610000
11
10.549700
21
19.610000
0
LINE
8
Layer 1
10
10.549700
20
19.610000
11
10.050300
21
19.610000
0
LINE
8
Layer 1
10
10.050300
20
19.610000
11
9.549700
21
19.610000
0
LINE
8
Layer 1
10
9.549700
20
19.610000
11
9.049100
21
19.610000
0
LINE
8
Layer 1
10
9.049100
20
19.610000
11
8.549900
21
19.610000
0
LINE
8
Layer 1
10
8.549900
20
19.610000
11
8.049500
21
19.610000
0
LINE
8
Layer 1
10
8.049500
20
19.610000
11
7.549000
21
19.610000
0
LINE
8
Layer 1
10
7.549000
20
19.610000
11
7.048900
21
19.610000
0
LINE
8
Layer 1
10
7.048900
20
19.610000
11
6.549400
21
19.610000
0
LINE
8
Layer 1
10
6.549400
20
19.610000
11
6.049500
21
19.610000
0
LINE
8
Layer 1
10
6.049500
20
19.610000
11
5.550300
21
19.610000
0
LINE
8
Layer 1
10
5.550300
20
19.610000
11
5.049900
21
19.610000
0
LINE
8
Layer 1
10
5.049900
20
19.610000
11
4.549400
21
19.610000
0
LINE
8
Layer 1
10
4.549400
20
19.610000
11
4.049100
21
19.610000
0
LINE
8
Layer 1
10
4.049100
20
19.610000
11
3.548900
21
19.610000
0
LINE
8
Layer 1
10
3.548900
20
19.610000
11
3.049900
21
19.610000
0
LINE
8
Layer 1
10
3.049900
20
19.610000
11
2.549000
21
19.610000
0
LINE
8
Layer 1
10
2.549000
20
19.610000
11
2.049500
21
19.610000
0
LINE
8
Layer 1
10
2.049500
20
19.610000
11
1.550700
21
19.610000
0
LINE
8
Layer 1
10
1.550700
20
19.610000
11
1.050000
21
19.610000
0
LINE
8
Layer 1
10
1.050000
20
19.610000
11
0.666400
21
19.686200
0
LINE
8
Layer 1
10
0.666400
20
19.686200
11
0.342000
21
19.903800
0
LINE
8
Layer 1
10
0.342000
20
19.903800
11
0.126000
21
20.227000
0
LINE
8
Layer 1
10
0.126000
20
20.227000
11
0.050000
21
20.610000
0
LINE
8
Layer 1
10
0.050000
20
20.610000
11
0.050000
21
21.109700
0
LINE
8
Layer 1
10
0.050000
20
21.109700
11
0.050000
21
21.610600
0
LINE
8
Layer 1
10
0.050000
20
21.610600
11
0.050000
21
22.110400
0
LINE
8
Layer 1
10
0.050000
20
22.110400
11
0.050000
21
22.610200
0
LINE
8
Layer 1
10
0.050000
20
22.610200
11
0.050000
21
23.109900
0
LINE
8
Layer 1
10
0.050000
20
23.109900
11
0.050000
21
23.610000
0
LINE
8
Layer 1
10
0.050000
20
23.610000
11
0.050000
21
24.110000
0
LINE
8
Layer 1
10
0.050000
20
24.110000
11
0.050000
21
24.609900
0
LINE
8
Layer 1
10
0.050000
20
24.609900
11
0.050000
21
25.109200
0
LINE
8
Layer 1
10
0.050000
20
25.109200
11
0.050000
21
25.609000
0
LINE
8
Layer 1
10
0.050000
20
25.609000
11
0.050000
21
26.108500
0
LINE
8
Layer 1
10
0.050000
20
26.108500
11
0.050000
21
26.609000
0
LINE
8
Layer 1
10
0.050000
20
26.609000
11
0.050000
21
27.108200
0
LINE
8
Layer 1
10
0.050000
20
27.108200
11
0.050000
21
27.608700
0
LINE
8
Layer 1
10
0.050000
20
27.608700
11
0.050000
21
28.108800
0
LINE
8
Layer 1
10
0.050000
20
28.108800
11
0.050000
21
28.609300
0
LINE
8
Layer 1
10
0.050000
20
28.609300
11
0.050000
21
29.109300
0
LINE
8
Layer 1
10
0.050000
20
29.109300
11
0.050000
21
29.610200
0
LINE
8
Layer 1
10
0.050000
20
29.610200
11
0.050000
21
30.110300
0
LINE
8
Layer 1
10
0.050000
20
30.110300
11
0.050000
21
30.610500
0
LINE
8
Layer 1
10
0.050000
20
30.610500
11
0.050000
21
31.109900
0
LINE
8
Layer 1
10
0.050000
20
31.109900
11
0.050000
21
31.610200
0
LINE
8
Layer 1
10
0.050000
20
31.610200
11
0.050000
21
32.110000
0
LINE
8
Layer 1
10
0.050000
20
32.110000
11
0.126100
21
32.492700
0
LINE
8
Layer 1
10
0.126100
20
32.492700
11
0.342900
21
32.817100
0
LINE
8
Layer 1
10
0.342900
20
32.817100
11
0.667300
21
33.033900
0
LINE
8
Layer 1
10
0.667300
20
33.033900
11
1.050000
21
33.110000
0
LINE
8
Layer 1
10
1.050000
20
33.110000
11
1.550900
21
33.110000
0
LINE
8
Layer 1
10
1.550900
20
33.110000
11
2.050600
21
33.110000
0
LINE
8
Layer 1
10
2.050600
20
33.110000
11
2.550300
21
33.110000
0
LINE
8
Layer 1
10
2.550300
20
33.110000
11
3.050000
21
33.110000
0
LINE
8
Layer 1
10
3.050000
20
33.110000
11
3.549300
21
33.110000
0
LINE
8
Layer 1
10
3.549300
20
33.110000
11
4.048700
21
33.110000
0
LINE
8
Layer 1
10
4.048700
20
33.110000
11
4.549700
21
33.110000
0
LINE
8
Layer 1
10
4.549700
20
33.110000
11
5.049600
21
33.110000
0
LINE
8
Layer 1
10
5.049600
20
33.110000
11
5.549500
21
33.110000
0
LINE
8
Layer 1
10
5.549500
20
33.110000
11
6.050000
21
33.110000
0
LINE
8
Layer 1
10
6.050000
20
33.110000
11
6.550500
21
33.110000
0
LINE
8
Layer 1
10
6.550500
20
33.110000
11
7.050900
21
33.110000
0
LINE
8
Layer 1
10
7.050900
20
33.110000
11
7.551600
21
33.110000
0
LINE
8
Layer 1
10
7.551600
20
33.110000
11
8.050900
21
33.110000
0
LINE
8
Layer 1
10
8.050900
20
33.110000
11
8.550000
21
33.110000
0
LINE
8
Layer 1
10
8.550000
20
33.110000
11
9.050000
21
33.110000
0
LINE
8
Layer 1
10
9.050000
20
33.110000
11
9.550000
21
33.110000
0
LINE
8
Layer 1
10
9.550000
20
33.110000
11
10.049000
21
33.110000
0
LINE
8
Layer 1
10
10.049000
20
33.110000
11
10.548900
21
33.110000
0
LINE
8
Layer 1
10
10.548900
20
33.110000
11
11.048900
21
33.110000
0
LINE
8
Layer 1
10
11.048900
20
33.110000
11
11.548300
21
33.110000
0
LINE
8
Layer 1
10
11.548300
20
33.110000
11
12.049200
21
33.110000
0
LINE
8
Layer 1
10
12.049200
20
33.110000
11
12.548400
21
33.110000
0
LINE
8
Layer 1
10
12.548400
20
33.110000
11
13.048100
21
33.110000
0
LINE
8
Layer 1
10
13.048100
20
33.110000
11
13.547600
21
33.110000
0
LINE
8
Layer 1
10
13.547600
20
33.110000
11
14.046700
21
33.110000
0
LINE
8
Layer 1
10
14.046700
20
33.110000
11
14.547400
21
33.110000
0
LINE
8
Layer 1
10
14.547400
20
33.110000
11
15.046800
21
33.110000
0
LINE
8
Layer 1
10
15.046800
20
33.110000
11
15.547100
21
33.110000
0
LINE
8
Layer 1
10
15.547100
20
33.110000
11
16.047800
21
33.110000
0
LINE
8
Layer 1
10
16.047800
20
33.110000
11
16.548600
21
33.110000
0
LINE
8
Layer 1
10
16.548600
20
33.110000
11
17.049200
21
33.110000
0
LINE
8
Layer 1
10
17.049200
20
33.110000
11
17.549300
21
33.110000
0
LINE
8
Layer 1
10
17.549300
20
33.110000
11
18.048400
21
33.110000
0
LINE
8
Layer 1
10
18.048400
20
33.110000
11
18.548800
21
33.110000
0
LINE
8
Layer 1
10
18.548800
20
33.110000
11
19.048900
21
33.110000
0
LINE
8
Layer 1
10
19.048900
20
33.110000
11
19.548200
21
33.110000
0
LINE
8
Layer 1
10
19.548200
20
33.110000
11
20.047800
21
33.110000
0
LINE
8
Layer 1
10
20.047800
20
33.110000
11
20.547300
21
33.110000
0
LINE
8
Layer 1
10
20.547300
20
33.110000
11
21.047400
21
33.110000
0
LINE
8
Layer 1
10
21.047400
20
33.110000
11
21.547800
21
33.110000
0
LINE
8
Layer 1
10
21.547800
20
33.110000
11
22.047100
21
33.110000
0
LINE
8
Layer 1
10
22.047100
20
33.110000
11
22.547100
21
33.110000
0
LINE
8
Layer 1
10
22.547100
20
33.110000
11
23.047500
21
33.110000
0
LINE
8
Layer 1
10
23.047500
20
33.110000
11
23.547800
21
33.110000
0
LINE
8
Layer 1
10
23.547800
20
33.110000
11
24.047700
21
33.110000
0
LINE
8
Layer 1
10
24.047700
20
33.110000
11
24.546700
21
33.110000
0
LINE
8
Layer 1
10
24.546700
20
33.110000
11
25.046700
21
33.110000
0
LINE
8
Layer 1
10
25.046700
20
33.110000
11
25.547000
21
33.110000
0
LINE
8
Layer 1
10
25.547000
20
33.110000
11
26.047300
21
33.110000
0
LINE
8
Layer 1
10
26.047300
20
33.110000
11
26.547000
21
33.110000
0
LINE
8
Layer 1
10
26.547000
20
33.110000
11
27.047600
21
33.110000
0
LINE
8
Layer 1
10
27.047600
20
33.110000
11
27.546800
21
33.110000
0
LINE
8
Layer 1
10
27.546800
20
33.110000
11
28.047700
21
33.110000
0
LINE
8
Layer 1
10
28.047700
20
33.110000
11
28.547800
21
33.110000
0
LINE
8
Layer 1
10
28.547800
20
33.110000
11
29.048500
21
33.110000
0
LINE
8
Layer 1
10
29.048500
20
33.110000
11
29.549000
21
33.110000
0
LINE
8
Layer 1
10
29.549000
20
33.110000
11
30.048700
21
33.110000
0
LINE
8
Layer 1
10
30.048700
20
33.110000
11
30.548600
21
33.110000
0
LINE
8
Layer 1
10
30.548600
20
33.110000
11
31.049600
21
33.110000
0
LINE
8
Layer 1
10
31.049600
20
33.110000
11
31.549200
21
33.110000
0
LINE
8
Layer 1
10
31.549200
20
33.110000
11
32.049800
21
33.110000
0
LINE
8
Layer 1
10
32.049800
20
33.110000
11
32.548900
21
33.110000
0
LINE
8
Layer 1
10
32.548900
20
33.110000
11
33.048600
21
33.110000
0
LINE
8
Layer 1
10
33.048600
20
33.110000
11
33.547800
21
33.110000
0
LINE
8
Layer 1
10
33.547800
20
33.110000
11
34.048200
21
33.110000
0
LINE
8
Layer 1
10
34.048200
20
33.110000
11
34.548600
21
33.110000
0
LINE
8
Layer 1
10
34.548600
20
33.110000
11
35.048800
21
33.110000
0
LINE
8
Layer 1
10
35.048800
20
33.110000
11
35.548900
21
33.110000
0
LINE
8
Layer 1
10
35.548900
20
33.110000
11
36.048400
21
33.110000
0
LINE
8
Layer 1
10
36.048400
20
33.110000
11
36.549200
21
33.110000
0
LINE
8
Layer 1
10
36.549200
20
33.110000
11
37.049300
21
33.110000
0
LINE
8
Layer 1
10
37.049300
20
33.110000
11
37.549000
21
33.110000
0
LINE
8
Layer 1
10
37.549000
20
33.110000
11
38.050000
21
33.110000
0
LINE
8
Layer 1
10
38.050000
20
33.110000
11
38.549800
21
33.110000
0
LINE
8
Layer 1
10
38.549800
20
33.110000
11
39.049400
21
33.110000
0
LINE
8
Layer 1
10
39.049400
20
33.110000
11
39.549200
21
33.110000
0
LINE
8
Layer 1
10
39.549200
20
33.110000
11
40.048800
21
33.110000
0
LINE
8
Layer 1
10
40.048800
20
33.110000
11
40.549000
21
33.110000
0
LINE
8
Layer 1
10
40.549000
20
33.110000
11
41.049200
21
33.110000
0
LINE
8
Layer 1
10
41.049200
20
33.110000
11
41.549300
21
33.110000
0
LINE
8
Layer 1
10
41.549300
20
33.110000
11
42.049100
21
33.110000
0
LINE
8
Layer 1
10
42.049100
20
33.110000
11
42.548900
21
33.110000
0
LINE
8
Layer 1
10
42.548900
20
33.110000
11
43.049600
21
33.110000
0
LINE
8
Layer 1
10
43.049600
20
33.110000
11
43.550300
21
33.110000
0
LINE
8
Layer 1
10
43.550300
20
33.110000
11
44.050800
21
33.110000
0
LINE
8
Layer 1
10
44.050800
20
33.110000
11
44.549800
21
33.110000
0
LINE
8
Layer 1
10
44.549800
20
33.110000
11
45.050500
21
33.110000
0
LINE
8
Layer 1
10
45.050500
20
33.110000
11
45.551100
21
33.110000
0
LINE
8
Layer 1
10
45.551100
20
33.110000
11
46.050700
21
33.110000
0
LINE
8
Layer 1
10
46.050700
20
33.110000
11
46.549600
21
33.110000
0
LINE
8
Layer 1
10
46.549600
20
33.110000
11
47.050000
21
33.110000
0
LINE
8
Layer 1
10
47.050000
20
33.110000
11
47.432700
21
33.033900
0
LINE
8
Layer 1
10
47.432700
20
33.033900
11
47.757100
21
32.817100
0
LINE
8
Layer 1
10
47.757100
20
32.817100
11
47.973900
21
32.492700
0
LINE
8
Layer 1
10
47.973900
20
32.492700
11
48.050000
21
32.110000
0
LINE
8
Layer 1
10
48.050000
20
32.110000
11
48.050000
21
31.610300
0
LINE
8
Layer 1
10
48.050000
20
31.610300
11
48.050000
21
31.109400
0
LINE
8
Layer 1
10
48.050000
20
31.109400
11
48.050000
21
30.609600
0
LINE
8
Layer 1
10
48.050000
20
30.609600
11
48.050000
21
30.109800
0
LINE
8
Layer 1
10
48.050000
20
30.109800
11
48.050000
21
29.610100
0
LINE
8
Layer 1
10
48.050000
20
29.610100
11
48.050000
21
29.110000
0
LINE
8
Layer 1
10
48.050000
20
29.110000
11
48.050000
21
28.610000
0
LINE
8
Layer 1
10
48.050000
20
28.610000
11
48.050000
21
28.110100
0
LINE
8
Layer 1
10
48.050000
20
28.110100
11
48.050000
21
27.610800
0
LINE
8
Layer 1
10
48.050000
20
27.610800
11
48.050000
21
27.111000
0
LINE
8
Layer 1
10
48.050000
20
27.111000
11
48.050000
21
26.611500
0
LINE
8
Layer 1
10
48.050000
20
26.611500
11
48.050000
21
26.111000
0
LINE
8
Layer 1
10
48.050000
20
26.111000
11
48.050000
21
25.611800
0
LINE
8
Layer 1
10
48.050000
20
25.611800
11
48.050000
21
25.111300
0
LINE
8
Layer 1
10
48.050000
20
25.111300
11
48.050000
21
24.611200
0
LINE
8
Layer 1
10
48.050000
20
24.611200
11
48.050000
21
24.110700
0
LINE
8
Layer 1
10
48.050000
20
24.110700
11
48.050000
21
23.610700
0
LINE
8
Layer 1
10
48.050000
20
23.610700
11
48.050000
21
23.109800
0
LINE
8
Layer 1
10
48.050000
20
23.109800
11
48.050000
21
22.609700
0
LINE
8
Layer 1
10
48.050000
20
22.609700
11
48.050000
21
22.109500
0
LINE
8
Layer 1
10
48.050000
20
22.109500
11
48.050000
21
21.610100
0
LINE
8
Layer 1
10
48.050000
20
21.610100
11
48.050000
21
21.109800
0
LINE
8
Layer 1
10
48.050000
20
21.109800
11
48.050000
21
20.610000
0
LINE
8
Layer 1
10
48.050000
20
20.610000
11
47.973800
21
20.226400
0
LINE
8
Layer 1
10
47.973800
20
20.226400
11
47.756200
21
19.902000
0
LINE
8
Layer 1
10
47.756200
20
19.902000
11
47.433000
21
19.686000
0
LINE
8
Layer 1
10
47.433000
20
19.686000
11
47.050000
21
19.610000
0
LINE
8
Layer 1
10
47.050000
20
19.610000
11
46.550800
21
19.610000
0
LINE
8
Layer 1
10
46.550800
20
19.610000
11
46.051100
21
19.610000
0
LINE
8
Layer 1
10
46.051100
20
19.610000
11
45.551800
21
19.610000
0
LINE
8
Layer 1
10
45.551800
20
19.610000
11
45.051400
21
19.610000
0
LINE
8
Layer 1
10
45.051400
20
19.610000
11
44.551800
21
19.610000
0
LINE
8
Layer 1
10
44.551800
20
19.610000
11
44.052600
21
19.610000
0
LINE
8
Layer 1
10
44.052600
20
19.610000
11
43.551700
21
19.610000
0
LINE
8
Layer 1
10
43.551700
20
19.610000
11
43.050900
21
19.610000
0
LINE
8
Layer 1
10
43.050900
20
19.610000
11
42.550100
21
19.610000
0
LINE
8
Layer 1
10
42.550100
20
19.610000
11
42.050500
21
19.610000
0
LINE
8
Layer 1
10
42.050500
20
19.610000
11
41.550700
21
19.610000
0
LINE
8
Layer 1
10
41.550700
20
19.610000
11
41.050700
21
19.610000
0
LINE
8
Layer 1
10
41.050700
20
19.610000
11
40.550600
21
19.610000
0
LINE
8
Layer 1
10
40.550600
20
19.610000
11
40.050200
21
19.610000
0
LINE
8
Layer 1
10
40.050200
20
19.610000
11
39.549200
21
19.610000
0
LINE
8
Layer 1
10
39.549200
20
19.610000
11
39.049600
21
19.610000
0
LINE
8
Layer 1
10
39.049600
20
19.610000
11
38.549000
21
19.610000
0
LINE
8
Layer 1
10
38.549000
20
19.610000
11
38.049500
21
19.610000
0
LINE
8
Layer 1
10
38.049500
20
19.610000
11
37.549000
21
19.610000
0
LINE
8
Layer 1
10
37.549000
20
19.610000
11
37.049700
21
19.610000
0
LINE
8
Layer 1
10
37.049700
20
19.610000
11
36.550300
21
19.610000
0
LINE
8
Layer 1
10
36.550300
20
19.610000
11
36.049600
21
19.610000
0
LINE
8
Layer 1
10
36.049600
20
19.610000
11
35.549100
21
19.610000
0
LINE
8
Layer 1
10
35.549100
20
19.610000
11
35.049900
21
19.610000
0
LINE
8
Layer 1
10
35.049900
20
19.610000
11
34.549500
21
19.610000
0
LINE
8
Layer 1
10
34.549500
20
19.610000
11
34.049000
21
19.610000
0
LINE
8
Layer 1
10
34.049000
20
19.610000
11
33.548900
21
19.610000
0
LINE
8
Layer 1
10
33.548900
20
19.610000
11
33.049400
21
19.610000
0
LINE
8
Layer 1
10
33.049400
20
19.610000
11
32.549500
21
19.610000
0
LINE
8
Layer 1
10
32.549500
20
19.610000
11
32.050300
21
19.610000
0
LINE
8
Layer 1
10
32.050300
20
19.610000
11
31.549900
21
19.610000
0
LINE
8
Layer 1
10
31.549900
20
19.610000
11
31.049400
21
19.610000
0
LINE
8
Layer 1
10
31.049400
20
19.610000
11
30.549100
21
19.610000
0
LINE
8
Layer 1
10
30.549100
20
19.610000
11
30.048900
21
19.610000
0
LINE
8
Layer 1
10
30.048900
20
19.610000
11
29.549900
21
19.610000
0
LINE
8
Layer 1
10
29.549900
20
19.610000
11
29.049000
21
19.610000
0
LINE
8
Layer 1
10
29.049000
20
19.610000
11
28.549500
21
19.610000
0
LINE
8
Layer 1
10
28.549500
20
19.610000
11
28.050700
21
19.610000
0
LINE
8
Layer 1
10
28.050700
20
19.610000
11
27.550000
21
19.610000
0
LINE
8
Layer 1
10
27.550000
20
19.610000
11
27.166400
21
19.533800
0
LINE
8
Layer 1
10
27.166400
20
19.533800
11
26.842000
21
19.316200
0
LINE
8
Layer 1
10
26.842000
20
19.316200
11
26.626000
21
18.993000
0
LINE
8
Layer 1
10
26.626000
20
18.993000
11
26.550000
21
18.610000
0
LINE
8
Layer 1
10
26.550000
20
18.610000
11
26.550000
21
18.158000
0
LINE
8
Layer 1
10
26.550000
20
18.158000
11
26.550000
21
17.707200
0
LINE
8
Layer 1
10
26.550000
20
17.707200
11
26.550000
21
17.255600
0
LINE
8
Layer 1
10
26.550000
20
17.255600
11
26.550000
21
16.804000
0
LINE
8
Layer 1
10
26.550000
20
16.804000
11
26.550000
21
16.353000
0
LINE
8
Layer 1
10
26.550000
20
16.353000
11
26.550000
21
15.902100
0
LINE
8
Layer 1
10
26.550000
20
15.902100
11
26.550000
21
15.451600
0
LINE
8
Layer 1
10
26.550000
20
15.451600
11
26.550000
21
15.000500
0
LINE
8
Layer 1
10
26.550000
20
15.000500
11
26.550000
21
14.550000
0
LINE
8
Layer 1
10
26.550000
20
14.550000
11
26.626200
21
14.166400
0
LINE
8
Layer 1
10
26.626200
20
14.166400
11
26.843800
21
13.842000
0
LINE
8
Layer 1
10
26.843800
20
13.842000
11
27.167000
21
13.626000
0
LINE
8
Layer 1
10
27.167000
20
13.626000
11
27.550000
21
13.550000
 0 
ENDSEC
 0 
EOF