%TF.GenerationSoftware,KiCad,Pcbnew,8.0.2*%
%TF.CreationDate,2024-06-18T01:05:25+09:00*%
%TF.ProjectId,accelerator,61636365-6c65-4726-9174-6f722e6b6963,v1.0.0*%
%TF.SameCoordinates,Original*%
%TF.FileFunction,Profile,NP*%
%FSLAX46Y46*%
G04 Gerber Fmt 4.6, Leading zero omitted, Abs format (unit mm)*
G04 Created by KiCad (PCBNEW 8.0.2) date 2024-06-18 01:05:25*
%MOMM*%
%LPD*%
G01*
G04 APERTURE LIST*
%TA.AperFunction,Profile*%
%ADD10C,0.099999*%
%TD*%
%TA.AperFunction,Profile*%
%ADD11C,0.200000*%
%TD*%
G04 APERTURE END LIST*
D10*
X192039991Y-147171392D02*
X192039991Y-147668691D01*
X212781995Y-159725996D02*
X213105993Y-159942991D01*
X236061994Y-54621900D02*
X236559995Y-54621900D01*
X95810000Y-164008993D02*
X95810000Y-163508993D01*
X221177991Y-55239200D02*
X221394994Y-54914800D01*
X300874997Y-227052984D02*
X300376996Y-227052984D01*
X95810000Y-160008993D02*
X95810000Y-159508993D01*
X317331998Y-95615198D02*
X317331998Y-96114298D01*
X111767097Y-54560000D02*
X112266498Y-54560000D01*
X317331998Y-170081991D02*
X317331998Y-170581991D01*
X221101995Y-75423698D02*
X221101995Y-74928499D01*
X213348989Y-91284395D02*
X213348989Y-91772997D01*
X192039991Y-146174993D02*
X192039991Y-146672895D01*
X159628396Y-226990988D02*
X159130697Y-226990988D01*
X213398992Y-193034979D02*
X213398992Y-193521978D01*
X95810000Y-107531896D02*
X95810000Y-107032697D01*
X102295780Y-54560000D02*
X102793539Y-54560000D01*
X317331998Y-55621900D02*
X317331998Y-56122210D01*
X275942991Y-227052984D02*
X275443998Y-227052984D01*
X221101995Y-89778696D02*
X221101995Y-89284597D01*
X228583997Y-54621900D02*
X229082990Y-54621900D01*
X199898992Y-203244985D02*
X199898992Y-202757986D01*
X141180097Y-226990988D02*
X140681497Y-226990988D01*
X221101995Y-124761289D02*
X221101995Y-124262495D01*
X304365995Y-227052984D02*
X303866987Y-227052984D01*
X95810000Y-61556020D02*
X95810000Y-61056100D01*
X221101995Y-157622991D02*
X221101995Y-157125990D01*
X213398992Y-164124990D02*
X213398992Y-164622991D01*
X253507993Y-227052984D02*
X253009992Y-227052984D01*
X219636991Y-102856996D02*
X219155996Y-102856996D01*
X192039991Y-208065984D02*
X192039991Y-208563986D01*
X197928991Y-179527990D02*
X198417989Y-179527990D01*
X199898992Y-169097990D02*
X199898992Y-168600996D01*
X280931989Y-227052984D02*
X280432996Y-227052984D01*
X192039991Y-159116995D02*
X192039991Y-159613989D01*
X286919996Y-54621900D02*
X287417997Y-54621900D01*
X204399991Y-207649984D02*
X203899991Y-207649984D01*
X192039991Y-191630987D02*
X192039991Y-192128988D01*
X221101995Y-219568990D02*
X221101995Y-219069982D01*
X221101995Y-80373197D02*
X221101995Y-79878599D01*
X117252698Y-54560000D02*
X117751998Y-54560000D01*
X95810000Y-125022794D02*
X95810000Y-124523390D01*
X205347989Y-74616998D02*
X205847989Y-74616998D01*
X221101995Y-76415298D02*
X221101995Y-75919498D01*
X131207795Y-226990988D02*
X130708597Y-226990988D01*
X183561895Y-54560000D02*
X184059789Y-54560000D01*
X213398992Y-179027990D02*
X213544996Y-179380995D01*
X317331998Y-214060980D02*
X317331998Y-214559988D01*
X199848989Y-114710596D02*
X199848989Y-114217397D01*
X294392988Y-227052984D02*
X293893995Y-227052984D01*
X124727397Y-226990988D02*
X124229497Y-226990988D01*
X95810000Y-118027895D02*
X95810000Y-117528394D01*
X95810000Y-158508993D02*
X95810000Y-158008993D01*
X263480985Y-227052984D02*
X262982999Y-227052984D01*
X119739997Y-226990988D02*
X119241298Y-226990988D01*
X266478986Y-54621900D02*
X266977994Y-54621900D01*
X95810000Y-215990988D02*
X95810000Y-215490988D01*
X95810000Y-140014791D02*
X95810000Y-139514593D01*
X192039991Y-110824896D02*
X192039991Y-111322695D01*
X215813993Y-179527990D02*
X216292989Y-179527990D01*
X192039991Y-133229193D02*
X192039991Y-133727590D01*
X221101995Y-198119985D02*
X221101995Y-197620977D01*
X195457792Y-102856996D02*
X194972295Y-102856996D01*
X221101995Y-173051992D02*
X221101995Y-172554991D01*
X213398992Y-173561994D02*
X213398992Y-174058996D01*
X153151395Y-54560000D02*
X153649896Y-54560000D01*
X213348989Y-108289797D02*
X213348989Y-108783495D01*
X317331998Y-225053991D02*
X317331998Y-225552984D01*
X317331998Y-62122860D02*
X317331998Y-62622259D01*
X317331998Y-170581991D02*
X317331998Y-171081991D01*
X159130697Y-226990988D02*
X158631894Y-226990988D01*
X95810000Y-153510893D02*
X95810000Y-153011595D01*
X195479192Y-179527990D02*
X195968992Y-179527990D01*
X199848989Y-80020597D02*
X199848989Y-79531399D01*
X205850995Y-122616995D02*
X205349988Y-122616995D01*
X213398992Y-189142980D02*
X213398992Y-189628988D01*
X199848989Y-82469198D02*
X199848989Y-81979898D01*
X292397992Y-227052984D02*
X291899000Y-227052984D01*
X221101995Y-56115700D02*
X221101995Y-55621900D01*
X95810000Y-84044597D02*
X95810000Y-83544899D01*
X185554189Y-226990988D02*
X185056493Y-226990988D01*
X192039991Y-204081991D02*
X192039991Y-204579992D01*
X213398992Y-202760992D02*
X213398992Y-203246984D01*
X317331998Y-60124120D02*
X317331998Y-60623880D01*
X308355985Y-54621900D02*
X308853986Y-54621900D01*
X192039991Y-74398397D02*
X192039991Y-74895199D01*
X196459989Y-179527990D02*
X196948995Y-179527990D01*
X200191991Y-207356985D02*
X199974988Y-207032980D01*
X191747091Y-54852900D02*
X191963895Y-55177300D01*
X95810000Y-123524389D02*
X95810000Y-123024992D01*
X213348989Y-105823595D02*
X213348989Y-106317396D01*
X317331998Y-131600591D02*
X317331998Y-132100096D01*
X221101995Y-167579992D02*
X221101995Y-167081991D01*
X192039991Y-192128988D02*
X192039991Y-192626989D01*
X111764598Y-226990988D02*
X111265499Y-226990988D01*
X204398992Y-159649992D02*
X204898992Y-159649992D01*
X95810000Y-206491979D02*
X95810000Y-205991979D01*
X177079793Y-226990988D02*
X176581792Y-226990988D01*
X192039991Y-85306698D02*
X192039991Y-85802698D01*
X197402990Y-93741796D02*
X197889989Y-93741796D01*
X296890989Y-54621900D02*
X297388990Y-54621900D01*
X221101995Y-217570989D02*
X221101995Y-217071981D01*
X221101995Y-79383798D02*
X221101995Y-78889297D01*
X192539991Y-179527990D02*
X193030492Y-179527990D01*
X95810000Y-147514089D02*
X95810000Y-147014295D01*
X317331998Y-59122760D02*
X317331998Y-59623460D01*
X192039991Y-142192892D02*
X192039991Y-142691190D01*
X192039991Y-77372698D02*
X192039991Y-77869098D01*
X201348989Y-74616998D02*
X201849988Y-74616998D01*
X192039991Y-122269796D02*
X192039991Y-122768293D01*
X199848989Y-78062898D02*
X199848989Y-77574398D01*
X166607389Y-226990988D02*
X166108793Y-226990988D01*
X95810000Y-128022192D02*
X95810000Y-127521993D01*
X192039991Y-211052984D02*
X192039991Y-211550985D01*
X95810000Y-204492986D02*
X95810000Y-203992986D01*
X317331998Y-152092092D02*
X317331998Y-152591192D01*
X186553396Y-54560000D02*
X187051191Y-54560000D01*
X192039991Y-107339998D02*
X192039991Y-107838598D01*
X317038999Y-54914800D02*
X317255994Y-55239200D01*
X221101995Y-218569982D02*
X221101995Y-218070989D01*
X182563894Y-226990988D02*
X182066190Y-226990988D01*
X107779299Y-54560000D02*
X108277199Y-54560000D01*
X221101995Y-104849897D02*
X221101995Y-104352197D01*
X247524991Y-227052984D02*
X247025998Y-227052984D01*
X257994993Y-227052984D02*
X257495984Y-227052984D01*
X199898992Y-175054991D02*
X199898992Y-174558996D01*
X216770994Y-179527990D02*
X217249990Y-179527990D01*
X240549985Y-54621900D02*
X241048993Y-54621900D01*
X197889989Y-93741796D02*
X198374990Y-93741796D01*
X221101995Y-225553991D02*
X221101995Y-225055990D01*
X188048192Y-54560000D02*
X188547193Y-54560000D01*
X99302850Y-226990988D02*
X98804450Y-226990988D01*
X221101995Y-92253195D02*
X221101995Y-91758997D01*
X221101995Y-172554991D02*
X221101995Y-172056989D01*
X215334989Y-179527990D02*
X215813993Y-179527990D01*
X121741197Y-54560000D02*
X122239698Y-54560000D01*
X221101995Y-176536993D02*
X221101995Y-176039991D01*
X199848989Y-89813795D02*
X199848989Y-89323995D01*
X95810000Y-134016889D02*
X95810000Y-133517790D01*
X192039991Y-149163091D02*
X192039991Y-149660894D01*
X199848989Y-117669897D02*
X199848989Y-117176897D01*
X317331998Y-222555990D02*
X317331998Y-223054983D01*
X312841993Y-227052984D02*
X312342985Y-227052984D01*
X213398992Y-205677984D02*
X213398992Y-206164984D01*
X211347989Y-122616995D02*
X210848989Y-122616995D01*
X306363996Y-54621900D02*
X306860990Y-54621900D01*
X192039991Y-171059995D02*
X192039991Y-171557989D01*
X221101995Y-85820099D02*
X221101995Y-85324898D01*
X140182695Y-226990988D02*
X139683896Y-226990988D01*
X95810000Y-196492986D02*
X95810000Y-195993978D01*
X221101995Y-65028299D02*
X221101995Y-64534099D01*
X192039991Y-153143690D02*
X192039991Y-153641592D01*
X200898992Y-159649992D02*
X201398992Y-159649992D01*
X221101995Y-72454698D02*
X221101995Y-71959799D01*
X221101995Y-67999899D02*
X221101995Y-67504299D01*
X196916990Y-93741796D02*
X197402990Y-93741796D01*
X317331998Y-131101690D02*
X317331998Y-131600591D01*
X314337995Y-227052984D02*
X313838987Y-227052984D01*
X317255994Y-55239200D02*
X317331998Y-55621900D01*
X213348989Y-107797098D02*
X213348989Y-108289797D01*
X221101995Y-91758997D02*
X221101995Y-91263597D01*
X303866987Y-227052984D02*
X303368986Y-227052984D01*
X95810000Y-120026594D02*
X95810000Y-119526991D01*
X192039991Y-140201696D02*
X192039991Y-140698492D01*
X192039991Y-195117986D02*
X192039991Y-195615988D01*
X317331998Y-120103689D02*
X317331998Y-120603292D01*
X221101995Y-110329096D02*
X221101995Y-109830896D01*
X213348989Y-81003998D02*
X213348989Y-81493198D01*
X199898992Y-163631994D02*
X199898992Y-163134992D01*
X199898992Y-197895986D02*
X199898992Y-197408987D01*
X205897992Y-159649992D02*
X206397992Y-159649992D01*
X133206796Y-54560000D02*
X133705095Y-54560000D01*
X251015989Y-227052984D02*
X250517988Y-227052984D01*
X95810000Y-150012289D02*
X95810000Y-149512792D01*
X317331998Y-213062979D02*
X317331998Y-213561987D01*
X95810000Y-110031496D02*
X95810000Y-109531397D01*
X210348989Y-74616998D02*
X210849988Y-74616998D01*
X187051191Y-54560000D02*
X187549589Y-54560000D01*
X317331998Y-136099790D02*
X317331998Y-136598791D01*
X264476987Y-227052984D02*
X263978986Y-227052984D01*
X95810000Y-123024992D02*
X95810000Y-122525190D01*
X245031995Y-227052984D02*
X244532987Y-227052984D01*
X199848989Y-92261995D02*
X199848989Y-91772398D01*
X304868986Y-54621900D02*
X305366987Y-54621900D01*
X199848989Y-77085798D02*
X199848989Y-76595299D01*
X95810000Y-106532297D02*
X95810000Y-106033396D01*
X221101995Y-80867298D02*
X221101995Y-80373197D01*
X218686994Y-188642980D02*
X218207990Y-188642980D01*
X192039991Y-168572996D02*
X192039991Y-169070989D01*
X260493986Y-54621900D02*
X260992994Y-54621900D01*
X192039991Y-220513983D02*
X192039991Y-221011984D01*
X317331998Y-85119798D02*
X317331998Y-85619299D01*
X212781995Y-207573980D02*
X212398992Y-207649984D01*
X317331998Y-218057989D02*
X317331998Y-218557989D01*
X192186391Y-179380995D02*
X192539991Y-179527990D01*
X188547193Y-54560000D02*
X189045591Y-54560000D01*
X142682996Y-54560000D02*
X143181096Y-54560000D01*
X117751998Y-54560000D02*
X118250799Y-54560000D01*
X199752988Y-179380995D02*
X199898992Y-179027990D01*
X221101995Y-93241796D02*
X221101995Y-92747198D01*
X213398992Y-199354986D02*
X213398992Y-199841985D01*
X240046995Y-227052984D02*
X239548993Y-227052984D01*
X192039991Y-223999990D02*
X192039991Y-224497991D01*
X135202096Y-54560000D02*
X135701394Y-54560000D01*
X213348989Y-77086498D02*
X213348989Y-77576298D01*
X221101995Y-225055990D02*
X221101995Y-224556982D01*
X317331998Y-118104196D02*
X317331998Y-118603391D01*
X292895994Y-227052984D02*
X292397992Y-227052984D01*
X139193197Y-54560000D02*
X139691697Y-54560000D01*
X163620489Y-54560000D02*
X164119291Y-54560000D01*
X120743898Y-54560000D02*
X121242597Y-54560000D01*
X95810000Y-131518995D02*
X95810000Y-131018896D01*
X221101995Y-164096990D02*
X221101995Y-163599989D01*
X214377988Y-179527990D02*
X214856992Y-179527990D01*
X95810000Y-62055670D02*
X95810000Y-61556020D01*
X302371992Y-227052984D02*
X301873990Y-227052984D01*
X317331998Y-137597593D02*
X317331998Y-138097296D01*
X213398992Y-176045995D02*
X213398992Y-176542990D01*
X181071889Y-54560000D02*
X181569494Y-54560000D01*
X192039991Y-204579992D02*
X192039991Y-205077978D01*
X317331998Y-194569982D02*
X317331998Y-195070989D01*
X133202196Y-226990988D02*
X132703195Y-226990988D01*
X106282898Y-54560000D02*
X106781498Y-54560000D01*
X317331998Y-72621298D02*
X317331998Y-73121898D01*
X221101995Y-103356996D02*
X220954992Y-103003496D01*
X222101995Y-227052984D02*
X221718992Y-226976980D01*
X171095594Y-226990988D02*
X170597295Y-226990988D01*
X199898992Y-202270986D02*
X199898992Y-201784979D01*
X192039991Y-67459199D02*
X192039991Y-67954899D01*
X317331998Y-146596594D02*
X317331998Y-147096494D01*
X161622091Y-226990988D02*
X161123594Y-226990988D01*
X317331998Y-98112795D02*
X317331998Y-98612795D01*
X186052892Y-226990988D02*
X185554189Y-226990988D01*
X213398992Y-177535993D02*
X213398992Y-178032995D01*
X317331998Y-178077993D02*
X317331998Y-178576994D01*
X317331998Y-102612795D02*
X317331998Y-103112398D01*
X165111890Y-226990988D02*
X164612592Y-226990988D01*
X221101995Y-168575994D02*
X221101995Y-168076994D01*
X210848989Y-122616995D02*
X210348989Y-122616995D01*
X192039991Y-63489969D02*
X192039991Y-63986749D01*
X300380994Y-54621900D02*
X300879987Y-54621900D01*
X256499997Y-227052984D02*
X256000989Y-227052984D01*
X95810000Y-136516096D02*
X95810000Y-136017095D01*
X95810000Y-133017294D02*
X95810000Y-132517294D01*
X95810000Y-111530897D02*
X95810000Y-111030596D01*
X146171396Y-54560000D02*
X146669896Y-54560000D01*
X239049985Y-227052984D02*
X238551999Y-227052984D01*
X192039991Y-143686994D02*
X192039991Y-144184194D01*
X95810000Y-119027296D02*
X95810000Y-118527593D01*
X284919996Y-227052984D02*
X284422986Y-227052984D01*
X221101995Y-157125990D02*
X221101995Y-156626989D01*
X317331998Y-64122279D02*
X317331998Y-64622399D01*
X221101995Y-118790090D02*
X221101995Y-118292196D01*
X138695295Y-54560000D02*
X139193197Y-54560000D01*
X126726398Y-54560000D02*
X127225097Y-54560000D01*
X175084989Y-226990988D02*
X174586393Y-226990988D01*
X270467985Y-54621900D02*
X270964994Y-54621900D01*
X317331998Y-133599493D02*
X317331998Y-134098791D01*
X134203897Y-54560000D02*
X134702897Y-54560000D01*
X192039991Y-81339899D02*
X192039991Y-81836199D01*
X213348989Y-115691797D02*
X213348989Y-116186098D01*
X221101995Y-55621900D02*
X221177991Y-55239200D01*
X278438993Y-227052984D02*
X277939985Y-227052984D01*
X192039991Y-144184194D02*
X192039991Y-144681295D01*
X213348989Y-119641493D02*
X213348989Y-120135191D01*
X221101995Y-155133993D02*
X221101995Y-154634992D01*
X138196996Y-54560000D02*
X138695295Y-54560000D01*
X95810000Y-179499990D02*
X95810000Y-178999990D01*
X95810000Y-198492986D02*
X95810000Y-197991979D01*
X221101995Y-221563986D02*
X221101995Y-221065984D01*
X221101995Y-141188291D02*
X221101995Y-140689596D01*
X192039991Y-77869098D02*
X192039991Y-78365299D01*
X159634195Y-54560000D02*
X160132192Y-54560000D01*
X221101995Y-211088979D02*
X221101995Y-210589987D01*
X221101995Y-205601980D02*
X221101995Y-205103979D01*
X192039991Y-173051992D02*
X192039991Y-173549993D01*
X199898992Y-176544996D02*
X199898992Y-176047994D01*
X213398992Y-165118994D02*
X213398992Y-165614996D01*
X317331998Y-77120199D02*
X317331998Y-77619499D01*
X178076993Y-226990988D02*
X177579091Y-226990988D01*
X315832990Y-227052984D02*
X315335996Y-227052984D01*
X95810000Y-161009992D02*
X95810000Y-160508993D01*
X127717798Y-226990988D02*
X127218597Y-226990988D01*
X221101995Y-176039991D02*
X221101995Y-175542990D01*
X317331998Y-73121898D02*
X317331998Y-73622299D01*
X192039991Y-124263693D02*
X192039991Y-124761495D01*
X95810000Y-205492986D02*
X95810000Y-204991979D01*
X196948995Y-179527990D02*
X197438993Y-179527990D01*
X274454999Y-54621900D02*
X274952985Y-54621900D01*
X95810000Y-69049699D02*
X95810000Y-68550299D01*
X192039991Y-214039984D02*
X192039991Y-214538992D01*
X192039991Y-196113989D02*
X192039991Y-196612982D01*
X214331991Y-93741796D02*
X214813993Y-93741796D01*
X199898992Y-205189977D02*
X199898992Y-204703985D01*
X239053998Y-54621900D02*
X239552991Y-54621900D01*
X192039991Y-127250891D02*
X192039991Y-127749594D01*
X276947996Y-54621900D02*
X277445997Y-54621900D01*
X95810000Y-56059750D02*
X95810000Y-55560000D01*
X199848989Y-78552297D02*
X199848989Y-78062898D01*
X95810000Y-110531297D02*
X95810000Y-110031496D01*
X192039991Y-174047994D02*
X192039991Y-174544996D01*
X205399991Y-207649984D02*
X204899991Y-207649984D01*
X293401990Y-54621900D02*
X293900998Y-54621900D01*
X192039991Y-129242895D02*
X192039991Y-129741392D01*
X95810000Y-117528394D02*
X95810000Y-117028997D01*
X213348989Y-79534899D02*
X213348989Y-80025198D01*
X199898992Y-200812979D02*
X199898992Y-200327978D01*
X95810000Y-151011694D02*
X95810000Y-150511190D01*
X221101995Y-193630987D02*
X221101995Y-193132986D01*
X198861989Y-93741796D02*
X199348989Y-93741796D01*
X192039991Y-140698492D02*
X192039991Y-141196394D01*
X197890989Y-102856996D02*
X197403989Y-102856996D01*
X221101995Y-151645895D02*
X221101995Y-151147192D01*
X220601995Y-93741796D02*
X220954992Y-93595396D01*
X317331998Y-70121399D02*
X317331998Y-70620899D01*
X317331998Y-181572996D02*
X317331998Y-182071989D01*
X211348989Y-74616998D02*
X211848989Y-74616998D01*
X101298180Y-54560000D02*
X101797059Y-54560000D01*
X201398992Y-159649992D02*
X201899991Y-159649992D01*
X274446988Y-227052984D02*
X273948987Y-227052984D01*
X199898992Y-200327978D02*
X199898992Y-199841985D01*
X256997999Y-227052984D02*
X256499997Y-227052984D01*
X192039991Y-201592977D02*
X192039991Y-202089987D01*
X213398992Y-197409979D02*
X213398992Y-197896978D01*
X244539991Y-54621900D02*
X245038999Y-54621900D01*
X192039991Y-211550985D02*
X192039991Y-212048986D01*
X192039991Y-137711393D02*
X192039991Y-138209791D01*
X194989591Y-179527990D02*
X195479192Y-179527990D01*
X104788509Y-54560000D02*
X105286139Y-54560000D01*
X138188596Y-226990988D02*
X137690996Y-226990988D01*
X192039991Y-214538992D02*
X192039991Y-215035986D01*
X257495984Y-227052984D02*
X256997999Y-227052984D01*
X221101995Y-70473999D02*
X221101995Y-69979599D01*
X128215795Y-226990988D02*
X127717798Y-226990988D01*
X317331998Y-150593992D02*
X317331998Y-151093389D01*
X134702897Y-54560000D02*
X135202096Y-54560000D01*
X201398992Y-207649984D02*
X200898992Y-207649984D01*
X95810000Y-102536596D02*
X95810000Y-102037496D01*
X95810000Y-172004995D02*
X95810000Y-171504995D01*
X211898992Y-159649992D02*
X212398992Y-159649992D01*
X213348989Y-121122495D02*
X213348989Y-121616995D01*
X213348989Y-75616998D02*
X213348989Y-76106798D01*
X221101995Y-85324898D02*
X221101995Y-84828897D01*
X236556989Y-227052984D02*
X236057996Y-227052984D01*
X95810000Y-137015394D02*
X95810000Y-136516096D01*
X223596990Y-54621900D02*
X224094999Y-54621900D01*
X317331998Y-126101591D02*
X317331998Y-126602094D01*
X297388990Y-54621900D02*
X297887998Y-54621900D01*
X199848989Y-91772398D02*
X199848989Y-91282495D01*
X192039991Y-206073980D02*
X192039991Y-206572988D01*
X213348989Y-110756597D02*
X213348989Y-111249895D01*
X317331998Y-104110796D02*
X317331998Y-104609697D01*
X317331998Y-189571981D02*
X317331998Y-190071981D01*
X213398992Y-192547979D02*
X213398992Y-193034979D01*
X317331998Y-200565984D02*
X317331998Y-201065984D01*
X113761999Y-54560000D02*
X114261299Y-54560000D01*
X168109990Y-54560000D02*
X168608693Y-54560000D01*
X281933988Y-54621900D02*
X282432996Y-54621900D01*
X95810000Y-122025091D02*
X95810000Y-121524595D01*
X283929990Y-54621900D02*
X284427991Y-54621900D01*
X213398992Y-206164984D02*
X213398992Y-206649984D01*
X221101995Y-204105978D02*
X221101995Y-203606985D01*
X192039991Y-135720190D02*
X192039991Y-136217390D01*
X95810000Y-97541296D02*
X95810000Y-97040495D01*
X226589994Y-54621900D02*
X227088987Y-54621900D01*
X146663194Y-226990988D02*
X146164297Y-226990988D01*
X213398992Y-162138990D02*
X213398992Y-162634992D01*
X317331998Y-213561987D02*
X317331998Y-214060980D01*
X95810000Y-224489980D02*
X95810000Y-223989980D01*
X199898992Y-201784979D02*
X199898992Y-201298986D01*
X199848989Y-85895399D02*
X199848989Y-85406599D01*
X213105993Y-207356985D02*
X212781995Y-207573980D01*
X221101995Y-192133978D02*
X221101995Y-191634985D01*
X95810000Y-82045599D02*
X95810000Y-81546598D01*
X95810000Y-71048399D02*
X95810000Y-70549299D01*
X317331998Y-82122099D02*
X317331998Y-82621498D01*
X202397992Y-207649984D02*
X201898992Y-207649984D01*
X317331998Y-208564977D02*
X317331998Y-209064977D01*
X95810000Y-173004995D02*
X95810000Y-172504995D01*
X273449994Y-227052984D02*
X272950986Y-227052984D01*
X213398992Y-174058996D02*
X213398992Y-174555990D01*
X269967985Y-54621900D02*
X270467985Y-54621900D01*
X192039991Y-199102987D02*
X192039991Y-199599981D01*
X221101995Y-61067109D02*
X221101995Y-60572009D01*
X131212495Y-54560000D02*
X131710996Y-54560000D01*
X147160795Y-226990988D02*
X146663194Y-226990988D01*
X234565992Y-54621900D02*
X235064985Y-54621900D01*
X159136094Y-54560000D02*
X159634195Y-54560000D01*
X192039991Y-192626989D02*
X192039991Y-193124990D01*
X317331998Y-78619499D02*
X317331998Y-79119898D01*
X290403989Y-227052984D02*
X289904996Y-227052984D01*
X96810000Y-226990988D02*
X96427300Y-226914984D01*
X296386991Y-227052984D02*
X295888990Y-227052984D01*
X210849988Y-74616998D02*
X211348989Y-74616998D01*
X220954992Y-93595396D02*
X221101995Y-93241796D01*
X317331998Y-106609895D02*
X317331998Y-107109297D01*
X192039991Y-134225294D02*
X192039991Y-134724096D01*
X95810000Y-200990988D02*
X95810000Y-200490988D01*
X192039991Y-58037990D02*
X192039991Y-58533680D01*
X317331998Y-194069982D02*
X317331998Y-194569982D01*
X95810000Y-141015196D02*
X95810000Y-140514990D01*
X221101995Y-174545995D02*
X221101995Y-174047994D01*
X192039991Y-90762197D02*
X192039991Y-91258196D01*
X178081396Y-54560000D02*
X178580388Y-54560000D01*
X255008985Y-54621900D02*
X255506986Y-54621900D01*
X317331998Y-77619499D02*
X317331998Y-78119299D01*
X95810000Y-80546999D02*
X95810000Y-80046999D01*
X192039991Y-90266496D02*
X192039991Y-90762197D01*
X213348989Y-80025198D02*
X213348989Y-80514498D01*
X149154695Y-226990988D02*
X148656797Y-226990988D01*
X221101995Y-126752989D02*
X221101995Y-126255094D01*
X199898992Y-165121992D02*
X199898992Y-164625990D01*
X213398992Y-166110990D02*
X213398992Y-166608991D01*
X96102900Y-54852900D02*
X96427300Y-54636100D01*
X95810000Y-75548097D02*
X95810000Y-75048298D01*
X317331998Y-167582990D02*
X317331998Y-168082990D01*
X199752988Y-188788992D02*
X199398992Y-188642980D01*
X95810000Y-142015592D02*
X95810000Y-141515493D01*
X221101995Y-57602320D02*
X221101995Y-57107120D01*
X191963895Y-55177300D02*
X192039991Y-55560000D01*
X157639696Y-54560000D02*
X158138597Y-54560000D01*
X262483991Y-227052984D02*
X261985990Y-227052984D01*
X317331998Y-57122700D02*
X317331998Y-57623140D01*
X294890989Y-227052984D02*
X294392988Y-227052984D01*
X189544492Y-54560000D02*
X190042989Y-54560000D01*
X197438993Y-179527990D02*
X197928991Y-179527990D01*
X95810000Y-154511991D02*
X95810000Y-154011595D01*
X95810000Y-178999990D02*
X95810000Y-178500990D01*
X100798819Y-226990988D02*
X100300440Y-226990988D01*
X202898992Y-207649984D02*
X202397992Y-207649984D01*
X95810000Y-156010992D02*
X95810000Y-155510992D01*
X216742994Y-102856996D02*
X216260991Y-102856996D01*
X263978986Y-227052984D02*
X263480985Y-227052984D01*
X192039991Y-220015981D02*
X192039991Y-220513983D01*
X179572790Y-226990988D02*
X179074193Y-226990988D01*
X195968992Y-179527990D02*
X196459989Y-179527990D01*
X280937986Y-54621900D02*
X281435987Y-54621900D01*
X253512998Y-54621900D02*
X254010999Y-54621900D01*
X317331998Y-106110098D02*
X317331998Y-106609895D01*
X317331998Y-74122497D02*
X317331998Y-74622099D01*
X199702993Y-93595396D02*
X199848989Y-93241796D01*
X317331998Y-190071981D02*
X317331998Y-190570989D01*
X221101995Y-139194891D02*
X221101995Y-138697790D01*
X192039991Y-195615988D02*
X192039991Y-196113989D01*
X193027295Y-102856996D02*
X192539991Y-102856996D01*
X193026990Y-93741796D02*
X193512792Y-93741796D01*
X317331998Y-196568990D02*
X317331998Y-197067983D01*
X192039991Y-198605978D02*
X192039991Y-199102987D01*
X192039991Y-138708189D02*
X192039991Y-139206396D01*
X317331998Y-149095594D02*
X317331998Y-149594991D01*
X317331998Y-193570989D02*
X317331998Y-194069982D01*
X179079091Y-54560000D02*
X179577390Y-54560000D01*
X192039991Y-57045260D02*
X192039991Y-57541480D01*
X147659196Y-226990988D02*
X147160795Y-226990988D01*
X199848989Y-103851496D02*
X199848989Y-103356996D01*
X317331998Y-140597692D02*
X317331998Y-141097891D01*
X291407987Y-54621900D02*
X291905988Y-54621900D01*
X192039991Y-148664793D02*
X192039991Y-149163091D01*
X192039991Y-203084982D02*
X192039991Y-203582983D01*
X199898992Y-196437979D02*
X199898992Y-195950979D01*
X193998395Y-93741796D02*
X194484891Y-93741796D01*
X191747091Y-226697988D02*
X191422689Y-226914984D01*
X224094999Y-54621900D02*
X224594999Y-54621900D01*
X192039991Y-144681295D02*
X192039991Y-145179792D01*
X213398992Y-169089994D02*
X213398992Y-169585989D01*
X317331998Y-58623090D02*
X317331998Y-59122760D01*
X95810000Y-121025495D02*
X95810000Y-120526090D01*
X204849988Y-122616995D02*
X204349988Y-122616995D01*
X260987989Y-227052984D02*
X260487989Y-227052984D01*
X203848989Y-74616998D02*
X204348989Y-74616998D01*
X192039991Y-111819895D02*
X192039991Y-112317396D01*
X192039991Y-158619993D02*
X192039991Y-159116995D01*
X192039991Y-207069982D02*
X192039991Y-207567983D01*
X213398992Y-172567991D02*
X213398992Y-173063993D01*
X261991987Y-54621900D02*
X262490995Y-54621900D01*
X105781498Y-226990988D02*
X105283709Y-226990988D01*
X104289809Y-54560000D02*
X104788509Y-54560000D01*
X162120092Y-226990988D02*
X161622091Y-226990988D01*
X199848989Y-109282198D02*
X199848989Y-108787897D01*
X200465993Y-74693098D02*
X200848989Y-74616998D01*
X213398992Y-194493978D02*
X213398992Y-194979986D01*
X317331998Y-76620397D02*
X317331998Y-77120199D01*
X192039991Y-173549993D02*
X192039991Y-174047994D01*
X317331998Y-189070989D02*
X317331998Y-189571981D01*
X234062986Y-227052984D02*
X233564985Y-227052984D01*
X122731998Y-226990988D02*
X122232698Y-226990988D01*
X199848989Y-105332495D02*
X199848989Y-104838796D01*
X221101995Y-190638983D02*
X221101995Y-190139990D01*
X192039991Y-121273695D02*
X192039991Y-121771490D01*
X317331998Y-69621499D02*
X317331998Y-70121399D01*
X317331998Y-138097296D02*
X317331998Y-138597090D01*
X192039991Y-155134992D02*
X192039991Y-155631994D01*
X95810000Y-108531797D02*
X95810000Y-108032594D01*
X192039991Y-126255293D02*
X192039991Y-126753095D01*
X221718992Y-54698000D02*
X222101995Y-54621900D01*
X221101995Y-168076994D02*
X221101995Y-167579992D01*
X201849988Y-74616998D02*
X202348989Y-74616998D01*
X317331998Y-80621698D02*
X317331998Y-81122099D01*
X210899991Y-159649992D02*
X211398992Y-159649992D01*
X192039991Y-60515469D02*
X192039991Y-61011520D01*
X221101995Y-218070989D02*
X221101995Y-217570989D01*
X114759998Y-54560000D02*
X115257997Y-54560000D01*
X192039991Y-78860498D02*
X192039991Y-79356598D01*
X199898992Y-202757986D02*
X199898992Y-202270986D01*
X95810000Y-167006994D02*
X95810000Y-166506994D01*
X252017988Y-54621900D02*
X252516996Y-54621900D01*
X210398992Y-159649992D02*
X210899991Y-159649992D01*
X221101995Y-73938398D02*
X221101995Y-73442999D01*
X249022992Y-227052984D02*
X248522992Y-227052984D01*
X221101995Y-138697790D02*
X221101995Y-138200590D01*
X221101995Y-210090978D02*
X221101995Y-209590978D01*
X192039991Y-213540991D02*
X192039991Y-214039984D01*
X221101995Y-76910599D02*
X221101995Y-76415298D01*
X192039991Y-88779398D02*
X192039991Y-89275095D01*
X221101995Y-72948799D02*
X221101995Y-72454698D01*
X192039991Y-174544996D02*
X192039991Y-175043989D01*
X317331998Y-134098791D02*
X317331998Y-134598593D01*
X95810000Y-107032697D02*
X95810000Y-106532297D01*
X221101995Y-204604986D02*
X221101995Y-204105978D01*
X142176694Y-226990988D02*
X141678594Y-226990988D01*
X166116094Y-54560000D02*
X166614095Y-54560000D01*
X290901990Y-227052984D02*
X290403989Y-227052984D01*
X221101995Y-192633978D02*
X221101995Y-192133978D01*
X199848989Y-93241796D02*
X199848989Y-92752096D01*
X229579999Y-227052984D02*
X229081998Y-227052984D01*
X134698594Y-226990988D02*
X134200097Y-226990988D01*
X317331998Y-165084989D02*
X317331998Y-165584989D01*
X221101995Y-77899297D02*
X221101995Y-77404798D01*
X199898992Y-170090994D02*
X199898992Y-169594991D01*
X95810000Y-196992986D02*
X95810000Y-196492986D01*
X95810000Y-174004995D02*
X95810000Y-173504995D01*
X213348989Y-104836397D02*
X213348989Y-105329397D01*
X193513593Y-102856996D02*
X193027295Y-102856996D01*
X192039991Y-179027990D02*
X192186391Y-179380995D01*
X95810000Y-57559060D02*
X95810000Y-57058870D01*
X221101995Y-224556982D02*
X221101995Y-224058981D01*
X305861997Y-227052984D02*
X305362989Y-227052984D01*
X123237398Y-54560000D02*
X123736297Y-54560000D01*
X221101995Y-82352697D02*
X221101995Y-81857498D01*
X317331998Y-160087995D02*
X317331998Y-160586996D01*
X130215295Y-54560000D02*
X130714696Y-54560000D01*
X243043989Y-54621900D02*
X243542997Y-54621900D01*
X213398992Y-203733984D02*
X213398992Y-204219991D01*
X293900998Y-54621900D02*
X294399000Y-54621900D01*
X300376996Y-227052984D02*
X299877988Y-227052984D01*
X95810000Y-88542795D02*
X95810000Y-88042097D01*
X95810000Y-158008993D02*
X95810000Y-157508993D01*
X192039991Y-126753095D02*
X192039991Y-127250891D01*
X317331998Y-177577993D02*
X317331998Y-178077993D01*
X213348989Y-117173597D02*
X213348989Y-117666895D01*
X128221597Y-54560000D02*
X128719297Y-54560000D01*
X175088994Y-54560000D02*
X175587690Y-54560000D01*
X95810000Y-225990988D02*
X95810000Y-225490988D01*
X199848989Y-115696195D02*
X199848989Y-115203596D01*
X220954992Y-103003496D02*
X220601995Y-102856996D01*
X172092389Y-226990988D02*
X171593992Y-226990988D01*
X317331998Y-211063986D02*
X317331998Y-211563986D01*
X221101995Y-201113989D02*
X221101995Y-200613989D01*
X173593389Y-54560000D02*
X174091894Y-54560000D01*
X199898992Y-166612989D02*
X199898992Y-166115995D01*
X199898992Y-197408987D02*
X199898992Y-196922979D01*
X140681497Y-226990988D02*
X140182695Y-226990988D01*
X288911985Y-54621900D02*
X289410993Y-54621900D01*
X199848989Y-109775594D02*
X199848989Y-109282198D01*
X192039991Y-163594991D02*
X192039991Y-164092993D01*
X317331998Y-147595991D02*
X317331998Y-148095091D01*
X213398992Y-177039991D02*
X213398992Y-177535993D01*
X95810000Y-138514494D02*
X95810000Y-138014593D01*
X256000989Y-227052984D02*
X255501996Y-227052984D01*
X192039991Y-109332495D02*
X192039991Y-109830198D01*
X95810000Y-218490988D02*
X95810000Y-217990988D01*
X198374990Y-93741796D02*
X198861989Y-93741796D01*
X108770898Y-226990988D02*
X108272599Y-226990988D01*
X95810000Y-81046499D02*
X95810000Y-80546999D01*
X213348989Y-110263395D02*
X213348989Y-110756597D01*
X317331998Y-177077993D02*
X317331998Y-177577993D01*
X314336988Y-54621900D02*
X314835996Y-54621900D01*
X183560193Y-226990988D02*
X183061490Y-226990988D01*
X317331998Y-84619499D02*
X317331998Y-85119798D01*
X267965986Y-227052984D02*
X267468992Y-227052984D01*
X213348989Y-107304098D02*
X213348989Y-107797098D01*
X317331998Y-154589994D02*
X317331998Y-155089994D01*
X137199296Y-54560000D02*
X137698297Y-54560000D01*
X317331998Y-114106294D02*
X317331998Y-114605795D01*
X158133195Y-226990988D02*
X157634694Y-226990988D01*
X145673295Y-54560000D02*
X146171396Y-54560000D01*
X192039991Y-176538992D02*
X192039991Y-177036993D01*
X110766299Y-226990988D02*
X110267899Y-226990988D01*
X199848989Y-111256696D02*
X199848989Y-110763696D01*
X229082990Y-54621900D02*
X229581998Y-54621900D01*
X95810000Y-122525190D02*
X95810000Y-122025091D01*
X208848989Y-122616995D02*
X208348989Y-122616995D01*
X213398992Y-204219991D02*
X213398992Y-204704992D01*
X213398992Y-174555990D02*
X213398992Y-175051992D01*
X221101995Y-87304495D02*
X221101995Y-86810095D01*
X95810000Y-189495977D02*
X95810000Y-188995977D01*
X163122594Y-54560000D02*
X163620489Y-54560000D01*
X221101995Y-195625982D02*
X221101995Y-195127981D01*
X183063894Y-54560000D02*
X183561895Y-54560000D01*
X192039991Y-129741392D02*
X192039991Y-130240095D01*
X221101995Y-207596990D02*
X221101995Y-207097982D01*
X95810000Y-149512792D02*
X95810000Y-149012792D01*
X314835996Y-54621900D02*
X315334989Y-54621900D01*
X234560987Y-227052984D02*
X234062986Y-227052984D01*
X199898992Y-206162985D02*
X199898992Y-205676992D01*
X192039991Y-79356598D02*
X192039991Y-79852499D01*
X221101995Y-139693594D02*
X221101995Y-139194891D01*
X95810000Y-124523390D02*
X95810000Y-124023290D01*
X212398992Y-207649984D02*
X211898992Y-207649984D01*
X309350995Y-227052984D02*
X308851987Y-227052984D01*
X317331998Y-56122210D02*
X317331998Y-56622470D01*
X192039991Y-69440899D02*
X192039991Y-69936199D01*
X192039991Y-150157789D02*
X192039991Y-150655195D01*
X221101995Y-196622991D02*
X221101995Y-196123983D01*
X317331998Y-95116495D02*
X317331998Y-95615198D01*
X192039991Y-151152593D02*
X192039991Y-151651289D01*
X95810000Y-144015295D02*
X95810000Y-143515592D01*
X221101995Y-131232092D02*
X221101995Y-130733389D01*
X299881986Y-54621900D02*
X300380994Y-54621900D01*
X317331998Y-156589994D02*
X317331998Y-157089994D01*
X311345991Y-54621900D02*
X311844999Y-54621900D01*
X192039991Y-62002370D02*
X192039991Y-62497750D01*
X192039991Y-81836199D02*
X192039991Y-82332298D01*
X317331998Y-173080992D02*
X317331998Y-173579992D01*
X192039991Y-201093984D02*
X192039991Y-201592977D01*
X221101995Y-148657095D02*
X221101995Y-148159391D01*
X317331998Y-187569982D02*
X317331998Y-188070989D01*
X192039991Y-115302995D02*
X192039991Y-115800695D01*
X95810000Y-67053299D02*
X95810000Y-66553799D01*
X213348989Y-118160497D02*
X213348989Y-118654089D01*
X109768599Y-226990988D02*
X109269598Y-226990988D01*
X221101995Y-128743192D02*
X221101995Y-128245596D01*
X192039991Y-177534994D02*
X192039991Y-178032995D01*
X221101995Y-201612982D02*
X221101995Y-201113989D01*
X310348997Y-54621900D02*
X310847989Y-54621900D01*
X122738098Y-54560000D02*
X123237398Y-54560000D01*
X95810000Y-186495977D02*
X95810000Y-185997991D01*
X95810000Y-89543195D02*
X95810000Y-89043195D01*
X297383985Y-227052984D02*
X296885999Y-227052984D01*
X95810000Y-197491979D02*
X95810000Y-196992986D01*
X270964994Y-54621900D02*
X271462995Y-54621900D01*
X287411985Y-227052984D02*
X286913999Y-227052984D01*
X292902997Y-54621900D02*
X293401990Y-54621900D01*
X317331998Y-171580992D02*
X317331998Y-172081991D01*
X127225097Y-54560000D02*
X127722598Y-54560000D01*
X213398992Y-168593992D02*
X213398992Y-169089994D01*
X170601789Y-54560000D02*
X171099492Y-54560000D01*
X241542997Y-227052984D02*
X241043989Y-227052984D01*
X192039991Y-108336797D02*
X192039991Y-108834497D01*
X221101995Y-200613989D02*
X221101995Y-200115988D01*
X230577985Y-54621900D02*
X231075986Y-54621900D01*
X250522992Y-54621900D02*
X251021985Y-54621900D01*
X199848989Y-107800398D02*
X199848989Y-107307195D01*
X139683896Y-226990988D02*
X139185197Y-226990988D01*
X192039991Y-197110983D02*
X192039991Y-197609991D01*
X221101995Y-153141889D02*
X221101995Y-152643392D01*
X192039991Y-75886497D02*
X192039991Y-76381399D01*
X118250799Y-54560000D02*
X118748998Y-54560000D01*
X221101995Y-125258795D02*
X221101995Y-124761289D01*
X241547986Y-54621900D02*
X242045987Y-54621900D01*
X317331998Y-91117395D02*
X317331998Y-91616995D01*
X192039991Y-216032980D02*
X192039991Y-216530981D01*
X209348989Y-122616995D02*
X208848989Y-122616995D01*
X220601995Y-188642980D02*
X220122991Y-188642980D01*
X221101995Y-81362198D02*
X221101995Y-80867298D01*
X221101995Y-212584982D02*
X221101995Y-212086981D01*
X239552991Y-54621900D02*
X240051999Y-54621900D01*
X317331998Y-212062979D02*
X317331998Y-212562979D01*
X221101995Y-189142980D02*
X220954992Y-188788992D01*
X207899991Y-207649984D02*
X207399991Y-207649984D01*
X199848989Y-86385698D02*
X199848989Y-85895399D01*
X311344999Y-227052984D02*
X310845991Y-227052984D01*
X249027997Y-54621900D02*
X249526990Y-54621900D01*
X242539991Y-227052984D02*
X242041990Y-227052984D01*
X95810000Y-172504995D02*
X95810000Y-172004995D01*
X95810000Y-207489980D02*
X95810000Y-206990988D01*
X201848989Y-122616995D02*
X201348989Y-122616995D01*
X213398992Y-198869985D02*
X213398992Y-199354986D01*
X308851987Y-227052984D02*
X308352994Y-227052984D01*
X275450986Y-54621900D02*
X275949994Y-54621900D01*
X213348989Y-120135191D02*
X213348989Y-120628195D01*
X153646097Y-226990988D02*
X153147096Y-226990988D01*
X317331998Y-226052984D02*
X317255994Y-226435980D01*
X196430990Y-102856996D02*
X195944990Y-102856996D01*
X221101995Y-202111990D02*
X221101995Y-201612982D01*
X185056493Y-226990988D02*
X184558095Y-226990988D01*
X241043989Y-227052984D02*
X240544996Y-227052984D01*
X112764997Y-54560000D02*
X113263597Y-54560000D01*
X199848989Y-116190496D02*
X199848989Y-115696195D01*
X203348989Y-122616995D02*
X202848989Y-122616995D01*
X221101995Y-209092977D02*
X221101995Y-208593984D01*
X199898992Y-194977987D02*
X199898992Y-194490988D01*
X221101995Y-150150594D02*
X221101995Y-149652792D01*
X301376996Y-54621900D02*
X301875989Y-54621900D01*
X277944990Y-54621900D02*
X278442991Y-54621900D01*
X160631391Y-54560000D02*
X161129896Y-54560000D01*
X213398992Y-201301992D02*
X213398992Y-201787985D01*
X264975995Y-227052984D02*
X264476987Y-227052984D01*
X95810000Y-103035394D02*
X95810000Y-102536596D01*
X213348989Y-118654089D02*
X213348989Y-119147794D01*
X95810000Y-169005995D02*
X95810000Y-168506994D01*
X95810000Y-72548399D02*
X95810000Y-72048797D01*
X317331998Y-91616995D02*
X317331998Y-92117197D01*
X317331998Y-84120498D02*
X317331998Y-84619499D01*
X95810000Y-223989980D02*
X95810000Y-223488989D01*
X317331998Y-205565984D02*
X317331998Y-206064977D01*
X317331998Y-122603689D02*
X317331998Y-123104292D01*
X218671995Y-93741796D02*
X219153989Y-93741796D01*
X221101995Y-106842695D02*
X221101995Y-106344297D01*
X243542997Y-54621900D02*
X244040998Y-54621900D01*
X189045591Y-54560000D02*
X189544492Y-54560000D01*
X317331998Y-81622299D02*
X317331998Y-82122099D01*
X192039991Y-119281889D02*
X192039991Y-119780294D01*
X95810000Y-125523390D02*
X95810000Y-125022794D01*
X213348989Y-90795995D02*
X213348989Y-91284395D01*
X221101995Y-73442999D02*
X221101995Y-72948799D01*
X304370984Y-54621900D02*
X304868986Y-54621900D01*
X206847989Y-74616998D02*
X207346990Y-74616998D01*
X317331998Y-169581991D02*
X317331998Y-170081991D01*
X154643197Y-226990988D02*
X154144895Y-226990988D01*
X110267899Y-226990988D02*
X109768599Y-226990988D01*
X163615293Y-226990988D02*
X163117490Y-226990988D01*
X308352994Y-227052984D02*
X307855985Y-227052984D01*
X317331998Y-215558981D02*
X317331998Y-216058981D01*
X196459989Y-188642980D02*
X195969991Y-188642980D01*
X192039991Y-125757391D02*
X192039991Y-126255293D01*
X109274498Y-54560000D02*
X109772998Y-54560000D01*
X192039991Y-110327596D02*
X192039991Y-110824896D01*
X102792889Y-226990988D02*
X102294070Y-226990988D01*
X113758098Y-226990988D02*
X113259899Y-226990988D01*
X192039991Y-161604994D02*
X192039991Y-162101995D01*
X199848989Y-88344297D02*
X199848989Y-87854795D01*
X317331998Y-176578993D02*
X317331998Y-177077993D01*
X95810000Y-166506994D02*
X95810000Y-166006994D01*
X268963987Y-227052984D02*
X268464994Y-227052984D01*
X240544996Y-227052984D02*
X240046995Y-227052984D01*
X95810000Y-173504995D02*
X95810000Y-173004995D01*
X166614095Y-54560000D02*
X167113492Y-54560000D01*
X208897992Y-159649992D02*
X209397992Y-159649992D01*
X151655797Y-54560000D02*
X152154195Y-54560000D01*
X317331998Y-107608297D02*
X317331998Y-108107996D01*
X222599988Y-54621900D02*
X223097989Y-54621900D01*
X95810000Y-75048298D02*
X95810000Y-74548399D01*
X281928998Y-227052984D02*
X281430997Y-227052984D01*
X292404996Y-54621900D02*
X292902997Y-54621900D01*
X317331998Y-109607496D02*
X317331998Y-110107397D01*
X95810000Y-116528295D02*
X95810000Y-116027796D01*
X197929990Y-188642980D02*
X197439992Y-188642980D01*
X119747098Y-54560000D02*
X120245397Y-54560000D01*
X221101995Y-67008799D02*
X221101995Y-66513599D01*
X274944990Y-227052984D02*
X274446988Y-227052984D01*
X213348989Y-109770395D02*
X213348989Y-110263395D01*
X95810000Y-165507993D02*
X95810000Y-165006994D01*
X199898992Y-164128996D02*
X199898992Y-163631994D01*
X95810000Y-171504995D02*
X95810000Y-171004995D01*
X192039991Y-108834497D02*
X192039991Y-109332495D01*
X156144197Y-54560000D02*
X156642194Y-54560000D01*
X213398992Y-175548994D02*
X213398992Y-176045995D01*
X219153989Y-93741796D02*
X219635991Y-93741796D01*
X261485990Y-227052984D02*
X260987989Y-227052984D01*
X95810000Y-68051099D02*
X95810000Y-67551999D01*
X194972295Y-102856996D02*
X194486089Y-102856996D01*
X199848989Y-106319895D02*
X199848989Y-105826296D01*
X273948987Y-227052984D02*
X273449994Y-227052984D01*
X317331998Y-201565984D02*
X317331998Y-202065984D01*
X192039991Y-136715093D02*
X192039991Y-137213094D01*
X219635991Y-93741796D02*
X220118993Y-93741796D01*
X317331998Y-66122299D02*
X317331998Y-66621799D01*
X192039991Y-76876999D02*
X192039991Y-77372698D01*
X221718992Y-226976980D02*
X221394994Y-226759985D01*
X271462995Y-54621900D02*
X271961988Y-54621900D01*
X317331998Y-182571981D02*
X317331998Y-183071981D01*
X221101995Y-198618978D02*
X221101995Y-198119985D01*
X200141996Y-74909899D02*
X200465993Y-74693098D01*
X95810000Y-208490988D02*
X95810000Y-207990988D01*
X192039991Y-115800695D02*
X192039991Y-116297796D01*
X203398992Y-207649984D02*
X202898992Y-207649984D01*
X192039991Y-130738889D02*
X192039991Y-131237592D01*
X95810000Y-100539396D02*
X95810000Y-100040197D01*
X228084989Y-54621900D02*
X228583997Y-54621900D01*
X192039991Y-68945299D02*
X192039991Y-69440899D01*
X221101995Y-173549993D02*
X221101995Y-173051992D01*
X192039991Y-178032995D02*
X192039991Y-178529989D01*
X95810000Y-188496984D02*
X95810000Y-187997991D01*
X221101995Y-84333097D02*
X221101995Y-83837997D01*
X192039991Y-167576994D02*
X192039991Y-168074995D01*
X317331998Y-94615698D02*
X317331998Y-95116495D01*
X95810000Y-186996984D02*
X95810000Y-186495977D01*
X144668897Y-226990988D02*
X144169896Y-226990988D01*
X95810000Y-64555299D02*
X95810000Y-64055269D01*
X217224988Y-93741796D02*
X217707990Y-93741796D01*
X129716794Y-54560000D02*
X130215295Y-54560000D01*
X235562986Y-54621900D02*
X236061994Y-54621900D01*
X125225797Y-226990988D02*
X124727397Y-226990988D01*
X221101995Y-134716093D02*
X221101995Y-134218694D01*
X317331998Y-220556982D02*
X317331998Y-221056982D01*
X317331998Y-122104193D02*
X317331998Y-122603689D01*
X220121992Y-179527990D02*
X220601995Y-179527990D01*
X177579091Y-226990988D02*
X177079793Y-226990988D01*
X305366987Y-54621900D02*
X305865995Y-54621900D01*
X199848989Y-119644590D02*
X199848989Y-119150396D01*
X221101995Y-153640196D02*
X221101995Y-153141889D01*
X317331998Y-155589994D02*
X317331998Y-156088995D01*
X317331998Y-219556982D02*
X317331998Y-220056982D01*
X192039991Y-148165991D02*
X192039991Y-148664793D01*
X180569791Y-226990988D02*
X180070691Y-226990988D01*
X213398992Y-204704992D02*
X213398992Y-205190984D01*
X317331998Y-141598089D02*
X317331998Y-142098295D01*
X279934995Y-227052984D02*
X279436994Y-227052984D01*
X221101995Y-114807695D02*
X221101995Y-114309995D01*
X317331998Y-163084989D02*
X317331998Y-163584989D01*
X221101995Y-208094991D02*
X221101995Y-207596990D01*
X116251098Y-226990988D02*
X115752597Y-226990988D01*
X192039991Y-78365299D02*
X192039991Y-78860498D01*
X192039991Y-106344496D02*
X192039991Y-106842195D01*
X203348989Y-74616998D02*
X203848989Y-74616998D01*
X221101995Y-78889297D02*
X221101995Y-78393698D01*
X317331998Y-148595594D02*
X317331998Y-149095594D01*
X240051999Y-54621900D02*
X240549985Y-54621900D01*
X192039991Y-112317396D02*
X192039991Y-112814195D01*
X221101995Y-145171591D02*
X221101995Y-144673292D01*
X317331998Y-104609697D02*
X317331998Y-105109396D01*
X192039991Y-203582983D02*
X192039991Y-204081991D01*
X317331998Y-88619097D02*
X317331998Y-89119398D01*
X135701394Y-54560000D02*
X136200796Y-54560000D01*
X213348989Y-82963398D02*
X213348989Y-83452299D01*
X221101995Y-120779890D02*
X221101995Y-120283094D01*
X278442991Y-54621900D02*
X278941999Y-54621900D01*
X232571988Y-54621900D02*
X233070997Y-54621900D01*
X221101995Y-58097500D02*
X221101995Y-57602320D01*
X129211896Y-226990988D02*
X128713895Y-226990988D01*
X205397992Y-159649992D02*
X205897992Y-159649992D01*
X237553998Y-227052984D02*
X237055997Y-227052984D01*
X192039991Y-63986749D02*
X192039991Y-64483449D01*
X317331998Y-114605795D02*
X317331998Y-115105596D01*
X202848989Y-74616998D02*
X203348989Y-74616998D01*
X317331998Y-218557989D02*
X317331998Y-219057989D01*
X221101995Y-108834398D02*
X221101995Y-108336298D01*
X238551999Y-227052984D02*
X238052991Y-227052984D01*
X317331998Y-203065984D02*
X317331998Y-203566992D01*
X95810000Y-225490988D02*
X95810000Y-224989980D01*
X192039991Y-147668691D02*
X192039991Y-148165991D01*
X199898992Y-190114980D02*
X199898992Y-189627981D01*
X317331998Y-88119795D02*
X317331998Y-88619097D01*
X221101995Y-215577978D02*
X221101995Y-215078985D01*
X221101995Y-58592369D02*
X221101995Y-58097500D01*
X199848989Y-86875196D02*
X199848989Y-86385698D01*
X199848989Y-79041797D02*
X199848989Y-78552297D01*
X199898992Y-168600996D02*
X199898992Y-168103994D01*
X192039991Y-219518987D02*
X192039991Y-220015981D01*
X97308500Y-54560000D02*
X97806210Y-54560000D01*
X221101995Y-57107120D02*
X221101995Y-56611380D01*
X199848989Y-85406599D02*
X199848989Y-84917698D01*
X95810000Y-115027998D02*
X95810000Y-114528696D01*
X317331998Y-108608396D02*
X317331998Y-109108198D01*
X142674295Y-226990988D02*
X142176694Y-226990988D01*
X103791199Y-54560000D02*
X104289809Y-54560000D01*
X95810000Y-217490988D02*
X95810000Y-216990988D01*
X237055997Y-227052984D02*
X236556989Y-227052984D01*
X167604589Y-226990988D02*
X167106092Y-226990988D01*
X135695794Y-226990988D02*
X135196596Y-226990988D01*
X139691697Y-54560000D02*
X140190797Y-54560000D01*
X95810000Y-60556179D02*
X95810000Y-60055979D01*
X259989988Y-227052984D02*
X259491987Y-227052984D01*
X199848989Y-114217397D02*
X199848989Y-113724096D01*
X188547094Y-226990988D02*
X188048093Y-226990988D01*
X170597295Y-226990988D02*
X170097989Y-226990988D01*
X142183797Y-54560000D02*
X142682996Y-54560000D01*
X218189992Y-93741796D02*
X218671995Y-93741796D01*
X317331998Y-197067983D02*
X317331998Y-197567983D01*
X213398992Y-205190984D02*
X213398992Y-205677984D01*
X95810000Y-55560000D02*
X95886100Y-55177300D01*
X192039991Y-167079992D02*
X192039991Y-167576994D01*
X192039991Y-118784994D02*
X192039991Y-119281889D01*
X192039991Y-219021978D02*
X192039991Y-219518987D01*
X317331998Y-199068990D02*
X317331998Y-199566992D01*
X192039991Y-199599981D02*
X192039991Y-200097982D01*
X192039991Y-80348497D02*
X192039991Y-80843498D01*
X95810000Y-129520796D02*
X95810000Y-129021696D01*
X317331998Y-103611696D02*
X317331998Y-104110796D01*
X226090986Y-227052984D02*
X225591993Y-227052984D01*
X95810000Y-65054299D02*
X95810000Y-64555299D01*
X95810000Y-146013792D02*
X95810000Y-145513090D01*
X221101995Y-126255094D02*
X221101995Y-125756895D01*
X317331998Y-195569982D02*
X317331998Y-196068990D01*
X234067991Y-54621900D02*
X234565992Y-54621900D01*
X317331998Y-90618498D02*
X317331998Y-91117395D01*
X284422986Y-227052984D02*
X283923993Y-227052984D01*
X213398992Y-194979986D02*
X213398992Y-195464987D01*
X95810000Y-88042097D02*
X95810000Y-87543096D01*
X95810000Y-183999990D02*
X95810000Y-183499990D01*
X317331998Y-105609895D02*
X317331998Y-106110098D01*
X317331998Y-204565984D02*
X317331998Y-205066992D01*
X317331998Y-193069982D02*
X317331998Y-193570989D01*
X192039991Y-169070989D02*
X192039991Y-169567991D01*
X176082891Y-226990988D02*
X175583494Y-226990988D01*
X209398992Y-207649984D02*
X208898992Y-207649984D01*
X199898992Y-193517980D02*
X199898992Y-193031988D01*
X95810000Y-145014089D02*
X95810000Y-144514791D01*
X199898992Y-165618994D02*
X199898992Y-165121992D01*
X122239698Y-54560000D02*
X122738098Y-54560000D01*
X221101995Y-56611380D02*
X221101995Y-56115700D01*
X221101995Y-81857498D02*
X221101995Y-81362198D01*
X221101995Y-118292196D02*
X221101995Y-117794595D01*
X284925992Y-54621900D02*
X285423993Y-54621900D01*
X317331998Y-67122000D02*
X317331998Y-67622399D01*
X182066190Y-226990988D02*
X181567090Y-226990988D01*
X95810000Y-67551999D02*
X95810000Y-67053299D01*
X153649896Y-54560000D02*
X154148797Y-54560000D01*
X221101995Y-154634992D02*
X221101995Y-154137991D01*
X143680097Y-54560000D02*
X144177896Y-54560000D01*
X221101995Y-200115988D02*
X221101995Y-199616979D01*
X262982999Y-227052984D02*
X262483991Y-227052984D01*
X221101995Y-106344297D02*
X221101995Y-105845697D01*
X221101995Y-213083990D02*
X221101995Y-212584982D01*
X95810000Y-167506994D02*
X95810000Y-167006994D01*
X317331998Y-180573995D02*
X317331998Y-181072996D01*
X272459989Y-54621900D02*
X272958997Y-54621900D01*
X317331998Y-107109297D02*
X317331998Y-107608297D01*
X192039991Y-212546987D02*
X192039991Y-213043981D01*
X199848989Y-119150396D02*
X199848989Y-118656591D01*
X95810000Y-224989980D02*
X95810000Y-224489980D01*
X95810000Y-217990988D02*
X95810000Y-217490988D01*
X118748998Y-54560000D02*
X119247798Y-54560000D01*
X317331998Y-181072996D02*
X317331998Y-181572996D01*
X141186796Y-54560000D02*
X141685697Y-54560000D01*
X218685995Y-179527990D02*
X219164991Y-179527990D01*
X192039991Y-163096990D02*
X192039991Y-163594991D01*
X203898992Y-159649992D02*
X204398992Y-159649992D01*
X221101995Y-150648695D02*
X221101995Y-150150594D01*
X95810000Y-84544399D02*
X95810000Y-84044597D01*
X95810000Y-78046299D02*
X95810000Y-77546098D01*
X213272992Y-121999693D02*
X213055990Y-122324095D01*
X317331998Y-109108198D02*
X317331998Y-109607496D01*
X221101995Y-205103979D02*
X221101995Y-204604986D01*
X317331998Y-89119398D02*
X317331998Y-89618295D01*
X192039991Y-157125990D02*
X192039991Y-157622991D01*
X192039991Y-104352796D02*
X192039991Y-104851095D01*
X224594999Y-227052984D02*
X224095991Y-227052984D01*
X224095991Y-227052984D02*
X223596990Y-227052984D01*
X317331998Y-209064977D02*
X317331998Y-209563986D01*
X213398992Y-171076994D02*
X213398992Y-171572996D01*
X213348989Y-105329397D02*
X213348989Y-105823595D01*
X317331998Y-169082990D02*
X317331998Y-169581991D01*
X95810000Y-187997991D02*
X95810000Y-187497991D01*
X213398992Y-193521978D02*
X213398992Y-194007986D01*
X317331998Y-80121097D02*
X317331998Y-80621698D01*
X221101995Y-159117994D02*
X221101995Y-158618994D01*
X209848989Y-122616995D02*
X209348989Y-122616995D01*
X199898992Y-162140989D02*
X199898992Y-161644995D01*
X317331998Y-149594991D02*
X317331998Y-150093893D01*
X198375989Y-102856996D02*
X197890989Y-102856996D01*
X317331998Y-187070989D02*
X317331998Y-187569982D01*
X95810000Y-111030596D02*
X95810000Y-110531297D01*
X217707990Y-93741796D02*
X218189992Y-93741796D01*
X282426999Y-227052984D02*
X281928998Y-227052984D01*
X213398992Y-161642996D02*
X213398992Y-162138990D01*
X317331998Y-79620498D02*
X317331998Y-80121097D01*
X221101995Y-142183096D02*
X221101995Y-141686193D01*
X290908994Y-54621900D02*
X291407987Y-54621900D01*
X192039991Y-106842195D02*
X192039991Y-107339998D01*
X317331998Y-157589994D02*
X317331998Y-158087995D01*
X199898992Y-163134992D02*
X199898992Y-162637991D01*
X317331998Y-129101293D02*
X317331998Y-129602094D01*
X95810000Y-62554930D02*
X95810000Y-62055670D01*
X317331998Y-147096494D02*
X317331998Y-147595991D01*
X221101995Y-208593984D02*
X221101995Y-208094991D01*
X317331998Y-132100096D02*
X317331998Y-132600096D01*
X199898992Y-196922979D02*
X199898992Y-196437979D01*
X282926999Y-227052984D02*
X282426999Y-227052984D01*
X186551793Y-226990988D02*
X186052892Y-226990988D01*
X213348989Y-119147794D02*
X213348989Y-119641493D01*
X96102900Y-226697988D02*
X95886100Y-226373983D01*
X115757598Y-54560000D02*
X116255998Y-54560000D01*
X199848989Y-83937399D02*
X199848989Y-83448099D01*
X178575490Y-226990988D02*
X178076993Y-226990988D01*
X193999494Y-102856996D02*
X193513593Y-102856996D01*
X192039991Y-119780294D02*
X192039991Y-120277891D01*
X298386991Y-54621900D02*
X298884992Y-54621900D01*
X199898992Y-172572996D02*
X199898992Y-172076994D01*
X143173498Y-226990988D02*
X142674295Y-226990988D01*
X213398992Y-163132993D02*
X213398992Y-163628996D01*
X315832990Y-54621900D02*
X316331998Y-54621900D01*
X221101995Y-131729589D02*
X221101995Y-131232092D01*
X275949994Y-54621900D02*
X276447996Y-54621900D01*
X221101995Y-135213293D02*
X221101995Y-134716093D01*
X220954992Y-179380995D02*
X221101995Y-179027990D01*
X213348989Y-111249895D02*
X213348989Y-111743196D01*
X192039991Y-114307794D02*
X192039991Y-114805296D01*
X317331998Y-202565984D02*
X317331998Y-203065984D01*
X192039991Y-124761495D02*
X192039991Y-125258795D01*
X317331998Y-160586996D02*
X317331998Y-161086996D01*
X174087995Y-226990988D02*
X173588689Y-226990988D01*
X213348989Y-81983598D02*
X213348989Y-82473099D01*
X221101995Y-158120992D02*
X221101995Y-157622991D01*
X145175695Y-54560000D02*
X145673295Y-54560000D01*
X95810000Y-148013395D02*
X95810000Y-147514089D01*
X317331998Y-202065984D02*
X317331998Y-202565984D01*
X221101995Y-121774992D02*
X221101995Y-121278089D01*
X221101995Y-130236494D02*
X221101995Y-129738989D01*
X317331998Y-220056982D02*
X317331998Y-220556982D01*
X255501996Y-227052984D02*
X255002988Y-227052984D01*
X208847989Y-74616998D02*
X209347989Y-74616998D01*
X95810000Y-144514791D02*
X95810000Y-144015295D01*
X192039991Y-57541480D02*
X192039991Y-58037990D01*
X172097394Y-54560000D02*
X172596395Y-54560000D01*
X95810000Y-176503996D02*
X95810000Y-176002989D01*
X199898992Y-192545980D02*
X199898992Y-192058981D01*
X307359998Y-54621900D02*
X307857999Y-54621900D01*
X221101995Y-89284597D02*
X221101995Y-88789896D01*
X317331998Y-128601293D02*
X317331998Y-129101293D01*
X213348989Y-116186098D02*
X213348989Y-116679598D01*
X221101995Y-120283094D02*
X221101995Y-119784689D01*
X145166997Y-226990988D02*
X144668897Y-226990988D01*
X95810000Y-87543096D02*
X95810000Y-87042497D01*
X192039991Y-151651289D02*
X192039991Y-152148191D01*
X221101995Y-141686193D02*
X221101995Y-141188291D01*
X317331998Y-157089994D02*
X317331998Y-157589994D01*
X197439992Y-188642980D02*
X196948995Y-188642980D01*
X317331998Y-221556982D02*
X317331998Y-222055990D01*
X149661397Y-54560000D02*
X150158994Y-54560000D01*
X221394994Y-226759985D02*
X221177991Y-226435980D01*
X160127393Y-226990988D02*
X159628396Y-226990988D01*
X113259899Y-226990988D02*
X112760997Y-226990988D01*
X98304610Y-54560000D02*
X98803560Y-54560000D01*
X199898992Y-172076994D02*
X199898992Y-171579992D01*
X175587690Y-54560000D02*
X176085393Y-54560000D01*
X98804450Y-226990988D02*
X98305510Y-226990988D01*
X221101995Y-206598989D02*
X221101995Y-206099981D01*
X95810000Y-58557949D02*
X95810000Y-58058420D01*
X101797059Y-54560000D02*
X102295780Y-54560000D01*
X242045987Y-54621900D02*
X242544996Y-54621900D01*
X203398992Y-159649992D02*
X203898992Y-159649992D01*
X95810000Y-157508993D02*
X95810000Y-157009992D01*
X95810000Y-221488989D02*
X95810000Y-220988989D01*
X95810000Y-143015791D02*
X95810000Y-142515791D01*
X213348989Y-120628195D02*
X213348989Y-121122495D01*
X221101995Y-177533994D02*
X221101995Y-177035993D01*
X102294070Y-226990988D02*
X101795410Y-226990988D01*
X213348989Y-85899297D02*
X213348989Y-86389599D01*
X192039991Y-89275095D02*
X192039991Y-89770796D01*
X95810000Y-113530195D02*
X95810000Y-113029695D01*
X192039991Y-213043981D02*
X192039991Y-213540991D01*
X231571988Y-227052984D02*
X231072996Y-227052984D01*
X192039991Y-133727590D02*
X192039991Y-134225294D01*
X95810000Y-73048298D02*
X95810000Y-72548399D01*
X192039991Y-223502981D02*
X192039991Y-223999990D01*
X95810000Y-152511595D02*
X95810000Y-152010793D01*
X95810000Y-192993978D02*
X95810000Y-192492986D01*
X95886100Y-226373983D02*
X95810000Y-225990988D01*
X213398992Y-173063993D02*
X213398992Y-173561994D01*
X247025998Y-227052984D02*
X246527997Y-227052984D01*
X307855985Y-227052984D02*
X307357999Y-227052984D01*
X255506986Y-54621900D02*
X256006986Y-54621900D01*
X317331998Y-204066992D02*
X317331998Y-204565984D01*
X317331998Y-217057989D02*
X317331998Y-217557989D01*
X95810000Y-209991979D02*
X95810000Y-209491979D01*
X317331998Y-125601995D02*
X317331998Y-126101591D01*
X221101995Y-202608984D02*
X221101995Y-202111990D01*
X221101995Y-223061987D02*
X221101995Y-222562979D01*
X317331998Y-128101995D02*
X317331998Y-128601293D01*
X317331998Y-159587995D02*
X317331998Y-160087995D01*
X95810000Y-169505995D02*
X95810000Y-169005995D01*
X192039991Y-71918098D02*
X192039991Y-72414198D01*
X317331998Y-123104292D02*
X317331998Y-123603590D01*
X211397992Y-207649984D02*
X210898992Y-207649984D01*
X95810000Y-184499990D02*
X95810000Y-183999990D01*
X95810000Y-66054199D02*
X95810000Y-65553999D01*
X221101995Y-171061994D02*
X221101995Y-170564993D01*
X221101995Y-147162992D02*
X221101995Y-146664594D01*
X192039991Y-105847498D02*
X192039991Y-106344496D01*
X214814992Y-102856996D02*
X214331991Y-102856996D01*
X95810000Y-77046697D02*
X95810000Y-76546098D01*
X221101995Y-189640981D02*
X221101995Y-189142980D01*
X192039991Y-215035986D02*
X192039991Y-215534979D01*
X317331998Y-184071981D02*
X317331998Y-184571981D01*
X192039991Y-189142980D02*
X192039991Y-189640981D01*
X95810000Y-70549299D02*
X95810000Y-70048799D01*
X221101995Y-144174894D02*
X221101995Y-143676595D01*
X213348989Y-88838197D02*
X213348989Y-89327497D01*
X95810000Y-216990988D02*
X95810000Y-216489980D01*
X200515989Y-159725996D02*
X200898992Y-159649992D01*
X317331998Y-96613596D02*
X317331998Y-97113195D01*
X317331998Y-143098394D02*
X317331998Y-143598295D01*
X95810000Y-100040197D02*
X95810000Y-99541097D01*
X221101995Y-164594991D02*
X221101995Y-164096990D01*
X126222398Y-226990988D02*
X125724197Y-226990988D01*
X193512792Y-93741796D02*
X193998395Y-93741796D01*
X95810000Y-174503996D02*
X95810000Y-174004995D01*
X317331998Y-100613195D02*
X317331998Y-101113294D01*
X95810000Y-117028997D02*
X95810000Y-116528295D01*
X302873990Y-54621900D02*
X303372999Y-54621900D01*
X95810000Y-93041998D02*
X95810000Y-92541498D01*
X192039991Y-70927799D02*
X192039991Y-71423097D01*
X95810000Y-108032594D02*
X95810000Y-107531896D01*
X115257997Y-54560000D02*
X115757598Y-54560000D01*
X271961988Y-54621900D02*
X272459989Y-54621900D01*
X95810000Y-185997991D02*
X95810000Y-185498983D01*
X317331998Y-165584989D02*
X317331998Y-166084989D01*
X196430990Y-93741796D02*
X196916990Y-93741796D01*
X220954992Y-188788992D02*
X220601995Y-188642980D01*
X317331998Y-111606897D02*
X317331998Y-112106596D01*
X227587995Y-54621900D02*
X228084989Y-54621900D01*
X276441999Y-227052984D02*
X275942991Y-227052984D01*
X199848989Y-79531399D02*
X199848989Y-79041797D01*
X199898992Y-203730978D02*
X199898992Y-203244985D01*
X95810000Y-165006994D02*
X95810000Y-164507993D01*
X192039991Y-123266889D02*
X192039991Y-123765394D01*
X192039991Y-135221693D02*
X192039991Y-135720190D01*
X266977994Y-54621900D02*
X267475995Y-54621900D01*
X95810000Y-189995977D02*
X95810000Y-189495977D01*
X221101995Y-194628988D02*
X221101995Y-194129980D01*
X317331998Y-186070989D02*
X317331998Y-186570989D01*
X199848989Y-118656591D02*
X199848989Y-118163896D01*
X192039991Y-91258196D02*
X192039991Y-91754198D01*
X192039991Y-221509985D02*
X192039991Y-222006979D01*
X199848989Y-116684194D02*
X199848989Y-116190496D01*
X178580388Y-54560000D02*
X179079091Y-54560000D01*
X317331998Y-196068990D02*
X317331998Y-196568990D01*
X317331998Y-215058981D02*
X317331998Y-215558981D01*
X221101995Y-140191892D02*
X221101995Y-139693594D01*
X254509992Y-54621900D02*
X255008985Y-54621900D01*
X187549589Y-54560000D02*
X188048192Y-54560000D01*
X313339994Y-227052984D02*
X312841993Y-227052984D01*
X199848989Y-107307195D02*
X199848989Y-106813497D01*
X199898992Y-169594991D02*
X199898992Y-169097990D01*
X199848989Y-76105098D02*
X199848989Y-75616998D01*
X161129896Y-54560000D02*
X161627591Y-54560000D01*
X136700097Y-54560000D02*
X137199296Y-54560000D01*
X299877988Y-227052984D02*
X299379987Y-227052984D01*
X213348989Y-106317396D02*
X213348989Y-106810095D01*
X213348989Y-103356996D02*
X213348989Y-103850096D01*
X317331998Y-211563986D02*
X317331998Y-212062979D01*
X95810000Y-203992986D02*
X95810000Y-203493978D01*
X208398992Y-207649984D02*
X207899991Y-207649984D01*
X268472989Y-54621900D02*
X268971998Y-54621900D01*
X213398992Y-175051992D02*
X213398992Y-175548994D01*
X206899991Y-207649984D02*
X206399991Y-207649984D01*
X213348989Y-92753694D02*
X213348989Y-93241796D01*
X199974988Y-207032980D02*
X199898992Y-206649984D01*
X136693597Y-226990988D02*
X136194196Y-226990988D01*
X168602193Y-226990988D02*
X168102895Y-226990988D01*
X287417997Y-54621900D02*
X287915998Y-54621900D01*
X162624189Y-54560000D02*
X163122594Y-54560000D01*
X207399991Y-207649984D02*
X206899991Y-207649984D01*
X192039991Y-145179792D02*
X192039991Y-145677694D01*
X248528989Y-54621900D02*
X249027997Y-54621900D01*
X189046392Y-226990988D02*
X188547094Y-226990988D01*
X317331998Y-83120298D02*
X317331998Y-83620699D01*
X192039991Y-160112989D02*
X192039991Y-160609991D01*
X263986997Y-54621900D02*
X264484998Y-54621900D01*
X95810000Y-157009992D02*
X95810000Y-156509992D01*
X280432996Y-227052984D02*
X279934995Y-227052984D01*
X283424985Y-227052984D02*
X282926999Y-227052984D01*
X317331998Y-210564977D02*
X317331998Y-211063986D01*
X221101995Y-61562569D02*
X221101995Y-61067109D01*
X205900991Y-207649984D02*
X205399991Y-207649984D01*
X176085393Y-54560000D02*
X176584493Y-54560000D01*
X95810000Y-72048797D02*
X95810000Y-71548498D01*
X317331998Y-129602094D02*
X317331998Y-130101293D01*
X192039991Y-149660894D02*
X192039991Y-150157789D01*
X221101995Y-108336298D02*
X221101995Y-107839296D01*
X199848989Y-81979898D02*
X199848989Y-81490497D01*
X130210294Y-226990988D02*
X129711397Y-226990988D01*
X221101995Y-214081991D02*
X221101995Y-213581991D01*
X221101995Y-167081991D02*
X221101995Y-166583990D01*
X317331998Y-145595793D02*
X317331998Y-146096395D01*
X199848989Y-89323995D02*
X199848989Y-88833696D01*
X225591993Y-227052984D02*
X225093992Y-227052984D01*
X227585996Y-227052984D02*
X227086988Y-227052984D01*
X265972989Y-227052984D02*
X265474988Y-227052984D01*
X221101995Y-133221693D02*
X221101995Y-132723890D01*
X199848989Y-77574398D02*
X199848989Y-77085798D01*
X294399000Y-54621900D02*
X294896985Y-54621900D01*
X317331998Y-117105295D02*
X317331998Y-117604097D01*
X192039991Y-164589994D02*
X192039991Y-165087995D01*
X95810000Y-105034097D02*
X95810000Y-104535097D01*
X134200097Y-226990988D02*
X133701196Y-226990988D01*
X213348989Y-78065498D02*
X213348989Y-78555898D01*
X221101995Y-156129995D02*
X221101995Y-155631994D01*
X95810000Y-178500990D02*
X95810000Y-178000990D01*
X131705797Y-226990988D02*
X131207795Y-226990988D01*
X192039991Y-92250696D02*
X192039991Y-92747198D01*
X95810000Y-208991979D02*
X95810000Y-208490988D01*
X95810000Y-98040598D02*
X95810000Y-97541296D01*
X165117994Y-54560000D02*
X165617292Y-54560000D01*
X317331998Y-178576994D02*
X317331998Y-179075994D01*
X213348989Y-84431198D02*
X213348989Y-84921398D01*
X117745698Y-226990988D02*
X117248197Y-226990988D01*
X221177991Y-226435980D02*
X221101995Y-226052984D01*
X213105993Y-159942991D02*
X213322996Y-160266996D01*
X233564985Y-227052984D02*
X233066999Y-227052984D01*
X120245397Y-54560000D02*
X120743898Y-54560000D01*
X163117490Y-226990988D02*
X162619092Y-226990988D01*
X221101995Y-64038999D02*
X221101995Y-63544009D01*
X213348989Y-106810095D02*
X213348989Y-107304098D01*
X199898992Y-177538992D02*
X199898992Y-177042990D01*
X171099492Y-54560000D02*
X171598890Y-54560000D01*
X221101995Y-69979599D02*
X221101995Y-69484399D01*
X207897992Y-159649992D02*
X208397992Y-159649992D01*
X200465993Y-122540891D02*
X200141996Y-122324095D01*
X257501996Y-54621900D02*
X258000989Y-54621900D01*
X148158296Y-226990988D02*
X147659196Y-226990988D01*
X206399991Y-207649984D02*
X205900991Y-207649984D01*
X135196596Y-226990988D02*
X134698594Y-226990988D01*
X245529996Y-227052984D02*
X245031995Y-227052984D01*
X221101995Y-132723890D02*
X221101995Y-132226995D01*
X317331998Y-67622399D02*
X317331998Y-68122399D01*
X281430997Y-227052984D02*
X280931989Y-227052984D01*
X111268198Y-54560000D02*
X111767097Y-54560000D01*
X113263597Y-54560000D02*
X113761999Y-54560000D01*
X254503995Y-227052984D02*
X254005994Y-227052984D01*
X192039991Y-67954899D02*
X192039991Y-68449799D01*
X317331998Y-224053991D02*
X317331998Y-224553991D01*
X317331998Y-208064977D02*
X317331998Y-208564977D01*
X213348989Y-112235998D02*
X213348989Y-112729696D01*
X221101995Y-136707090D02*
X221101995Y-136209791D01*
X206849988Y-122616995D02*
X206349988Y-122616995D01*
X95810000Y-212490988D02*
X95810000Y-211990988D01*
X167611394Y-54560000D02*
X168109990Y-54560000D01*
X199898992Y-160649992D02*
X199974988Y-160266996D01*
X317331998Y-117604097D02*
X317331998Y-118104196D01*
X257002988Y-54621900D02*
X257501996Y-54621900D01*
X192539991Y-93741796D02*
X193026990Y-93741796D01*
X95810000Y-180499990D02*
X95810000Y-179999990D01*
X214856992Y-179527990D02*
X215334989Y-179527990D01*
X297883985Y-227052984D02*
X297383985Y-227052984D01*
X95810000Y-98540598D02*
X95810000Y-98040598D01*
X199898992Y-198382986D02*
X199898992Y-197895986D01*
X192039991Y-165087995D02*
X192039991Y-165586996D01*
X317331998Y-116605497D02*
X317331998Y-117105295D01*
X151649194Y-226990988D02*
X151149896Y-226990988D01*
X213398992Y-172070989D02*
X213398992Y-172567991D01*
X215778989Y-102856996D02*
X215295995Y-102856996D01*
X199848989Y-121123892D02*
X199848989Y-120630689D01*
X121235898Y-226990988D02*
X120736497Y-226990988D01*
X95810000Y-126522489D02*
X95810000Y-126023290D01*
X192039991Y-170562994D02*
X192039991Y-171059995D01*
X192039991Y-168074995D02*
X192039991Y-168572996D01*
X195944990Y-102856996D02*
X195457792Y-102856996D01*
X200191991Y-159942991D02*
X200515989Y-159725996D01*
X266471998Y-227052984D02*
X265972989Y-227052984D01*
X95886100Y-55177300D02*
X96102900Y-54852900D01*
X104288128Y-226990988D02*
X103790189Y-226990988D01*
X221101995Y-68989199D02*
X221101995Y-68493999D01*
X95810000Y-79047098D02*
X95810000Y-78546798D01*
X154144895Y-226990988D02*
X153646097Y-226990988D01*
X274952985Y-54621900D02*
X275450986Y-54621900D01*
X192039991Y-117790197D02*
X192039991Y-118287596D01*
X149163297Y-54560000D02*
X149661397Y-54560000D01*
X289405988Y-227052984D02*
X288906995Y-227052984D01*
X171598890Y-54560000D02*
X172097394Y-54560000D01*
X282432996Y-54621900D02*
X282931989Y-54621900D01*
X245536985Y-54621900D02*
X246035993Y-54621900D01*
X95810000Y-201491979D02*
X95810000Y-200990988D01*
X176584493Y-54560000D02*
X177083692Y-54560000D01*
X199848989Y-112737997D02*
X199848989Y-112244398D01*
X221101995Y-103854597D02*
X221101995Y-103356996D01*
X317331998Y-105109396D02*
X317331998Y-105609895D01*
X192039991Y-160609991D02*
X192039991Y-161106992D01*
X213348989Y-113717294D02*
X213348989Y-114210294D01*
X199848989Y-108787897D02*
X199848989Y-108294397D01*
X112266498Y-54560000D02*
X112764997Y-54560000D01*
X317331998Y-171081991D02*
X317331998Y-171580992D01*
X317331998Y-58123510D02*
X317331998Y-58623090D01*
X213348989Y-114704897D02*
X213348989Y-115198396D01*
X221101995Y-152144689D02*
X221101995Y-151645895D01*
X313838987Y-54621900D02*
X314336988Y-54621900D01*
X317331998Y-57623140D02*
X317331998Y-58123510D01*
X192039991Y-225990988D02*
X191963895Y-226373983D01*
X214331991Y-102856996D02*
X213848989Y-102856996D01*
X192039991Y-93241796D02*
X192186391Y-93595396D01*
X251513990Y-227052984D02*
X251015989Y-227052984D01*
X199848989Y-92752096D02*
X199848989Y-92261995D01*
X192039991Y-73407497D02*
X192039991Y-73903497D01*
X212731992Y-74693098D02*
X213055990Y-74909899D01*
X317331998Y-195070989D02*
X317331998Y-195569982D01*
X212731992Y-122540891D02*
X212348989Y-122616995D01*
X221101995Y-122770490D02*
X221101995Y-122271993D01*
X217707990Y-102856996D02*
X217225995Y-102856996D01*
X100300440Y-226990988D02*
X99801820Y-226990988D01*
X199898992Y-168103994D02*
X199898992Y-167606992D01*
X179577390Y-54560000D02*
X180074895Y-54560000D01*
X309849988Y-227052984D02*
X309350995Y-227052984D01*
X242041990Y-227052984D02*
X241542997Y-227052984D01*
X95810000Y-221988989D02*
X95810000Y-221488989D01*
X221101995Y-171559995D02*
X221101995Y-171061994D01*
X221101995Y-88294496D02*
X221101995Y-87799295D01*
X285418989Y-227052984D02*
X284919996Y-227052984D01*
X145666196Y-226990988D02*
X145166997Y-226990988D01*
X228084989Y-227052984D02*
X227585996Y-227052984D01*
X213494993Y-93595396D02*
X213848989Y-93741796D01*
X192039991Y-210056982D02*
X192039991Y-210554983D01*
X192039991Y-123765394D02*
X192039991Y-124263693D01*
X221101995Y-144673292D02*
X221101995Y-144174894D01*
X317331998Y-69121499D02*
X317331998Y-69621499D01*
X108272599Y-226990988D02*
X107775098Y-226990988D01*
X213348989Y-91772997D02*
X213348989Y-92263597D01*
X254010999Y-54621900D02*
X254509992Y-54621900D01*
X294896985Y-54621900D02*
X295395994Y-54621900D01*
X199848989Y-91282495D02*
X199848989Y-90793295D01*
X317331998Y-162585989D02*
X317331998Y-163084989D01*
X270957990Y-227052984D02*
X270458997Y-227052984D01*
X265980985Y-54621900D02*
X266478986Y-54621900D01*
X169100995Y-226990988D02*
X168602193Y-226990988D01*
X283430997Y-54621900D02*
X283929990Y-54621900D01*
X250018995Y-227052984D02*
X249520994Y-227052984D01*
X95810000Y-59556659D02*
X95810000Y-59056679D01*
X317331998Y-75621198D02*
X317331998Y-76120397D01*
X317331998Y-85619299D02*
X317331998Y-86119999D01*
X150650697Y-226990988D02*
X150151697Y-226990988D01*
X317331998Y-152591192D02*
X317331998Y-153091390D01*
X317331998Y-214559988D02*
X317331998Y-215058981D01*
X192039991Y-157622991D02*
X192039991Y-158121992D01*
X247531995Y-54621900D02*
X248029996Y-54621900D01*
X285423993Y-54621900D02*
X285922986Y-54621900D01*
X123231397Y-226990988D02*
X122731998Y-226990988D01*
X273956998Y-54621900D02*
X274454999Y-54621900D01*
X216770994Y-188642980D02*
X216292989Y-188642980D01*
X174590093Y-54560000D02*
X175088994Y-54560000D01*
X192039991Y-136217390D02*
X192039991Y-136715093D01*
X221101995Y-156626989D02*
X221101995Y-156129995D01*
X213348989Y-108783495D02*
X213348989Y-109277796D01*
X317331998Y-74622099D02*
X317331998Y-75121097D01*
X199848989Y-90793295D02*
X199848989Y-90302896D01*
X192039991Y-84810898D02*
X192039991Y-85306698D01*
X317331998Y-216558981D02*
X317331998Y-217057989D01*
X221101995Y-63048809D02*
X221101995Y-62553699D01*
X192039991Y-62497750D02*
X192039991Y-62993989D01*
X316331998Y-227052984D02*
X315832990Y-227052984D01*
X99801930Y-54560000D02*
X100300010Y-54560000D01*
X156642194Y-54560000D02*
X157141397Y-54560000D01*
X206897992Y-159649992D02*
X207396993Y-159649992D01*
X309351987Y-54621900D02*
X309849988Y-54621900D01*
X288906995Y-227052984D02*
X288408994Y-227052984D01*
X259994993Y-54621900D02*
X260493986Y-54621900D01*
X95810000Y-76047098D02*
X95810000Y-75548097D01*
X221101995Y-199616979D02*
X221101995Y-199116979D01*
X221101995Y-211587988D02*
X221101995Y-211088979D01*
X192039991Y-91754198D02*
X192039991Y-92250696D01*
X192186391Y-93595396D02*
X192539991Y-93741796D01*
X221101995Y-117296697D02*
X221101995Y-116798097D01*
X317331998Y-161585989D02*
X317331998Y-162085989D01*
X208347989Y-74616998D02*
X208847989Y-74616998D01*
X301875989Y-54621900D02*
X302375989Y-54621900D01*
X199898992Y-175551992D02*
X199898992Y-175054991D01*
X115752597Y-226990988D02*
X115253599Y-226990988D01*
X213348989Y-87368295D02*
X213348989Y-87858595D01*
X199848989Y-113230795D02*
X199848989Y-112737997D01*
X221101995Y-146664594D02*
X221101995Y-146167394D01*
X155639696Y-226990988D02*
X155141096Y-226990988D01*
X199398992Y-179527990D02*
X199752988Y-179380995D01*
X235559995Y-227052984D02*
X235059995Y-227052984D01*
X317331998Y-113606096D02*
X317331998Y-114106294D01*
X221101995Y-178031996D02*
X221101995Y-177533994D01*
X190540990Y-54560000D02*
X191039991Y-54560000D01*
X215335988Y-188642980D02*
X214856992Y-188642980D01*
X221101995Y-69484399D02*
X221101995Y-68989199D01*
X199898992Y-206649984D02*
X199898992Y-206162985D01*
X221101995Y-197121984D02*
X221101995Y-196622991D01*
X208397992Y-159649992D02*
X208897992Y-159649992D01*
X192039991Y-80843498D02*
X192039991Y-81339899D01*
X232072996Y-54621900D02*
X232571988Y-54621900D01*
X317331998Y-90117998D02*
X317331998Y-90618498D01*
X317331998Y-63621749D02*
X317331998Y-64122279D01*
X251519987Y-54621900D02*
X252017988Y-54621900D01*
X164612592Y-226990988D02*
X164113691Y-226990988D01*
X199848989Y-87365698D02*
X199848989Y-86875196D01*
X221101995Y-193132986D02*
X221101995Y-192633978D01*
X199348989Y-102856996D02*
X198861989Y-102856996D01*
X317331998Y-92616796D02*
X317331998Y-93115797D01*
X180070691Y-226990988D02*
X179572790Y-226990988D01*
X317331998Y-94115297D02*
X317331998Y-94615698D01*
X199898992Y-191572988D02*
X199898992Y-191087988D01*
X221101995Y-130733389D02*
X221101995Y-130236494D01*
X192039991Y-66963099D02*
X192039991Y-67459199D01*
X114754697Y-226990988D02*
X114256597Y-226990988D01*
X95810000Y-220488989D02*
X95810000Y-219988989D01*
X213348989Y-93241796D02*
X213494993Y-93595396D01*
X95810000Y-68550299D02*
X95810000Y-68051099D01*
X199898992Y-174062994D02*
X199898992Y-173565992D01*
X276940992Y-227052984D02*
X276441999Y-227052984D01*
X95810000Y-179999990D02*
X95810000Y-179499990D01*
X181569494Y-54560000D02*
X182068494Y-54560000D01*
X317331998Y-75121097D02*
X317331998Y-75621198D01*
X95810000Y-178000990D02*
X95810000Y-177501989D01*
X131710996Y-54560000D02*
X132210294Y-54560000D01*
X235064985Y-54621900D02*
X235562986Y-54621900D01*
X199898992Y-166115995D02*
X199898992Y-165618994D01*
X224594999Y-54621900D02*
X225093992Y-54621900D01*
X221101995Y-199116979D02*
X221101995Y-198618978D01*
X197403989Y-102856996D02*
X196916990Y-102856996D01*
X95810000Y-71548498D02*
X95810000Y-71048399D01*
X95810000Y-139014494D02*
X95810000Y-138514494D01*
X303871992Y-54621900D02*
X304370984Y-54621900D01*
X221101995Y-71959799D02*
X221101995Y-71464998D01*
X95810000Y-95542097D02*
X95810000Y-95041498D01*
X98803560Y-54560000D02*
X99302870Y-54560000D01*
X95810000Y-74047998D02*
X95810000Y-73547699D01*
X189545392Y-226990988D02*
X189046392Y-226990988D01*
X199898992Y-189627981D02*
X199898992Y-189142980D01*
X295893995Y-54621900D02*
X296390989Y-54621900D01*
X211898992Y-207649984D02*
X211397992Y-207649984D01*
X317331998Y-158587995D02*
X317331998Y-159087995D01*
X150151697Y-226990988D02*
X149652997Y-226990988D01*
X221101995Y-105845697D02*
X221101995Y-105347997D01*
X199898992Y-204703985D02*
X199898992Y-204217977D01*
X199848989Y-120137594D02*
X199848989Y-119644590D01*
X95810000Y-170504995D02*
X95810000Y-170005995D01*
X217250989Y-188642980D02*
X216770994Y-188642980D01*
X95810000Y-85543699D02*
X95810000Y-85044199D01*
X192039991Y-55560000D02*
X192039991Y-56055440D01*
X242544996Y-54621900D02*
X243043989Y-54621900D01*
X246527997Y-227052984D02*
X246027997Y-227052984D01*
X317331998Y-185071981D02*
X317331998Y-185570989D01*
X95810000Y-210991979D02*
X95810000Y-210491979D01*
X192039991Y-83819898D02*
X192039991Y-84314998D01*
X317331998Y-97612898D02*
X317331998Y-98112795D01*
X213348989Y-85410799D02*
X213348989Y-85899297D01*
X199848989Y-104345796D02*
X199848989Y-103851496D01*
X258498990Y-54621900D02*
X258996992Y-54621900D01*
X192039991Y-206572988D02*
X192039991Y-207069982D01*
X199848989Y-84917698D02*
X199848989Y-84427599D01*
X221101995Y-124262495D02*
X221101995Y-123765196D01*
X317331998Y-144097990D02*
X317331998Y-144597494D01*
X317331998Y-61623830D02*
X317331998Y-62122860D01*
X154148797Y-54560000D02*
X154647794Y-54560000D01*
X95810000Y-160508993D02*
X95810000Y-160008993D01*
X303372999Y-54621900D02*
X303871992Y-54621900D01*
X317331998Y-139097090D02*
X317331998Y-139597296D01*
X221101995Y-162603994D02*
X221101995Y-162106992D01*
X244034986Y-227052984D02*
X243536985Y-227052984D01*
X192039991Y-59028819D02*
X192039991Y-59523790D01*
X132703195Y-226990988D02*
X132204397Y-226990988D01*
X317331998Y-71620899D02*
X317331998Y-72120899D01*
X203899991Y-207649984D02*
X203398992Y-207649984D01*
X170104291Y-54560000D02*
X170601789Y-54560000D01*
X199848989Y-110269098D02*
X199848989Y-109775594D01*
X221101995Y-92747198D02*
X221101995Y-92253195D01*
X221101995Y-138200590D02*
X221101995Y-137703489D01*
X192039991Y-224995977D02*
X192039991Y-225493978D01*
X317331998Y-223054983D02*
X317331998Y-223553991D01*
X95810000Y-83544899D02*
X95810000Y-83044199D01*
X317331998Y-154090894D02*
X317331998Y-154589994D01*
X317331998Y-92117197D02*
X317331998Y-92616796D01*
X95810000Y-70048799D02*
X95810000Y-69549699D01*
X192039991Y-113809095D02*
X192039991Y-114307794D01*
X267475995Y-54621900D02*
X267974988Y-54621900D01*
X95810000Y-137514890D02*
X95810000Y-137015394D01*
X184058790Y-226990988D02*
X183560193Y-226990988D01*
X290409986Y-54621900D02*
X290908994Y-54621900D01*
X221101995Y-217071981D02*
X221101995Y-216573980D01*
X221101995Y-216075979D02*
X221101995Y-215577978D01*
X213348989Y-115198396D02*
X213348989Y-115691797D01*
X95810000Y-89043195D02*
X95810000Y-88542795D01*
X199848989Y-121616995D02*
X199848989Y-121123892D01*
X192039991Y-141196394D02*
X192039991Y-141695196D01*
X192039991Y-132731992D02*
X192039991Y-133229193D01*
X95810000Y-81546598D02*
X95810000Y-81046499D01*
X95810000Y-188995977D02*
X95810000Y-188496984D01*
X192039991Y-64483449D02*
X192039991Y-64979299D01*
X192039991Y-152645796D02*
X192039991Y-153143690D01*
X317331998Y-197567983D02*
X317331998Y-198067983D01*
X286421995Y-54621900D02*
X286919996Y-54621900D01*
X199898992Y-204217977D02*
X199898992Y-203730978D01*
X221101995Y-136209791D02*
X221101995Y-135711790D01*
X221101995Y-191136984D02*
X221101995Y-190638983D01*
X317331998Y-82621498D02*
X317331998Y-83120298D01*
X246533994Y-54621900D02*
X247032987Y-54621900D01*
X199898992Y-177042990D02*
X199898992Y-176544996D01*
X317331998Y-217557989D02*
X317331998Y-218057989D01*
X221101995Y-104352197D02*
X221101995Y-103854597D01*
X199898992Y-189142980D02*
X199752988Y-188788992D01*
X213398992Y-164622991D02*
X213398992Y-165118994D01*
X195969991Y-188642980D02*
X195479192Y-188642980D01*
X195479192Y-188642980D02*
X194990194Y-188642980D01*
X238554990Y-54621900D02*
X239053998Y-54621900D01*
X147168496Y-54560000D02*
X147667295Y-54560000D01*
X192039991Y-209061987D02*
X192039991Y-209559988D01*
X221101995Y-63544009D02*
X221101995Y-63048809D01*
X160132192Y-54560000D02*
X160631391Y-54560000D01*
X221101995Y-123765196D02*
X221101995Y-123267690D01*
X192039991Y-205077978D02*
X192039991Y-205576986D01*
X306359998Y-227052984D02*
X305861997Y-227052984D01*
X317331998Y-79119898D02*
X317331998Y-79620498D01*
X317331998Y-153091390D02*
X317331998Y-153590696D01*
X192039991Y-170064993D02*
X192039991Y-170562994D01*
X221101995Y-215078985D02*
X221101995Y-214579992D01*
X291905988Y-54621900D02*
X292404996Y-54621900D01*
X192039991Y-113311697D02*
X192039991Y-113809095D01*
X95810000Y-136017095D02*
X95810000Y-135516493D01*
X263488996Y-54621900D02*
X263986997Y-54621900D01*
X148166097Y-54560000D02*
X148664796Y-54560000D01*
X213398992Y-190115988D02*
X213398992Y-190602987D01*
X221101995Y-174047994D02*
X221101995Y-173549993D01*
X221101995Y-179027990D02*
X221101995Y-178529989D01*
X317331998Y-65622399D02*
X317331998Y-66122299D01*
X192186391Y-188788992D02*
X192039991Y-189142980D01*
X192539991Y-102856996D02*
X192186391Y-103003496D01*
X199898992Y-171083990D02*
X199898992Y-170587995D01*
X192039991Y-150655195D02*
X192039991Y-151152593D01*
X192039991Y-58533680D02*
X192039991Y-59028819D01*
X215294996Y-93741796D02*
X215777990Y-93741796D01*
X317331998Y-97113195D02*
X317331998Y-97612898D01*
X221101995Y-112816496D02*
X221101995Y-112319597D01*
X146669896Y-54560000D02*
X147168496Y-54560000D01*
X209848989Y-74616998D02*
X210348989Y-74616998D01*
X221101995Y-222562979D02*
X221101995Y-222063986D01*
X221101995Y-140689596D02*
X221101995Y-140191892D01*
X287915998Y-54621900D02*
X288413999Y-54621900D01*
X244040998Y-54621900D02*
X244539991Y-54621900D01*
X96427300Y-54636100D02*
X96810000Y-54560000D01*
X125230897Y-54560000D02*
X125729898Y-54560000D01*
X221101995Y-160612989D02*
X221101995Y-160114996D01*
X213348989Y-111743196D02*
X213348989Y-112235998D01*
X221101995Y-152643392D02*
X221101995Y-152144689D01*
X317331998Y-201065984D02*
X317331998Y-201565984D01*
X317331998Y-158087995D02*
X317331998Y-158587995D01*
X95810000Y-139514593D02*
X95810000Y-139014494D01*
X95810000Y-73547699D02*
X95810000Y-73048298D01*
X221101995Y-210589987D02*
X221101995Y-210090978D01*
X258000989Y-54621900D02*
X258498990Y-54621900D01*
X221101995Y-113812197D02*
X221101995Y-113314096D01*
X317331998Y-126602094D02*
X317331998Y-127101293D01*
X95810000Y-91041597D02*
X95810000Y-90542497D01*
X317331998Y-168582990D02*
X317331998Y-169082990D01*
X199898992Y-194004980D02*
X199898992Y-193517980D01*
X317331998Y-183571981D02*
X317331998Y-184071981D01*
X139185197Y-226990988D02*
X138686696Y-226990988D01*
X95810000Y-79546898D02*
X95810000Y-79047098D01*
X200848989Y-122616995D02*
X200465993Y-122540891D01*
X183061490Y-226990988D02*
X182563894Y-226990988D01*
X184059789Y-54560000D02*
X184558393Y-54560000D01*
X317331998Y-200065984D02*
X317331998Y-200565984D01*
X192039991Y-120277891D02*
X192039991Y-120776396D01*
X317331998Y-198067983D02*
X317331998Y-198568990D01*
X311844999Y-54621900D02*
X312342985Y-54621900D01*
X192039991Y-207567983D02*
X192039991Y-208065984D01*
X129218095Y-54560000D02*
X129716794Y-54560000D01*
X268971998Y-54621900D02*
X269469999Y-54621900D01*
X221101995Y-113314096D02*
X221101995Y-112816496D01*
X221101995Y-84828897D02*
X221101995Y-84333097D01*
X221101995Y-75919498D02*
X221101995Y-75423698D01*
X262989988Y-54621900D02*
X263488996Y-54621900D01*
X199898992Y-195464987D02*
X199898992Y-194977987D01*
X201348989Y-122616995D02*
X200848989Y-122616995D01*
X266969999Y-227052984D02*
X266471998Y-227052984D01*
X317331998Y-130101293D02*
X317331998Y-130601194D01*
X218207990Y-188642980D02*
X217729993Y-188642980D01*
X103291940Y-54560000D02*
X103791199Y-54560000D01*
X192039991Y-73903497D02*
X192039991Y-74398397D01*
X317331998Y-179075994D02*
X317331998Y-179574995D01*
X302375989Y-54621900D02*
X302873990Y-54621900D01*
X194500394Y-188642980D02*
X194010190Y-188642980D01*
X317331998Y-221056982D02*
X317331998Y-221556982D01*
X231072996Y-227052984D02*
X230575986Y-227052984D01*
X230079999Y-54621900D02*
X230577985Y-54621900D01*
X157634694Y-226990988D02*
X157135297Y-226990988D01*
X213348989Y-82473099D02*
X213348989Y-82963398D01*
X297887998Y-54621900D02*
X298386991Y-54621900D01*
X107775098Y-226990988D02*
X107276199Y-226990988D01*
X317331998Y-191069982D02*
X317331998Y-191570989D01*
X95810000Y-191494985D02*
X95810000Y-190993978D01*
X192039991Y-118287596D02*
X192039991Y-118784994D01*
X199898992Y-195950979D02*
X199898992Y-195464987D01*
X221101995Y-127250189D02*
X221101995Y-126752989D01*
X192039991Y-71423097D02*
X192039991Y-71918098D01*
X213348989Y-77576298D02*
X213348989Y-78065498D01*
X261492994Y-54621900D02*
X261991987Y-54621900D01*
X95810000Y-96041895D02*
X95810000Y-95542097D01*
X317331998Y-135098692D02*
X317331998Y-135599096D01*
X95810000Y-218990988D02*
X95810000Y-218490988D01*
X213848989Y-102856996D02*
X213494993Y-103003496D01*
X199898992Y-205676992D02*
X199898992Y-205189977D01*
X317331998Y-76120397D02*
X317331998Y-76620397D01*
X316714994Y-54698000D02*
X316866987Y-54799600D01*
X221101995Y-221065984D02*
X221101995Y-220567983D01*
X317331998Y-112606798D02*
X317331998Y-113106294D01*
X221101995Y-116300096D02*
X221101995Y-115802297D01*
X317331998Y-86119999D02*
X317331998Y-86619695D01*
X213348989Y-83452299D02*
X213348989Y-83941198D01*
X202848989Y-122616995D02*
X202347989Y-122616995D01*
X221101995Y-105347997D02*
X221101995Y-104849897D01*
X221101995Y-148159391D02*
X221101995Y-147660696D01*
X192039991Y-79852499D02*
X192039991Y-80348497D01*
X124732498Y-54560000D02*
X125230897Y-54560000D01*
X254005994Y-227052984D02*
X253507993Y-227052984D01*
X95810000Y-159008993D02*
X95810000Y-158508993D01*
X192039991Y-217028982D02*
X192039991Y-217526983D01*
X221101995Y-74434398D02*
X221101995Y-73938398D01*
X221101995Y-172056989D02*
X221101995Y-171559995D01*
X192039991Y-114805296D02*
X192039991Y-115302995D01*
X284427991Y-54621900D02*
X284925992Y-54621900D01*
X192039991Y-194618978D02*
X192039991Y-195117986D01*
X278941999Y-54621900D02*
X279440992Y-54621900D01*
X286415998Y-227052984D02*
X285916990Y-227052984D01*
X192039991Y-154139196D02*
X192039991Y-154635992D01*
X317331998Y-115105596D02*
X317331998Y-115605695D01*
X95810000Y-213990988D02*
X95810000Y-213489980D01*
X137698297Y-54560000D02*
X138196996Y-54560000D01*
X231574994Y-54621900D02*
X232072996Y-54621900D01*
X317331998Y-224553991D02*
X317331998Y-225053991D01*
X221101995Y-86315498D02*
X221101995Y-85820099D01*
X175583494Y-226990988D02*
X175084989Y-226990988D01*
X317331998Y-119603094D02*
X317331998Y-120103689D01*
X277439985Y-227052984D02*
X276940992Y-227052984D01*
X120736497Y-226990988D02*
X120238597Y-226990988D01*
X124234699Y-54560000D02*
X124732498Y-54560000D01*
X317331998Y-100113096D02*
X317331998Y-100613195D01*
X213348989Y-78555898D02*
X213348989Y-79044998D01*
X221101995Y-155631994D02*
X221101995Y-155133993D01*
X95810000Y-132517294D02*
X95810000Y-132017889D01*
X218672994Y-102856996D02*
X218189992Y-102856996D01*
X221101995Y-90273096D02*
X221101995Y-89778696D01*
X221101995Y-163599989D02*
X221101995Y-163102995D01*
X213348989Y-112729696D02*
X213348989Y-113223295D01*
X298884992Y-54621900D02*
X299383985Y-54621900D01*
X310347989Y-227052984D02*
X309849988Y-227052984D01*
X317331998Y-151592191D02*
X317331998Y-152092092D01*
X213398992Y-162634992D02*
X213398992Y-163132993D01*
X221101995Y-166086996D02*
X221101995Y-165588995D01*
X213398992Y-201787985D02*
X213398992Y-202274984D01*
X262490995Y-54621900D02*
X262989988Y-54621900D01*
X225093992Y-227052984D02*
X224594999Y-227052984D01*
X261985990Y-227052984D02*
X261485990Y-227052984D01*
X221101995Y-83342499D02*
X221101995Y-82847198D01*
X187051092Y-226990988D02*
X186551793Y-226990988D01*
X144177896Y-54560000D02*
X144676496Y-54560000D01*
X206347989Y-74616998D02*
X206847989Y-74616998D01*
X317331998Y-68621699D02*
X317331998Y-69121499D01*
X192039991Y-134724096D02*
X192039991Y-135221693D01*
X151149896Y-226990988D02*
X150650697Y-226990988D01*
X95810000Y-206990988D02*
X95810000Y-206491979D01*
X192039991Y-155631994D02*
X192039991Y-156129995D01*
X95810000Y-90542497D02*
X95810000Y-90042394D01*
X209347989Y-74616998D02*
X209848989Y-74616998D01*
X317331998Y-190570989D02*
X317331998Y-191069982D01*
X95810000Y-106033396D02*
X95810000Y-105533598D01*
X317331998Y-140097395D02*
X317331998Y-140597692D01*
X95810000Y-143515592D02*
X95810000Y-143015791D01*
X199848989Y-75616998D02*
X199924993Y-75234298D01*
X95810000Y-86542196D02*
X95810000Y-86042598D01*
X243037992Y-227052984D02*
X242539991Y-227052984D01*
X246027997Y-227052984D02*
X245529996Y-227052984D01*
X192039991Y-83324398D02*
X192039991Y-83819898D01*
X313339994Y-54621900D02*
X313838987Y-54621900D01*
X216260991Y-93741796D02*
X216742994Y-93741796D01*
X213348989Y-86878996D02*
X213348989Y-87368295D01*
X95810000Y-193492986D02*
X95810000Y-192993978D01*
X221101995Y-213581991D02*
X221101995Y-213083990D01*
X317331998Y-93615297D02*
X317331998Y-94115297D01*
X223097989Y-54621900D02*
X223596990Y-54621900D01*
X95810000Y-201991979D02*
X95810000Y-201491979D01*
X95810000Y-102037496D02*
X95810000Y-101538297D01*
X95810000Y-138014593D02*
X95810000Y-137514890D01*
X95810000Y-147014295D02*
X95810000Y-146514196D01*
X317331998Y-203566992D02*
X317331998Y-204066992D01*
X317331998Y-179574995D02*
X317331998Y-180074995D01*
X200898992Y-207649984D02*
X200515989Y-207573980D01*
X95810000Y-146514196D02*
X95810000Y-146013792D01*
X221101995Y-137204992D02*
X221101995Y-136707090D01*
X121242597Y-54560000D02*
X121741197Y-54560000D01*
X317331998Y-101113294D02*
X317331998Y-101613294D01*
X221101995Y-191634985D02*
X221101995Y-191136984D01*
X193520688Y-188642980D02*
X193030889Y-188642980D01*
X210398992Y-207649984D02*
X209898992Y-207649984D01*
X162619092Y-226990988D02*
X162120092Y-226990988D01*
X192039991Y-221011984D02*
X192039991Y-221509985D01*
X199848989Y-118163896D02*
X199848989Y-117669897D01*
X213398992Y-191088979D02*
X213398992Y-191574987D01*
X192039991Y-120776396D02*
X192039991Y-121273695D01*
X198417989Y-179527990D02*
X198907995Y-179527990D01*
X221101995Y-128245596D02*
X221101995Y-127748594D01*
X317331998Y-210063986D02*
X317331998Y-210564977D01*
X155146795Y-54560000D02*
X155645597Y-54560000D01*
X95810000Y-197991979D02*
X95810000Y-197491979D01*
X312342985Y-227052984D02*
X311843992Y-227052984D01*
X317331998Y-192569982D02*
X317331998Y-193069982D01*
X221101995Y-216573980D02*
X221101995Y-216075979D01*
X221101995Y-147660696D02*
X221101995Y-147162992D01*
X132708894Y-54560000D02*
X133206796Y-54560000D01*
X213898992Y-188642980D02*
X213544996Y-188788992D01*
X136200796Y-54560000D02*
X136700097Y-54560000D01*
X317331998Y-132600096D02*
X317331998Y-133100591D01*
X221101995Y-88789896D02*
X221101995Y-88294496D01*
X222101995Y-54621900D02*
X222599988Y-54621900D01*
X192039991Y-89770796D02*
X192039991Y-90266496D01*
X317331998Y-209563986D02*
X317331998Y-210063986D01*
X193030492Y-179527990D02*
X193519895Y-179527990D01*
X192039991Y-200595983D02*
X192039991Y-201093984D01*
X317331998Y-96114298D02*
X317331998Y-96613596D01*
X95810000Y-96540697D02*
X95810000Y-96041895D01*
X192039991Y-166581991D02*
X192039991Y-167079992D01*
X192039991Y-197609991D02*
X192039991Y-198108984D01*
X213348989Y-76106798D02*
X213348989Y-76596899D01*
X317331998Y-191570989D02*
X317331998Y-192069982D01*
X199848989Y-105826296D02*
X199848989Y-105332495D01*
X96427300Y-226914984D02*
X96102900Y-226697988D01*
X221101995Y-214579992D02*
X221101995Y-214081991D01*
X112262298Y-226990988D02*
X111764598Y-226990988D01*
X95810000Y-205991979D02*
X95810000Y-205492986D01*
X199848989Y-111750795D02*
X199848989Y-111256696D01*
X281435987Y-54621900D02*
X281933988Y-54621900D01*
X286913999Y-227052984D02*
X286415998Y-227052984D01*
X95810000Y-145513090D02*
X95810000Y-145014089D01*
X177582090Y-54560000D02*
X178081396Y-54560000D01*
X192039991Y-202587988D02*
X192039991Y-203084982D01*
X235059995Y-227052984D02*
X234560987Y-227052984D01*
X95810000Y-99041197D02*
X95810000Y-98540598D01*
X223098989Y-227052984D02*
X222600995Y-227052984D01*
X192039991Y-76381399D02*
X192039991Y-76876999D01*
X204349988Y-122616995D02*
X203849988Y-122616995D01*
X124229497Y-226990988D02*
X123730697Y-226990988D01*
X192039991Y-117292795D02*
X192039991Y-117790197D01*
X213398992Y-196923986D02*
X213398992Y-197409979D01*
X199974988Y-160266996D02*
X200191991Y-159942991D01*
X253009992Y-227052984D02*
X252510999Y-227052984D01*
X103291630Y-226990988D02*
X102792889Y-226990988D01*
X232567991Y-227052984D02*
X232069990Y-227052984D01*
X190043790Y-226990988D02*
X189545392Y-226990988D01*
X152647897Y-226990988D02*
X152148595Y-226990988D01*
X221101995Y-175542990D02*
X221101995Y-175044996D01*
X95810000Y-132017889D02*
X95810000Y-131518995D01*
X147667295Y-54560000D02*
X148166097Y-54560000D01*
X200848989Y-74616998D02*
X201348989Y-74616998D01*
X221101995Y-159615995D02*
X221101995Y-159117994D01*
X193519895Y-179527990D02*
X194009092Y-179527990D01*
X221101995Y-83837997D02*
X221101995Y-83342499D01*
X282931989Y-54621900D02*
X283430997Y-54621900D01*
X192039991Y-175541990D02*
X192039991Y-176040991D01*
X95810000Y-91541197D02*
X95810000Y-91041597D01*
X192039991Y-224497991D02*
X192039991Y-224995977D01*
X164618589Y-54560000D02*
X165117994Y-54560000D01*
X213398992Y-163628996D02*
X213398992Y-164124990D01*
X148656797Y-226990988D02*
X148158296Y-226990988D01*
X188048093Y-226990988D02*
X187549993Y-226990988D01*
X279939985Y-54621900D02*
X280438993Y-54621900D01*
X192039991Y-166084989D02*
X192039991Y-166581991D01*
X95810000Y-199990988D02*
X95810000Y-199490988D01*
X216260991Y-102856996D02*
X215778989Y-102856996D01*
X100798920Y-54560000D02*
X101298180Y-54560000D01*
X192039991Y-62993989D02*
X192039991Y-63489969D01*
X95810000Y-159508993D02*
X95810000Y-159008993D01*
X221101995Y-119287390D02*
X221101995Y-118790090D01*
X276447996Y-54621900D02*
X276947996Y-54621900D01*
X278937986Y-227052984D02*
X278438993Y-227052984D01*
X97806960Y-226990988D02*
X97309040Y-226990988D01*
X95810000Y-162009992D02*
X95810000Y-161508993D01*
X249520994Y-227052984D02*
X249022992Y-227052984D01*
X192039991Y-127749594D02*
X192039991Y-128246794D01*
X95810000Y-65553999D02*
X95810000Y-65054299D01*
X192039991Y-156627989D02*
X192039991Y-157125990D01*
X221101995Y-109332598D02*
X221101995Y-108834398D01*
X95810000Y-213489980D02*
X95810000Y-212990988D01*
X95810000Y-155510992D02*
X95810000Y-155010992D01*
X95810000Y-94542196D02*
X95810000Y-94042497D01*
X317331998Y-72120899D02*
X317331998Y-72621298D01*
X95810000Y-163009992D02*
X95810000Y-162508993D01*
X192039991Y-125258795D02*
X192039991Y-125757391D01*
X196948995Y-188642980D02*
X196459989Y-188642980D01*
X207849988Y-122616995D02*
X207349988Y-122616995D01*
X170097989Y-226990988D02*
X169599195Y-226990988D01*
X207346990Y-74616998D02*
X207847989Y-74616998D01*
X317331998Y-161086996D02*
X317331998Y-161585989D01*
X199848989Y-76595299D02*
X199848989Y-76105098D01*
X221101995Y-196123983D02*
X221101995Y-195625982D01*
X169605192Y-54560000D02*
X170104291Y-54560000D01*
X225591993Y-54621900D02*
X226090986Y-54621900D01*
X190042989Y-54560000D02*
X190540990Y-54560000D01*
X301374997Y-227052984D02*
X300874997Y-227052984D01*
X95810000Y-59056679D02*
X95810000Y-58557949D01*
X123736297Y-54560000D02*
X124234699Y-54560000D01*
X213398992Y-170082990D02*
X213398992Y-170579992D01*
X192039991Y-112814195D02*
X192039991Y-113311697D01*
X95810000Y-180999990D02*
X95810000Y-180499990D01*
X317331998Y-108107996D02*
X317331998Y-108608396D01*
X192039991Y-162101995D02*
X192039991Y-162599989D01*
X217729993Y-188642980D02*
X217250989Y-188642980D01*
X95810000Y-101538297D02*
X95810000Y-101038797D01*
X111265499Y-226990988D02*
X110766299Y-226990988D01*
X95810000Y-114528696D02*
X95810000Y-114029897D01*
X293394987Y-227052984D02*
X292895994Y-227052984D01*
X95810000Y-219988989D02*
X95810000Y-219489980D01*
X288413999Y-54621900D02*
X288911985Y-54621900D01*
X95810000Y-133517790D02*
X95810000Y-133017294D01*
X317331998Y-188070989D02*
X317331998Y-188570989D01*
X317331998Y-127101293D02*
X317331998Y-127601293D01*
X95810000Y-60055979D02*
X95810000Y-59556659D01*
X213055990Y-74909899D02*
X213272992Y-75234298D01*
X95810000Y-109032396D02*
X95810000Y-108531797D01*
X95810000Y-58058420D02*
X95810000Y-57559060D01*
X317331998Y-61124280D02*
X317331998Y-61623830D01*
X95810000Y-63555359D02*
X95810000Y-63055149D01*
X118742698Y-226990988D02*
X118244798Y-226990988D01*
X192039991Y-103855196D02*
X192039991Y-104352796D01*
X95810000Y-134516393D02*
X95810000Y-134016889D01*
X95810000Y-193993978D02*
X95810000Y-193492986D01*
X95810000Y-86042598D02*
X95810000Y-85543699D01*
X192039991Y-75391397D02*
X192039991Y-75886497D01*
X317331998Y-163584989D02*
X317331998Y-164084989D01*
X199898992Y-164625990D02*
X199898992Y-164128996D01*
X171593992Y-226990988D02*
X171095594Y-226990988D01*
X199898992Y-167109991D02*
X199898992Y-166612989D01*
X191039991Y-54560000D02*
X191422689Y-54636100D01*
X213898992Y-179527990D02*
X214377988Y-179527990D01*
X192039991Y-217526983D02*
X192039991Y-218024984D01*
X126720098Y-226990988D02*
X126222398Y-226990988D01*
X95810000Y-114029897D02*
X95810000Y-113530195D01*
X192039991Y-116297796D02*
X192039991Y-116795896D01*
X119241298Y-226990988D02*
X118742698Y-226990988D01*
X221101995Y-114309995D02*
X221101995Y-113812197D01*
X194499189Y-179527990D02*
X194989591Y-179527990D01*
X221101995Y-220567983D02*
X221101995Y-220067983D01*
X148664796Y-54560000D02*
X149163297Y-54560000D01*
X209397992Y-159649992D02*
X209898992Y-159649992D01*
X192039991Y-56550270D02*
X192039991Y-57045260D01*
X95810000Y-166006994D02*
X95810000Y-165507993D01*
X192039991Y-210554983D02*
X192039991Y-211052984D01*
X221101995Y-110826696D02*
X221101995Y-110329096D01*
X123730697Y-226990988D02*
X123231397Y-226990988D01*
X317331998Y-168082990D02*
X317331998Y-168582990D01*
X213398992Y-195464987D02*
X213398992Y-195950979D01*
X199848989Y-90302896D02*
X199848989Y-89813795D01*
X95810000Y-87042497D02*
X95810000Y-86542196D01*
X192039991Y-82828598D02*
X192039991Y-83324398D01*
X150158994Y-54560000D02*
X150658098Y-54560000D01*
X317331998Y-162085989D02*
X317331998Y-162585989D01*
X300879987Y-54621900D02*
X301376996Y-54621900D01*
X317331998Y-66621799D02*
X317331998Y-67122000D01*
X199848989Y-87854795D02*
X199848989Y-87365698D01*
X248522992Y-227052984D02*
X248024000Y-227052984D01*
X232069990Y-227052984D02*
X231571988Y-227052984D01*
X192039991Y-65475599D02*
X192039991Y-65971699D01*
X221101995Y-115304796D02*
X221101995Y-114807695D01*
X114256597Y-226990988D02*
X113758098Y-226990988D01*
X317331998Y-65122700D02*
X317331998Y-65622399D01*
X317331998Y-159087995D02*
X317331998Y-159587995D01*
X260487989Y-227052984D02*
X259989988Y-227052984D01*
X221101995Y-166583990D02*
X221101995Y-166086996D01*
X316866987Y-54799600D02*
X317038999Y-54914800D01*
X192039991Y-158121992D02*
X192039991Y-158619993D01*
X95810000Y-76546098D02*
X95810000Y-76047098D01*
X317331998Y-99112795D02*
X317331998Y-99612997D01*
X306858991Y-227052984D02*
X306359998Y-227052984D01*
X317331998Y-102113096D02*
X317331998Y-102612795D01*
X221101995Y-154137991D02*
X221101995Y-153640196D01*
X317331998Y-87119398D02*
X317331998Y-87619097D01*
X317038999Y-226759985D02*
X316714994Y-226976980D01*
X156138997Y-226990988D02*
X155639696Y-226990988D01*
X199848989Y-88833696D02*
X199848989Y-88344297D01*
X114261299Y-54560000D02*
X114759998Y-54560000D01*
X95810000Y-176002989D02*
X95810000Y-175502989D01*
X192039991Y-165586996D02*
X192039991Y-166084989D01*
X199898992Y-170587995D02*
X199898992Y-170090994D01*
X317331998Y-81122099D02*
X317331998Y-81622299D01*
X317331998Y-198568990D02*
X317331998Y-199068990D01*
X95810000Y-153011595D02*
X95810000Y-152511595D01*
X213398992Y-170579992D02*
X213398992Y-171076994D01*
X156637494Y-226990988D02*
X156138997Y-226990988D01*
X95810000Y-130519491D02*
X95810000Y-130020689D01*
X213398992Y-167600996D02*
X213398992Y-168096990D01*
X164113691Y-226990988D02*
X163615293Y-226990988D01*
X192039991Y-61507109D02*
X192039991Y-62002370D01*
X205349988Y-122616995D02*
X204849988Y-122616995D01*
X206349988Y-122616995D02*
X205850995Y-122616995D01*
X265474988Y-227052984D02*
X264975995Y-227052984D01*
X317331998Y-185570989D02*
X317331998Y-186070989D01*
X122232698Y-226990988D02*
X121733898Y-226990988D01*
X199848989Y-106813497D02*
X199848989Y-106319895D01*
X95810000Y-131018896D02*
X95810000Y-130519491D01*
X110270898Y-54560000D02*
X110770198Y-54560000D01*
X164119291Y-54560000D02*
X164618589Y-54560000D01*
X221101995Y-222063986D02*
X221101995Y-221563986D01*
X95810000Y-63055149D02*
X95810000Y-62554930D01*
X287910993Y-227052984D02*
X287411985Y-227052984D01*
X244532987Y-227052984D02*
X244034986Y-227052984D01*
X221101995Y-129241094D02*
X221101995Y-128743192D01*
X192039991Y-84314998D02*
X192039991Y-84810898D01*
X199348989Y-93741796D02*
X199702993Y-93595396D01*
X269461988Y-227052984D02*
X268963987Y-227052984D01*
X237557996Y-54621900D02*
X238056989Y-54621900D01*
X221101995Y-59087219D02*
X221101995Y-58592369D01*
X221101995Y-121278089D02*
X221101995Y-120779890D01*
X169107290Y-54560000D02*
X169605192Y-54560000D01*
X317331998Y-110107397D02*
X317331998Y-110607897D01*
X107280198Y-54560000D02*
X107779299Y-54560000D01*
X97309040Y-226990988D02*
X96810000Y-226990988D01*
X95810000Y-202492986D02*
X95810000Y-201991979D01*
X317331998Y-89618295D02*
X317331998Y-90117998D01*
X182068494Y-54560000D02*
X182566289Y-54560000D01*
X213398992Y-191574987D02*
X213398992Y-192061987D01*
X199898992Y-161147993D02*
X199898992Y-160649992D01*
X213398992Y-203246984D02*
X213398992Y-203733984D01*
X213398992Y-199841985D02*
X213398992Y-200327978D01*
X95810000Y-121524595D02*
X95810000Y-121025495D01*
X208898992Y-207649984D02*
X208398992Y-207649984D01*
X108775799Y-54560000D02*
X109274498Y-54560000D01*
X199898992Y-161644995D02*
X199898992Y-161147993D01*
X213398992Y-200814977D02*
X213398992Y-201301992D01*
X219643995Y-188642980D02*
X219165990Y-188642980D01*
X155141096Y-226990988D02*
X154643197Y-226990988D01*
X101296620Y-226990988D02*
X100798819Y-226990988D01*
X213348989Y-76596899D02*
X213348989Y-77086498D01*
X186054593Y-54560000D02*
X186553396Y-54560000D01*
X192039991Y-189640981D02*
X192039991Y-190138983D01*
X95810000Y-85044199D02*
X95810000Y-84544399D01*
X221101995Y-169072996D02*
X221101995Y-168575994D01*
X194971792Y-93741796D02*
X195457792Y-93741796D01*
X106778098Y-226990988D02*
X106280499Y-226990988D01*
X237058988Y-54621900D02*
X237557996Y-54621900D01*
X221101995Y-66018099D02*
X221101995Y-65522999D01*
X220122991Y-188642980D02*
X219643995Y-188642980D01*
X221101995Y-109830896D02*
X221101995Y-109332598D01*
X213348989Y-89327497D02*
X213348989Y-89817095D01*
X215295995Y-102856996D02*
X214814992Y-102856996D01*
X303368986Y-227052984D02*
X302870984Y-227052984D01*
X317331998Y-176078993D02*
X317331998Y-176578993D01*
X192039991Y-145677694D02*
X192039991Y-146174993D01*
X317331998Y-56622470D02*
X317331998Y-57122700D01*
X95810000Y-181499990D02*
X95810000Y-180999990D01*
X192039991Y-152148191D02*
X192039991Y-152645796D01*
X213348989Y-117666895D02*
X213348989Y-118160497D01*
X317331998Y-87619097D02*
X317331998Y-88119795D01*
X115253599Y-226990988D02*
X114754697Y-226990988D01*
X192039991Y-146672895D02*
X192039991Y-147171392D01*
X317331998Y-206564977D02*
X317331998Y-207064977D01*
X192039991Y-222505987D02*
X192039991Y-223004980D01*
X95810000Y-182999990D02*
X95810000Y-182499990D01*
X95810000Y-212990988D02*
X95810000Y-212490988D01*
X157135297Y-226990988D02*
X156637494Y-226990988D01*
X221101995Y-145669691D02*
X221101995Y-145171591D01*
X221101995Y-134218694D02*
X221101995Y-133719991D01*
X221101995Y-146167394D02*
X221101995Y-145669691D01*
X199848989Y-112244398D02*
X199848989Y-111750795D01*
X317331998Y-112106596D02*
X317331998Y-112606798D01*
X143672098Y-226990988D02*
X143173498Y-226990988D01*
X192039991Y-72910898D02*
X192039991Y-73407497D01*
X221101995Y-220067983D02*
X221101995Y-219568990D01*
X258996992Y-54621900D02*
X259495984Y-54621900D01*
X173588689Y-226990988D02*
X173089994Y-226990988D01*
X95810000Y-162508993D02*
X95810000Y-162009992D01*
X248024000Y-227052984D02*
X247524991Y-227052984D01*
X221101995Y-149652792D02*
X221101995Y-149155592D01*
X95810000Y-168006994D02*
X95810000Y-167506994D01*
X317331998Y-146096395D02*
X317331998Y-146596594D01*
X204348989Y-74616998D02*
X204848989Y-74616998D01*
X213348989Y-114210294D02*
X213348989Y-114704897D01*
X199898992Y-179027990D02*
X199898992Y-178530996D01*
X95810000Y-150511190D02*
X95810000Y-150012289D01*
X192039991Y-103356996D02*
X192039991Y-103855196D01*
X174586393Y-226990988D02*
X174087995Y-226990988D01*
X173095289Y-54560000D02*
X173593389Y-54560000D01*
X213348989Y-103850096D02*
X213348989Y-104343298D01*
X95810000Y-105533598D02*
X95810000Y-105034097D01*
X317331998Y-86619695D02*
X317331998Y-87119398D01*
X187549993Y-226990988D02*
X187051092Y-226990988D01*
X317331998Y-172081991D02*
X317331998Y-172580992D01*
X192039991Y-85802698D02*
X192039991Y-86298599D01*
X233070997Y-54621900D02*
X233568998Y-54621900D01*
X249526990Y-54621900D02*
X250024000Y-54621900D01*
X267974988Y-54621900D02*
X268472989Y-54621900D01*
X132204397Y-226990988D02*
X131705797Y-226990988D01*
X95810000Y-195993978D02*
X95810000Y-195492986D01*
X221101995Y-212086981D02*
X221101995Y-211587988D01*
X317331998Y-139597296D02*
X317331998Y-140097395D01*
X317331998Y-173579992D02*
X317331998Y-174080992D01*
X236057996Y-227052984D02*
X235559995Y-227052984D01*
X138686696Y-226990988D02*
X138188596Y-226990988D01*
X221101995Y-127748594D02*
X221101995Y-127250189D01*
X95810000Y-185498983D02*
X95810000Y-184998983D01*
X95810000Y-171004995D02*
X95810000Y-170504995D01*
X192039991Y-218024984D02*
X192039991Y-218523992D01*
X192039991Y-86794996D02*
X192039991Y-87291395D01*
X221101995Y-170564993D02*
X221101995Y-170066992D01*
X140190797Y-54560000D02*
X140689195Y-54560000D01*
X314836988Y-227052984D02*
X314337995Y-227052984D01*
X141678594Y-226990988D02*
X141180097Y-226990988D01*
X192039991Y-153641592D02*
X192039991Y-154139196D01*
X317331998Y-120603292D02*
X317331998Y-121103895D01*
X317331998Y-124103994D02*
X317331998Y-124603094D01*
X213398992Y-192061987D02*
X213398992Y-192547979D01*
X192039991Y-161106992D02*
X192039991Y-161604994D01*
X192039991Y-66466999D02*
X192039991Y-66963099D01*
X95810000Y-187497991D02*
X95810000Y-186996984D01*
X317331998Y-68122399D02*
X317331998Y-68621699D01*
X118244798Y-226990988D02*
X117745698Y-226990988D01*
X295395994Y-54621900D02*
X295893995Y-54621900D01*
X127722598Y-54560000D02*
X128221597Y-54560000D01*
X95810000Y-181999990D02*
X95810000Y-181499990D01*
X157141397Y-54560000D02*
X157639696Y-54560000D01*
X213494993Y-103003496D02*
X213348989Y-103356996D01*
X305362989Y-227052984D02*
X304864988Y-227052984D01*
X212348989Y-122616995D02*
X211848989Y-122616995D01*
X192039991Y-137213094D02*
X192039991Y-137711393D01*
X216292989Y-179527990D02*
X216770994Y-179527990D01*
X180573789Y-54560000D02*
X181071889Y-54560000D01*
X317331998Y-153590696D02*
X317331998Y-154090894D01*
X192039991Y-74895199D02*
X192039991Y-75391397D01*
X252011991Y-227052984D02*
X251513990Y-227052984D01*
X272950986Y-227052984D02*
X272452985Y-227052984D01*
X207396993Y-159649992D02*
X207897992Y-159649992D01*
X121733898Y-226990988D02*
X121235898Y-226990988D01*
X221101995Y-125756895D02*
X221101995Y-125258795D01*
X95810000Y-93542295D02*
X95810000Y-93041998D01*
X165617292Y-54560000D02*
X166116094Y-54560000D01*
X317331998Y-216058981D02*
X317331998Y-216558981D01*
X95810000Y-119526991D02*
X95810000Y-119027296D01*
X317331998Y-222055990D02*
X317331998Y-222555990D01*
X199898992Y-191087988D02*
X199898992Y-190601980D01*
X162125791Y-54560000D02*
X162624189Y-54560000D01*
X95810000Y-140514990D02*
X95810000Y-140014791D01*
X95810000Y-214990988D02*
X95810000Y-214490988D01*
X133701196Y-226990988D02*
X133202196Y-226990988D01*
X95810000Y-149012792D02*
X95810000Y-148512289D01*
X260992994Y-54621900D02*
X261492994Y-54621900D01*
X213398992Y-178529989D02*
X213398992Y-179027990D01*
X310845991Y-227052984D02*
X310347989Y-227052984D01*
X95810000Y-94042497D02*
X95810000Y-93542295D01*
X95810000Y-124023290D02*
X95810000Y-123524389D01*
X221101995Y-66513599D02*
X221101995Y-66018099D01*
X95810000Y-103534998D02*
X95810000Y-103035394D01*
X220601995Y-179527990D02*
X220954992Y-179380995D01*
X130708597Y-226990988D02*
X130210294Y-226990988D01*
X213348989Y-109277796D02*
X213348989Y-109770395D01*
X211848989Y-122616995D02*
X211347989Y-122616995D01*
X307357999Y-227052984D02*
X306858991Y-227052984D01*
X317331998Y-192069982D02*
X317331998Y-192569982D01*
X180074895Y-54560000D02*
X180573789Y-54560000D01*
X95810000Y-192492986D02*
X95810000Y-191994985D01*
X199898992Y-192058981D02*
X199898992Y-191572988D01*
X199848989Y-117176897D02*
X199848989Y-116684194D01*
X221101995Y-111821897D02*
X221101995Y-111324396D01*
X166108793Y-226990988D02*
X165610296Y-226990988D01*
X200141996Y-122324095D02*
X199924993Y-121999693D01*
X296885999Y-227052984D02*
X296386991Y-227052984D01*
X264484998Y-54621900D02*
X264983991Y-54621900D01*
X192039991Y-225493978D02*
X192039991Y-225990988D01*
X192039991Y-216530981D02*
X192039991Y-217028982D01*
X185555890Y-54560000D02*
X186054593Y-54560000D01*
X317331998Y-125103193D02*
X317331998Y-125601995D01*
X167106092Y-226990988D02*
X166607389Y-226990988D01*
X199848989Y-81490497D02*
X199848989Y-81000198D01*
X221101995Y-190139990D02*
X221101995Y-189640981D01*
X199848989Y-84427599D02*
X199848989Y-83937399D01*
X317331998Y-137098089D02*
X317331998Y-137597593D01*
X223596990Y-227052984D02*
X223098989Y-227052984D01*
X211398992Y-159649992D02*
X211898992Y-159649992D01*
X312840986Y-54621900D02*
X313339994Y-54621900D01*
X120238597Y-226990988D02*
X119739997Y-226990988D01*
X95810000Y-190494985D02*
X95810000Y-189995977D01*
X203849988Y-122616995D02*
X203348989Y-122616995D01*
X137690996Y-226990988D02*
X137191896Y-226990988D01*
X95810000Y-142515791D02*
X95810000Y-142015592D01*
X213544996Y-179380995D02*
X213898992Y-179527990D01*
X317331998Y-219057989D02*
X317331998Y-219556982D01*
X241048993Y-54621900D02*
X241547986Y-54621900D01*
X154647794Y-54560000D02*
X155146795Y-54560000D01*
X192039991Y-175043989D02*
X192039991Y-175541990D01*
X317331998Y-83620699D02*
X317331998Y-84120498D01*
X173089994Y-226990988D02*
X172591993Y-226990988D01*
X306860990Y-54621900D02*
X307359998Y-54621900D01*
X190541494Y-226990988D02*
X190043790Y-226990988D01*
X221101995Y-209590978D02*
X221101995Y-209092977D01*
X199898992Y-173565992D02*
X199898992Y-173068990D01*
X213398992Y-202274984D02*
X213398992Y-202760992D01*
X192039991Y-162599989D02*
X192039991Y-163096990D01*
X195943990Y-93741796D02*
X196430990Y-93741796D01*
X317331998Y-136598791D02*
X317331998Y-137098089D01*
X213398992Y-197896978D02*
X213398992Y-198383978D01*
X317331998Y-207564977D02*
X317331998Y-208064977D01*
X221101995Y-219069982D02*
X221101995Y-218569982D01*
X199898992Y-199841985D02*
X199898992Y-199354986D01*
X192039991Y-202089987D02*
X192039991Y-202587988D01*
X213398992Y-198383978D02*
X213398992Y-198869985D01*
X199848989Y-103356996D02*
X199702993Y-103003496D01*
X117248197Y-226990988D02*
X116750497Y-226990988D01*
X229581998Y-54621900D02*
X230079999Y-54621900D01*
X296390989Y-54621900D02*
X296890989Y-54621900D01*
X95810000Y-214490988D02*
X95810000Y-213990988D01*
X165610296Y-226990988D02*
X165111890Y-226990988D01*
X213398992Y-169585989D02*
X213398992Y-170082990D01*
X95810000Y-141515493D02*
X95810000Y-141015196D01*
X273457990Y-54621900D02*
X273956998Y-54621900D01*
X95810000Y-207990988D02*
X95810000Y-207489980D01*
X317331998Y-225552984D02*
X317331998Y-226052984D01*
X250517988Y-227052984D02*
X250018995Y-227052984D01*
X176581792Y-226990988D02*
X176082891Y-226990988D01*
X221101995Y-133719991D02*
X221101995Y-133221693D01*
X95810000Y-57058870D02*
X95810000Y-56558940D01*
X153147096Y-226990988D02*
X152647897Y-226990988D01*
X192039991Y-65971699D02*
X192039991Y-66466999D01*
X221101995Y-203107992D02*
X221101995Y-202608984D01*
X269960996Y-227052984D02*
X269461988Y-227052984D01*
X317331998Y-174579992D02*
X317331998Y-175080992D01*
X221101995Y-135711790D02*
X221101995Y-135213293D01*
X95810000Y-151511595D02*
X95810000Y-151011694D01*
X221101995Y-112319597D02*
X221101995Y-111821897D01*
X317331998Y-135599096D02*
X317331998Y-136099790D01*
X219642995Y-179527990D02*
X220121992Y-179527990D01*
X317331998Y-199566992D02*
X317331998Y-200065984D01*
X192039991Y-139206396D02*
X192039991Y-139704290D01*
X213398992Y-189628988D02*
X213398992Y-190115988D01*
X221101995Y-165091993D02*
X221101995Y-164594991D01*
X95810000Y-127521993D02*
X95810000Y-127022596D01*
X155645597Y-54560000D02*
X156144197Y-54560000D01*
X192039991Y-69936199D02*
X192039991Y-70432599D01*
X259491987Y-227052984D02*
X258992994Y-227052984D01*
X317331998Y-133100591D02*
X317331998Y-133599493D01*
X95810000Y-198990988D02*
X95810000Y-198492986D01*
X95810000Y-135516493D02*
X95810000Y-135016294D01*
X221101995Y-142680494D02*
X221101995Y-142183096D01*
X95810000Y-222489980D02*
X95810000Y-221988989D01*
X221101995Y-197620977D02*
X221101995Y-197121984D01*
X216292989Y-188642980D02*
X215814992Y-188642980D01*
X133705095Y-54560000D02*
X134203897Y-54560000D01*
X192039991Y-59523790D02*
X192039991Y-60019270D01*
X192039991Y-193124990D02*
X192039991Y-193623983D01*
X221101995Y-169570989D02*
X221101995Y-169072996D01*
X95810000Y-194492986D02*
X95810000Y-193993978D01*
X95810000Y-195492986D02*
X95810000Y-194992986D01*
X279440992Y-54621900D02*
X279939985Y-54621900D01*
X317331998Y-70620899D02*
X317331998Y-71121399D01*
X209898992Y-207649984D02*
X209398992Y-207649984D01*
X95810000Y-129021696D02*
X95810000Y-128521490D01*
X317331998Y-59623460D02*
X317331998Y-60124120D01*
X271954999Y-227052984D02*
X271455991Y-227052984D01*
X221101995Y-207097982D02*
X221101995Y-206598989D01*
X228583997Y-227052984D02*
X228084989Y-227052984D01*
X309849988Y-54621900D02*
X310348997Y-54621900D01*
X206397992Y-159649992D02*
X206897992Y-159649992D01*
X192039991Y-156129995D02*
X192039991Y-156627989D01*
X107276199Y-226990988D02*
X106778098Y-226990988D01*
X95810000Y-97040495D02*
X95810000Y-96540697D01*
X119247798Y-54560000D02*
X119747098Y-54560000D01*
X221101995Y-161110990D02*
X221101995Y-160612989D01*
X167113492Y-54560000D02*
X167611394Y-54560000D01*
X204899991Y-207649984D02*
X204399991Y-207649984D01*
X158631894Y-226990988D02*
X158133195Y-226990988D01*
X221101995Y-206099981D02*
X221101995Y-205601980D01*
X213398992Y-200327978D02*
X213398992Y-200814977D01*
X95810000Y-199490988D02*
X95810000Y-198990988D01*
X317331998Y-121603491D02*
X317331998Y-122104193D01*
X216742994Y-93741796D02*
X217224988Y-93741796D01*
X98305510Y-226990988D02*
X97806960Y-226990988D01*
X221101995Y-149155592D02*
X221101995Y-148657095D01*
X230077985Y-227052984D02*
X229579999Y-227052984D01*
X213398992Y-171572996D02*
X213398992Y-172070989D01*
X305865995Y-54621900D02*
X306363996Y-54621900D01*
X95810000Y-112030695D02*
X95810000Y-111530897D01*
X213398992Y-176542990D02*
X213398992Y-177039991D01*
X95810000Y-155010992D02*
X95810000Y-154511991D01*
X298880994Y-227052984D02*
X298381986Y-227052984D01*
X221101995Y-123267690D02*
X221101995Y-122770490D01*
X181567090Y-226990988D02*
X181068494Y-226990988D01*
X251021985Y-54621900D02*
X251519987Y-54621900D01*
X255002988Y-227052984D02*
X254503995Y-227052984D01*
X317331998Y-134598593D02*
X317331998Y-135098692D01*
X221101995Y-143178396D02*
X221101995Y-142680494D01*
X221101995Y-178529989D02*
X221101995Y-178031996D01*
X289410993Y-54621900D02*
X289910993Y-54621900D01*
X221101995Y-74928499D02*
X221101995Y-74434398D01*
X316331998Y-54621900D02*
X316714994Y-54698000D01*
X313838987Y-227052984D02*
X313339994Y-227052984D01*
X221101995Y-158618994D02*
X221101995Y-158120992D01*
X317331998Y-62622259D02*
X317331998Y-63121849D01*
X317331998Y-206064977D02*
X317331998Y-206564977D01*
X161123594Y-226990988D02*
X160624891Y-226990988D01*
X213348989Y-88348196D02*
X213348989Y-88838197D01*
X317331998Y-142598394D02*
X317331998Y-143098394D01*
X192039991Y-177036993D02*
X192039991Y-177534994D01*
X317331998Y-103112398D02*
X317331998Y-103611696D01*
X233568998Y-54621900D02*
X234067991Y-54621900D01*
X207349988Y-122616995D02*
X206849988Y-122616995D01*
X95810000Y-209491979D02*
X95810000Y-208991979D01*
X184558095Y-226990988D02*
X184058790Y-226990988D01*
X116255998Y-54560000D02*
X116754398Y-54560000D01*
X221101995Y-224058981D02*
X221101995Y-223560980D01*
X221101995Y-160114996D02*
X221101995Y-159615995D01*
X95810000Y-200490988D02*
X95810000Y-199990988D01*
X102793539Y-54560000D02*
X103291940Y-54560000D01*
X213322996Y-160266996D02*
X213398992Y-160649992D01*
X195457792Y-93741796D02*
X195943990Y-93741796D01*
X161627591Y-54560000D02*
X162125791Y-54560000D01*
X95810000Y-210491979D02*
X95810000Y-209991979D01*
X213348989Y-84921398D02*
X213348989Y-85410799D01*
X192039991Y-122768293D02*
X192039991Y-123266889D01*
X213348989Y-113223295D02*
X213348989Y-113717294D01*
X221101995Y-78393698D02*
X221101995Y-77899297D01*
X95810000Y-69549699D02*
X95810000Y-69049699D01*
X200515989Y-207573980D02*
X200191991Y-207356985D01*
X110770198Y-54560000D02*
X111268198Y-54560000D01*
X95810000Y-118527593D02*
X95810000Y-118027895D01*
X199848989Y-115203596D02*
X199848989Y-114710596D01*
X150658098Y-54560000D02*
X151156396Y-54560000D01*
X199898992Y-176047994D02*
X199898992Y-175551992D01*
X221101995Y-170066992D02*
X221101995Y-169570989D01*
X192039991Y-205576986D02*
X192039991Y-206073980D01*
X221101995Y-70969398D02*
X221101995Y-70473999D01*
X191422689Y-226914984D02*
X191039991Y-226990988D01*
X317331998Y-124603094D02*
X317331998Y-125103193D01*
X211848989Y-74616998D02*
X212348989Y-74616998D01*
X221101995Y-165588995D02*
X221101995Y-165091993D01*
X221101995Y-91263597D02*
X221101995Y-90767896D01*
X108277199Y-54560000D02*
X108775799Y-54560000D01*
X184558393Y-54560000D02*
X185057088Y-54560000D01*
X317331998Y-115605695D02*
X317331998Y-116104894D01*
X198907995Y-188642980D02*
X198418989Y-188642980D01*
X95810000Y-177002989D02*
X95810000Y-176503996D01*
X95810000Y-101038797D02*
X95810000Y-100539396D01*
X317331998Y-164084989D02*
X317331998Y-164583990D01*
X221101995Y-223560980D02*
X221101995Y-223061987D01*
X179074193Y-226990988D02*
X178575490Y-226990988D01*
X271455991Y-227052984D02*
X270957990Y-227052984D01*
X214378995Y-188642980D02*
X213898992Y-188642980D01*
X238056989Y-54621900D02*
X238554990Y-54621900D01*
X317331998Y-145096792D02*
X317331998Y-145595793D01*
X95810000Y-194992986D02*
X95810000Y-194492986D01*
X192039991Y-223004980D02*
X192039991Y-223502981D01*
X177083692Y-54560000D02*
X177582090Y-54560000D01*
X221101995Y-151147192D02*
X221101995Y-150648695D01*
X194484891Y-93741796D02*
X194971792Y-93741796D01*
X213398992Y-194007986D02*
X213398992Y-194493978D01*
X264983991Y-54621900D02*
X265482999Y-54621900D01*
X192039991Y-193623983D02*
X192039991Y-194121984D01*
X213348989Y-87858595D02*
X213348989Y-88348196D01*
X149652997Y-226990988D02*
X149154695Y-226990988D01*
X95810000Y-220988989D02*
X95810000Y-220488989D01*
X248029996Y-54621900D02*
X248528989Y-54621900D01*
X229081998Y-227052984D02*
X228583997Y-227052984D01*
X199848989Y-120630689D02*
X199848989Y-120137594D01*
X192039991Y-87787695D02*
X192039991Y-88283598D01*
X95810000Y-215490988D02*
X95810000Y-214990988D01*
X95810000Y-168506994D02*
X95810000Y-168006994D01*
X192039991Y-121771490D02*
X192039991Y-122269796D01*
X258992994Y-227052984D02*
X258493986Y-227052984D01*
X221101995Y-137703489D02*
X221101995Y-137204992D01*
X95810000Y-130020689D02*
X95810000Y-129520796D01*
X192039991Y-169567991D02*
X192039991Y-170064993D01*
X192039991Y-222006979D02*
X192039991Y-222505987D01*
X191963895Y-226373983D02*
X191747091Y-226697988D01*
X95810000Y-161508993D02*
X95810000Y-161009992D01*
X95810000Y-135016294D02*
X95810000Y-134516393D01*
X317331998Y-212562979D02*
X317331998Y-213062979D01*
X199898992Y-174558996D02*
X199898992Y-174062994D01*
X191039991Y-226990988D02*
X190541494Y-226990988D01*
X317331998Y-111107694D02*
X317331998Y-111606897D01*
X295888990Y-227052984D02*
X295389997Y-227052984D01*
X221101995Y-67504299D02*
X221101995Y-67008799D01*
X317331998Y-155089994D02*
X317331998Y-155589994D01*
X221101995Y-226052984D02*
X221101995Y-225553991D01*
X291400998Y-227052984D02*
X290901990Y-227052984D01*
X217729993Y-179527990D02*
X218206991Y-179527990D01*
X256006986Y-54621900D02*
X256503995Y-54621900D01*
X192039991Y-56055440D02*
X192039991Y-56550270D01*
X152653394Y-54560000D02*
X153151395Y-54560000D01*
X125729898Y-54560000D02*
X126227897Y-54560000D01*
X199898992Y-178530996D02*
X199898992Y-178034994D01*
X199898992Y-173068990D02*
X199898992Y-172572996D01*
X221101995Y-90767896D02*
X221101995Y-90273096D01*
X238052991Y-227052984D02*
X237553998Y-227052984D01*
X106280499Y-226990988D02*
X105781498Y-226990988D01*
X315335996Y-227052984D02*
X314836988Y-227052984D01*
X285916990Y-227052984D02*
X285418989Y-227052984D01*
X202348989Y-74616998D02*
X202848989Y-74616998D01*
X272452985Y-227052984D02*
X271954999Y-227052984D01*
X199848989Y-108294397D02*
X199848989Y-107800398D01*
X192039991Y-61011520D02*
X192039991Y-61507109D01*
X198907995Y-179527990D02*
X199398992Y-179527990D01*
X317331998Y-150093893D02*
X317331998Y-150593992D01*
X192039991Y-139704290D02*
X192039991Y-140201696D01*
X210348989Y-122616995D02*
X209848989Y-122616995D01*
X220118993Y-93741796D02*
X220601995Y-93741796D01*
X95810000Y-80046999D02*
X95810000Y-79546898D01*
X213348989Y-104343298D02*
X213348989Y-104836397D01*
X192039991Y-194121984D02*
X192039991Y-194618978D01*
X252516996Y-54621900D02*
X253014997Y-54621900D01*
X192039991Y-60019270D02*
X192039991Y-60515469D01*
X198418989Y-188642980D02*
X197929990Y-188642980D01*
X246035993Y-54621900D02*
X246533994Y-54621900D01*
X213398992Y-167104994D02*
X213398992Y-167600996D01*
X192039991Y-142691190D02*
X192039991Y-143189794D01*
X213348989Y-90306597D02*
X213348989Y-90795995D01*
X213398992Y-195950979D02*
X213398992Y-196437979D01*
X95810000Y-164507993D02*
X95810000Y-164008993D01*
X140689195Y-54560000D02*
X141186796Y-54560000D01*
X233066999Y-227052984D02*
X232567991Y-227052984D01*
X192039991Y-209559988D02*
X192039991Y-210056982D01*
X128719297Y-54560000D02*
X129218095Y-54560000D01*
X95810000Y-163508993D02*
X95810000Y-163009992D01*
X307857999Y-54621900D02*
X308355985Y-54621900D01*
X199398992Y-188642980D02*
X198907995Y-188642980D01*
X185057088Y-54560000D02*
X185555890Y-54560000D01*
X221101995Y-203606985D02*
X221101995Y-203107992D01*
X95810000Y-203493978D02*
X95810000Y-202992986D01*
X199898992Y-198868978D02*
X199898992Y-198382986D01*
X215814992Y-188642980D02*
X215335988Y-188642980D01*
X221101995Y-86810095D02*
X221101995Y-86315498D01*
X109772998Y-54560000D02*
X110270898Y-54560000D01*
X317331998Y-101613294D02*
X317331998Y-102113096D01*
X253014997Y-54621900D02*
X253512998Y-54621900D01*
X317331998Y-164583990D02*
X317331998Y-165084989D01*
X225093992Y-54621900D02*
X225591993Y-54621900D01*
X199898992Y-162637991D02*
X199898992Y-162140989D01*
X199898992Y-190601980D02*
X199898992Y-190114980D01*
X95810000Y-126023290D02*
X95810000Y-125523390D01*
X95810000Y-95041498D02*
X95810000Y-94542196D01*
X317331998Y-182071989D02*
X317331998Y-182571981D01*
X95810000Y-113029695D02*
X95810000Y-112529794D01*
X250024000Y-54621900D02*
X250522992Y-54621900D01*
X199848989Y-104838796D02*
X199848989Y-104345796D01*
X192039991Y-128246794D02*
X192039991Y-128744589D01*
X221101995Y-175044996D02*
X221101995Y-174545995D01*
X289910993Y-54621900D02*
X290409986Y-54621900D01*
X95810000Y-223488989D02*
X95810000Y-222989980D01*
X95810000Y-99541097D02*
X95810000Y-99041197D01*
X221101995Y-65522999D02*
X221101995Y-65028299D01*
X194009092Y-179527990D02*
X194499189Y-179527990D01*
X95810000Y-184998983D02*
X95810000Y-184499990D01*
X215777990Y-93741796D02*
X216260991Y-93741796D01*
X317331998Y-78119299D02*
X317331998Y-78619499D01*
X95810000Y-78546798D02*
X95810000Y-78046299D01*
X199848989Y-82959497D02*
X199848989Y-82469198D01*
X302870984Y-227052984D02*
X302371992Y-227052984D01*
X172596395Y-54560000D02*
X173095289Y-54560000D01*
X298381986Y-227052984D02*
X297883985Y-227052984D01*
X231075986Y-54621900D02*
X231574994Y-54621900D01*
X317331998Y-184571981D02*
X317331998Y-185071981D01*
X192039991Y-208563986D02*
X192039991Y-209061987D01*
X201899991Y-159649992D02*
X202398992Y-159649992D01*
X207847989Y-74616998D02*
X208347989Y-74616998D01*
X95810000Y-222989980D02*
X95810000Y-222489980D01*
X213348989Y-79044998D02*
X213348989Y-79534899D01*
X317331998Y-186570989D02*
X317331998Y-187070989D01*
X169599195Y-226990988D02*
X169100995Y-226990988D01*
X317331998Y-60623880D02*
X317331998Y-61124280D01*
X219155996Y-102856996D02*
X218672994Y-102856996D01*
X146164297Y-226990988D02*
X145666196Y-226990988D01*
X288408994Y-227052984D02*
X287910993Y-227052984D01*
X116750497Y-226990988D02*
X116251098Y-226990988D01*
X192039991Y-104851095D02*
X192039991Y-105348997D01*
X95810000Y-92541498D02*
X95810000Y-92041197D01*
X192039991Y-172055990D02*
X192039991Y-172553991D01*
X127218597Y-226990988D02*
X126720098Y-226990988D01*
X192039991Y-159613989D02*
X192039991Y-160112989D01*
X192539991Y-188642980D02*
X192186391Y-188788992D01*
X317331998Y-138597090D02*
X317331998Y-139097090D01*
X221101995Y-162106992D02*
X221101995Y-161607992D01*
X205847989Y-74616998D02*
X206347989Y-74616998D01*
X221101995Y-68493999D02*
X221101995Y-67999899D01*
X272958997Y-54621900D02*
X273457990Y-54621900D01*
X158638097Y-54560000D02*
X159136094Y-54560000D01*
X221101995Y-79878599D02*
X221101995Y-79383798D01*
X105286139Y-54560000D02*
X105783799Y-54560000D01*
X106781498Y-54560000D02*
X107280198Y-54560000D01*
X192039991Y-171557989D02*
X192039991Y-172055990D01*
X317331998Y-110607897D02*
X317331998Y-111107694D01*
X95810000Y-109531397D02*
X95810000Y-109032396D01*
X317331998Y-123603590D02*
X317331998Y-124103994D01*
X192039991Y-141695196D02*
X192039991Y-142192892D01*
X199898992Y-194490988D02*
X199898992Y-194004980D01*
X317331998Y-143598295D02*
X317331998Y-144097990D01*
X221101995Y-195127981D02*
X221101995Y-194628988D01*
X221101995Y-161607992D02*
X221101995Y-161110990D01*
X199848989Y-81000198D02*
X199848989Y-80510698D01*
X280438993Y-54621900D02*
X280937986Y-54621900D01*
X221101995Y-132226995D02*
X221101995Y-131729589D01*
X199924993Y-75234298D02*
X200141996Y-74909899D01*
X317331998Y-175578993D02*
X317331998Y-176078993D01*
X317331998Y-151093389D02*
X317331998Y-151592191D01*
X256503995Y-54621900D02*
X257002988Y-54621900D01*
X236559995Y-54621900D02*
X237058988Y-54621900D01*
X95810000Y-83044199D02*
X95810000Y-82544399D01*
X221394994Y-54914800D02*
X221718992Y-54698000D01*
X95810000Y-177501989D02*
X95810000Y-177002989D01*
X199898992Y-199354986D02*
X199898992Y-198868978D01*
X221101995Y-115802297D02*
X221101995Y-115304796D01*
X317331998Y-207064977D02*
X317331998Y-207564977D01*
X213348989Y-86389599D02*
X213348989Y-86878996D01*
X104786059Y-226990988D02*
X104288128Y-226990988D01*
X192039991Y-128744589D02*
X192039991Y-129242895D01*
X221101995Y-116798097D02*
X221101995Y-116300096D01*
X213398992Y-178032995D02*
X213398992Y-178529989D01*
X317331998Y-148095091D02*
X317331998Y-148595594D01*
X317331998Y-64622399D02*
X317331998Y-65122700D01*
X192039991Y-70432599D02*
X192039991Y-70927799D01*
X317331998Y-98612795D02*
X317331998Y-99112795D01*
X193030889Y-188642980D02*
X192539991Y-188642980D01*
X105283709Y-226990988D02*
X104786059Y-226990988D01*
X221101995Y-163102995D02*
X221101995Y-162603994D01*
X209898992Y-159649992D02*
X210398992Y-159649992D01*
X221101995Y-64534099D02*
X221101995Y-64038999D01*
X221101995Y-87799295D02*
X221101995Y-87304495D01*
X213398992Y-190602987D02*
X213398992Y-191088979D01*
X95810000Y-175502989D02*
X95810000Y-175002989D01*
X283923993Y-227052984D02*
X283424985Y-227052984D01*
X213398992Y-168096990D02*
X213398992Y-168593992D01*
X220601995Y-102856996D02*
X220118993Y-102856996D01*
X221101995Y-77404798D02*
X221101995Y-76910599D01*
X199898992Y-201298986D02*
X199898992Y-200812979D01*
X95810000Y-211990988D02*
X95810000Y-211490988D01*
X95810000Y-183499990D02*
X95810000Y-182999990D01*
X95810000Y-66553799D02*
X95810000Y-66054199D01*
X95810000Y-61056100D02*
X95810000Y-60556179D01*
X315334989Y-54621900D02*
X315832990Y-54621900D01*
X317331998Y-113106294D02*
X317331998Y-113606096D01*
X221101995Y-143676595D02*
X221101995Y-143178396D01*
X317331998Y-127601293D02*
X317331998Y-128101995D01*
X213348989Y-116679598D02*
X213348989Y-117173597D01*
X199702993Y-103003496D02*
X199348989Y-102856996D01*
X192039991Y-131237592D02*
X192039991Y-131736089D01*
X132210294Y-54560000D02*
X132708894Y-54560000D01*
X192039991Y-196612982D02*
X192039991Y-197110983D01*
X160624891Y-226990988D02*
X160127393Y-226990988D01*
X191422689Y-54636100D02*
X191747091Y-54852900D01*
X317331998Y-175080992D02*
X317331998Y-175578993D01*
X317331998Y-118603391D02*
X317331998Y-119103796D01*
X221101995Y-62553699D02*
X221101995Y-62058140D01*
X252510999Y-227052984D02*
X252011991Y-227052984D01*
X152154195Y-54560000D02*
X152653394Y-54560000D01*
X199848989Y-83448099D02*
X199848989Y-82959497D01*
X199898992Y-171579992D02*
X199898992Y-171083990D01*
X192039991Y-68449799D02*
X192039991Y-68945299D01*
X312342985Y-54621900D02*
X312840986Y-54621900D01*
X317331998Y-130601194D02*
X317331998Y-131101690D01*
X128713895Y-226990988D02*
X128215795Y-226990988D01*
X194990194Y-188642980D02*
X194500394Y-188642980D01*
X199848989Y-113724096D02*
X199848989Y-113230795D01*
X219164991Y-179527990D02*
X219642995Y-179527990D01*
X192039991Y-215534979D02*
X192039991Y-216032980D01*
X221101995Y-111324396D02*
X221101995Y-110826696D01*
X192039991Y-143189794D02*
X192039991Y-143686994D01*
X212398992Y-159649992D02*
X212781995Y-159725996D01*
X218206991Y-179527990D02*
X218685995Y-179527990D01*
X311843992Y-227052984D02*
X311344999Y-227052984D01*
X95810000Y-64055269D02*
X95810000Y-63555359D01*
X222600995Y-227052984D02*
X222101995Y-227052984D01*
X275443998Y-227052984D02*
X274944990Y-227052984D01*
X221101995Y-71464998D02*
X221101995Y-70969398D01*
X317331998Y-63121849D02*
X317331998Y-63621749D01*
X152148595Y-226990988D02*
X151649194Y-226990988D01*
X137191896Y-226990988D02*
X136693597Y-226990988D01*
X95810000Y-104535097D02*
X95810000Y-104035295D01*
X192039991Y-172553991D02*
X192039991Y-173051992D01*
X213398992Y-166608991D02*
X213398992Y-167104994D01*
X239548993Y-227052984D02*
X239049985Y-227052984D01*
X192186391Y-103003496D02*
X192039991Y-103356996D01*
X213398992Y-160649992D02*
X213398992Y-161145994D01*
X97806210Y-54560000D02*
X98304610Y-54560000D01*
X199898992Y-167606992D02*
X199898992Y-167109991D01*
X259495984Y-54621900D02*
X259994993Y-54621900D01*
X226588987Y-227052984D02*
X226090986Y-227052984D01*
X317331998Y-174080992D02*
X317331998Y-174579992D01*
X192039991Y-132234190D02*
X192039991Y-132731992D01*
X221101995Y-117794595D02*
X221101995Y-117296697D01*
X136194196Y-226990988D02*
X135695794Y-226990988D01*
X95810000Y-148512289D02*
X95810000Y-148013395D01*
X192039991Y-190635992D02*
X192039991Y-191132986D01*
X221101995Y-60076989D02*
X221101995Y-59582179D01*
X293893995Y-227052984D02*
X293394987Y-227052984D01*
X95810000Y-116027796D02*
X95810000Y-115527696D01*
X208348989Y-122616995D02*
X207849988Y-122616995D01*
X285922986Y-54621900D02*
X286421995Y-54621900D01*
X192039991Y-107838598D02*
X192039991Y-108336797D01*
X221101995Y-122271993D02*
X221101995Y-121774992D01*
X192039991Y-105348997D02*
X192039991Y-105847498D01*
X317331998Y-172580992D02*
X317331998Y-173080992D01*
X317331998Y-183071981D02*
X317331998Y-183571981D01*
X95810000Y-90042394D02*
X95810000Y-89543195D01*
X143181096Y-54560000D02*
X143680097Y-54560000D01*
X192039991Y-82332298D02*
X192039991Y-82828598D01*
X95810000Y-219489980D02*
X95810000Y-218990988D01*
X196916990Y-102856996D02*
X196430990Y-102856996D01*
X217249990Y-179527990D02*
X217729993Y-179527990D01*
X221101995Y-194129980D02*
X221101995Y-193630987D01*
X192039991Y-212048986D02*
X192039991Y-212546987D01*
X308853986Y-54621900D02*
X309351987Y-54621900D01*
X192039991Y-111322695D02*
X192039991Y-111819895D01*
X192039991Y-176040991D02*
X192039991Y-176538992D01*
X317331998Y-166584989D02*
X317331998Y-167083990D01*
X100300010Y-54560000D02*
X100798920Y-54560000D01*
X310847989Y-54621900D02*
X311345991Y-54621900D01*
X95810000Y-74548399D02*
X95810000Y-74047998D01*
X317331998Y-180074995D02*
X317331998Y-180573995D01*
X221101995Y-107839296D02*
X221101995Y-107341196D01*
X202347989Y-122616995D02*
X201848989Y-122616995D01*
X172591993Y-226990988D02*
X172092389Y-226990988D01*
X213272992Y-75234298D02*
X213348989Y-75616998D01*
X95810000Y-128521490D02*
X95810000Y-128022192D01*
X95810000Y-211490988D02*
X95810000Y-210991979D01*
X304864988Y-227052984D02*
X304365995Y-227052984D01*
X213398992Y-165614996D02*
X213398992Y-166110990D01*
X317331998Y-119103796D02*
X317331998Y-119603094D01*
X245038999Y-54621900D02*
X245536985Y-54621900D01*
X95810000Y-104035295D02*
X95810000Y-103534998D01*
X317331998Y-142098295D02*
X317331998Y-142598394D01*
X199924993Y-121999693D02*
X199848989Y-121616995D01*
X95810000Y-77546098D02*
X95810000Y-77046697D01*
X258493986Y-227052984D02*
X257994993Y-227052984D01*
X192039991Y-130240095D02*
X192039991Y-130738889D01*
X199898992Y-178034994D02*
X199898992Y-177538992D01*
X317331998Y-223553991D02*
X317331998Y-224053991D01*
X194010190Y-188642980D02*
X193520688Y-188642980D01*
X144169896Y-226990988D02*
X143672098Y-226990988D01*
X295389997Y-227052984D02*
X294890989Y-227052984D01*
X247032987Y-54621900D02*
X247531995Y-54621900D01*
X317331998Y-166084989D02*
X317331998Y-166584989D01*
X192039991Y-164092993D02*
X192039991Y-164589994D01*
X95810000Y-216489980D02*
X95810000Y-215990988D01*
X316714994Y-226976980D02*
X316331998Y-227052984D01*
X213348989Y-89817095D02*
X213348989Y-90306597D01*
X174091894Y-54560000D02*
X174590093Y-54560000D01*
X126227897Y-54560000D02*
X126726398Y-54560000D01*
X213848989Y-93741796D02*
X214331991Y-93741796D01*
X194486089Y-102856996D02*
X193999494Y-102856996D01*
X192039991Y-109830198D02*
X192039991Y-110327596D01*
X95810000Y-127022596D02*
X95810000Y-126522489D01*
X112760997Y-226990988D02*
X112262298Y-226990988D01*
X317331998Y-99612997D02*
X317331998Y-100113096D01*
X95810000Y-154011595D02*
X95810000Y-153510893D01*
X227088987Y-54621900D02*
X227587995Y-54621900D01*
X192039991Y-200097982D02*
X192039991Y-200595983D01*
X221101995Y-177035993D02*
X221101995Y-176536993D01*
X202898992Y-159649992D02*
X203398992Y-159649992D01*
X192039991Y-64979299D02*
X192039991Y-65475599D01*
X213348989Y-81493198D02*
X213348989Y-81983598D01*
X317331998Y-156088995D02*
X317331998Y-156589994D01*
X317331998Y-73622299D02*
X317331998Y-74122497D01*
X95810000Y-92041197D02*
X95810000Y-91541197D01*
X201898992Y-207649984D02*
X201398992Y-207649984D01*
X130714696Y-54560000D02*
X131212495Y-54560000D01*
X181068494Y-226990988D02*
X180569791Y-226990988D01*
X299379987Y-227052984D02*
X298880994Y-227052984D01*
X192039991Y-198108984D02*
X192039991Y-198605978D01*
X289904996Y-227052984D02*
X289405988Y-227052984D01*
X265482999Y-54621900D02*
X265980985Y-54621900D01*
X213055990Y-122324095D02*
X212731992Y-122540891D01*
X227086988Y-227052984D02*
X226588987Y-227052984D01*
X279436994Y-227052984D02*
X278937986Y-227052984D01*
X317331998Y-71121399D02*
X317331998Y-71620899D01*
X213398992Y-161145994D02*
X213398992Y-161642996D01*
X210898992Y-207649984D02*
X210398992Y-207649984D01*
X317331998Y-93115797D02*
X317331998Y-93615297D01*
X317331998Y-144597494D02*
X317331998Y-145096792D01*
X109269598Y-226990988D02*
X108770898Y-226990988D01*
X204898992Y-159649992D02*
X205397992Y-159649992D01*
X168102895Y-226990988D02*
X167604589Y-226990988D01*
X95810000Y-170005995D02*
X95810000Y-169505995D01*
X221101995Y-107341196D02*
X221101995Y-106842695D01*
X95810000Y-156509992D02*
X95810000Y-156010992D01*
X192039991Y-154635992D02*
X192039991Y-155134992D01*
X116754398Y-54560000D02*
X117252698Y-54560000D01*
X217225995Y-102856996D02*
X216742994Y-102856996D01*
X230575986Y-227052984D02*
X230077985Y-227052984D01*
X95810000Y-120526090D02*
X95810000Y-120026594D01*
X317331998Y-116104894D02*
X317331998Y-116605497D01*
X95810000Y-152010793D02*
X95810000Y-151511595D01*
X95810000Y-82544399D02*
X95810000Y-82045599D01*
X129711397Y-226990988D02*
X129211896Y-226990988D01*
X221101995Y-119784689D02*
X221101995Y-119287390D01*
X214813993Y-93741796D02*
X215294996Y-93741796D01*
X141685697Y-54560000D02*
X142183797Y-54560000D01*
X221101995Y-59582179D02*
X221101995Y-59087219D01*
X192039991Y-88283598D02*
X192039991Y-88779398D01*
X301873990Y-227052984D02*
X301374997Y-227052984D01*
X192039991Y-72414198D02*
X192039991Y-72910898D01*
X95810000Y-204991979D02*
X95810000Y-204492986D01*
X213544996Y-188788992D02*
X213398992Y-189142980D01*
X213348989Y-121616995D02*
X213272992Y-121999693D01*
X317331998Y-188570989D02*
X317331998Y-189070989D01*
X158138597Y-54560000D02*
X158638097Y-54560000D01*
X267468992Y-227052984D02*
X266969999Y-227052984D01*
X151156396Y-54560000D02*
X151655797Y-54560000D01*
X199898992Y-193031988D02*
X199898992Y-192545980D01*
X243536985Y-227052984D02*
X243037992Y-227052984D01*
X103790189Y-226990988D02*
X103291630Y-226990988D01*
X199848989Y-80510698D02*
X199848989Y-80020597D01*
X299383985Y-54621900D02*
X299881986Y-54621900D01*
X192039991Y-87291395D02*
X192039991Y-87787695D01*
X96810000Y-54560000D02*
X97308500Y-54560000D01*
X317331998Y-167083990D02*
X317331998Y-167582990D01*
X95810000Y-115527696D02*
X95810000Y-115027998D01*
X95810000Y-182499990D02*
X95810000Y-181999990D01*
X192039991Y-116795896D02*
X192039991Y-117292795D01*
X99801820Y-226990988D02*
X99302850Y-226990988D01*
X270458997Y-227052984D02*
X269960996Y-227052984D01*
X277939985Y-227052984D02*
X277439985Y-227052984D01*
X192039991Y-218523992D02*
X192039991Y-219021978D01*
X226090986Y-54621900D02*
X226589994Y-54621900D01*
X95810000Y-175002989D02*
X95810000Y-174503996D01*
X220118993Y-102856996D02*
X219636991Y-102856996D01*
X99302870Y-54560000D02*
X99801930Y-54560000D01*
X219165990Y-188642980D02*
X218686994Y-188642980D01*
X95810000Y-202992986D02*
X95810000Y-202492986D01*
X221101995Y-60572009D02*
X221101995Y-60076989D01*
X317255994Y-226435980D02*
X317038999Y-226759985D01*
X105783799Y-54560000D02*
X106282898Y-54560000D01*
X213398992Y-196437979D02*
X213398992Y-196923986D01*
X101795410Y-226990988D02*
X101296620Y-226990988D01*
X182566289Y-54560000D02*
X183063894Y-54560000D01*
X221101995Y-129738989D02*
X221101995Y-129241094D01*
X269469999Y-54621900D02*
X269967985Y-54621900D01*
X198861989Y-102856996D02*
X198375989Y-102856996D01*
X221101995Y-82847198D02*
X221101995Y-82352697D01*
X221101995Y-62058140D02*
X221101995Y-61562569D01*
X95810000Y-112529794D02*
X95810000Y-112030695D01*
X317331998Y-205066992D02*
X317331998Y-205565984D01*
X125724197Y-226990988D02*
X125225797Y-226990988D01*
X268464994Y-227052984D02*
X267965986Y-227052984D01*
X95810000Y-56558940D02*
X95810000Y-56059750D01*
X213348989Y-92263597D02*
X213348989Y-92753694D01*
X192039991Y-92747198D02*
X192039991Y-93241796D01*
X213348989Y-83941198D02*
X213348989Y-84431198D01*
X168608693Y-54560000D02*
X169107290Y-54560000D01*
X144676496Y-54560000D02*
X145175695Y-54560000D01*
X192039991Y-86298599D02*
X192039991Y-86794996D01*
X213322996Y-207032980D02*
X213105993Y-207356985D01*
X214856992Y-188642980D02*
X214378995Y-188642980D01*
X317331998Y-121103895D02*
X317331998Y-121603491D01*
X277445997Y-54621900D02*
X277944990Y-54621900D01*
X192039991Y-131736089D02*
X192039991Y-132234190D01*
X95810000Y-191994985D02*
X95810000Y-191494985D01*
X213348989Y-80514498D02*
X213348989Y-81003998D01*
X199848989Y-110763696D02*
X199848989Y-110269098D01*
X95810000Y-190993978D02*
X95810000Y-190494985D01*
X192039991Y-190138983D02*
X192039991Y-190635992D01*
X192039991Y-178529989D02*
X192039991Y-179027990D01*
X192039991Y-191132986D02*
X192039991Y-191630987D01*
X202398992Y-159649992D02*
X202898992Y-159649992D01*
X317331998Y-141097891D02*
X317331998Y-141598089D01*
X213398992Y-206649984D02*
X213322996Y-207032980D01*
X212348989Y-74616998D02*
X212731992Y-74693098D01*
X204848989Y-74616998D02*
X205347989Y-74616998D01*
X218189992Y-102856996D02*
X217707990Y-102856996D01*
X192039991Y-138209791D02*
X192039991Y-138708189D01*
X291899000Y-227052984D02*
X291400998Y-227052984D01*
D11*
%TO.C,LLED25*%
X118950000Y-62705000D02*
X122250000Y-62705000D01*
X118950000Y-66405000D02*
X118950000Y-62705000D01*
X122250000Y-62705000D02*
X122250000Y-66405000D01*
X122250000Y-66405000D02*
X118950000Y-66405000D01*
%TO.C,RLED27*%
X291241887Y-172347889D02*
X294541887Y-172347889D01*
X291241887Y-176047889D02*
X291241887Y-172347889D01*
X294541887Y-172347889D02*
X294541887Y-176047889D01*
X294541887Y-176047889D02*
X291241887Y-176047889D01*
%TO.C,RLED39*%
X310301887Y-88977889D02*
X313601887Y-88977889D01*
X310301887Y-92677889D02*
X310301887Y-88977889D01*
X313601887Y-88977889D02*
X313601887Y-92677889D01*
X313601887Y-92677889D02*
X310301887Y-92677889D01*
%TO.C,RLED2*%
X234091887Y-196127889D02*
X237391887Y-196127889D01*
X234091887Y-199827889D02*
X234091887Y-196127889D01*
X237391887Y-196127889D02*
X237391887Y-199827889D01*
X237391887Y-199827889D02*
X234091887Y-199827889D01*
%TO.C,RLED11*%
X253151887Y-167567889D02*
X256451887Y-167567889D01*
X253151887Y-171267889D02*
X253151887Y-167567889D01*
X256451887Y-167567889D02*
X256451887Y-171267889D01*
X256451887Y-171267889D02*
X253151887Y-171267889D01*
%TO.C,LLED6*%
X175790000Y-172245000D02*
X179090000Y-172245000D01*
X175790000Y-175945000D02*
X175790000Y-172245000D01*
X179090000Y-172245000D02*
X179090000Y-175945000D01*
X179090000Y-175945000D02*
X175790000Y-175945000D01*
%TO.C,LLED10*%
X156720000Y-100824000D02*
X160020000Y-100824000D01*
X156720000Y-104524000D02*
X156720000Y-100824000D01*
X160020000Y-100824000D02*
X160020000Y-104524000D01*
X160020000Y-104524000D02*
X156720000Y-104524000D01*
%TO.C,RLED32*%
X291241887Y-62782889D02*
X294541887Y-62782889D01*
X291241887Y-66482889D02*
X291241887Y-62782889D01*
X294541887Y-62782889D02*
X294541887Y-66482889D01*
X294541887Y-66482889D02*
X291241887Y-66482889D01*
%TO.C,RLED36*%
X310281887Y-146127889D02*
X313581887Y-146127889D01*
X310281887Y-149827889D02*
X310281887Y-146127889D01*
X313581887Y-146127889D02*
X313581887Y-149827889D01*
X313581887Y-149827889D02*
X310281887Y-149827889D01*
%TO.C,LLED18*%
X137680000Y-103185000D02*
X140980000Y-103185000D01*
X137680000Y-106885000D02*
X137680000Y-103185000D01*
X140980000Y-103185000D02*
X140980000Y-106885000D01*
X140980000Y-106885000D02*
X137680000Y-106885000D01*
%TO.C,RLED6*%
X234111887Y-119927889D02*
X237411887Y-119927889D01*
X234111887Y-123627889D02*
X234111887Y-119927889D01*
X237411887Y-119927889D02*
X237411887Y-123627889D01*
X237411887Y-123627889D02*
X234111887Y-123627889D01*
%TO.C,LLED34*%
X99580000Y-98425000D02*
X102880000Y-98425000D01*
X99580000Y-102125000D02*
X99580000Y-98425000D01*
X102880000Y-98425000D02*
X102880000Y-102125000D01*
X102880000Y-102125000D02*
X99580000Y-102125000D01*
%TO.C,LLED2*%
X175760000Y-96045000D02*
X179060000Y-96045000D01*
X175760000Y-99745000D02*
X175760000Y-96045000D01*
X179060000Y-96045000D02*
X179060000Y-99745000D01*
X179060000Y-99745000D02*
X175760000Y-99745000D01*
%TO.C,RLED7*%
X234101887Y-100898889D02*
X237401887Y-100898889D01*
X234101887Y-104598889D02*
X234101887Y-100898889D01*
X237401887Y-100898889D02*
X237401887Y-104598889D01*
X237401887Y-104598889D02*
X234101887Y-104598889D01*
%TO.C,LLED15*%
X156720000Y-200845000D02*
X160020000Y-200845000D01*
X156720000Y-204545000D02*
X156720000Y-200845000D01*
X160020000Y-200845000D02*
X160020000Y-204545000D01*
X160020000Y-204545000D02*
X156720000Y-204545000D01*
%TO.C,LLED12*%
X156720000Y-143695000D02*
X160020000Y-143695000D01*
X156720000Y-147395000D02*
X156720000Y-143695000D01*
X160020000Y-143695000D02*
X160020000Y-147395000D01*
X160020000Y-147395000D02*
X156720000Y-147395000D01*
%TO.C,RLED25*%
X291251887Y-210447889D02*
X294551887Y-210447889D01*
X291251887Y-214147889D02*
X291251887Y-210447889D01*
X294551887Y-210447889D02*
X294551887Y-214147889D01*
X294551887Y-214147889D02*
X291251887Y-214147889D01*
%TO.C,RLED5*%
X234091887Y-139007889D02*
X237391887Y-139007889D01*
X234091887Y-142707889D02*
X234091887Y-139007889D01*
X237391887Y-139007889D02*
X237391887Y-142707889D01*
X237391887Y-142707889D02*
X234091887Y-142707889D01*
%TO.C,RLED18*%
X272201887Y-181858889D02*
X275501887Y-181858889D01*
X272201887Y-185558889D02*
X272201887Y-181858889D01*
X275501887Y-181858889D02*
X275501887Y-185558889D01*
X275501887Y-185558889D02*
X272201887Y-185558889D01*
%TO.C,RLED34*%
X310291887Y-193767889D02*
X313591887Y-193767889D01*
X310291887Y-197467889D02*
X310291887Y-193767889D01*
X313591887Y-193767889D02*
X313591887Y-197467889D01*
X313591887Y-197467889D02*
X310291887Y-197467889D01*
%TO.C,LLED8*%
X175780000Y-210350000D02*
X179080000Y-210350000D01*
X175780000Y-214050000D02*
X175780000Y-210350000D01*
X179080000Y-210350000D02*
X179080000Y-214050000D01*
X179080000Y-214050000D02*
X175780000Y-214050000D01*
%TO.C,LLED11*%
X156720000Y-124644000D02*
X160020000Y-124644000D01*
X156720000Y-128344000D02*
X156720000Y-124644000D01*
X160020000Y-124644000D02*
X160020000Y-128344000D01*
X160020000Y-128344000D02*
X156720000Y-128344000D01*
%TO.C,RLED17*%
X272201887Y-200907889D02*
X275501887Y-200907889D01*
X272201887Y-204607889D02*
X272201887Y-200907889D01*
X275501887Y-200907889D02*
X275501887Y-204607889D01*
X275501887Y-204607889D02*
X272201887Y-204607889D01*
%TO.C,RLED15*%
X253141887Y-91398889D02*
X256441887Y-91398889D01*
X253141887Y-95098889D02*
X253141887Y-91398889D01*
X256441887Y-91398889D02*
X256441887Y-95098889D01*
X256441887Y-95098889D02*
X253141887Y-95098889D01*
%TO.C,RLED16*%
X253151887Y-67548889D02*
X256451887Y-67548889D01*
X253151887Y-71248889D02*
X253151887Y-67548889D01*
X256451887Y-67548889D02*
X256451887Y-71248889D01*
X256451887Y-71248889D02*
X253151887Y-71248889D01*
%TO.C,LLED31*%
X118620000Y-196084000D02*
X121920000Y-196084000D01*
X118620000Y-199784000D02*
X118620000Y-196084000D01*
X121920000Y-196084000D02*
X121920000Y-199784000D01*
X121920000Y-199784000D02*
X118620000Y-199784000D01*
%TO.C,RLED20*%
X272201887Y-143768889D02*
X275501887Y-143768889D01*
X272201887Y-147468889D02*
X272201887Y-143768889D01*
X275501887Y-143768889D02*
X275501887Y-147468889D01*
X275501887Y-147468889D02*
X272201887Y-147468889D01*
%TO.C,LLED17*%
X137680000Y-62734000D02*
X140980000Y-62734000D01*
X137680000Y-66434000D02*
X137680000Y-62734000D01*
X140980000Y-62734000D02*
X140980000Y-66434000D01*
X140980000Y-66434000D02*
X137680000Y-66434000D01*
%TO.C,RLED40*%
X310301887Y-65162889D02*
X313601887Y-65162889D01*
X310301887Y-68862889D02*
X310301887Y-65162889D01*
X313601887Y-65162889D02*
X313601887Y-68862889D01*
X313601887Y-68862889D02*
X310301887Y-68862889D01*
%TO.C,RLED30*%
X291241887Y-115177889D02*
X294541887Y-115177889D01*
X291241887Y-118877889D02*
X291241887Y-115177889D01*
X294541887Y-115177889D02*
X294541887Y-118877889D01*
X294541887Y-118877889D02*
X291241887Y-118877889D01*
%TO.C,LLED40*%
X99580000Y-212745000D02*
X102880000Y-212745000D01*
X99580000Y-216445000D02*
X99580000Y-212745000D01*
X102880000Y-212745000D02*
X102880000Y-216445000D01*
X102880000Y-216445000D02*
X99580000Y-216445000D01*
%TO.C,RLED9*%
X253141887Y-205677889D02*
X256441887Y-205677889D01*
X253141887Y-209377889D02*
X253141887Y-205677889D01*
X256441887Y-205677889D02*
X256441887Y-209377889D01*
X256441887Y-209377889D02*
X253141887Y-209377889D01*
%TO.C,LLED5*%
X175770000Y-153195000D02*
X179070000Y-153195000D01*
X175770000Y-156895000D02*
X175770000Y-153195000D01*
X179070000Y-153195000D02*
X179070000Y-156895000D01*
X179070000Y-156895000D02*
X175770000Y-156895000D01*
%TO.C,LLED38*%
X99590000Y-179414000D02*
X102890000Y-179414000D01*
X99590000Y-183114000D02*
X99590000Y-179414000D01*
X102890000Y-179414000D02*
X102890000Y-183114000D01*
X102890000Y-183114000D02*
X99590000Y-183114000D01*
%TO.C,RLED3*%
X234101887Y-177077889D02*
X237401887Y-177077889D01*
X234101887Y-180777889D02*
X234101887Y-177077889D01*
X237401887Y-177077889D02*
X237401887Y-180777889D01*
X237401887Y-180777889D02*
X234101887Y-180777889D01*
%TO.C,LLED26*%
X118620000Y-107974000D02*
X121920000Y-107974000D01*
X118620000Y-111674000D02*
X118620000Y-107974000D01*
X121920000Y-107974000D02*
X121920000Y-111674000D01*
X121920000Y-111674000D02*
X118620000Y-111674000D01*
%TO.C,RLED19*%
X272201887Y-162807889D02*
X275501887Y-162807889D01*
X272201887Y-166507889D02*
X272201887Y-162807889D01*
X275501887Y-162807889D02*
X275501887Y-166507889D01*
X275501887Y-166507889D02*
X272201887Y-166507889D01*
%TO.C,LLED35*%
X99570000Y-122254000D02*
X102870000Y-122254000D01*
X99570000Y-125954000D02*
X99570000Y-122254000D01*
X102870000Y-122254000D02*
X102870000Y-125954000D01*
X102870000Y-125954000D02*
X99570000Y-125954000D01*
%TO.C,LLED21*%
X137670000Y-167525000D02*
X140970000Y-167525000D01*
X137670000Y-171225000D02*
X137670000Y-167525000D01*
X140970000Y-167525000D02*
X140970000Y-171225000D01*
X140970000Y-171225000D02*
X137670000Y-171225000D01*
%TO.C,LLED1*%
X176040000Y-62755000D02*
X179340000Y-62755000D01*
X176040000Y-66455000D02*
X176040000Y-62755000D01*
X179340000Y-62755000D02*
X179340000Y-66455000D01*
X179340000Y-66455000D02*
X176040000Y-66455000D01*
%TO.C,RLED4*%
X234091887Y-158057889D02*
X237391887Y-158057889D01*
X234091887Y-161757889D02*
X234091887Y-158057889D01*
X237391887Y-158057889D02*
X237391887Y-161757889D01*
X237391887Y-161757889D02*
X234091887Y-161757889D01*
%TO.C,LLED28*%
X118620000Y-138935000D02*
X121920000Y-138935000D01*
X118620000Y-142635000D02*
X118620000Y-138935000D01*
X121920000Y-138935000D02*
X121920000Y-142635000D01*
X121920000Y-142635000D02*
X118620000Y-142635000D01*
%TO.C,RLED14*%
X253141887Y-110397889D02*
X256441887Y-110397889D01*
X253141887Y-114097889D02*
X253141887Y-110397889D01*
X256441887Y-110397889D02*
X256441887Y-114097889D01*
X256441887Y-114097889D02*
X253141887Y-114097889D01*
%TO.C,RLED38*%
X310301887Y-112778889D02*
X313601887Y-112778889D01*
X310301887Y-116478889D02*
X310301887Y-112778889D01*
X313601887Y-112778889D02*
X313601887Y-116478889D01*
X313601887Y-116478889D02*
X310301887Y-116478889D01*
%TO.C,RLED26*%
X291241887Y-191387889D02*
X294541887Y-191387889D01*
X291241887Y-195087889D02*
X291241887Y-191387889D01*
X294541887Y-191387889D02*
X294541887Y-195087889D01*
X294541887Y-195087889D02*
X291241887Y-195087889D01*
%TO.C,LLED20*%
X137660000Y-148445000D02*
X140960000Y-148445000D01*
X137660000Y-152145000D02*
X137660000Y-148445000D01*
X140960000Y-148445000D02*
X140960000Y-152145000D01*
X140960000Y-152145000D02*
X137660000Y-152145000D01*
%TO.C,LLED32*%
X118620000Y-215115000D02*
X121920000Y-215115000D01*
X118620000Y-218815000D02*
X118620000Y-215115000D01*
X121920000Y-215115000D02*
X121920000Y-218815000D01*
X121920000Y-218815000D02*
X118620000Y-218815000D01*
%TO.C,LLED14*%
X156720000Y-181795000D02*
X160020000Y-181795000D01*
X156720000Y-185495000D02*
X156720000Y-181795000D01*
X160020000Y-181795000D02*
X160020000Y-185495000D01*
X160020000Y-185495000D02*
X156720000Y-185495000D01*
%TO.C,LLED22*%
X137670000Y-186544000D02*
X140970000Y-186544000D01*
X137670000Y-190244000D02*
X137670000Y-186544000D01*
X140970000Y-186544000D02*
X140970000Y-190244000D01*
X140970000Y-190244000D02*
X137670000Y-190244000D01*
%TO.C,RLED28*%
X291241887Y-153297889D02*
X294541887Y-153297889D01*
X291241887Y-156997889D02*
X291241887Y-153297889D01*
X294541887Y-153297889D02*
X294541887Y-156997889D01*
X294541887Y-156997889D02*
X291241887Y-156997889D01*
%TO.C,LLED36*%
X99570000Y-146054000D02*
X102870000Y-146054000D01*
X99570000Y-149754000D02*
X99570000Y-146054000D01*
X102870000Y-146054000D02*
X102870000Y-149754000D01*
X102870000Y-149754000D02*
X99570000Y-149754000D01*
%TO.C,RLED31*%
X291241887Y-88977889D02*
X294541887Y-88977889D01*
X291241887Y-92677889D02*
X291241887Y-88977889D01*
X294541887Y-88977889D02*
X294541887Y-92677889D01*
X294541887Y-92677889D02*
X291241887Y-92677889D01*
%TO.C,LLED33*%
X99850000Y-62725000D02*
X103150000Y-62725000D01*
X99850000Y-66425000D02*
X99850000Y-62725000D01*
X103150000Y-62725000D02*
X103150000Y-66425000D01*
X103150000Y-66425000D02*
X99850000Y-66425000D01*
%TO.C,RLED24*%
X272191887Y-74697889D02*
X275491887Y-74697889D01*
X272191887Y-78397889D02*
X272191887Y-74697889D01*
X275491887Y-74697889D02*
X275491887Y-78397889D01*
X275491887Y-78397889D02*
X272191887Y-78397889D01*
%TO.C,RLED21*%
X272201887Y-124708889D02*
X275501887Y-124708889D01*
X272201887Y-128408889D02*
X272201887Y-124708889D01*
X275501887Y-124708889D02*
X275501887Y-128408889D01*
X275501887Y-128408889D02*
X272201887Y-128408889D01*
%TO.C,LLED3*%
X175760000Y-115115000D02*
X179060000Y-115115000D01*
X175760000Y-118815000D02*
X175760000Y-115115000D01*
X179060000Y-115115000D02*
X179060000Y-118815000D01*
X179060000Y-118815000D02*
X175760000Y-118815000D01*
%TO.C,LLED23*%
X137670000Y-205595000D02*
X140970000Y-205595000D01*
X137670000Y-209295000D02*
X137670000Y-205595000D01*
X140970000Y-205595000D02*
X140970000Y-209295000D01*
X140970000Y-209295000D02*
X137670000Y-209295000D01*
%TO.C,LLED13*%
X156720000Y-162745000D02*
X160020000Y-162745000D01*
X156720000Y-166445000D02*
X156720000Y-162745000D01*
X160020000Y-162745000D02*
X160020000Y-166445000D01*
X160020000Y-166445000D02*
X156720000Y-166445000D01*
%TO.C,RLED1*%
X234091887Y-215177889D02*
X237391887Y-215177889D01*
X234091887Y-218877889D02*
X234091887Y-215177889D01*
X237391887Y-215177889D02*
X237391887Y-218877889D01*
X237391887Y-218877889D02*
X234091887Y-218877889D01*
%TO.C,RLED10*%
X253151887Y-186617889D02*
X256451887Y-186617889D01*
X253151887Y-190317889D02*
X253151887Y-186617889D01*
X256451887Y-186617889D02*
X256451887Y-190317889D01*
X256451887Y-190317889D02*
X253151887Y-190317889D01*
%TO.C,LLED7*%
X175770000Y-191335000D02*
X179070000Y-191335000D01*
X175770000Y-195035000D02*
X175770000Y-191335000D01*
X179070000Y-191335000D02*
X179070000Y-195035000D01*
X179070000Y-195035000D02*
X175770000Y-195035000D01*
%TO.C,LLED30*%
X118620000Y-177044000D02*
X121920000Y-177044000D01*
X118620000Y-180744000D02*
X118620000Y-177044000D01*
X121920000Y-177044000D02*
X121920000Y-180744000D01*
X121920000Y-180744000D02*
X118620000Y-180744000D01*
%TO.C,LLED9*%
X157010000Y-62715000D02*
X160310000Y-62715000D01*
X157010000Y-66415000D02*
X157010000Y-62715000D01*
X160310000Y-62715000D02*
X160310000Y-66415000D01*
X160310000Y-66415000D02*
X157010000Y-66415000D01*
%TO.C,LLED29*%
X118630000Y-157985000D02*
X121930000Y-157985000D01*
X118630000Y-161685000D02*
X118630000Y-157985000D01*
X121930000Y-157985000D02*
X121930000Y-161685000D01*
X121930000Y-161685000D02*
X118630000Y-161685000D01*
%TO.C,RLED29*%
X291241887Y-134217889D02*
X294541887Y-134217889D01*
X291241887Y-137917889D02*
X291241887Y-134217889D01*
X294541887Y-134217889D02*
X294541887Y-137917889D01*
X294541887Y-137917889D02*
X291241887Y-137917889D01*
%TO.C,RLED22*%
X272191887Y-105677889D02*
X275491887Y-105677889D01*
X272191887Y-109377889D02*
X272191887Y-105677889D01*
X275491887Y-105677889D02*
X275491887Y-109377889D01*
X275491887Y-109377889D02*
X272191887Y-109377889D01*
%TO.C,RLED13*%
X253151887Y-129477889D02*
X256451887Y-129477889D01*
X253151887Y-133177889D02*
X253151887Y-129477889D01*
X256451887Y-129477889D02*
X256451887Y-133177889D01*
X256451887Y-133177889D02*
X253151887Y-133177889D01*
%TO.C,LLED19*%
X137680000Y-129405000D02*
X140980000Y-129405000D01*
X137680000Y-133105000D02*
X137680000Y-129405000D01*
X140980000Y-129405000D02*
X140980000Y-133105000D01*
X140980000Y-133105000D02*
X137680000Y-133105000D01*
%TO.C,RLED8*%
X234091887Y-72318889D02*
X237391887Y-72318889D01*
X234091887Y-76018889D02*
X234091887Y-72318889D01*
X237391887Y-72318889D02*
X237391887Y-76018889D01*
X237391887Y-76018889D02*
X234091887Y-76018889D01*
%TO.C,LLED4*%
X175770000Y-134165000D02*
X179070000Y-134165000D01*
X175770000Y-137865000D02*
X175770000Y-134165000D01*
X179070000Y-134165000D02*
X179070000Y-137865000D01*
X179070000Y-137865000D02*
X175770000Y-137865000D01*
%TO.C,RLED12*%
X253141887Y-148537889D02*
X256441887Y-148537889D01*
X253141887Y-152237889D02*
X253141887Y-148537889D01*
X256441887Y-148537889D02*
X256441887Y-152237889D01*
X256441887Y-152237889D02*
X253141887Y-152237889D01*
%TD*%
M02*
