%TF.GenerationSoftware,KiCad,Pcbnew,8.0.2*%
%TF.CreationDate,2024-06-18T01:05:25+09:00*%
%TF.ProjectId,accelerator,61636365-6c65-4726-9174-6f722e6b6963,v1.0.0*%
%TF.SameCoordinates,Original*%
%TF.FileFunction,Legend,Top*%
%TF.FilePolarity,Positive*%
%FSLAX46Y46*%
G04 Gerber Fmt 4.6, Leading zero omitted, Abs format (unit mm)*
G04 Created by KiCad (PCBNEW 8.0.2) date 2024-06-18 01:05:25*
%MOMM*%
%LPD*%
G01*
G04 APERTURE LIST*
%ADD10C,0.150000*%
%ADD11C,0.120000*%
G04 APERTURE END LIST*
D10*
X127222856Y-72219815D02*
X126889523Y-71743624D01*
X126651428Y-72219815D02*
X126651428Y-71219815D01*
X126651428Y-71219815D02*
X127032380Y-71219815D01*
X127032380Y-71219815D02*
X127127618Y-71267434D01*
X127127618Y-71267434D02*
X127175237Y-71315053D01*
X127175237Y-71315053D02*
X127222856Y-71410291D01*
X127222856Y-71410291D02*
X127222856Y-71553148D01*
X127222856Y-71553148D02*
X127175237Y-71648386D01*
X127175237Y-71648386D02*
X127127618Y-71696005D01*
X127127618Y-71696005D02*
X127032380Y-71743624D01*
X127032380Y-71743624D02*
X126651428Y-71743624D01*
X127651428Y-71696005D02*
X127984761Y-71696005D01*
X128127618Y-72219815D02*
X127651428Y-72219815D01*
X127651428Y-72219815D02*
X127651428Y-71219815D01*
X127651428Y-71219815D02*
X128127618Y-71219815D01*
X129032380Y-72219815D02*
X128556190Y-72219815D01*
X128556190Y-72219815D02*
X128556190Y-71219815D01*
X129556190Y-71219815D02*
X129651428Y-71219815D01*
X129651428Y-71219815D02*
X129746666Y-71267434D01*
X129746666Y-71267434D02*
X129794285Y-71315053D01*
X129794285Y-71315053D02*
X129841904Y-71410291D01*
X129841904Y-71410291D02*
X129889523Y-71600767D01*
X129889523Y-71600767D02*
X129889523Y-71838862D01*
X129889523Y-71838862D02*
X129841904Y-72029338D01*
X129841904Y-72029338D02*
X129794285Y-72124576D01*
X129794285Y-72124576D02*
X129746666Y-72172196D01*
X129746666Y-72172196D02*
X129651428Y-72219815D01*
X129651428Y-72219815D02*
X129556190Y-72219815D01*
X129556190Y-72219815D02*
X129460952Y-72172196D01*
X129460952Y-72172196D02*
X129413333Y-72124576D01*
X129413333Y-72124576D02*
X129365714Y-72029338D01*
X129365714Y-72029338D02*
X129318095Y-71838862D01*
X129318095Y-71838862D02*
X129318095Y-71600767D01*
X129318095Y-71600767D02*
X129365714Y-71410291D01*
X129365714Y-71410291D02*
X129413333Y-71315053D01*
X129413333Y-71315053D02*
X129460952Y-71267434D01*
X129460952Y-71267434D02*
X129556190Y-71219815D01*
X130508571Y-71219815D02*
X130603809Y-71219815D01*
X130603809Y-71219815D02*
X130699047Y-71267434D01*
X130699047Y-71267434D02*
X130746666Y-71315053D01*
X130746666Y-71315053D02*
X130794285Y-71410291D01*
X130794285Y-71410291D02*
X130841904Y-71600767D01*
X130841904Y-71600767D02*
X130841904Y-71838862D01*
X130841904Y-71838862D02*
X130794285Y-72029338D01*
X130794285Y-72029338D02*
X130746666Y-72124576D01*
X130746666Y-72124576D02*
X130699047Y-72172196D01*
X130699047Y-72172196D02*
X130603809Y-72219815D01*
X130603809Y-72219815D02*
X130508571Y-72219815D01*
X130508571Y-72219815D02*
X130413333Y-72172196D01*
X130413333Y-72172196D02*
X130365714Y-72124576D01*
X130365714Y-72124576D02*
X130318095Y-72029338D01*
X130318095Y-72029338D02*
X130270476Y-71838862D01*
X130270476Y-71838862D02*
X130270476Y-71600767D01*
X130270476Y-71600767D02*
X130318095Y-71410291D01*
X130318095Y-71410291D02*
X130365714Y-71315053D01*
X130365714Y-71315053D02*
X130413333Y-71267434D01*
X130413333Y-71267434D02*
X130508571Y-71219815D01*
X131032381Y-72315053D02*
X131794285Y-72315053D01*
X131937143Y-71219815D02*
X132556190Y-71219815D01*
X132556190Y-71219815D02*
X132222857Y-71600767D01*
X132222857Y-71600767D02*
X132365714Y-71600767D01*
X132365714Y-71600767D02*
X132460952Y-71648386D01*
X132460952Y-71648386D02*
X132508571Y-71696005D01*
X132508571Y-71696005D02*
X132556190Y-71791243D01*
X132556190Y-71791243D02*
X132556190Y-72029338D01*
X132556190Y-72029338D02*
X132508571Y-72124576D01*
X132508571Y-72124576D02*
X132460952Y-72172196D01*
X132460952Y-72172196D02*
X132365714Y-72219815D01*
X132365714Y-72219815D02*
X132080000Y-72219815D01*
X132080000Y-72219815D02*
X131984762Y-72172196D01*
X131984762Y-72172196D02*
X131937143Y-72124576D01*
X184332856Y-72249815D02*
X183999523Y-71773624D01*
X183761428Y-72249815D02*
X183761428Y-71249815D01*
X183761428Y-71249815D02*
X184142380Y-71249815D01*
X184142380Y-71249815D02*
X184237618Y-71297434D01*
X184237618Y-71297434D02*
X184285237Y-71345053D01*
X184285237Y-71345053D02*
X184332856Y-71440291D01*
X184332856Y-71440291D02*
X184332856Y-71583148D01*
X184332856Y-71583148D02*
X184285237Y-71678386D01*
X184285237Y-71678386D02*
X184237618Y-71726005D01*
X184237618Y-71726005D02*
X184142380Y-71773624D01*
X184142380Y-71773624D02*
X183761428Y-71773624D01*
X184761428Y-71726005D02*
X185094761Y-71726005D01*
X185237618Y-72249815D02*
X184761428Y-72249815D01*
X184761428Y-72249815D02*
X184761428Y-71249815D01*
X184761428Y-71249815D02*
X185237618Y-71249815D01*
X186142380Y-72249815D02*
X185666190Y-72249815D01*
X185666190Y-72249815D02*
X185666190Y-71249815D01*
X186666190Y-71249815D02*
X186761428Y-71249815D01*
X186761428Y-71249815D02*
X186856666Y-71297434D01*
X186856666Y-71297434D02*
X186904285Y-71345053D01*
X186904285Y-71345053D02*
X186951904Y-71440291D01*
X186951904Y-71440291D02*
X186999523Y-71630767D01*
X186999523Y-71630767D02*
X186999523Y-71868862D01*
X186999523Y-71868862D02*
X186951904Y-72059338D01*
X186951904Y-72059338D02*
X186904285Y-72154576D01*
X186904285Y-72154576D02*
X186856666Y-72202196D01*
X186856666Y-72202196D02*
X186761428Y-72249815D01*
X186761428Y-72249815D02*
X186666190Y-72249815D01*
X186666190Y-72249815D02*
X186570952Y-72202196D01*
X186570952Y-72202196D02*
X186523333Y-72154576D01*
X186523333Y-72154576D02*
X186475714Y-72059338D01*
X186475714Y-72059338D02*
X186428095Y-71868862D01*
X186428095Y-71868862D02*
X186428095Y-71630767D01*
X186428095Y-71630767D02*
X186475714Y-71440291D01*
X186475714Y-71440291D02*
X186523333Y-71345053D01*
X186523333Y-71345053D02*
X186570952Y-71297434D01*
X186570952Y-71297434D02*
X186666190Y-71249815D01*
X187618571Y-71249815D02*
X187713809Y-71249815D01*
X187713809Y-71249815D02*
X187809047Y-71297434D01*
X187809047Y-71297434D02*
X187856666Y-71345053D01*
X187856666Y-71345053D02*
X187904285Y-71440291D01*
X187904285Y-71440291D02*
X187951904Y-71630767D01*
X187951904Y-71630767D02*
X187951904Y-71868862D01*
X187951904Y-71868862D02*
X187904285Y-72059338D01*
X187904285Y-72059338D02*
X187856666Y-72154576D01*
X187856666Y-72154576D02*
X187809047Y-72202196D01*
X187809047Y-72202196D02*
X187713809Y-72249815D01*
X187713809Y-72249815D02*
X187618571Y-72249815D01*
X187618571Y-72249815D02*
X187523333Y-72202196D01*
X187523333Y-72202196D02*
X187475714Y-72154576D01*
X187475714Y-72154576D02*
X187428095Y-72059338D01*
X187428095Y-72059338D02*
X187380476Y-71868862D01*
X187380476Y-71868862D02*
X187380476Y-71630767D01*
X187380476Y-71630767D02*
X187428095Y-71440291D01*
X187428095Y-71440291D02*
X187475714Y-71345053D01*
X187475714Y-71345053D02*
X187523333Y-71297434D01*
X187523333Y-71297434D02*
X187618571Y-71249815D01*
X188142381Y-72345053D02*
X188904285Y-72345053D01*
X189666190Y-72249815D02*
X189094762Y-72249815D01*
X189380476Y-72249815D02*
X189380476Y-71249815D01*
X189380476Y-71249815D02*
X189285238Y-71392672D01*
X189285238Y-71392672D02*
X189190000Y-71487910D01*
X189190000Y-71487910D02*
X189094762Y-71535529D01*
X108142856Y-72249815D02*
X107809523Y-71773624D01*
X107571428Y-72249815D02*
X107571428Y-71249815D01*
X107571428Y-71249815D02*
X107952380Y-71249815D01*
X107952380Y-71249815D02*
X108047618Y-71297434D01*
X108047618Y-71297434D02*
X108095237Y-71345053D01*
X108095237Y-71345053D02*
X108142856Y-71440291D01*
X108142856Y-71440291D02*
X108142856Y-71583148D01*
X108142856Y-71583148D02*
X108095237Y-71678386D01*
X108095237Y-71678386D02*
X108047618Y-71726005D01*
X108047618Y-71726005D02*
X107952380Y-71773624D01*
X107952380Y-71773624D02*
X107571428Y-71773624D01*
X108571428Y-71726005D02*
X108904761Y-71726005D01*
X109047618Y-72249815D02*
X108571428Y-72249815D01*
X108571428Y-72249815D02*
X108571428Y-71249815D01*
X108571428Y-71249815D02*
X109047618Y-71249815D01*
X109952380Y-72249815D02*
X109476190Y-72249815D01*
X109476190Y-72249815D02*
X109476190Y-71249815D01*
X110476190Y-71249815D02*
X110571428Y-71249815D01*
X110571428Y-71249815D02*
X110666666Y-71297434D01*
X110666666Y-71297434D02*
X110714285Y-71345053D01*
X110714285Y-71345053D02*
X110761904Y-71440291D01*
X110761904Y-71440291D02*
X110809523Y-71630767D01*
X110809523Y-71630767D02*
X110809523Y-71868862D01*
X110809523Y-71868862D02*
X110761904Y-72059338D01*
X110761904Y-72059338D02*
X110714285Y-72154576D01*
X110714285Y-72154576D02*
X110666666Y-72202196D01*
X110666666Y-72202196D02*
X110571428Y-72249815D01*
X110571428Y-72249815D02*
X110476190Y-72249815D01*
X110476190Y-72249815D02*
X110380952Y-72202196D01*
X110380952Y-72202196D02*
X110333333Y-72154576D01*
X110333333Y-72154576D02*
X110285714Y-72059338D01*
X110285714Y-72059338D02*
X110238095Y-71868862D01*
X110238095Y-71868862D02*
X110238095Y-71630767D01*
X110238095Y-71630767D02*
X110285714Y-71440291D01*
X110285714Y-71440291D02*
X110333333Y-71345053D01*
X110333333Y-71345053D02*
X110380952Y-71297434D01*
X110380952Y-71297434D02*
X110476190Y-71249815D01*
X111428571Y-71249815D02*
X111523809Y-71249815D01*
X111523809Y-71249815D02*
X111619047Y-71297434D01*
X111619047Y-71297434D02*
X111666666Y-71345053D01*
X111666666Y-71345053D02*
X111714285Y-71440291D01*
X111714285Y-71440291D02*
X111761904Y-71630767D01*
X111761904Y-71630767D02*
X111761904Y-71868862D01*
X111761904Y-71868862D02*
X111714285Y-72059338D01*
X111714285Y-72059338D02*
X111666666Y-72154576D01*
X111666666Y-72154576D02*
X111619047Y-72202196D01*
X111619047Y-72202196D02*
X111523809Y-72249815D01*
X111523809Y-72249815D02*
X111428571Y-72249815D01*
X111428571Y-72249815D02*
X111333333Y-72202196D01*
X111333333Y-72202196D02*
X111285714Y-72154576D01*
X111285714Y-72154576D02*
X111238095Y-72059338D01*
X111238095Y-72059338D02*
X111190476Y-71868862D01*
X111190476Y-71868862D02*
X111190476Y-71630767D01*
X111190476Y-71630767D02*
X111238095Y-71440291D01*
X111238095Y-71440291D02*
X111285714Y-71345053D01*
X111285714Y-71345053D02*
X111333333Y-71297434D01*
X111333333Y-71297434D02*
X111428571Y-71249815D01*
X111952381Y-72345053D02*
X112714285Y-72345053D01*
X113380952Y-71583148D02*
X113380952Y-72249815D01*
X113142857Y-71202196D02*
X112904762Y-71916481D01*
X112904762Y-71916481D02*
X113523809Y-71916481D01*
X165302856Y-72229815D02*
X164969523Y-71753624D01*
X164731428Y-72229815D02*
X164731428Y-71229815D01*
X164731428Y-71229815D02*
X165112380Y-71229815D01*
X165112380Y-71229815D02*
X165207618Y-71277434D01*
X165207618Y-71277434D02*
X165255237Y-71325053D01*
X165255237Y-71325053D02*
X165302856Y-71420291D01*
X165302856Y-71420291D02*
X165302856Y-71563148D01*
X165302856Y-71563148D02*
X165255237Y-71658386D01*
X165255237Y-71658386D02*
X165207618Y-71706005D01*
X165207618Y-71706005D02*
X165112380Y-71753624D01*
X165112380Y-71753624D02*
X164731428Y-71753624D01*
X165731428Y-71706005D02*
X166064761Y-71706005D01*
X166207618Y-72229815D02*
X165731428Y-72229815D01*
X165731428Y-72229815D02*
X165731428Y-71229815D01*
X165731428Y-71229815D02*
X166207618Y-71229815D01*
X167112380Y-72229815D02*
X166636190Y-72229815D01*
X166636190Y-72229815D02*
X166636190Y-71229815D01*
X167636190Y-71229815D02*
X167731428Y-71229815D01*
X167731428Y-71229815D02*
X167826666Y-71277434D01*
X167826666Y-71277434D02*
X167874285Y-71325053D01*
X167874285Y-71325053D02*
X167921904Y-71420291D01*
X167921904Y-71420291D02*
X167969523Y-71610767D01*
X167969523Y-71610767D02*
X167969523Y-71848862D01*
X167969523Y-71848862D02*
X167921904Y-72039338D01*
X167921904Y-72039338D02*
X167874285Y-72134576D01*
X167874285Y-72134576D02*
X167826666Y-72182196D01*
X167826666Y-72182196D02*
X167731428Y-72229815D01*
X167731428Y-72229815D02*
X167636190Y-72229815D01*
X167636190Y-72229815D02*
X167540952Y-72182196D01*
X167540952Y-72182196D02*
X167493333Y-72134576D01*
X167493333Y-72134576D02*
X167445714Y-72039338D01*
X167445714Y-72039338D02*
X167398095Y-71848862D01*
X167398095Y-71848862D02*
X167398095Y-71610767D01*
X167398095Y-71610767D02*
X167445714Y-71420291D01*
X167445714Y-71420291D02*
X167493333Y-71325053D01*
X167493333Y-71325053D02*
X167540952Y-71277434D01*
X167540952Y-71277434D02*
X167636190Y-71229815D01*
X168588571Y-71229815D02*
X168683809Y-71229815D01*
X168683809Y-71229815D02*
X168779047Y-71277434D01*
X168779047Y-71277434D02*
X168826666Y-71325053D01*
X168826666Y-71325053D02*
X168874285Y-71420291D01*
X168874285Y-71420291D02*
X168921904Y-71610767D01*
X168921904Y-71610767D02*
X168921904Y-71848862D01*
X168921904Y-71848862D02*
X168874285Y-72039338D01*
X168874285Y-72039338D02*
X168826666Y-72134576D01*
X168826666Y-72134576D02*
X168779047Y-72182196D01*
X168779047Y-72182196D02*
X168683809Y-72229815D01*
X168683809Y-72229815D02*
X168588571Y-72229815D01*
X168588571Y-72229815D02*
X168493333Y-72182196D01*
X168493333Y-72182196D02*
X168445714Y-72134576D01*
X168445714Y-72134576D02*
X168398095Y-72039338D01*
X168398095Y-72039338D02*
X168350476Y-71848862D01*
X168350476Y-71848862D02*
X168350476Y-71610767D01*
X168350476Y-71610767D02*
X168398095Y-71420291D01*
X168398095Y-71420291D02*
X168445714Y-71325053D01*
X168445714Y-71325053D02*
X168493333Y-71277434D01*
X168493333Y-71277434D02*
X168588571Y-71229815D01*
X169112381Y-72325053D02*
X169874285Y-72325053D01*
X170064762Y-71325053D02*
X170112381Y-71277434D01*
X170112381Y-71277434D02*
X170207619Y-71229815D01*
X170207619Y-71229815D02*
X170445714Y-71229815D01*
X170445714Y-71229815D02*
X170540952Y-71277434D01*
X170540952Y-71277434D02*
X170588571Y-71325053D01*
X170588571Y-71325053D02*
X170636190Y-71420291D01*
X170636190Y-71420291D02*
X170636190Y-71515529D01*
X170636190Y-71515529D02*
X170588571Y-71658386D01*
X170588571Y-71658386D02*
X170017143Y-72229815D01*
X170017143Y-72229815D02*
X170636190Y-72229815D01*
D11*
%TO.C,REL00_3*%
X118180000Y-58264996D02*
X123080000Y-58264996D01*
X118180000Y-60864996D02*
X118180000Y-58264996D01*
X118180000Y-65864996D02*
X118180000Y-63264996D01*
X118180000Y-70864996D02*
X118180000Y-68264996D01*
X123080000Y-70864996D02*
X118180000Y-70864996D01*
X124880000Y-65064996D02*
X124880000Y-64064996D01*
X125380000Y-64564996D02*
X124380000Y-64564996D01*
X126680000Y-58264996D02*
X131580000Y-58264996D01*
X126780000Y-70864996D02*
X131580000Y-70864996D01*
X131580000Y-58264996D02*
X131580000Y-61064996D01*
X131580000Y-70864996D02*
X131580000Y-68364996D01*
X132080000Y-68664996D02*
X132380000Y-68364996D01*
X132380000Y-68364996D02*
X132680000Y-68664996D01*
X132680000Y-68664996D02*
X132080000Y-68664996D01*
X127880000Y-64564996D02*
G75*
G02*
X121880000Y-64564996I-3000000J0D01*
G01*
X121880000Y-64564996D02*
G75*
G02*
X127880000Y-64564996I3000000J0D01*
G01*
%TO.C,REL00_1*%
X175290000Y-58294996D02*
X180190000Y-58294996D01*
X175290000Y-60894996D02*
X175290000Y-58294996D01*
X175290000Y-65894996D02*
X175290000Y-63294996D01*
X175290000Y-70894996D02*
X175290000Y-68294996D01*
X180190000Y-70894996D02*
X175290000Y-70894996D01*
X181990000Y-65094996D02*
X181990000Y-64094996D01*
X182490000Y-64594996D02*
X181490000Y-64594996D01*
X183790000Y-58294996D02*
X188690000Y-58294996D01*
X183890000Y-70894996D02*
X188690000Y-70894996D01*
X188690000Y-58294996D02*
X188690000Y-61094996D01*
X188690000Y-70894996D02*
X188690000Y-68394996D01*
X189190000Y-68694996D02*
X189490000Y-68394996D01*
X189490000Y-68394996D02*
X189790000Y-68694996D01*
X189790000Y-68694996D02*
X189190000Y-68694996D01*
X184990000Y-64594996D02*
G75*
G02*
X178990000Y-64594996I-3000000J0D01*
G01*
X178990000Y-64594996D02*
G75*
G02*
X184990000Y-64594996I3000000J0D01*
G01*
%TO.C,REL00_4*%
X99100000Y-58294996D02*
X104000000Y-58294996D01*
X99100000Y-60894996D02*
X99100000Y-58294996D01*
X99100000Y-65894996D02*
X99100000Y-63294996D01*
X99100000Y-70894996D02*
X99100000Y-68294996D01*
X104000000Y-70894996D02*
X99100000Y-70894996D01*
X105800000Y-65094996D02*
X105800000Y-64094996D01*
X106300000Y-64594996D02*
X105300000Y-64594996D01*
X107600000Y-58294996D02*
X112500000Y-58294996D01*
X107700000Y-70894996D02*
X112500000Y-70894996D01*
X112500000Y-58294996D02*
X112500000Y-61094996D01*
X112500000Y-70894996D02*
X112500000Y-68394996D01*
X113000000Y-68694996D02*
X113300000Y-68394996D01*
X113300000Y-68394996D02*
X113600000Y-68694996D01*
X113600000Y-68694996D02*
X113000000Y-68694996D01*
X108800000Y-64594996D02*
G75*
G02*
X102800000Y-64594996I-3000000J0D01*
G01*
X102800000Y-64594996D02*
G75*
G02*
X108800000Y-64594996I3000000J0D01*
G01*
%TO.C,REL00_2*%
X156260000Y-58274996D02*
X161160000Y-58274996D01*
X156260000Y-60874996D02*
X156260000Y-58274996D01*
X156260000Y-65874996D02*
X156260000Y-63274996D01*
X156260000Y-70874996D02*
X156260000Y-68274996D01*
X161160000Y-70874996D02*
X156260000Y-70874996D01*
X162960000Y-65074996D02*
X162960000Y-64074996D01*
X163460000Y-64574996D02*
X162460000Y-64574996D01*
X164760000Y-58274996D02*
X169660000Y-58274996D01*
X164860000Y-70874996D02*
X169660000Y-70874996D01*
X169660000Y-58274996D02*
X169660000Y-61074996D01*
X169660000Y-70874996D02*
X169660000Y-68374996D01*
X170160000Y-68674996D02*
X170460000Y-68374996D01*
X170460000Y-68374996D02*
X170760000Y-68674996D01*
X170760000Y-68674996D02*
X170160000Y-68674996D01*
X165960000Y-64574996D02*
G75*
G02*
X159960000Y-64574996I-3000000J0D01*
G01*
X159960000Y-64574996D02*
G75*
G02*
X165960000Y-64574996I3000000J0D01*
G01*
%TD*%
M02*
