M48
; DRILL file {KiCad 8.0.2} date 2024-06-18T01:05:28+0900
; FORMAT={-:-/ absolute / inch / decimal}
; #@! TF.CreationDate,2024-06-18T01:05:28+09:00
; #@! TF.GenerationSoftware,Kicad,Pcbnew,8.0.2
; #@! TF.FileFunction,Plated,1,2,PTH
FMAT,2
INCH
; #@! TA.AperFunction,Plated,PTH,ViaDrill
T1C0.0118
; #@! TA.AperFunction,Plated,PTH,ComponentDrill
T2C0.0236
; #@! TA.AperFunction,Plated,PTH,ComponentDrill
T3C0.0295
; #@! TA.AperFunction,Plated,PTH,ComponentDrill
T4C0.0394
%
G90
G05
T1
X3.7992Y-6.5344
X3.8083Y-5.7144
X3.8118Y-6.8274
X3.815Y-3.8561
X3.8161Y-4.1332
X3.8173Y-6.1104
X3.8193Y-4.9974
X3.8335Y-5.8966
X3.8398Y-4.1092
X3.8498Y-5.2128
X3.8566Y-8.0777
X3.8579Y-2.3793
X3.8701Y-7.2431
X3.8736Y-6.9663
X3.8736Y-7.2042
X3.8886Y-4.96
X3.889Y-4.1033
X3.8894Y-5.9584
X3.8902Y-8.2187
X3.8944Y-4.0383
X3.9177Y-3.8332
X3.9185Y-5.0659
X3.9209Y-6.9202
X3.9209Y-7.2529
X3.9217Y-2.371
X3.9283Y-5.9982
X3.9317Y-5.7187
X3.9386Y-7.0147
X3.9447Y-6.0803
X3.9513Y-8.2796
X3.9665Y-2.7037
X3.9669Y-6.5954
X3.9673Y-2.8628
X3.9675Y-5.4994
X3.9768Y-5.0423
X3.9831Y-7.2986
X3.9909Y-5.658
X3.9913Y-3.2065
X3.9964Y-6.8867
X3.9996Y-6.3931
X4.0083Y-6.3622
X4.0094Y-6.3273
X4.0102Y-6.2946
X4.0144Y-2.8084
X4.015Y-8.553
X4.0382Y-5.4628
X4.0425Y-6.2935
X4.0559Y-2.8789
X4.0576Y-2.6878
X4.07Y-5.7043
X4.1Y-6.2513
X4.124Y-6.0706
X4.124Y-6.1336
X4.1475Y-6.7643
X4.1528Y-6.7333
X4.1626Y-6.1336
X4.1723Y-6.7082
X4.1843Y-7.5899
X4.1941Y-6.1336
X4.1945Y-6.8116
X4.2193Y-7.3769
X4.2193Y-7.4285
X4.2256Y-6.1336
X4.2367Y-6.6139
X4.2411Y-7.5309
X4.2427Y-2.6153
X4.2447Y-6.183
X4.2536Y-6.1527
X4.2607Y-6.2101
X4.2682Y-6.6139
X4.2831Y-4.1919
X4.2831Y-4.2431
X4.2845Y-6.2308
X4.2921Y-6.1336
X4.339Y-6.7347
X4.347Y-6.5482
X4.3583Y-5.4864
X4.3598Y-2.3939
X4.3702Y-6.8554
X4.3709Y-6.6065
X4.3711Y-6.6956
X4.3724Y-6.7347
X4.3917Y-3.4151
X4.3941Y-3.6572
X4.3949Y-4.7136
X4.395Y-4.7805
X4.4024Y-6.47
X4.4283Y-3.0647
X4.4283Y-4.7805
X4.4292Y-6.1679
X4.4531Y-6.5328
X4.4636Y-6.7881
X4.4646Y-6.4128
X4.4723Y-6.2752
X4.476Y-6.2395
X4.4776Y-3.7061
X4.4949Y-2.784
X4.5033Y-6.194
X4.5043Y-5.3576
X4.5044Y-6.0927
X4.5087Y-6.9092
X4.528Y-6.4178
X4.5358Y-5.3817
X4.5362Y-3.4494
X4.5386Y-6.9403
X4.5492Y-3.4151
X4.5566Y-5.6273
X4.5567Y-6.1072
X4.5567Y-6.1486
X4.5606Y-7.3198
X4.5606Y-7.8423
X4.5606Y-8.1954
X4.5614Y-4.9124
X4.5618Y-4.049
X4.5661Y-2.3344
X4.5661Y-2.8147
X4.5803Y-5.4104
X4.5803Y-6.0458
X4.5803Y-6.7667
X4.5803Y-7.5143
X4.5803Y-8.3053
X4.5854Y-4.1911
X4.6081Y-6.4645
X4.6173Y-2.3805
X4.6276Y-5.3313
X4.6276Y-5.3628
X4.6276Y-5.9986
X4.6276Y-6.8128
X4.6276Y-7.3864
X4.6276Y-8.2104
X4.6276Y-8.3541
X4.628Y-7.5604
X4.6327Y-4.049
X4.6327Y-4.1443
X4.635Y-7.8592
X4.6398Y-2.997
X4.6494Y-8.6385
X4.6541Y-4.9539
X4.6563Y-6.7891
X4.6579Y-7.4533
X4.663Y-5.2671
X4.6646Y-2.3805
X4.6732Y-5.9907
X4.6783Y-3.2069
X4.6823Y-6.0604
X4.7055Y-4.4281
X4.7055Y-8.3986
X4.7085Y-6.1539
X4.71Y-7.4346
X4.71Y-5.4039
X4.7111Y-4.186
X4.7111Y-6.8537
X4.7177Y-2.6459
X4.718Y-4.7172
X4.7185Y-2.4372
X4.7344Y-7.4146
X4.7374Y-7.6344
X4.7391Y-6.0369
X4.7413Y-4.0212
X4.7413Y-4.0684
X4.7417Y-4.9415
X4.7433Y-3.2069
X4.7543Y-5.7281
X4.7546Y-5.8382
X4.7642Y-6.4868
X4.7642Y-6.6376
X4.7646Y-4.4281
X4.7646Y-5.647
X4.7646Y-6.7222
X4.7646Y-7.1474
X4.7646Y-7.897
X4.7646Y-8.6463
X4.7673Y-3.0206
X4.7678Y-3.2305
X4.7697Y-4.9687
X4.7704Y-4.8375
X4.7776Y-2.6459
X4.9118Y-6.6612
X5.0217Y-6.538
X5.0787Y-5.2773
X5.0953Y-3.6305
X5.0953Y-3.7509
X5.1024Y-5.4844
X5.1028Y-4.7332
X5.1443Y-4.0464
X5.1969Y-4.6088
X5.2071Y-7.6309
X5.2091Y-8.5576
X5.2165Y-3.1541
X5.2291Y-4.6088
X5.2295Y-2.9734
X5.2295Y-3.0234
X5.2295Y-5.5509
X5.2324Y-5.894
X5.2402Y-3.4828
X5.2435Y-3.5515
X5.2531Y-4.7025
X5.2533Y-5.5787
X5.2545Y-5.8385
X5.2575Y-8.6198
X5.2626Y-4.612
X5.2638Y-3.0226
X5.2646Y-2.9734
X5.2654Y-3.5943
X5.274Y-8.7915
X5.2768Y-5.6356
X5.2819Y-6.9257
X5.289Y-4.6907
X5.3096Y-5.7499
X5.3099Y-5.6726
X5.3126Y-2.9978
X5.3126Y-3.0482
X5.3126Y-3.0868
X5.3126Y-6.3946
X5.3126Y-6.5844
X5.3291Y-8.4474
X5.3362Y-3.9939
X5.3362Y-5.0277
X5.3362Y-5.6899
X5.3362Y-6.4383
X5.3362Y-7.1628
X5.3362Y-7.9549
X5.3362Y-8.5576
X5.3366Y-8.6474
X5.3366Y-8.7915
X5.3598Y-6.249
X5.3835Y-3.0242
X5.3835Y-3.0584
X5.3835Y-3.4281
X5.3835Y-3.91
X5.3835Y-3.947
X5.3835Y-4.945
X5.3835Y-4.9817
X5.3835Y-5.6419
X5.3835Y-6.3946
X5.3835Y-6.4856
X5.3835Y-7.2088
X5.3835Y-8.0002
X5.3841Y-7.8078
X5.3961Y-6.0108
X5.3965Y-6.7891
X5.3965Y-7.5411
X5.3969Y-4.2513
X5.3969Y-5.2852
X5.4004Y-2.9976
X5.4024Y-6.2537
X5.4065Y-8.2684
X5.4102Y-5.488
X5.4193Y-7.0616
X5.4205Y-3.1238
X5.4559Y-2.658
X5.4575Y-5.5345
X5.4579Y-4.0194
X5.4595Y-5.0277
X5.4606Y-6.5301
X5.4634Y-7.2887
X5.4847Y-5.734
X5.4909Y-5.5679
X5.5146Y-6.7726
X5.5146Y-7.5214
X5.5146Y-8.2715
X5.515Y-2.647
X5.515Y-4.2396
X5.515Y-5.2719
X5.8122Y-2.873
X5.8772Y-3.9364
X5.9067Y-3.1978
X5.9079Y-3.8454
X5.9181Y-7.1509
X5.9248Y-6.4265
X5.9256Y-5.8226
X5.9268Y-5.7076
X5.9346Y-4.986
X5.9485Y-6.2718
X5.9504Y-5.438
X5.9524Y-7.7978
X5.9561Y-7.0216
X5.9583Y-4.8289
X6.0228Y-4.838
X6.035Y-2.9982
X6.052Y-3.0261
X6.052Y-3.0584
X6.052Y-3.0899
X6.052Y-3.1301
X6.052Y-3.8733
X6.052Y-5.5214
X6.052Y-6.2017
X6.052Y-6.9592
X6.052Y-7.7026
X6.0756Y-3.8998
X6.0756Y-4.8698
X6.0756Y-5.3954
X6.0756Y-5.5864
X6.0756Y-6.238
X6.0756Y-6.9868
X6.0756Y-7.7415
X6.0992Y-6.3061
X6.1165Y-2.3659
X6.1228Y-2.9982
X6.1228Y-3.0584
X6.1228Y-3.1517
X6.1228Y-3.8065
X6.1228Y-3.8529
X6.1228Y-4.7368
X6.1228Y-4.8242
X6.1228Y-5.3478
X6.1228Y-5.4513
X6.1228Y-5.5403
X6.1228Y-6.2017
X6.1228Y-6.2852
X6.1228Y-6.9584
X6.1228Y-7.0328
X6.1228Y-7.7017
X6.1228Y-7.7887
X6.1248Y-3.1143
X6.1455Y-5.8226
X6.1465Y-4.1612
X6.1465Y-5.0954
X6.1465Y-6.599
X6.1465Y-7.3513
X6.1466Y-8.074
X6.1469Y-5.8986
X6.163Y-3.082
X6.1756Y-2.3659
X6.2055Y-3.938
X6.2055Y-4.8757
X6.2055Y-5.6258
X6.2055Y-6.3758
X6.2055Y-7.1258
X6.2055Y-7.8758
X6.2065Y-2.3895
X6.2161Y-2.6525
X6.2213Y-7.6718
X6.2295Y-6.1761
X6.2303Y-6.9254
X6.235Y-4.6761
X6.2398Y-5.2553
X6.2508Y-3.74
X6.2776Y-2.6463
X6.2776Y-3.2265
X6.5295Y-2.9982
X6.6208Y-2.9981
X6.7118Y-5.3033
X6.7815Y-3.2265
X6.7827Y-3.2738
X6.789Y-5.1974
X6.7906Y-5.1368
X6.8008Y-3.7088
X6.8024Y-4.3867
X6.8043Y-2.9982
X6.8102Y-3.0291
X6.8102Y-3.0612
X6.8102Y-5.7446
X6.8102Y-6.6037
X6.8102Y-7.3242
X6.8339Y-3.7234
X6.8339Y-4.3872
X6.8339Y-5.1915
X6.8339Y-5.8616
X6.8339Y-6.6372
X6.8339Y-7.3761
X6.8339Y-8.1344
X6.8339Y-8.2324
X6.8575Y-5.8317
X6.8657Y-2.3777
X6.8811Y-2.9982
X6.8811Y-3.0297
X6.8811Y-3.0612
X6.8811Y-3.6277
X6.8811Y-3.6765
X6.8811Y-4.3269
X6.8811Y-4.4328
X6.8811Y-4.4683
X6.8811Y-5.1915
X6.8811Y-5.4769
X6.8811Y-5.7167
X6.8811Y-5.9088
X6.8811Y-6.5742
X6.8811Y-6.6836
X6.8811Y-6.9781
X6.8811Y-7.0133
X6.8811Y-7.3242
X6.8811Y-7.423
X6.8811Y-8.182
X6.8811Y-8.232
X6.8835Y-5.1076
X6.8835Y-7.473
X6.8835Y-7.7265
X6.8902Y-5.9679
X6.8909Y-4.725
X6.8909Y-6.2226
X6.8918Y-5.521
X6.8953Y-4.0175
X6.8961Y-3.9789
X6.8992Y-8.4503
X6.9185Y-2.3777
X6.9539Y-3.7443
X6.9547Y-6.7218
X6.9555Y-5.2285
X6.9654Y-2.6478
X6.9665Y-2.4013
X6.9909Y-2.823
X7.0142Y-4.7093
X7.0146Y-6.2085
X7.0146Y-7.71
X7.015Y-8.4587
X7.0469Y-2.773
X7.0557Y-2.6908
X7.4906Y-2.9366
X7.4961Y-3.0076
X7.9649Y-3.872
X7.9657Y-7.8715
X8.0122Y-3.8303
X8.0523Y-4.0854
X8.0685Y-3.4419
X8.0858Y-3.9819
X8.0925Y-6.6848
X8.0956Y-6.8502
X8.1641Y-3.3929
X8.2212Y-7.5569
X8.2547Y-7.7281
X8.2602Y-6.8967
X8.2602Y-7.0404
X8.2689Y-3.7803
X8.2787Y-7.2719
X8.2901Y-7.1205
X8.2917Y-6.8971
X9.2516Y-2.8157
X9.2516Y-5.4413
X9.2516Y-6.1913
X9.2516Y-7.6901
X9.252Y-3.9409
X9.252Y-6.9401
X9.2524Y-4.6901
X9.2887Y-6.468
X9.2942Y-4.9476
X9.2959Y-7.9592
X9.3107Y-8.4401
X9.3111Y-3.9409
X9.3123Y-2.8157
X9.3308Y-6.5747
X9.3355Y-4.1688
X9.3406Y-3.1979
X9.3434Y-5.6779
X9.3446Y-8.0976
X9.345Y-7.3228
X9.3461Y-3.055
X9.3461Y-3.1086
X9.3461Y-5.4413
X9.3461Y-5.7247
X9.3461Y-5.8263
X9.3461Y-6.1913
X9.3461Y-6.5031
X9.3461Y-7.6901
X9.3461Y-7.985
X9.3465Y-4.2409
X9.3465Y-4.3216
X9.3465Y-6.9401
X9.3465Y-7.194
X9.3465Y-7.2357
X9.3469Y-4.6901
X9.3469Y-4.9712
X9.3469Y-5.0731
X9.3865Y-8.622
X9.3894Y-8.3948
X9.3934Y-2.8291
X9.3938Y-3.9007
X9.3938Y-5.4192
X9.3938Y-6.1739
X9.3938Y-6.9161
X9.3938Y-7.6688
X9.3942Y-4.672
X9.4131Y-8.5452
X9.417Y-3.1275
X9.4174Y-4.2641
X9.4229Y-4.9476
X9.4229Y-5.7023
X9.4229Y-6.472
X9.4229Y-7.2098
X9.4229Y-7.9594
X9.4229Y-8.405
X9.4406Y-3.1979
X9.4465Y-4.9834
X9.4465Y-5.7519
X9.4465Y-6.4953
X9.4465Y-7.3228
X9.4513Y-4.2806
X9.4603Y-8.033
X9.5001Y-2.9991
X9.6997Y-8.868
X9.7501Y-8.4491
X10.0016Y-3.5669
X10.0016Y-4.3149
X10.0016Y-5.8165
X10.0016Y-8.0661
X10.002Y-5.0661
X10.002Y-6.5657
X10.002Y-7.3157
X10.0373Y-5.321
X10.0393Y-4.5692
X10.0477Y-6.833
X10.0497Y-6.0767
X10.0502Y-7.6116
X10.0544Y-3.8255
X10.0556Y-2.8787
X10.0611Y-2.6279
X10.0867Y-8.3479
X10.0957Y-5.4507
X10.0961Y-3.5669
X10.0961Y-3.8491
X10.0961Y-3.9479
X10.0961Y-4.3149
X10.0961Y-4.5944
X10.0961Y-4.7121
X10.0965Y-2.9113
X10.0965Y-3.0094
X10.0965Y-5.0661
X10.0965Y-5.3456
X10.0965Y-5.8165
X10.0965Y-6.1003
X10.0965Y-6.1987
X10.0965Y-6.5657
X10.0965Y-6.8574
X10.0965Y-6.9483
X10.0965Y-7.3157
X10.0965Y-7.6472
X10.0965Y-7.6979
X10.1438Y-2.6507
X10.1438Y-7.6081
X10.1438Y-7.9283
X10.1447Y-3.5401
X10.1447Y-4.2952
X10.1447Y-5.0416
X10.1447Y-5.7983
X10.1447Y-6.5491
X10.1447Y-7.2948
X10.1447Y-7.5423
X10.1519Y-8.222
X10.1684Y-2.9653
X10.1684Y-3.8275
X10.1721Y-8.8042
X10.1755Y-7.618
X10.1758Y-4.5602
X10.1758Y-5.3208
X10.1758Y-6.0838
X10.1758Y-6.8346
X10.1758Y-7.5708
X10.192Y-3.0094
X10.192Y-3.9479
X10.1991Y-7.9916
X10.1995Y-4.6668
X10.1995Y-5.3625
X10.1995Y-6.1983
X10.1995Y-6.8751
X10.2228Y-8.144
X10.2383Y-7.5708
X10.3532Y-8.3373
X10.7198Y-8.3531
X10.7512Y-8.3885
X10.7516Y-2.9094
X10.7516Y-4.1291
X10.752Y-4.8783
X10.752Y-5.6287
X10.752Y-6.3783
X10.752Y-7.1283
X10.7776Y-7.4039
X10.7898Y-5.8979
X10.7908Y-4.4035
X10.8083Y-4.5105
X10.8103Y-2.9094
X10.8107Y-4.1291
X10.8229Y-7.434
X10.8229Y-7.5094
X10.8249Y-3.8554
X10.8414Y-5.2617
X10.8461Y-3.1724
X10.8461Y-3.2275
X10.8461Y-3.2913
X10.8461Y-4.4271
X10.8465Y-4.8783
X10.8465Y-5.1176
X10.8465Y-5.1743
X10.8465Y-5.6287
X10.8465Y-5.9306
X10.8465Y-6.0137
X10.8465Y-6.3783
X10.8465Y-6.618
X10.8465Y-6.6637
X10.8465Y-6.8657
X10.8465Y-7.1283
X10.8465Y-7.407
X10.8513Y-8.8121
X10.8796Y-8.0365
X10.8934Y-2.9243
X10.8934Y-4.0602
X10.8938Y-4.8594
X10.8938Y-5.6109
X10.8938Y-6.3594
X10.8938Y-7.105
X10.8938Y-7.3574
X10.9068Y-8.0783
X10.9068Y-8.4121
X10.917Y-3.2531
X10.9229Y-4.4007
X10.9229Y-5.1487
X10.9229Y-5.9031
X10.9229Y-6.6487
X10.9335Y-7.2889
X10.9406Y-3.2913
X10.9436Y-8.0773
X10.9465Y-3.855
X10.9465Y-4.6188
X10.9465Y-6.083
X10.9465Y-6.9377
X10.9611Y-7.2653
X10.9639Y-5.3842
X10.9922Y-7.2566
X10.9922Y-7.344
X11.0225Y-7.2653
X11.032Y-7.6897
X11.4647Y-7.2354
X11.4989Y-7.2346
X11.5016Y-2.4403
X11.5016Y-3.4716
X11.5016Y-4.5031
X11.5016Y-5.2527
X11.5016Y-6.0039
X11.5016Y-6.7539
X11.5016Y-7.5035
X11.502Y-8.2539
X11.5493Y-5.5228
X11.5501Y-3.7385
X11.5513Y-4.7751
X11.552Y-6.2696
X11.5552Y-7.0086
X11.5595Y-7.7668
X11.5607Y-2.4403
X11.5665Y-2.6937
X11.5737Y-8.5121
X11.5759Y-7.0907
X11.5835Y-3.8566
X11.5867Y-5.6338
X11.5961Y-2.7255
X11.5961Y-2.8239
X11.5961Y-3.4716
X11.5961Y-3.77
X11.5961Y-4.5031
X11.5961Y-4.7987
X11.5961Y-4.8842
X11.5961Y-5.2527
X11.5961Y-5.5456
X11.5961Y-6.0039
X11.5961Y-6.294
X11.5961Y-6.4924
X11.5961Y-6.7539
X11.5961Y-7.0322
X11.5961Y-7.3338
X11.5961Y-7.5035
X11.5961Y-7.7905
X11.5961Y-7.9176
X11.5961Y-8.0094
X11.5989Y-7.3771
X11.6079Y-8.5121
X11.6434Y-2.4109
X11.6434Y-3.4594
X11.6434Y-4.4822
X11.6434Y-5.2318
X11.6434Y-5.9905
X11.6434Y-6.7369
X11.6434Y-7.4814
X11.6453Y-8.5224
X11.6453Y-8.568
X11.6453Y-8.6231
X11.667Y-2.7444
X11.667Y-3.7377
X11.667Y-4.772
X11.6729Y-6.2696
X11.6906Y-4.8842
X11.6918Y-5.5105
X11.6918Y-6.7739
X11.6926Y-6.8318
X11.6926Y-7.0011
X11.6926Y-7.1574
X11.6926Y-7.3102
X11.6926Y-7.9653
X11.6926Y-8.5227
X11.695Y-8.5948
X11.706Y-7.4617
X11.7162Y-7.9176
X11.7162Y-7.3574
X11.7404Y-7.4381
X11.7613Y-6.768
X11.7613Y-6.8591
X11.764Y-7.9176
X11.7729Y-3.9948
X11.7928Y-6.8598
X11.7965Y-5.1857
X11.8213Y-6.9357
X11.8242Y-6.8602
X11.8245Y-8.6227
X11.8347Y-7.9507
X11.8414Y-7.4027
X11.8715Y-6.8498
X11.8879Y-6.8228
X11.8949Y-7.3554
X11.9142Y-7.1495
X11.9142Y-7.181
X11.9178Y-7.1171
X11.9191Y-7.0856
X11.9658Y-8.8121
X11.9686Y-6.746
X12.0003Y-2.9174
X12.0013Y-7.2369
X12.0096Y-7.1226
X12.0245Y-6.255
X12.041Y-7.1302
X12.056Y-6.6586
X12.0894Y-7.2369
X12.1035Y-7.1897
X12.1056Y-6.6692
X12.1217Y-8.0759
X12.1768Y-7.1661
X12.1898Y-6.8076
X12.1958Y-6.7235
X12.2076Y-7.1897
X12.2292Y-6.7235
X12.2513Y-5.7216
X12.2516Y-7.5972
X12.252Y-2.534
X12.252Y-3.4716
X12.252Y-4.4086
X12.2528Y-6.8397
X12.2552Y-7.2369
X12.2782Y-6.7472
X12.282Y-7.8739
X12.2898Y-3.7346
X12.3017Y-6.791
X12.3111Y-2.534
X12.3162Y-8.4365
X12.3214Y-8.7326
X12.3249Y-5.4621
X12.3253Y-6.0208
X12.342Y-6.9157
X12.3457Y-5.7216
X12.3457Y-5.9598
X12.3465Y-2.8145
X12.3465Y-3.4716
X12.3465Y-3.77
X12.3489Y-7.8784
X12.3513Y-4.6535
X12.3556Y-8.7318
X12.3574Y-4.4078
X12.3576Y-4.8578
X12.3726Y-4.7756
X12.3757Y-6.6822
X12.393Y-5.996
X12.3938Y-2.4853
X12.3938Y-2.8602
X12.3938Y-3.7487
X12.3946Y-5.4814
X12.3957Y-6.7389
X12.4016Y-5.4503
X12.415Y-7.8431
X12.4229Y-5.7338
X12.4249Y-4.3712
X12.4272Y-3.4357
X12.4496Y-5.6609
X12.4627Y-8.4322
X12.4675Y-7.8575
X12.4682Y-8.0401
T3
X6.0315Y-8.5262
X6.0315Y-8.6049
X6.0315Y-8.6837
X6.0315Y-8.7624
X6.0315Y-8.8411
X8.1228Y-7.0726
X8.1228Y-7.1514
X8.1228Y-7.2301
X8.1228Y-7.3089
X8.1228Y-7.3876
X8.1476Y-3.7252
X8.1476Y-3.8039
X8.1476Y-3.8827
X8.1476Y-3.9614
X8.1476Y-4.0402
X10.2335Y-8.5294
X10.2335Y-8.6082
X10.2335Y-8.6869
X10.2335Y-8.7657
X10.2335Y-8.8444
T4
X3.8898Y-2.4447
X3.8898Y-2.6415
X4.4606Y-2.4447
X4.4606Y-2.5431
X4.4606Y-2.6415
X4.6409Y-2.4435
X4.6409Y-2.6404
X5.2118Y-2.4435
X5.2118Y-2.5419
X5.2118Y-2.6404
X6.1402Y-2.4439
X6.1402Y-2.6407
X6.711Y-2.4439
X6.711Y-2.5423
X6.711Y-2.6407
X6.8894Y-2.4447
X6.8894Y-2.6415
X7.4602Y-2.4447
X7.4602Y-2.5431
X7.4602Y-2.6415
T2
G00X7.9007Y-3.2398
M15
G01X7.9244Y-3.2398
M16
G05
G00X7.9007Y-3.5799
M15
G01X7.9244Y-3.5799
M16
G05
G00X8.0555Y-3.2398
M15
G01X8.0988Y-3.2398
M16
G05
G00X8.0555Y-3.5799
M15
G01X8.0988Y-3.5799
M16
G05
G00X8.2122Y-6.5876
M15
G01X8.1689Y-6.5876
M16
G05
G00X8.2122Y-6.9278
M15
G01X8.1689Y-6.9278
M16
G05
G00X8.3669Y-6.5876
M15
G01X8.3433Y-6.5876
M16
G05
G00X8.3669Y-6.9278
M15
G01X8.3433Y-6.9278
M16
G05
T4
G00X7.9468Y-7.7868
M15
G01X7.9271Y-7.7868
M16
G05
G00X8.0059Y-7.6175
M15
G01X7.9862Y-7.6175
M16
G05
G00X7.9885Y-4.4406
M15
G01X8.0082Y-4.4406
M16
G05
G00X8.1067Y-4.4406
M15
G01X8.1263Y-4.4406
M16
G05
G00X8.1633Y-7.6175
M15
G01X8.1437Y-7.6175
M16
G05
G00X8.2815Y-7.6175
M15
G01X8.2618Y-7.6175
M16
G05
G00X8.2641Y-4.4406
M15
G01X8.2838Y-4.4406
M16
G05
G00X8.3232Y-4.2713
M15
G01X8.3429Y-4.2713
M16
G05
M30
