%TF.GenerationSoftware,KiCad,Pcbnew,8.0.2*%
%TF.CreationDate,2024-06-18T01:05:25+09:00*%
%TF.ProjectId,accelerator,61636365-6c65-4726-9174-6f722e6b6963,v1.0.0*%
%TF.SameCoordinates,Original*%
%TF.FileFunction,Soldermask,Bot*%
%TF.FilePolarity,Negative*%
%FSLAX46Y46*%
G04 Gerber Fmt 4.6, Leading zero omitted, Abs format (unit mm)*
G04 Created by KiCad (PCBNEW 8.0.2) date 2024-06-18 01:05:25*
%MOMM*%
%LPD*%
G01*
G04 APERTURE LIST*
G04 Aperture macros list*
%AMRoundRect*
0 Rectangle with rounded corners*
0 $1 Rounding radius*
0 $2 $3 $4 $5 $6 $7 $8 $9 X,Y pos of 4 corners*
0 Add a 4 corners polygon primitive as box body*
4,1,4,$2,$3,$4,$5,$6,$7,$8,$9,$2,$3,0*
0 Add four circle primitives for the rounded corners*
1,1,$1+$1,$2,$3*
1,1,$1+$1,$4,$5*
1,1,$1+$1,$6,$7*
1,1,$1+$1,$8,$9*
0 Add four rect primitives between the rounded corners*
20,1,$1+$1,$2,$3,$4,$5,0*
20,1,$1+$1,$4,$5,$6,$7,0*
20,1,$1+$1,$6,$7,$8,$9,0*
20,1,$1+$1,$8,$9,$2,$3,0*%
G04 Aperture macros list end*
%ADD10R,0.820000X1.800000*%
%ADD11C,1.750000*%
%ADD12C,3.000000*%
%ADD13C,3.987800*%
%ADD14R,2.500000X2.550000*%
%ADD15C,3.048000*%
%ADD16R,3.000000X2.500000*%
%ADD17R,2.000000X2.000000*%
%ADD18C,2.000000*%
%ADD19C,0.600000*%
%ADD20C,0.650000*%
%ADD21R,1.450000X0.600000*%
%ADD22R,1.450000X0.300000*%
%ADD23O,1.600000X1.000000*%
%ADD24O,2.100000X1.000000*%
%ADD25R,0.900000X1.200000*%
%ADD26R,1.200000X1.400000*%
%ADD27C,2.200000*%
%ADD28RoundRect,0.250000X0.625000X-0.350000X0.625000X0.350000X-0.625000X0.350000X-0.625000X-0.350000X0*%
%ADD29O,1.750000X1.200000*%
%ADD30RoundRect,0.250000X-0.312500X-0.625000X0.312500X-0.625000X0.312500X0.625000X-0.312500X0.625000X0*%
%ADD31RoundRect,0.250000X-0.375000X-0.625000X0.375000X-0.625000X0.375000X0.625000X-0.375000X0.625000X0*%
%ADD32R,0.609000X0.250000*%
%ADD33R,0.609000X0.380000*%
%ADD34RoundRect,0.250000X-0.325000X-0.650000X0.325000X-0.650000X0.325000X0.650000X-0.325000X0.650000X0*%
%ADD35C,1.200000*%
%ADD36O,2.300000X1.500000*%
%ADD37RoundRect,0.250000X0.325000X0.650000X-0.325000X0.650000X-0.325000X-0.650000X0.325000X-0.650000X0*%
%ADD38RoundRect,0.250000X0.312500X0.625000X-0.312500X0.625000X-0.312500X-0.625000X0.312500X-0.625000X0*%
%ADD39RoundRect,0.062500X-0.062500X0.475000X-0.062500X-0.475000X0.062500X-0.475000X0.062500X0.475000X0*%
%ADD40RoundRect,0.062500X-0.475000X0.062500X-0.475000X-0.062500X0.475000X-0.062500X0.475000X0.062500X0*%
%ADD41R,5.200000X5.200000*%
%ADD42RoundRect,0.250000X-0.625000X0.350000X-0.625000X-0.350000X0.625000X-0.350000X0.625000X0.350000X0*%
%ADD43R,0.750000X1.000000*%
%ADD44RoundRect,0.062500X0.062500X-0.475000X0.062500X0.475000X-0.062500X0.475000X-0.062500X-0.475000X0*%
%ADD45RoundRect,0.062500X0.475000X-0.062500X0.475000X0.062500X-0.475000X0.062500X-0.475000X-0.062500X0*%
%ADD46RoundRect,0.150000X0.150000X0.200000X-0.150000X0.200000X-0.150000X-0.200000X0.150000X-0.200000X0*%
%ADD47RoundRect,0.150000X-0.150000X-0.200000X0.150000X-0.200000X0.150000X0.200000X-0.150000X0.200000X0*%
G04 APERTURE END LIST*
D10*
%TO.C,LLED25*%
X121350000Y-62055000D03*
X119850000Y-62055000D03*
X119850000Y-67055000D03*
X121350000Y-67055000D03*
%TD*%
%TO.C,RLED27*%
X292141887Y-176697889D03*
X293641887Y-176697889D03*
X293641887Y-171697889D03*
X292141887Y-171697889D03*
%TD*%
D11*
%TO.C,SWR00_3*%
X231141887Y-184011889D03*
D12*
X228601887Y-182741889D03*
D13*
X231141887Y-178931889D03*
D12*
X226061887Y-176391889D03*
D11*
X231141887Y-173851889D03*
D14*
X228601887Y-186016889D03*
X226061887Y-173089889D03*
%TD*%
D10*
%TO.C,RLED39*%
X311201887Y-93327889D03*
X312701887Y-93327889D03*
X312701887Y-88327889D03*
X311201887Y-88327889D03*
%TD*%
D11*
%TO.C,SWL00_13*%
X162970000Y-159524996D03*
D12*
X165510000Y-160794996D03*
D13*
X162970000Y-164604996D03*
D12*
X168050000Y-167144996D03*
D11*
X162970000Y-169684996D03*
D14*
X165510000Y-157519996D03*
X168050000Y-170446996D03*
%TD*%
D10*
%TO.C,RLED2*%
X234991887Y-200477889D03*
X236491887Y-200477889D03*
X236491887Y-195477889D03*
X234991887Y-195477889D03*
%TD*%
D11*
%TO.C,SWR00_6*%
X231161887Y-126861889D03*
D12*
X228621887Y-125591889D03*
D13*
X231161887Y-121781889D03*
D12*
X226081887Y-119241889D03*
D11*
X231161887Y-116701889D03*
D14*
X228621887Y-128866889D03*
X226081887Y-115939889D03*
%TD*%
D11*
%TO.C,SWL00_5*%
X182020000Y-149974996D03*
D12*
X184560000Y-151244996D03*
D13*
X182020000Y-155054996D03*
D12*
X187100000Y-157594996D03*
D11*
X182020000Y-160134996D03*
D14*
X184560000Y-147969996D03*
X187100000Y-160896996D03*
%TD*%
D11*
%TO.C,SWL00_31*%
X124875200Y-192849996D03*
D12*
X127415200Y-194119996D03*
D13*
X124875200Y-197929996D03*
D12*
X129955200Y-200469996D03*
D11*
X124875200Y-203009996D03*
D14*
X127415200Y-190844996D03*
X129955200Y-203771996D03*
%TD*%
D10*
%TO.C,RLED11*%
X254051887Y-171917889D03*
X255551887Y-171917889D03*
X255551887Y-166917889D03*
X254051887Y-166917889D03*
%TD*%
%TO.C,LLED6*%
X178190000Y-171595000D03*
X176690000Y-171595000D03*
X176690000Y-176595000D03*
X178190000Y-176595000D03*
%TD*%
%TO.C,LLED10*%
X159120000Y-100174000D03*
X157620000Y-100174000D03*
X157620000Y-105174000D03*
X159120000Y-105174000D03*
%TD*%
%TO.C,RLED32*%
X292141887Y-67132889D03*
X293641887Y-67132889D03*
X293641887Y-62132889D03*
X292141887Y-62132889D03*
%TD*%
%TO.C,RLED36*%
X311181887Y-150477889D03*
X312681887Y-150477889D03*
X312681887Y-145477889D03*
X311181887Y-145477889D03*
%TD*%
D11*
%TO.C,SWR00_13*%
X250196687Y-136406889D03*
D12*
X247656687Y-135136889D03*
D13*
X250196687Y-131326889D03*
D12*
X245116687Y-128786889D03*
D11*
X250196687Y-126246889D03*
D14*
X247656687Y-138411889D03*
X245116687Y-125484889D03*
%TD*%
D11*
%TO.C,SWR00_30*%
X288301887Y-122111889D03*
D12*
X285761887Y-120841889D03*
D13*
X288301887Y-117031889D03*
D12*
X283221887Y-114491889D03*
D11*
X288301887Y-111951889D03*
D14*
X285761887Y-124116889D03*
X283221887Y-111189889D03*
%TD*%
D10*
%TO.C,LLED18*%
X140080000Y-102535000D03*
X138580000Y-102535000D03*
X138580000Y-107535000D03*
X140080000Y-107535000D03*
%TD*%
%TO.C,RLED6*%
X235011887Y-124277889D03*
X236511887Y-124277889D03*
X236511887Y-119277889D03*
X235011887Y-119277889D03*
%TD*%
%TO.C,LLED34*%
X101980000Y-97775000D03*
X100480000Y-97775000D03*
X100480000Y-102775000D03*
X101980000Y-102775000D03*
%TD*%
D11*
%TO.C,SWR00_12*%
X250216687Y-155466889D03*
D12*
X247676687Y-154196889D03*
D13*
X250216687Y-150386889D03*
D12*
X245136687Y-147846889D03*
D11*
X250216687Y-145306889D03*
D14*
X247676687Y-157471889D03*
X245136687Y-144544889D03*
%TD*%
D11*
%TO.C,SWR00_25*%
X288296687Y-217366889D03*
D12*
X285756687Y-216096889D03*
D13*
X288296687Y-212286889D03*
D12*
X283216687Y-209746889D03*
D11*
X288296687Y-207206889D03*
D14*
X285756687Y-219371889D03*
X283216687Y-206444889D03*
%TD*%
D11*
%TO.C,SWL00_30*%
X124875200Y-173819996D03*
D12*
X127415200Y-175089996D03*
D13*
X124875200Y-178899996D03*
D12*
X129955200Y-181439996D03*
D11*
X124875200Y-183979996D03*
D14*
X127415200Y-171814996D03*
X129955200Y-184741996D03*
%TD*%
D10*
%TO.C,LLED2*%
X178160000Y-95395000D03*
X176660000Y-95395000D03*
X176660000Y-100395000D03*
X178160000Y-100395000D03*
%TD*%
D11*
%TO.C,SWL00_12*%
X162980000Y-140464996D03*
D12*
X165520000Y-141734996D03*
D13*
X162980000Y-145544996D03*
D12*
X168060000Y-148084996D03*
D11*
X162980000Y-150624996D03*
D14*
X165520000Y-138459996D03*
X168060000Y-151386996D03*
%TD*%
D11*
%TO.C,SWL00_2*%
X182020000Y-92844996D03*
D12*
X184560000Y-94114996D03*
D13*
X182020000Y-97924996D03*
D12*
X187100000Y-100464996D03*
D11*
X182020000Y-103004996D03*
D14*
X184560000Y-90839996D03*
X187100000Y-103766996D03*
%TD*%
D11*
%TO.C,SWR00_40*%
X307346687Y-72096889D03*
D12*
X304806687Y-70826889D03*
D13*
X307346687Y-67016889D03*
D12*
X302266687Y-64476889D03*
D11*
X307346687Y-61936889D03*
D14*
X304806687Y-74101889D03*
X302266687Y-61174889D03*
%TD*%
D11*
%TO.C,SWL00_32*%
X124890000Y-211884996D03*
D12*
X127430000Y-213154996D03*
D13*
X124890000Y-216964996D03*
D12*
X129970000Y-219504996D03*
D11*
X124890000Y-222044996D03*
D14*
X127430000Y-209879996D03*
X129970000Y-222806996D03*
%TD*%
D10*
%TO.C,RLED7*%
X235001887Y-105248889D03*
X236501887Y-105248889D03*
X236501887Y-100248889D03*
X235001887Y-100248889D03*
%TD*%
D11*
%TO.C,SWL00_29*%
X124870000Y-154744996D03*
D12*
X127410000Y-156014996D03*
D13*
X124870000Y-159824996D03*
D12*
X129950000Y-162364996D03*
D11*
X124870000Y-164904996D03*
D14*
X127410000Y-152739996D03*
X129950000Y-165666996D03*
%TD*%
D10*
%TO.C,LLED15*%
X159120000Y-200195000D03*
X157620000Y-200195000D03*
X157620000Y-205195000D03*
X159120000Y-205195000D03*
%TD*%
D11*
%TO.C,SWL00_4*%
X182015200Y-130929996D03*
D12*
X184555200Y-132199996D03*
D13*
X182015200Y-136009996D03*
D12*
X187095200Y-138549996D03*
D11*
X182015200Y-141089996D03*
D14*
X184555200Y-128924996D03*
X187095200Y-141851996D03*
%TD*%
D11*
%TO.C,SWL00_1*%
X182010000Y-59514996D03*
D12*
X184550000Y-60784996D03*
D13*
X182010000Y-64594996D03*
D12*
X187090000Y-67134996D03*
D11*
X182010000Y-69674996D03*
D14*
X184550000Y-57509996D03*
X187090000Y-70436996D03*
%TD*%
D10*
%TO.C,LLED12*%
X159120000Y-143045000D03*
X157620000Y-143045000D03*
X157620000Y-148045000D03*
X159120000Y-148045000D03*
%TD*%
D11*
%TO.C,SWL00_15*%
X162960000Y-197604996D03*
D12*
X165500000Y-198874996D03*
D13*
X162960000Y-202684996D03*
D12*
X168040000Y-205224996D03*
D11*
X162960000Y-207764996D03*
D14*
X165500000Y-195599996D03*
X168040000Y-208526996D03*
%TD*%
D10*
%TO.C,RLED25*%
X292151887Y-214797889D03*
X293651887Y-214797889D03*
X293651887Y-209797889D03*
X292151887Y-209797889D03*
%TD*%
%TO.C,RLED5*%
X234991887Y-143357889D03*
X236491887Y-143357889D03*
X236491887Y-138357889D03*
X234991887Y-138357889D03*
%TD*%
%TO.C,RLED18*%
X273101887Y-186208889D03*
X274601887Y-186208889D03*
X274601887Y-181208889D03*
X273101887Y-181208889D03*
%TD*%
%TO.C,RLED34*%
X311191887Y-198117889D03*
X312691887Y-198117889D03*
X312691887Y-193117889D03*
X311191887Y-193117889D03*
%TD*%
%TO.C,LLED8*%
X178180000Y-209700000D03*
X176680000Y-209700000D03*
X176680000Y-214700000D03*
X178180000Y-214700000D03*
%TD*%
D11*
%TO.C,SWL00_20*%
X143920000Y-145224996D03*
D12*
X146460000Y-146494996D03*
D13*
X143920000Y-150304996D03*
D12*
X149000000Y-152844996D03*
D11*
X143920000Y-155384996D03*
D14*
X146460000Y-143219996D03*
X149000000Y-156146996D03*
%TD*%
D10*
%TO.C,LLED11*%
X159120000Y-123994000D03*
X157620000Y-123994000D03*
X157620000Y-128994000D03*
X159120000Y-128994000D03*
%TD*%
D15*
%TO.C,SWR00_8*%
X224176887Y-86109889D03*
D13*
X239416887Y-86109889D03*
D11*
X231161887Y-79251889D03*
D12*
X228621887Y-77981889D03*
D13*
X231161887Y-74171889D03*
D12*
X226081887Y-71631889D03*
D11*
X231161887Y-69091889D03*
D15*
X224176887Y-62233889D03*
D13*
X239416887Y-62233889D03*
D14*
X228621887Y-81256889D03*
X226081887Y-68329889D03*
%TD*%
D10*
%TO.C,RLED17*%
X273101887Y-205257889D03*
X274601887Y-205257889D03*
X274601887Y-200257889D03*
X273101887Y-200257889D03*
%TD*%
D11*
%TO.C,SWL00_33*%
X105825200Y-59509996D03*
D12*
X108365200Y-60779996D03*
D13*
X105825200Y-64589996D03*
D12*
X110905200Y-67129996D03*
D11*
X105825200Y-69669996D03*
D14*
X108365200Y-57504996D03*
X110905200Y-70431996D03*
%TD*%
D11*
%TO.C,SWL00_10*%
X162960000Y-97599996D03*
D12*
X165500000Y-98869996D03*
D13*
X162960000Y-102679996D03*
D12*
X168040000Y-105219996D03*
D11*
X162960000Y-107759996D03*
D14*
X165500000Y-95594996D03*
X168040000Y-108521996D03*
%TD*%
D11*
%TO.C,SWL00_9*%
X162965200Y-59479996D03*
D12*
X165505200Y-60749996D03*
D13*
X162965200Y-64559996D03*
D12*
X168045200Y-67099996D03*
D11*
X162965200Y-69639996D03*
D14*
X165505200Y-57474996D03*
X168045200Y-70401996D03*
%TD*%
D11*
%TO.C,SWR00_15*%
X250201887Y-98321889D03*
D12*
X247661887Y-97051889D03*
D13*
X250201887Y-93241889D03*
D12*
X245121887Y-90701889D03*
D11*
X250201887Y-88161889D03*
D14*
X247661887Y-100326889D03*
X245121887Y-87399889D03*
%TD*%
D11*
%TO.C,SWR00_16*%
X250196687Y-74476889D03*
D12*
X247656687Y-73206889D03*
D13*
X250196687Y-69396889D03*
D12*
X245116687Y-66856889D03*
D11*
X250196687Y-64316889D03*
D14*
X247656687Y-76481889D03*
X245116687Y-63554889D03*
%TD*%
D10*
%TO.C,RLED15*%
X254041887Y-95748889D03*
X255541887Y-95748889D03*
X255541887Y-90748889D03*
X254041887Y-90748889D03*
%TD*%
D11*
%TO.C,SWL00_14*%
X162960000Y-178559996D03*
D12*
X165500000Y-179829996D03*
D13*
X162960000Y-183639996D03*
D12*
X168040000Y-186179996D03*
D11*
X162960000Y-188719996D03*
D14*
X165500000Y-176554996D03*
X168040000Y-189481996D03*
%TD*%
D10*
%TO.C,RLED16*%
X254051887Y-71898889D03*
X255551887Y-71898889D03*
X255551887Y-66898889D03*
X254051887Y-66898889D03*
%TD*%
D11*
%TO.C,SWL00_23*%
X143920000Y-202364996D03*
D12*
X146460000Y-203634996D03*
D13*
X143920000Y-207444996D03*
D12*
X149000000Y-209984996D03*
D11*
X143920000Y-212524996D03*
D14*
X146460000Y-200359996D03*
X149000000Y-213286996D03*
%TD*%
D11*
%TO.C,SWR00_20*%
X269246687Y-150696889D03*
D12*
X266706687Y-149426889D03*
D13*
X269246687Y-145616889D03*
D12*
X264166687Y-143076889D03*
D11*
X269246687Y-140536889D03*
D14*
X266706687Y-152701889D03*
X264166687Y-139774889D03*
%TD*%
D11*
%TO.C,SWR00_9*%
X250191887Y-212601889D03*
D12*
X247651887Y-211331889D03*
D13*
X250191887Y-207521889D03*
D12*
X245111887Y-204981889D03*
D11*
X250191887Y-202441889D03*
D14*
X247651887Y-214606889D03*
X245111887Y-201679889D03*
%TD*%
D11*
%TO.C,SWL00_8*%
X182010000Y-207134996D03*
D12*
X184550000Y-208404996D03*
D13*
X182010000Y-212214996D03*
D12*
X187090000Y-214754996D03*
D11*
X182010000Y-217294996D03*
D14*
X184550000Y-205129996D03*
X187090000Y-218056996D03*
%TD*%
D10*
%TO.C,LLED31*%
X121020000Y-195434000D03*
X119520000Y-195434000D03*
X119520000Y-200434000D03*
X121020000Y-200434000D03*
%TD*%
D11*
%TO.C,SWL00_6*%
X182020000Y-169024996D03*
D12*
X184560000Y-170294996D03*
D13*
X182020000Y-174104996D03*
D12*
X187100000Y-176644996D03*
D11*
X182020000Y-179184996D03*
D14*
X184560000Y-167019996D03*
X187100000Y-179946996D03*
%TD*%
D10*
%TO.C,RLED20*%
X273101887Y-148118889D03*
X274601887Y-148118889D03*
X274601887Y-143118889D03*
X273101887Y-143118889D03*
%TD*%
D11*
%TO.C,SWR00_29*%
X288301887Y-141151889D03*
D12*
X285761887Y-139881889D03*
D13*
X288301887Y-136071889D03*
D12*
X283221887Y-133531889D03*
D11*
X288301887Y-130991889D03*
D14*
X285761887Y-143156889D03*
X283221887Y-130229889D03*
%TD*%
D10*
%TO.C,LLED17*%
X140080000Y-62084000D03*
X138580000Y-62084000D03*
X138580000Y-67084000D03*
X140080000Y-67084000D03*
%TD*%
%TO.C,RLED40*%
X311201887Y-69512889D03*
X312701887Y-69512889D03*
X312701887Y-64512889D03*
X311201887Y-64512889D03*
%TD*%
%TO.C,RLED30*%
X292141887Y-119527889D03*
X293641887Y-119527889D03*
X293641887Y-114527889D03*
X292141887Y-114527889D03*
%TD*%
%TO.C,LLED40*%
X101980000Y-212095000D03*
X100480000Y-212095000D03*
X100480000Y-217095000D03*
X101980000Y-217095000D03*
%TD*%
%TO.C,RLED9*%
X254041887Y-210027889D03*
X255541887Y-210027889D03*
X255541887Y-205027889D03*
X254041887Y-205027889D03*
%TD*%
%TO.C,LLED5*%
X178170000Y-152545000D03*
X176670000Y-152545000D03*
X176670000Y-157545000D03*
X178170000Y-157545000D03*
%TD*%
D11*
%TO.C,SWL00_22*%
X143925200Y-183309996D03*
D12*
X146465200Y-184579996D03*
D13*
X143925200Y-188389996D03*
D12*
X149005200Y-190929996D03*
D11*
X143925200Y-193469996D03*
D14*
X146465200Y-181304996D03*
X149005200Y-194231996D03*
%TD*%
D11*
%TO.C,SWR00_1*%
X231131887Y-222111889D03*
D12*
X228591887Y-220841889D03*
D13*
X231131887Y-217031889D03*
D12*
X226051887Y-214491889D03*
D11*
X231131887Y-211951889D03*
D14*
X228591887Y-224116889D03*
X226051887Y-211189889D03*
%TD*%
D10*
%TO.C,LLED38*%
X101990000Y-178764000D03*
X100490000Y-178764000D03*
X100490000Y-183764000D03*
X101990000Y-183764000D03*
%TD*%
D11*
%TO.C,SWL00_35*%
X105815200Y-119019996D03*
D12*
X108355200Y-120289996D03*
D13*
X105815200Y-124099996D03*
D12*
X110895200Y-126639996D03*
D11*
X105815200Y-129179996D03*
D14*
X108355200Y-117014996D03*
X110895200Y-129941996D03*
%TD*%
D11*
%TO.C,SWL00_18*%
X143935200Y-99949996D03*
D12*
X146475200Y-101219996D03*
D13*
X143935200Y-105029996D03*
D12*
X149015200Y-107569996D03*
D11*
X143935200Y-110109996D03*
D14*
X146475200Y-97944996D03*
X149015200Y-110871996D03*
%TD*%
D16*
%TO.C,REL00_3*%
X124880000Y-70164996D03*
X124880000Y-58964996D03*
D17*
X132380000Y-67064996D03*
D18*
X132380000Y-62064996D03*
X132380000Y-64564996D03*
X117880000Y-67064996D03*
X117880000Y-62064996D03*
%TD*%
D11*
%TO.C,SWR00_22*%
X269256687Y-112606889D03*
D12*
X266716687Y-111336889D03*
D13*
X269256687Y-107526889D03*
D12*
X264176687Y-104986889D03*
D11*
X269256687Y-102446889D03*
D14*
X266716687Y-114611889D03*
X264176687Y-101684889D03*
%TD*%
D13*
%TO.C,SWL00_38*%
X114095000Y-169316996D03*
D15*
X98855000Y-169316996D03*
D11*
X105840000Y-176174996D03*
D12*
X108380000Y-177444996D03*
D13*
X105840000Y-181254996D03*
D12*
X110920000Y-183794996D03*
D11*
X105840000Y-186334996D03*
D13*
X114095000Y-193192996D03*
D15*
X98855000Y-193192996D03*
D14*
X108380000Y-174169996D03*
X110920000Y-187096996D03*
%TD*%
D10*
%TO.C,RLED3*%
X235001887Y-181427889D03*
X236501887Y-181427889D03*
X236501887Y-176427889D03*
X235001887Y-176427889D03*
%TD*%
D16*
%TO.C,REL00_1*%
X181990000Y-70194996D03*
X181990000Y-58994996D03*
D17*
X189490000Y-67094996D03*
D18*
X189490000Y-62094996D03*
X189490000Y-64594996D03*
X174990000Y-67094996D03*
X174990000Y-62094996D03*
%TD*%
D19*
%TO.C,BITE01*%
X192430000Y-102270000D03*
X192430000Y-101470000D03*
X192430000Y-100670000D03*
X192430000Y-99870000D03*
X192430000Y-99070000D03*
X192430000Y-98270000D03*
X192430000Y-97470000D03*
X192430000Y-96670000D03*
X192430000Y-95870000D03*
X192430000Y-95070000D03*
X192430000Y-94270000D03*
%TD*%
D10*
%TO.C,LLED26*%
X121020000Y-107324000D03*
X119520000Y-107324000D03*
X119520000Y-112324000D03*
X121020000Y-112324000D03*
%TD*%
D19*
%TO.C,BITE05*%
X192460000Y-188030000D03*
X192460000Y-187230000D03*
X192460000Y-186430000D03*
X192460000Y-185630000D03*
X192460000Y-184830000D03*
X192460000Y-184030000D03*
X192460000Y-183230000D03*
X192460000Y-182430000D03*
X192460000Y-181630000D03*
X192460000Y-180830000D03*
X192460000Y-180030000D03*
%TD*%
%TO.C,BITE07*%
X213750000Y-188040000D03*
X213750000Y-187240000D03*
X213750000Y-186440000D03*
X213750000Y-185640000D03*
X213750000Y-184840000D03*
X213750000Y-184040000D03*
X213750000Y-183240000D03*
X213750000Y-182440000D03*
X213750000Y-181640000D03*
X213750000Y-180840000D03*
X213750000Y-180040000D03*
%TD*%
D10*
%TO.C,RLED19*%
X273101887Y-167157889D03*
X274601887Y-167157889D03*
X274601887Y-162157889D03*
X273101887Y-162157889D03*
%TD*%
D11*
%TO.C,SWR00_39*%
X307351887Y-95901889D03*
D12*
X304811887Y-94631889D03*
D13*
X307351887Y-90821889D03*
D12*
X302271887Y-88281889D03*
D11*
X307351887Y-85741889D03*
D14*
X304811887Y-97906889D03*
X302271887Y-84979889D03*
%TD*%
D19*
%TO.C,BITE04*%
X220734362Y-102257172D03*
X220734362Y-101457172D03*
X220734362Y-100657172D03*
X220734362Y-99857172D03*
X220734362Y-99057172D03*
X220734362Y-98257172D03*
X220734362Y-97457172D03*
X220734362Y-96657172D03*
X220734362Y-95857172D03*
X220734362Y-95057172D03*
X220734362Y-94257172D03*
%TD*%
D10*
%TO.C,LLED35*%
X101970000Y-121604000D03*
X100470000Y-121604000D03*
X100470000Y-126604000D03*
X101970000Y-126604000D03*
%TD*%
D11*
%TO.C,SWL00_3*%
X182030000Y-111874996D03*
D12*
X184570000Y-113144996D03*
D13*
X182030000Y-116954996D03*
D12*
X187110000Y-119494996D03*
D11*
X182030000Y-122034996D03*
D14*
X184570000Y-109869996D03*
X187110000Y-122796996D03*
%TD*%
D10*
%TO.C,LLED21*%
X140070000Y-166875000D03*
X138570000Y-166875000D03*
X138570000Y-171875000D03*
X140070000Y-171875000D03*
%TD*%
D19*
%TO.C,BITE06*%
X199484362Y-188027172D03*
X199484362Y-187227172D03*
X199484362Y-186427172D03*
X199484362Y-185627172D03*
X199484362Y-184827172D03*
X199484362Y-184027172D03*
X199484362Y-183227172D03*
X199484362Y-182427172D03*
X199484362Y-181627172D03*
X199484362Y-180827172D03*
X199484362Y-180027172D03*
%TD*%
D10*
%TO.C,LLED1*%
X178440000Y-62105000D03*
X176940000Y-62105000D03*
X176940000Y-67105000D03*
X178440000Y-67105000D03*
%TD*%
%TO.C,RLED4*%
X234991887Y-162407889D03*
X236491887Y-162407889D03*
X236491887Y-157407889D03*
X234991887Y-157407889D03*
%TD*%
D11*
%TO.C,SWL00_36*%
X105820000Y-142824996D03*
D12*
X108360000Y-144094996D03*
D13*
X105820000Y-147904996D03*
D12*
X110900000Y-150444996D03*
D11*
X105820000Y-152984996D03*
D14*
X108360000Y-140819996D03*
X110900000Y-153746996D03*
%TD*%
D11*
%TO.C,SWL00_17*%
X143900000Y-59504996D03*
D12*
X146440000Y-60774996D03*
D13*
X143900000Y-64584996D03*
D12*
X148980000Y-67124996D03*
D11*
X143900000Y-69664996D03*
D14*
X146440000Y-57499996D03*
X148980000Y-70426996D03*
%TD*%
D19*
%TO.C,BITE02*%
X199454362Y-102267172D03*
X199454362Y-101467172D03*
X199454362Y-100667172D03*
X199454362Y-99867172D03*
X199454362Y-99067172D03*
X199454362Y-98267172D03*
X199454362Y-97467172D03*
X199454362Y-96667172D03*
X199454362Y-95867172D03*
X199454362Y-95067172D03*
X199454362Y-94267172D03*
%TD*%
D11*
%TO.C,SWR00_14*%
X250191887Y-117331889D03*
D12*
X247651887Y-116061889D03*
D13*
X250191887Y-112251889D03*
D12*
X245111887Y-109711889D03*
D11*
X250191887Y-107171889D03*
D14*
X247651887Y-119336889D03*
X245111887Y-106409889D03*
%TD*%
D11*
%TO.C,SWR00_32*%
X288301887Y-69721889D03*
D12*
X285761887Y-68451889D03*
D13*
X288301887Y-64641889D03*
D12*
X283221887Y-62101889D03*
D11*
X288301887Y-59561889D03*
D14*
X285761887Y-71726889D03*
X283221887Y-58799889D03*
%TD*%
D10*
%TO.C,LLED28*%
X121020000Y-138285000D03*
X119520000Y-138285000D03*
X119520000Y-143285000D03*
X121020000Y-143285000D03*
%TD*%
D11*
%TO.C,SWL00_21*%
X143915200Y-164289996D03*
D12*
X146455200Y-165559996D03*
D13*
X143915200Y-169369996D03*
D12*
X148995200Y-171909996D03*
D11*
X143915200Y-174449996D03*
D14*
X146455200Y-162284996D03*
X148995200Y-175211996D03*
%TD*%
D11*
%TO.C,SWR00_38*%
X307326687Y-119716889D03*
D12*
X304786687Y-118446889D03*
D13*
X307326687Y-114636889D03*
D12*
X302246687Y-112096889D03*
D11*
X307326687Y-109556889D03*
D14*
X304786687Y-121721889D03*
X302246687Y-108794889D03*
%TD*%
D10*
%TO.C,RLED14*%
X254041887Y-114747889D03*
X255541887Y-114747889D03*
X255541887Y-109747889D03*
X254041887Y-109747889D03*
%TD*%
D11*
%TO.C,SWR00_11*%
X250201887Y-174501889D03*
D12*
X247661887Y-173231889D03*
D13*
X250201887Y-169421889D03*
D12*
X245121887Y-166881889D03*
D11*
X250201887Y-164341889D03*
D14*
X247661887Y-176506889D03*
X245121887Y-163579889D03*
%TD*%
D11*
%TO.C,SWL00_40*%
X105830000Y-209514996D03*
D12*
X108370000Y-210784996D03*
D13*
X105830000Y-214594996D03*
D12*
X110910000Y-217134996D03*
D11*
X105830000Y-219674996D03*
D14*
X108370000Y-207509996D03*
X110910000Y-220436996D03*
%TD*%
D10*
%TO.C,RLED38*%
X311201887Y-117128889D03*
X312701887Y-117128889D03*
X312701887Y-112128889D03*
X311201887Y-112128889D03*
%TD*%
D11*
%TO.C,SWL00_7*%
X182025200Y-188099996D03*
D12*
X184565200Y-189369996D03*
D13*
X182025200Y-193179996D03*
D12*
X187105200Y-195719996D03*
D11*
X182025200Y-198259996D03*
D14*
X184565200Y-186094996D03*
X187105200Y-199021996D03*
%TD*%
D16*
%TO.C,REL00_4*%
X105800000Y-70194996D03*
X105800000Y-58994996D03*
D17*
X113300000Y-67094996D03*
D18*
X113300000Y-62094996D03*
X113300000Y-64594996D03*
X98800000Y-67094996D03*
X98800000Y-62094996D03*
%TD*%
D11*
%TO.C,SWR00_27*%
X288296687Y-179266889D03*
D12*
X285756687Y-177996889D03*
D13*
X288296687Y-174186889D03*
D12*
X283216687Y-171646889D03*
D11*
X288296687Y-169106889D03*
D14*
X285756687Y-181271889D03*
X283216687Y-168344889D03*
%TD*%
D10*
%TO.C,RLED26*%
X292141887Y-195737889D03*
X293641887Y-195737889D03*
X293641887Y-190737889D03*
X292141887Y-190737889D03*
%TD*%
%TO.C,LLED20*%
X140060000Y-147795000D03*
X138560000Y-147795000D03*
X138560000Y-152795000D03*
X140060000Y-152795000D03*
%TD*%
%TO.C,LLED32*%
X121020000Y-214465000D03*
X119520000Y-214465000D03*
X119520000Y-219465000D03*
X121020000Y-219465000D03*
%TD*%
D13*
%TO.C,SWR00_34*%
X299096887Y-207549889D03*
D15*
X314336887Y-207549889D03*
D11*
X307351887Y-200691889D03*
D12*
X304811887Y-199421889D03*
D13*
X307351887Y-195611889D03*
D12*
X302271887Y-193071889D03*
D11*
X307351887Y-190531889D03*
D13*
X299096887Y-183673889D03*
D15*
X314336887Y-183673889D03*
D14*
X304811887Y-202696889D03*
X302271887Y-189769889D03*
%TD*%
D11*
%TO.C,SWR00_2*%
X231146687Y-203066889D03*
D12*
X228606687Y-201796889D03*
D13*
X231146687Y-197986889D03*
D12*
X226066687Y-195446889D03*
D11*
X231146687Y-192906889D03*
D14*
X228606687Y-205071889D03*
X226066687Y-192144889D03*
%TD*%
D10*
%TO.C,LLED14*%
X159120000Y-181145000D03*
X157620000Y-181145000D03*
X157620000Y-186145000D03*
X159120000Y-186145000D03*
%TD*%
D11*
%TO.C,SWL00_11*%
X162980000Y-121404996D03*
D12*
X165520000Y-122674996D03*
D13*
X162980000Y-126484996D03*
D12*
X168060000Y-129024996D03*
D11*
X162980000Y-131564996D03*
D14*
X165520000Y-119399996D03*
X168060000Y-132326996D03*
%TD*%
D19*
%TO.C,BITE03*%
X213710000Y-102260000D03*
X213710000Y-101460000D03*
X213710000Y-100660000D03*
X213710000Y-99860000D03*
X213710000Y-99060000D03*
X213710000Y-98260000D03*
X213710000Y-97460000D03*
X213710000Y-96660000D03*
X213710000Y-95860000D03*
X213710000Y-95060000D03*
X213710000Y-94260000D03*
%TD*%
D10*
%TO.C,LLED22*%
X140070000Y-185894000D03*
X138570000Y-185894000D03*
X138570000Y-190894000D03*
X140070000Y-190894000D03*
%TD*%
%TO.C,RLED28*%
X292141887Y-157647889D03*
X293641887Y-157647889D03*
X293641887Y-152647889D03*
X292141887Y-152647889D03*
%TD*%
%TO.C,LLED36*%
X101970000Y-145404000D03*
X100470000Y-145404000D03*
X100470000Y-150404000D03*
X101970000Y-150404000D03*
%TD*%
D11*
%TO.C,SWR00_26*%
X288311887Y-198311889D03*
D12*
X285771887Y-197041889D03*
D13*
X288311887Y-193231889D03*
D12*
X283231887Y-190691889D03*
D11*
X288311887Y-188151889D03*
D14*
X285771887Y-200316889D03*
X283231887Y-187389889D03*
%TD*%
D10*
%TO.C,RLED31*%
X292141887Y-93327889D03*
X293641887Y-93327889D03*
X293641887Y-88327889D03*
X292141887Y-88327889D03*
%TD*%
D19*
%TO.C,BITE08*%
X220774362Y-188037172D03*
X220774362Y-187237172D03*
X220774362Y-186437172D03*
X220774362Y-185637172D03*
X220774362Y-184837172D03*
X220774362Y-184037172D03*
X220774362Y-183237172D03*
X220774362Y-182437172D03*
X220774362Y-181637172D03*
X220774362Y-180837172D03*
X220774362Y-180037172D03*
%TD*%
D11*
%TO.C,SWR00_28*%
X288326687Y-160216889D03*
D12*
X285786687Y-158946889D03*
D13*
X288326687Y-155136889D03*
D12*
X283246687Y-152596889D03*
D11*
X288326687Y-150056889D03*
D14*
X285786687Y-162221889D03*
X283246687Y-149294889D03*
%TD*%
D11*
%TO.C,SWR00_21*%
X269251887Y-131641889D03*
D12*
X266711887Y-130371889D03*
D13*
X269251887Y-126561889D03*
D12*
X264171887Y-124021889D03*
D11*
X269251887Y-121481889D03*
D14*
X266711887Y-133646889D03*
X264171887Y-120719889D03*
%TD*%
D15*
%TO.C,SWR00_24*%
X262276887Y-88489889D03*
D13*
X277516887Y-88489889D03*
D11*
X269261887Y-81631889D03*
D12*
X266721887Y-80361889D03*
D13*
X269261887Y-76551889D03*
D12*
X264181887Y-74011889D03*
D11*
X269261887Y-71471889D03*
D15*
X262276887Y-64613889D03*
D13*
X277516887Y-64613889D03*
D14*
X266721887Y-83636889D03*
X264181887Y-70709889D03*
%TD*%
D16*
%TO.C,REL00_2*%
X162960000Y-70174996D03*
X162960000Y-58974996D03*
D17*
X170460000Y-67074996D03*
D18*
X170460000Y-62074996D03*
X170460000Y-64574996D03*
X155960000Y-67074996D03*
X155960000Y-62074996D03*
%TD*%
D11*
%TO.C,SWR00_31*%
X288291887Y-95911889D03*
D12*
X285751887Y-94641889D03*
D13*
X288291887Y-90831889D03*
D12*
X283211887Y-88291889D03*
D11*
X288291887Y-85751889D03*
D14*
X285751887Y-97916889D03*
X283211887Y-84989889D03*
%TD*%
D11*
%TO.C,SWL00_19*%
X143900000Y-126174996D03*
D12*
X146440000Y-127444996D03*
D13*
X143900000Y-131254996D03*
D12*
X148980000Y-133794996D03*
D11*
X143900000Y-136334996D03*
D14*
X146440000Y-124169996D03*
X148980000Y-137096996D03*
%TD*%
D10*
%TO.C,LLED33*%
X102250000Y-62075000D03*
X100750000Y-62075000D03*
X100750000Y-67075000D03*
X102250000Y-67075000D03*
%TD*%
%TO.C,RLED24*%
X273091887Y-79047889D03*
X274591887Y-79047889D03*
X274591887Y-74047889D03*
X273091887Y-74047889D03*
%TD*%
%TO.C,RLED21*%
X273101887Y-129058889D03*
X274601887Y-129058889D03*
X274601887Y-124058889D03*
X273101887Y-124058889D03*
%TD*%
%TO.C,LLED3*%
X178160000Y-114465000D03*
X176660000Y-114465000D03*
X176660000Y-119465000D03*
X178160000Y-119465000D03*
%TD*%
D11*
%TO.C,SWR00_18*%
X269256687Y-188786889D03*
D12*
X266716687Y-187516889D03*
D13*
X269256687Y-183706889D03*
D12*
X264176687Y-181166889D03*
D11*
X269256687Y-178626889D03*
D14*
X266716687Y-190791889D03*
X264176687Y-177864889D03*
%TD*%
D11*
%TO.C,SWR00_10*%
X250201887Y-193551889D03*
D12*
X247661887Y-192281889D03*
D13*
X250201887Y-188471889D03*
D12*
X245121887Y-185931889D03*
D11*
X250201887Y-183391889D03*
D14*
X247661887Y-195556889D03*
X245121887Y-182629889D03*
%TD*%
D15*
%TO.C,SWL00_26*%
X131850000Y-97884996D03*
D13*
X116610000Y-97884996D03*
D11*
X124865000Y-104742996D03*
D12*
X127405000Y-106012996D03*
D13*
X124865000Y-109822996D03*
D12*
X129945000Y-112362996D03*
D11*
X124865000Y-114902996D03*
D15*
X131850000Y-121760996D03*
D13*
X116610000Y-121760996D03*
D14*
X127405000Y-102737996D03*
X129945000Y-115664996D03*
%TD*%
D10*
%TO.C,LLED23*%
X140070000Y-204945000D03*
X138570000Y-204945000D03*
X138570000Y-209945000D03*
X140070000Y-209945000D03*
%TD*%
%TO.C,LLED13*%
X159120000Y-162095000D03*
X157620000Y-162095000D03*
X157620000Y-167095000D03*
X159120000Y-167095000D03*
%TD*%
D11*
%TO.C,SWR00_7*%
X231156687Y-107836889D03*
D12*
X228616687Y-106566889D03*
D13*
X231156687Y-102756889D03*
D12*
X226076687Y-100216889D03*
D11*
X231156687Y-97676889D03*
D14*
X228616687Y-109841889D03*
X226076687Y-96914889D03*
%TD*%
D11*
%TO.C,SWL00_34*%
X105825200Y-95199996D03*
D12*
X108365200Y-96469996D03*
D13*
X105825200Y-100279996D03*
D12*
X110905200Y-102819996D03*
D11*
X105825200Y-105359996D03*
D14*
X108365200Y-93194996D03*
X110905200Y-106121996D03*
%TD*%
D10*
%TO.C,RLED1*%
X234991887Y-219527889D03*
X236491887Y-219527889D03*
X236491887Y-214527889D03*
X234991887Y-214527889D03*
%TD*%
%TO.C,RLED10*%
X254051887Y-190967889D03*
X255551887Y-190967889D03*
X255551887Y-185967889D03*
X254051887Y-185967889D03*
%TD*%
%TO.C,LLED7*%
X178170000Y-190685000D03*
X176670000Y-190685000D03*
X176670000Y-195685000D03*
X178170000Y-195685000D03*
%TD*%
%TO.C,LLED30*%
X121020000Y-176394000D03*
X119520000Y-176394000D03*
X119520000Y-181394000D03*
X121020000Y-181394000D03*
%TD*%
D11*
%TO.C,SWR00_17*%
X269236687Y-207836889D03*
D12*
X266696687Y-206566889D03*
D13*
X269236687Y-202756889D03*
D12*
X264156687Y-200216889D03*
D11*
X269236687Y-197676889D03*
D14*
X266696687Y-209841889D03*
X264156687Y-196914889D03*
%TD*%
D10*
%TO.C,LLED9*%
X159410000Y-62065000D03*
X157910000Y-62065000D03*
X157910000Y-67065000D03*
X159410000Y-67065000D03*
%TD*%
%TO.C,LLED29*%
X121030000Y-157335000D03*
X119530000Y-157335000D03*
X119530000Y-162335000D03*
X121030000Y-162335000D03*
%TD*%
%TO.C,RLED29*%
X292141887Y-138567889D03*
X293641887Y-138567889D03*
X293641887Y-133567889D03*
X292141887Y-133567889D03*
%TD*%
D11*
%TO.C,SWR00_5*%
X231131887Y-145931889D03*
D12*
X228591887Y-144661889D03*
D13*
X231131887Y-140851889D03*
D12*
X226051887Y-138311889D03*
D11*
X231131887Y-135771889D03*
D14*
X228591887Y-147936889D03*
X226051887Y-135009889D03*
%TD*%
D11*
%TO.C,SWL00_25*%
X124880000Y-59484996D03*
D12*
X127420000Y-60754996D03*
D13*
X124880000Y-64564996D03*
D12*
X129960000Y-67104996D03*
D11*
X124880000Y-69644996D03*
D14*
X127420000Y-57479996D03*
X129960000Y-70406996D03*
%TD*%
D11*
%TO.C,SWL00_28*%
X124850000Y-135704996D03*
D12*
X127390000Y-136974996D03*
D13*
X124850000Y-140784996D03*
D12*
X129930000Y-143324996D03*
D11*
X124850000Y-145864996D03*
D14*
X127390000Y-133699996D03*
X129930000Y-146626996D03*
%TD*%
D10*
%TO.C,RLED22*%
X273091887Y-110027889D03*
X274591887Y-110027889D03*
X274591887Y-105027889D03*
X273091887Y-105027889D03*
%TD*%
D11*
%TO.C,SWR00_19*%
X269266687Y-169736889D03*
D12*
X266726687Y-168466889D03*
D13*
X269266687Y-164656889D03*
D12*
X264186687Y-162116889D03*
D11*
X269266687Y-159576889D03*
D14*
X266726687Y-171741889D03*
X264186687Y-158814889D03*
%TD*%
D13*
%TO.C,SWR00_36*%
X299106887Y-159909889D03*
D15*
X314346887Y-159909889D03*
D11*
X307361887Y-153051889D03*
D12*
X304821887Y-151781889D03*
D13*
X307361887Y-147971889D03*
D12*
X302281887Y-145431889D03*
D11*
X307361887Y-142891889D03*
D13*
X299106887Y-136033889D03*
D15*
X314346887Y-136033889D03*
D14*
X304821887Y-155056889D03*
X302281887Y-142129889D03*
%TD*%
D10*
%TO.C,RLED13*%
X254051887Y-133827889D03*
X255551887Y-133827889D03*
X255551887Y-128827889D03*
X254051887Y-128827889D03*
%TD*%
%TO.C,LLED19*%
X140080000Y-128755000D03*
X138580000Y-128755000D03*
X138580000Y-133755000D03*
X140080000Y-133755000D03*
%TD*%
%TO.C,RLED8*%
X234991887Y-76668889D03*
X236491887Y-76668889D03*
X236491887Y-71668889D03*
X234991887Y-71668889D03*
%TD*%
%TO.C,LLED4*%
X178170000Y-133515000D03*
X176670000Y-133515000D03*
X176670000Y-138515000D03*
X178170000Y-138515000D03*
%TD*%
%TO.C,RLED12*%
X254041887Y-152887889D03*
X255541887Y-152887889D03*
X255541887Y-147887889D03*
X254041887Y-147887889D03*
%TD*%
D11*
%TO.C,SWR00_4*%
X231141887Y-164981889D03*
D12*
X228601887Y-163711889D03*
D13*
X231141887Y-159901889D03*
D12*
X226061887Y-157361889D03*
D11*
X231141887Y-154821889D03*
D14*
X228601887Y-166986889D03*
X226061887Y-154059889D03*
%TD*%
D20*
%TO.C,USBRD1*%
X208569004Y-168754996D03*
X208569004Y-174534996D03*
D21*
X207124004Y-168394996D03*
X207124004Y-169194996D03*
D22*
X207124004Y-170394996D03*
X207124004Y-171394996D03*
X207124004Y-171894996D03*
X207124004Y-172894996D03*
D21*
X207124004Y-174094996D03*
X207124004Y-174894996D03*
X207124004Y-174894996D03*
X207124004Y-174094996D03*
D22*
X207124004Y-173394996D03*
X207124004Y-172394996D03*
X207124004Y-170894996D03*
X207124004Y-169894996D03*
D21*
X207124004Y-169194996D03*
X207124004Y-168394996D03*
D23*
X212219004Y-167324996D03*
D24*
X208039004Y-167324996D03*
D23*
X212219004Y-175964996D03*
D24*
X208039004Y-175964996D03*
%TD*%
D25*
%TO.C,DL00_30*%
X118570000Y-184715000D03*
X121870000Y-184715000D03*
%TD*%
%TO.C,DL00_33*%
X99510000Y-70425000D03*
X102810000Y-70425000D03*
%TD*%
%TO.C,DL00_10*%
X156670000Y-108525000D03*
X159970000Y-108525000D03*
%TD*%
%TO.C,DR00_9*%
X256501887Y-201667889D03*
X253201887Y-201667889D03*
%TD*%
D26*
%TO.C,YL1*%
X97892000Y-165862000D03*
X97892000Y-163662000D03*
X99642000Y-163662000D03*
X99642000Y-165862000D03*
%TD*%
D27*
%TO.C,HOLE04*%
X206639004Y-205404996D03*
%TD*%
D25*
%TO.C,DR00_21*%
X275541887Y-120697889D03*
X272241887Y-120697889D03*
%TD*%
%TO.C,DL00_1*%
X175690000Y-70435000D03*
X178990000Y-70435000D03*
%TD*%
%TO.C,DL00_2*%
X175710000Y-103765000D03*
X179010000Y-103765000D03*
%TD*%
D28*
%TO.C,JR3*%
X259931887Y-224647889D03*
D29*
X259931887Y-222647889D03*
X259931887Y-220647889D03*
X259931887Y-218647889D03*
X259931887Y-216647889D03*
%TD*%
D30*
%TO.C,RRD3*%
X201106504Y-173734996D03*
X204031504Y-173734996D03*
%TD*%
D31*
%TO.C,FLD1*%
X209179004Y-116379996D03*
X211979004Y-116379996D03*
%TD*%
D32*
%TO.C,URD1*%
X208999004Y-181424996D03*
X208999004Y-180924996D03*
D33*
X208999004Y-180424996D03*
D32*
X208999004Y-179924996D03*
X208999004Y-179424996D03*
X209829004Y-179424996D03*
X209829004Y-179924996D03*
D33*
X209829004Y-180424996D03*
D32*
X209829004Y-180924996D03*
X209829004Y-181424996D03*
%TD*%
D25*
%TO.C,DR00_38*%
X313651887Y-108787889D03*
X310351887Y-108787889D03*
%TD*%
%TO.C,DL00_14*%
X156660000Y-189485000D03*
X159960000Y-189485000D03*
%TD*%
D34*
%TO.C,CR5*%
X312336887Y-131647889D03*
X315286887Y-131647889D03*
%TD*%
D25*
%TO.C,DL00_15*%
X156650000Y-208525000D03*
X159950000Y-208525000D03*
%TD*%
%TO.C,DL00_4*%
X175710000Y-141855000D03*
X179010000Y-141855000D03*
%TD*%
D35*
%TO.C,JRD1*%
X211899004Y-195634996D03*
X204899004Y-195634996D03*
D36*
X201599004Y-197784996D03*
X210099004Y-193484996D03*
X207099004Y-193484996D03*
X203099004Y-193484996D03*
%TD*%
D37*
%TO.C,CLD1*%
X203884004Y-116379996D03*
X200934004Y-116379996D03*
%TD*%
%TO.C,CL7*%
X100735000Y-132405000D03*
X97785000Y-132405000D03*
%TD*%
D35*
%TO.C,JLD1*%
X201359004Y-110639996D03*
X208359004Y-110639996D03*
D36*
X211659004Y-108489996D03*
X203159004Y-112789996D03*
X206159004Y-112789996D03*
X210159004Y-112789996D03*
%TD*%
D37*
%TO.C,CL5*%
X100735000Y-112135000D03*
X97785000Y-112135000D03*
%TD*%
D25*
%TO.C,DR00_24*%
X275541887Y-70697889D03*
X272241887Y-70697889D03*
%TD*%
D27*
%TO.C,HOLE02*%
X206609004Y-120369996D03*
%TD*%
D25*
%TO.C,DR00_4*%
X237431887Y-154037889D03*
X234131887Y-154037889D03*
%TD*%
D38*
%TO.C,RLD2*%
X212121504Y-85449996D03*
X209196504Y-85449996D03*
%TD*%
D25*
%TO.C,DR00_34*%
X313641887Y-189757889D03*
X310341887Y-189757889D03*
%TD*%
%TO.C,DR00_30*%
X294601887Y-111167889D03*
X291301887Y-111167889D03*
%TD*%
D37*
%TO.C,CL8*%
X100785000Y-135995000D03*
X97835000Y-135995000D03*
%TD*%
D25*
%TO.C,DL00_17*%
X137620000Y-70415000D03*
X140920000Y-70415000D03*
%TD*%
D39*
%TO.C,UR1*%
X303941887Y-172700389D03*
X304441887Y-172700389D03*
X304941887Y-172700389D03*
X305441887Y-172700389D03*
X305941887Y-172700389D03*
X306441887Y-172700389D03*
X306941887Y-172700389D03*
X307441887Y-172700389D03*
X307941887Y-172700389D03*
X308441887Y-172700389D03*
X308941887Y-172700389D03*
D40*
X309779387Y-173537889D03*
X309779387Y-174037889D03*
X309779387Y-174537889D03*
X309779387Y-175037889D03*
X309779387Y-175537889D03*
X309779387Y-176037889D03*
X309779387Y-176537889D03*
X309779387Y-177037889D03*
X309779387Y-177537889D03*
X309779387Y-178037889D03*
X309779387Y-178537889D03*
D39*
X308941887Y-179375389D03*
X308441887Y-179375389D03*
X307941887Y-179375389D03*
X307441887Y-179375389D03*
X306941887Y-179375389D03*
X306441887Y-179375389D03*
X305941887Y-179375389D03*
X305441887Y-179375389D03*
X304941887Y-179375389D03*
X304441887Y-179375389D03*
X303941887Y-179375389D03*
D40*
X303104387Y-178537889D03*
X303104387Y-178037889D03*
X303104387Y-177537889D03*
X303104387Y-177037889D03*
X303104387Y-176537889D03*
X303104387Y-176037889D03*
X303104387Y-175537889D03*
X303104387Y-175037889D03*
X303104387Y-174537889D03*
X303104387Y-174037889D03*
X303104387Y-173537889D03*
D41*
X306441887Y-176037889D03*
%TD*%
D25*
%TO.C,DR00_14*%
X256501887Y-106417889D03*
X253201887Y-106417889D03*
%TD*%
%TO.C,DL00_12*%
X156680000Y-151385000D03*
X159980000Y-151385000D03*
%TD*%
%TO.C,DR00_3*%
X237451887Y-173087889D03*
X234151887Y-173087889D03*
%TD*%
%TO.C,DR00_31*%
X294601887Y-84987889D03*
X291301887Y-84987889D03*
%TD*%
%TO.C,DR00_40*%
X313641887Y-61167889D03*
X310341887Y-61167889D03*
%TD*%
D37*
%TO.C,CR3*%
X315346887Y-203007889D03*
X312396887Y-203007889D03*
%TD*%
D27*
%TO.C,HOLE03*%
X206649004Y-161904996D03*
%TD*%
D37*
%TO.C,CRD1*%
X212184004Y-201304996D03*
X209234004Y-201304996D03*
%TD*%
D25*
%TO.C,DL00_31*%
X118560000Y-203775000D03*
X121860000Y-203775000D03*
%TD*%
D42*
%TO.C,JL3*%
X153200000Y-216565000D03*
D29*
X153200000Y-218565000D03*
X153200000Y-220565000D03*
X153200000Y-222565000D03*
X153200000Y-224565000D03*
%TD*%
D43*
%TO.C,RESETR_SW1*%
X309216887Y-211735389D03*
X309216887Y-205735389D03*
X305466887Y-211735389D03*
X305466887Y-205735389D03*
%TD*%
D25*
%TO.C,DL00_34*%
X99520000Y-106145000D03*
X102820000Y-106145000D03*
%TD*%
D30*
%TO.C,RRD1*%
X201136504Y-166474996D03*
X204061504Y-166474996D03*
%TD*%
D38*
%TO.C,RLD3*%
X212121504Y-81749996D03*
X209196504Y-81749996D03*
%TD*%
D25*
%TO.C,DL00_35*%
X99520000Y-129965000D03*
X102820000Y-129965000D03*
%TD*%
D30*
%TO.C,RL5*%
X97957500Y-197475000D03*
X100882500Y-197475000D03*
%TD*%
D25*
%TO.C,DL00_20*%
X137620000Y-156145000D03*
X140920000Y-156145000D03*
%TD*%
D38*
%TO.C,RR5*%
X315314387Y-211727889D03*
X312389387Y-211727889D03*
%TD*%
D25*
%TO.C,DR00_5*%
X237441887Y-134987889D03*
X234141887Y-134987889D03*
%TD*%
%TO.C,DR00_32*%
X294591887Y-58787889D03*
X291291887Y-58787889D03*
%TD*%
D37*
%TO.C,CR1*%
X315416887Y-169727889D03*
X312466887Y-169727889D03*
%TD*%
D25*
%TO.C,DL00_18*%
X137610000Y-110895000D03*
X140910000Y-110895000D03*
%TD*%
D37*
%TO.C,CL3*%
X100775000Y-139685000D03*
X97825000Y-139685000D03*
%TD*%
D25*
%TO.C,DR00_1*%
X237451887Y-211197889D03*
X234151887Y-211197889D03*
%TD*%
%TO.C,DR00_28*%
X294601887Y-149277889D03*
X291301887Y-149277889D03*
%TD*%
%TO.C,DR00_36*%
X313651887Y-142127889D03*
X310351887Y-142127889D03*
%TD*%
%TO.C,DR00_16*%
X256511887Y-63567889D03*
X253211887Y-63567889D03*
%TD*%
D30*
%TO.C,RL3*%
X146127500Y-219665000D03*
X149052500Y-219665000D03*
%TD*%
D28*
%TO.C,JRD2*%
X206319004Y-187644996D03*
D29*
X206319004Y-185644996D03*
X206319004Y-183644996D03*
X206319004Y-181644996D03*
X206319004Y-179644996D03*
%TD*%
D42*
%TO.C,JLD2*%
X206949004Y-94619996D03*
D29*
X206949004Y-96619996D03*
X206949004Y-98619996D03*
X206949004Y-100619996D03*
X206949004Y-102619996D03*
%TD*%
D37*
%TO.C,CL2*%
X100705000Y-157495000D03*
X97755000Y-157495000D03*
%TD*%
D25*
%TO.C,DL00_32*%
X118570000Y-222815000D03*
X121870000Y-222815000D03*
%TD*%
%TO.C,DR00_25*%
X294601887Y-206427889D03*
X291301887Y-206427889D03*
%TD*%
%TO.C,DR00_27*%
X294601887Y-168327889D03*
X291301887Y-168327889D03*
%TD*%
D37*
%TO.C,CL6*%
X100705000Y-115835000D03*
X97755000Y-115835000D03*
%TD*%
D25*
%TO.C,DL00_25*%
X118550000Y-70425000D03*
X121850000Y-70425000D03*
%TD*%
%TO.C,DL00_28*%
X118550000Y-146625000D03*
X121850000Y-146625000D03*
%TD*%
%TO.C,DL00_6*%
X175730000Y-179955000D03*
X179030000Y-179955000D03*
%TD*%
D30*
%TO.C,RRD2*%
X201086504Y-170134996D03*
X204011504Y-170134996D03*
%TD*%
D25*
%TO.C,DR00_29*%
X294591887Y-130227889D03*
X291291887Y-130227889D03*
%TD*%
%TO.C,DL00_23*%
X137600000Y-213295000D03*
X140900000Y-213295000D03*
%TD*%
%TO.C,DL00_3*%
X175740000Y-122795000D03*
X179040000Y-122795000D03*
%TD*%
%TO.C,DR00_19*%
X275551887Y-158807889D03*
X272251887Y-158807889D03*
%TD*%
D38*
%TO.C,RR2*%
X267054387Y-218647889D03*
X264129387Y-218647889D03*
%TD*%
D25*
%TO.C,DR00_15*%
X256511887Y-87367889D03*
X253211887Y-87367889D03*
%TD*%
%TO.C,DR00_12*%
X256501887Y-144517889D03*
X253201887Y-144517889D03*
%TD*%
D34*
%TO.C,CR8*%
X312296887Y-104917889D03*
X315246887Y-104917889D03*
%TD*%
%TO.C,CR7*%
X312326887Y-124087889D03*
X315276887Y-124087889D03*
%TD*%
D25*
%TO.C,DL00_22*%
X137610000Y-194265000D03*
X140910000Y-194265000D03*
%TD*%
D34*
%TO.C,CR2*%
X312476887Y-166047889D03*
X315426887Y-166047889D03*
%TD*%
D25*
%TO.C,DL00_5*%
X175720000Y-160905000D03*
X179020000Y-160905000D03*
%TD*%
%TO.C,DR00_13*%
X256501887Y-125467889D03*
X253201887Y-125467889D03*
%TD*%
%TO.C,DR00_6*%
X237461887Y-115957889D03*
X234161887Y-115957889D03*
%TD*%
%TO.C,DL00_19*%
X137590000Y-137095000D03*
X140890000Y-137095000D03*
%TD*%
%TO.C,DR00_18*%
X275551887Y-177847889D03*
X272251887Y-177847889D03*
%TD*%
%TO.C,DR00_17*%
X275541887Y-196897889D03*
X272241887Y-196897889D03*
%TD*%
%TO.C,DR00_10*%
X256501887Y-182617889D03*
X253201887Y-182617889D03*
%TD*%
%TO.C,DR00_11*%
X256501887Y-163567889D03*
X253201887Y-163567889D03*
%TD*%
D38*
%TO.C,RLD1*%
X212081504Y-89179996D03*
X209156504Y-89179996D03*
%TD*%
D25*
%TO.C,DR00_7*%
X237461887Y-96897889D03*
X234161887Y-96897889D03*
%TD*%
%TO.C,DL00_40*%
X99520000Y-220445000D03*
X102820000Y-220445000D03*
%TD*%
D43*
%TO.C,RESETL_SW1*%
X103975000Y-190445000D03*
X103975000Y-196445000D03*
X107725000Y-190445000D03*
X107725000Y-196445000D03*
%TD*%
D32*
%TO.C,ULD1*%
X204179004Y-100649996D03*
X204179004Y-101149996D03*
D33*
X204179004Y-101649996D03*
D32*
X204179004Y-102149996D03*
X204179004Y-102649996D03*
X203349004Y-102649996D03*
X203349004Y-102149996D03*
D33*
X203349004Y-101649996D03*
D32*
X203349004Y-101149996D03*
X203349004Y-100649996D03*
%TD*%
D31*
%TO.C,FRD1*%
X201279004Y-201334996D03*
X204079004Y-201334996D03*
%TD*%
D44*
%TO.C,UL1*%
X109340000Y-166322500D03*
X108840000Y-166322500D03*
X108340000Y-166322500D03*
X107840000Y-166322500D03*
X107340000Y-166322500D03*
X106840000Y-166322500D03*
X106340000Y-166322500D03*
X105840000Y-166322500D03*
X105340000Y-166322500D03*
X104840000Y-166322500D03*
X104340000Y-166322500D03*
D45*
X103502500Y-165485000D03*
X103502500Y-164985000D03*
X103502500Y-164485000D03*
X103502500Y-163985000D03*
X103502500Y-163485000D03*
X103502500Y-162985000D03*
X103502500Y-162485000D03*
X103502500Y-161985000D03*
X103502500Y-161485000D03*
X103502500Y-160985000D03*
X103502500Y-160485000D03*
D44*
X104340000Y-159647500D03*
X104840000Y-159647500D03*
X105340000Y-159647500D03*
X105840000Y-159647500D03*
X106340000Y-159647500D03*
X106840000Y-159647500D03*
X107340000Y-159647500D03*
X107840000Y-159647500D03*
X108340000Y-159647500D03*
X108840000Y-159647500D03*
X109340000Y-159647500D03*
D45*
X110177500Y-160485000D03*
X110177500Y-160985000D03*
X110177500Y-161485000D03*
X110177500Y-161985000D03*
X110177500Y-162485000D03*
X110177500Y-162985000D03*
X110177500Y-163485000D03*
X110177500Y-163985000D03*
X110177500Y-164485000D03*
X110177500Y-164985000D03*
X110177500Y-165485000D03*
D41*
X106840000Y-162985000D03*
%TD*%
D25*
%TO.C,DL00_8*%
X175710000Y-218065000D03*
X179010000Y-218065000D03*
%TD*%
%TO.C,DL00_26*%
X118560000Y-115665000D03*
X121860000Y-115665000D03*
%TD*%
D26*
%TO.C,YR1*%
X315236887Y-173457889D03*
X315236887Y-175657889D03*
X313486887Y-175657889D03*
X313486887Y-173457889D03*
%TD*%
D25*
%TO.C,DR00_2*%
X237461887Y-192147889D03*
X234161887Y-192147889D03*
%TD*%
%TO.C,DL00_21*%
X137620000Y-175195000D03*
X140920000Y-175195000D03*
%TD*%
%TO.C,DL00_29*%
X118560000Y-165715000D03*
X121860000Y-165715000D03*
%TD*%
%TO.C,DR00_8*%
X237451887Y-68317889D03*
X234151887Y-68317889D03*
%TD*%
%TO.C,DR00_26*%
X294611887Y-187377889D03*
X291311887Y-187377889D03*
%TD*%
%TO.C,DL00_9*%
X156650000Y-70425000D03*
X159950000Y-70425000D03*
%TD*%
%TO.C,DR00_22*%
X275551887Y-101647889D03*
X272251887Y-101647889D03*
%TD*%
D38*
%TO.C,RL4*%
X100822500Y-173645000D03*
X97897500Y-173645000D03*
%TD*%
D46*
%TO.C,ESDDLD1*%
X202909004Y-96099996D03*
X204309004Y-96099996D03*
%TD*%
D25*
%TO.C,DL00_7*%
X175720000Y-199015000D03*
X179020000Y-199015000D03*
%TD*%
D34*
%TO.C,CR6*%
X312356887Y-127917889D03*
X315306887Y-127917889D03*
%TD*%
D25*
%TO.C,DL00_11*%
X156670000Y-132325000D03*
X159970000Y-132325000D03*
%TD*%
D20*
%TO.C,USBLD1*%
X204629004Y-89499996D03*
X204629004Y-83719996D03*
D21*
X206074004Y-89859996D03*
X206074004Y-89059996D03*
D22*
X206074004Y-87859996D03*
X206074004Y-86859996D03*
X206074004Y-86359996D03*
X206074004Y-85359996D03*
D21*
X206074004Y-84159996D03*
X206074004Y-83359996D03*
X206074004Y-83359996D03*
X206074004Y-84159996D03*
D22*
X206074004Y-84859996D03*
X206074004Y-85859996D03*
X206074004Y-87359996D03*
X206074004Y-88359996D03*
D21*
X206074004Y-89059996D03*
X206074004Y-89859996D03*
D23*
X200979004Y-90929996D03*
D24*
X205159004Y-90929996D03*
D23*
X200979004Y-82289996D03*
D24*
X205159004Y-82289996D03*
%TD*%
D38*
%TO.C,RR3*%
X267054387Y-222377889D03*
X264129387Y-222377889D03*
%TD*%
D25*
%TO.C,DL00_38*%
X99520000Y-187105000D03*
X102820000Y-187105000D03*
%TD*%
D27*
%TO.C,HOLE01*%
X206599004Y-76869996D03*
%TD*%
D25*
%TO.C,DL00_36*%
X99520000Y-153765000D03*
X102820000Y-153765000D03*
%TD*%
D38*
%TO.C,RR4*%
X315444387Y-179167889D03*
X312519387Y-179167889D03*
%TD*%
D30*
%TO.C,RL2*%
X146147500Y-223325000D03*
X149072500Y-223325000D03*
%TD*%
D25*
%TO.C,DR00_39*%
X313661887Y-84987889D03*
X310361887Y-84987889D03*
%TD*%
D47*
%TO.C,ESDDRD1*%
X210289004Y-185984996D03*
X208889004Y-185984996D03*
%TD*%
D25*
%TO.C,DL00_13*%
X156660000Y-170435000D03*
X159960000Y-170435000D03*
%TD*%
%TO.C,DR00_20*%
X275551887Y-139757889D03*
X272251887Y-139757889D03*
%TD*%
D34*
%TO.C,CL1*%
X97785000Y-161115000D03*
X100735000Y-161115000D03*
%TD*%
M02*
