M48
; DRILL file {KiCad 8.0.2} date 2024-06-18T01:05:28+0900
; FORMAT={-:-/ absolute / inch / decimal}
; #@! TF.CreationDate,2024-06-18T01:05:28+09:00
; #@! TF.GenerationSoftware,Kicad,Pcbnew,8.0.2
; #@! TF.FileFunction,NonPlated,1,2,NPTH
FMAT,2
INCH
; #@! TA.AperFunction,NonPlated,NPTH,ComponentDrill
T1C0.0236
; #@! TA.AperFunction,NonPlated,NPTH,ComponentDrill
T2C0.0256
; #@! TA.AperFunction,NonPlated,NPTH,ComponentDrill
T3C0.0472
; #@! TA.AperFunction,NonPlated,NPTH,ComponentDrill
T4C0.0689
; #@! TA.AperFunction,NonPlated,NPTH,ComponentDrill
T5C0.0787
; #@! TA.AperFunction,NonPlated,NPTH,ComponentDrill
T6C0.0866
; #@! TA.AperFunction,NonPlated,NPTH,ComponentDrill
T7C0.1181
; #@! TA.AperFunction,NonPlated,NPTH,ComponentDrill
T8C0.1200
; #@! TA.AperFunction,NonPlated,NPTH,ComponentDrill
T9C0.1570
%
G90
G05
T1
X7.576Y-3.7114
X7.576Y-3.7429
X7.576Y-3.7744
X7.576Y-3.8059
X7.576Y-3.8374
X7.576Y-3.8689
X7.576Y-3.9004
X7.576Y-3.9319
X7.576Y-3.9634
X7.576Y-3.9949
X7.576Y-4.0264
X7.5772Y-7.0878
X7.5772Y-7.1193
X7.5772Y-7.1508
X7.5772Y-7.1823
X7.5772Y-7.2138
X7.5772Y-7.2453
X7.5772Y-7.2768
X7.5772Y-7.3083
X7.5772Y-7.3398
X7.5772Y-7.3713
X7.5772Y-7.4028
X7.8525Y-3.7113
X7.8525Y-3.7428
X7.8525Y-3.7743
X7.8525Y-3.8058
X7.8525Y-3.8373
X7.8525Y-3.8688
X7.8525Y-3.9003
X7.8525Y-3.9318
X7.8525Y-3.9633
X7.8525Y-3.9948
X7.8525Y-4.0263
X7.8537Y-7.0877
X7.8537Y-7.1192
X7.8537Y-7.1507
X7.8537Y-7.1822
X7.8537Y-7.2137
X7.8537Y-7.2452
X7.8537Y-7.2767
X7.8537Y-7.3082
X7.8537Y-7.3397
X7.8537Y-7.3711
X7.8537Y-7.4026
X8.4138Y-3.711
X8.4138Y-3.7425
X8.4138Y-3.774
X8.4138Y-3.8055
X8.4138Y-3.837
X8.4138Y-3.8685
X8.4138Y-3.9
X8.4138Y-3.9315
X8.4138Y-3.963
X8.4138Y-3.9945
X8.4138Y-4.026
X8.4154Y-7.0882
X8.4154Y-7.1197
X8.4154Y-7.1512
X8.4154Y-7.1827
X8.4154Y-7.2142
X8.4154Y-7.2457
X8.4154Y-7.2772
X8.4154Y-7.3087
X8.4154Y-7.3402
X8.4154Y-7.3717
X8.4154Y-7.4031
X8.6903Y-3.7109
X8.6903Y-3.7424
X8.6903Y-3.7739
X8.6903Y-3.8054
X8.6903Y-3.8369
X8.6903Y-3.8684
X8.6903Y-3.8999
X8.6903Y-3.9314
X8.6903Y-3.9629
X8.6903Y-3.9944
X8.6903Y-4.0259
X8.6919Y-7.0881
X8.6919Y-7.1196
X8.6919Y-7.1511
X8.6919Y-7.1826
X8.6919Y-7.2141
X8.6919Y-7.2456
X8.6919Y-7.2771
X8.6919Y-7.3086
X8.6919Y-7.34
X8.6919Y-7.3715
X8.6919Y-7.403
T2
X8.0563Y-3.2961
X8.0563Y-3.5236
X8.2114Y-6.6439
X8.2114Y-6.8715
T3
X7.9275Y-4.3559
X8.0669Y-7.7022
X8.2031Y-4.3559
X8.3425Y-7.7022
T4
X4.166Y-4.6858
X4.166Y-5.0858
X4.1661Y-5.623
X4.1661Y-6.023
X4.1663Y-2.3429
X4.1663Y-2.7429
X4.1663Y-3.748
X4.1663Y-4.148
X4.1665Y-8.2486
X4.1665Y-8.6486
X4.1669Y-6.936
X4.1669Y-7.336
X4.9154Y-5.3427
X4.9154Y-5.7427
X4.9159Y-4.1237
X4.9159Y-4.5237
X4.9161Y-6.0923
X4.9161Y-6.4923
X4.9163Y-6.8433
X4.9163Y-7.2433
X4.9163Y-7.5925
X4.9163Y-7.9925
X4.9165Y-2.3419
X4.9165Y-2.7419
X4.9169Y-8.3419
X4.9169Y-8.7419
X5.6654Y-2.3427
X5.6654Y-2.7427
X5.6654Y-4.9675
X5.6654Y-5.3675
X5.666Y-6.4681
X5.666Y-6.8681
X5.6661Y-5.7175
X5.6661Y-6.1175
X5.6661Y-7.9671
X5.6661Y-8.3671
X5.6663Y-7.2169
X5.6663Y-7.6169
X5.6667Y-3.935
X5.6667Y-4.335
X6.4157Y-3.8425
X6.4157Y-4.2425
X6.4157Y-7.0299
X6.4157Y-7.4299
X6.4157Y-7.7797
X6.4157Y-8.1797
X6.416Y-2.3417
X6.416Y-2.7417
X6.4161Y-6.2805
X6.4161Y-6.6805
X6.4165Y-4.7797
X6.4165Y-5.1797
X6.4165Y-5.5301
X6.4165Y-5.9301
X7.1657Y-2.3431
X7.1657Y-2.7431
X7.1657Y-8.1549
X7.1657Y-8.5549
X7.166Y-5.1547
X7.166Y-5.5547
X7.1661Y-3.6553
X7.1661Y-4.0553
X7.1661Y-5.9045
X7.1661Y-6.3045
X7.1661Y-6.6545
X7.1661Y-7.0545
X7.1663Y-7.4055
X7.1663Y-7.8055
X7.1665Y-4.4045
X7.1665Y-4.8045
X9.0997Y-5.3453
X9.0997Y-5.7453
X9.0997Y-8.3446
X9.0997Y-8.7446
X9.1001Y-6.0953
X9.1001Y-6.4953
X9.1001Y-6.8446
X9.1001Y-7.2446
X9.1003Y-7.5948
X9.1003Y-7.9948
X9.1007Y-3.8455
X9.1007Y-4.2455
X9.1009Y-2.7202
X9.1009Y-3.1202
X9.1009Y-4.5946
X9.1009Y-4.9946
X9.8501Y-4.2194
X9.8501Y-4.6194
X9.8501Y-7.9702
X9.8501Y-8.3702
X9.8503Y-2.5322
X9.8503Y-2.9322
X9.8503Y-4.9703
X9.8503Y-5.3703
X9.8505Y-3.4709
X9.8505Y-3.8709
X9.8505Y-6.4702
X9.8505Y-6.8702
X9.8505Y-7.2202
X9.8505Y-7.6202
X9.8511Y-5.7207
X9.8511Y-6.1207
X10.5999Y-7.7826
X10.5999Y-8.1826
X10.6003Y-5.5329
X10.6003Y-5.9329
X10.6005Y-4.7828
X10.6005Y-5.1828
X10.6007Y-4.0333
X10.6007Y-4.4333
X10.6007Y-7.0326
X10.6007Y-7.4326
X10.6009Y-2.8139
X10.6009Y-3.2139
X10.6011Y-6.2826
X10.6011Y-6.6826
X11.3501Y-3.3761
X11.3501Y-3.7761
X11.3503Y-6.6578
X11.3503Y-7.0578
X11.3503Y-8.1578
X11.3503Y-8.5578
X11.3505Y-2.345
X11.3505Y-2.745
X11.3505Y-4.4076
X11.3505Y-4.8076
X11.3505Y-5.1572
X11.3505Y-5.5572
X11.3509Y-7.4076
X11.3509Y-7.8076
X11.3514Y-5.9078
X11.3514Y-6.3078
X12.0995Y-4.3133
X12.0995Y-4.7133
X12.1003Y-2.4385
X12.1003Y-2.8385
X12.1005Y-3.3757
X12.1005Y-3.7757
X12.1005Y-7.5013
X12.1005Y-7.9013
X12.1009Y-5.6257
X12.1009Y-6.0257
T6
X8.1338Y-3.0264
X8.1342Y-4.739
X8.1354Y-8.0868
X8.1358Y-6.3742
T7
X4.266Y-4.7358
X4.2661Y-5.673
X4.2663Y-2.3929
X4.2663Y-3.798
X4.2665Y-8.2986
X4.2669Y-6.986
X4.366Y-4.9858
X4.3661Y-5.923
X4.3663Y-2.6429
X4.3663Y-4.048
X4.3665Y-8.5486
X4.3669Y-7.236
X5.0154Y-5.3927
X5.0159Y-4.1737
X5.0161Y-6.1423
X5.0163Y-6.8933
X5.0163Y-7.6425
X5.0165Y-2.3919
X5.0169Y-8.3919
X5.1154Y-5.6427
X5.1159Y-4.4237
X5.1161Y-6.3923
X5.1163Y-7.1433
X5.1163Y-7.8925
X5.1165Y-2.6419
X5.1169Y-8.6419
X5.7654Y-2.3927
X5.7654Y-5.0175
X5.766Y-6.5181
X5.7661Y-5.7675
X5.7661Y-8.0171
X5.7663Y-7.2669
X5.7667Y-3.985
X5.8654Y-2.6427
X5.8654Y-5.2675
X5.866Y-6.7681
X5.8661Y-6.0175
X5.8661Y-8.2671
X5.8663Y-7.5169
X5.8667Y-4.235
X6.5157Y-3.8925
X6.5157Y-7.0799
X6.5157Y-7.8297
X6.516Y-2.3917
X6.5161Y-6.3305
X6.5165Y-4.8297
X6.5165Y-5.5801
X6.6157Y-4.1425
X6.6157Y-7.3299
X6.6157Y-8.0797
X6.616Y-2.6417
X6.6161Y-6.5805
X6.6165Y-5.0797
X6.6165Y-5.8301
X7.2657Y-2.3931
X7.2657Y-8.2049
X7.266Y-5.2047
X7.2661Y-3.7053
X7.2661Y-5.9545
X7.2661Y-6.7045
X7.2663Y-7.4555
X7.2665Y-4.4545
X7.3657Y-2.6431
X7.3657Y-8.4549
X7.366Y-5.4547
X7.3661Y-3.9553
X7.3661Y-6.2045
X7.3661Y-6.9545
X7.3663Y-7.7055
X7.3665Y-4.7045
X8.8997Y-5.4453
X8.8997Y-8.4446
X8.9001Y-6.1953
X8.9001Y-6.9446
X8.9003Y-7.6948
X8.9007Y-3.9455
X8.9009Y-2.8202
X8.9009Y-4.6946
X8.9997Y-5.6953
X8.9997Y-8.6946
X9.0001Y-6.4453
X9.0001Y-7.1946
X9.0003Y-7.9448
X9.0007Y-4.1955
X9.0009Y-3.0702
X9.0009Y-4.9446
X9.6501Y-4.3194
X9.6501Y-8.0702
X9.6503Y-2.6322
X9.6503Y-5.0703
X9.6505Y-3.5709
X9.6505Y-6.5702
X9.6505Y-7.3202
X9.6511Y-5.8207
X9.7501Y-4.5694
X9.7501Y-8.3202
X9.7503Y-2.8822
X9.7503Y-5.3203
X9.7505Y-3.8209
X9.7505Y-6.8202
X9.7505Y-7.5702
X9.7511Y-6.0707
X10.3999Y-7.8826
X10.4003Y-5.6329
X10.4005Y-4.8828
X10.4007Y-4.1333
X10.4007Y-7.1326
X10.4009Y-2.9139
X10.4011Y-6.3826
X10.4999Y-8.1326
X10.5003Y-5.8829
X10.5005Y-5.1328
X10.5007Y-4.3833
X10.5007Y-7.3826
X10.5009Y-3.1639
X10.5011Y-6.6326
X11.1501Y-3.4761
X11.1503Y-6.7578
X11.1503Y-8.2578
X11.1505Y-2.445
X11.1505Y-4.5076
X11.1505Y-5.2572
X11.1509Y-7.5076
X11.1514Y-6.0078
X11.2501Y-3.7261
X11.2503Y-7.0078
X11.2503Y-8.5078
X11.2505Y-2.695
X11.2505Y-4.7576
X11.2505Y-5.5072
X11.2509Y-7.7576
X11.2514Y-6.2578
X11.8995Y-4.4133
X11.9003Y-2.5385
X11.9005Y-3.4757
X11.9005Y-7.6013
X11.9009Y-5.7257
X11.9995Y-4.6633
X12.0003Y-2.7885
X12.0005Y-3.7257
X12.0005Y-7.8513
X12.0009Y-5.9757
T8
X3.8919Y-6.666
X3.8919Y-7.606
X5.1909Y-3.8537
X5.1909Y-4.7937
X8.8259Y-2.4502
X8.8259Y-3.3902
X10.3259Y-2.5439
X10.3259Y-3.4839
X12.3755Y-7.2313
X12.3755Y-8.1713
X12.3759Y-5.3557
X12.3759Y-6.2957
T9
X4.166Y-4.8858
X4.1661Y-5.823
X4.1663Y-2.5429
X4.1663Y-3.948
X4.1665Y-8.4486
X4.1669Y-7.136
X4.4919Y-6.666
X4.4919Y-7.606
X4.5909Y-3.8537
X4.5909Y-4.7937
X4.9154Y-5.5427
X4.9159Y-4.3237
X4.9161Y-6.2923
X4.9163Y-7.0433
X4.9163Y-7.7925
X4.9165Y-2.5419
X4.9169Y-8.5419
X5.6654Y-2.5427
X5.6654Y-5.1675
X5.666Y-6.6681
X5.6661Y-5.9175
X5.6661Y-8.1671
X5.6663Y-7.4169
X5.6667Y-4.135
X6.4157Y-4.0425
X6.4157Y-7.2299
X6.4157Y-7.9797
X6.416Y-2.5417
X6.4161Y-6.4805
X6.4165Y-4.9797
X6.4165Y-5.7301
X7.1657Y-2.5431
X7.1657Y-8.3549
X7.166Y-5.3547
X7.1661Y-3.8553
X7.1661Y-6.1045
X7.1661Y-6.8545
X7.1663Y-7.6055
X7.1665Y-4.6045
X9.0997Y-5.5453
X9.0997Y-8.5446
X9.1001Y-6.2953
X9.1001Y-7.0446
X9.1003Y-7.7948
X9.1007Y-4.0455
X9.1009Y-2.9202
X9.1009Y-4.7946
X9.4259Y-2.4502
X9.4259Y-3.3902
X9.8501Y-4.4194
X9.8501Y-8.1702
X9.8503Y-2.7322
X9.8503Y-5.1703
X9.8505Y-3.6709
X9.8505Y-6.6702
X9.8505Y-7.4202
X9.8511Y-5.9207
X10.5999Y-7.9826
X10.6003Y-5.7329
X10.6005Y-4.9828
X10.6007Y-4.2333
X10.6007Y-7.2326
X10.6009Y-3.0139
X10.6011Y-6.4826
X10.9259Y-2.5439
X10.9259Y-3.4839
X11.3501Y-3.5761
X11.3503Y-6.8578
X11.3503Y-8.3578
X11.3505Y-2.545
X11.3505Y-4.6076
X11.3505Y-5.3572
X11.3509Y-7.6076
X11.3514Y-6.1078
X11.7755Y-7.2313
X11.7755Y-8.1713
X11.7759Y-5.3557
X11.7759Y-6.2957
X12.0995Y-4.5133
X12.1003Y-2.6385
X12.1005Y-3.5757
X12.1005Y-7.7013
X12.1009Y-5.8257
T5
G00X4.1752Y-2.3226
M15
G01X4.1555Y-2.3226
M16
G05
G00X4.1752Y-2.7636
M15
G01X4.1555Y-2.7636
M16
G05
G00X4.9264Y-2.3215
M15
G01X4.9067Y-2.3215
M16
G05
G00X4.9264Y-2.7624
M15
G01X4.9067Y-2.7624
M16
G05
G00X6.4256Y-2.3219
M15
G01X6.4059Y-2.3219
M16
G05
G00X6.4256Y-2.7628
M15
G01X6.4059Y-2.7628
M16
G05
G00X7.1748Y-2.3226
M15
G01X7.1551Y-2.3226
M16
G05
G00X7.1748Y-2.7636
M15
G01X7.1551Y-2.7636
M16
G05
M30
