M48
; DRILL file {KiCad 8.0.2} date 2024-05-06T22:35:14+0900
; FORMAT={-:-/ absolute / inch / decimal}
; #@! TF.CreationDate,2024-05-06T22:35:14+09:00
; #@! TF.GenerationSoftware,Kicad,Pcbnew,8.0.2
; #@! TF.FileFunction,NonPlated,1,2,NPTH
FMAT,2
INCH
; #@! TA.AperFunction,NonPlated,NPTH,ComponentDrill
T1C0.0236
; #@! TA.AperFunction,NonPlated,NPTH,ComponentDrill
T2C0.0256
; #@! TA.AperFunction,NonPlated,NPTH,ComponentDrill
T3C0.0472
; #@! TA.AperFunction,NonPlated,NPTH,ComponentDrill
T4C0.0866
%
G90
G05
T1
X2.7378Y-2.7693
X2.7378Y-2.9866
X2.7693Y-2.7693
X2.7693Y-2.9866
X2.8008Y-2.7693
X2.8008Y-2.9866
X2.8323Y-2.7693
X2.8323Y-2.9866
X2.8638Y-2.7693
X2.8638Y-2.9866
X2.8953Y-2.7693
X2.8953Y-2.9866
X2.9268Y-2.7693
X2.9268Y-2.9866
T2
X2.2421Y-3.339
X2.2461Y-2.4157
X2.4697Y-3.339
X2.4736Y-2.4157
T3
X3.3004Y-3.1945
X3.3004Y-3.4701
X3.3059Y-2.287
X3.3059Y-2.5626
T4
X1.9724Y-3.2634
X1.9764Y-2.4933
X3.685Y-3.263
X3.689Y-2.4937
M30
