%TF.GenerationSoftware,KiCad,Pcbnew,8.0.2*%
%TF.CreationDate,2024-05-06T22:35:11+09:00*%
%TF.ProjectId,daughterboard,64617567-6874-4657-9262-6f6172642e6b,rev?*%
%TF.SameCoordinates,Original*%
%TF.FileFunction,Soldermask,Bot*%
%TF.FilePolarity,Negative*%
%FSLAX46Y46*%
G04 Gerber Fmt 4.6, Leading zero omitted, Abs format (unit mm)*
G04 Created by KiCad (PCBNEW 8.0.2) date 2024-05-06 22:35:11*
%MOMM*%
%LPD*%
G01*
G04 APERTURE LIST*
G04 Aperture macros list*
%AMRoundRect*
0 Rectangle with rounded corners*
0 $1 Rounding radius*
0 $2 $3 $4 $5 $6 $7 $8 $9 X,Y pos of 4 corners*
0 Add a 4 corners polygon primitive as box body*
4,1,4,$2,$3,$4,$5,$6,$7,$8,$9,$2,$3,0*
0 Add four circle primitives for the rounded corners*
1,1,$1+$1,$2,$3*
1,1,$1+$1,$4,$5*
1,1,$1+$1,$6,$7*
1,1,$1+$1,$8,$9*
0 Add four rect primitives between the rounded corners*
20,1,$1+$1,$2,$3,$4,$5,0*
20,1,$1+$1,$4,$5,$6,$7,0*
20,1,$1+$1,$6,$7,$8,$9,0*
20,1,$1+$1,$8,$9,$2,$3,0*%
G04 Aperture macros list end*
%ADD10C,2.200000*%
%ADD11C,0.650000*%
%ADD12O,1.000000X2.100000*%
%ADD13O,1.000000X1.600000*%
%ADD14C,0.600000*%
%ADD15C,1.200000*%
%ADD16O,1.500000X2.300000*%
%ADD17RoundRect,0.250000X-0.350000X-0.625000X0.350000X-0.625000X0.350000X0.625000X-0.350000X0.625000X0*%
%ADD18O,1.200000X1.750000*%
%ADD19RoundRect,0.250000X0.350000X0.625000X-0.350000X0.625000X-0.350000X-0.625000X0.350000X-0.625000X0*%
G04 APERTURE END LIST*
D10*
%TO.C,HOLE04*%
X93600000Y-82880000D03*
%TD*%
D11*
%TO.C,USBR1*%
X56950000Y-84810000D03*
X62730000Y-84810000D03*
D12*
X55520000Y-84280000D03*
D13*
X55520000Y-88460000D03*
D12*
X64160000Y-84280000D03*
D13*
X64160000Y-88460000D03*
%TD*%
D14*
%TO.C,HOLE06*%
X69540000Y-75860000D03*
X70340000Y-75860000D03*
X71140000Y-75860000D03*
X71940000Y-75860000D03*
X72740000Y-75860000D03*
X73540000Y-75860000D03*
X74340000Y-75860000D03*
%TD*%
%TO.C,HOLE05*%
X69540000Y-70340000D03*
X70340000Y-70340000D03*
X71140000Y-70340000D03*
X71940000Y-70340000D03*
X72740000Y-70340000D03*
X73540000Y-70340000D03*
X74340000Y-70340000D03*
%TD*%
D10*
%TO.C,HOLE03*%
X50100000Y-82890000D03*
%TD*%
D15*
%TO.C,JL1*%
X83970000Y-58090000D03*
X83970000Y-65090000D03*
D16*
X81820000Y-68390000D03*
X86120000Y-59890000D03*
X86120000Y-62890000D03*
X86120000Y-66890000D03*
%TD*%
D11*
%TO.C,USBL1*%
X62830000Y-61360000D03*
X57050000Y-61360000D03*
D12*
X64260000Y-61890000D03*
D13*
X64260000Y-57710000D03*
D12*
X55620000Y-61890000D03*
D13*
X55620000Y-57710000D03*
%TD*%
D10*
%TO.C,HOLE01*%
X50200000Y-63330000D03*
%TD*%
D17*
%TO.C,JL2*%
X67950000Y-63680000D03*
D18*
X69950000Y-63680000D03*
X71950000Y-63680000D03*
X73950000Y-63680000D03*
X75950000Y-63680000D03*
%TD*%
D10*
%TO.C,HOLE02*%
X93700000Y-63340000D03*
%TD*%
D15*
%TO.C,JR1*%
X83830000Y-88140000D03*
X83830000Y-81140000D03*
D16*
X85980000Y-77840000D03*
X81680000Y-86340000D03*
X81680000Y-83340000D03*
X81680000Y-79340000D03*
%TD*%
D19*
%TO.C,JR2*%
X75840000Y-82560000D03*
D18*
X73840000Y-82560000D03*
X71840000Y-82560000D03*
X69840000Y-82560000D03*
X67840000Y-82560000D03*
%TD*%
M02*
