M48
; DRILL file {KiCad 8.0.2} date 2024-05-06T22:35:14+0900
; FORMAT={-:-/ absolute / inch / decimal}
; #@! TF.CreationDate,2024-05-06T22:35:14+09:00
; #@! TF.GenerationSoftware,Kicad,Pcbnew,8.0.2
; #@! TF.FileFunction,Plated,1,2,PTH
FMAT,2
INCH
; #@! TA.AperFunction,Plated,PTH,ViaDrill
T1C0.0118
; #@! TA.AperFunction,Plated,PTH,ComponentDrill
T2C0.0236
; #@! TA.AperFunction,Plated,PTH,ComponentDrill
T3C0.0295
; #@! TA.AperFunction,Plated,PTH,ComponentDrill
T4C0.0394
%
G90
G05
T1
X2.2831Y-3.2201
X2.3429Y-2.5236
X2.3919Y-2.428
X2.4484Y-3.2232
X2.4949Y-3.3878
X2.4953Y-3.4193
X2.6386Y-3.3878
X2.7187Y-3.4177
X2.7303Y-2.6283
X2.7803Y-2.3717
X2.822Y-2.3244
X2.8701Y-3.4063
X2.9319Y-2.4453
X3.0354Y-2.4118
X3.1551Y-3.3488
X3.3263Y-3.3823
X3.4697Y-3.0933
T3
X2.6709Y-3.2504
X2.6752Y-2.5071
X2.7496Y-3.2504
X2.7539Y-2.5071
X2.8283Y-3.2504
X2.8327Y-2.5071
X2.9071Y-3.2504
X2.9114Y-2.5071
X2.9858Y-3.2504
X2.9902Y-2.5071
T2
G00X2.1858Y-3.2965
M15
G01X2.1858Y-3.3398
M16
G05
G00X2.1858Y-3.4709
M15
G01X2.1858Y-3.4945
M16
G05
G00X2.1898Y-2.2839
M15
G01X2.1898Y-2.2602
M16
G05
G00X2.1898Y-2.4583
M15
G01X2.1898Y-2.415
M16
G05
G00X2.526Y-3.2965
M15
G01X2.526Y-3.3398
M16
G05
G00X2.526Y-3.4709
M15
G01X2.526Y-3.4945
M16
G05
G00X2.5299Y-2.2839
M15
G01X2.5299Y-2.2602
M16
G05
G00X2.5299Y-2.4583
M15
G01X2.5299Y-2.415
M16
G05
T4
G00X3.2157Y-3.1335
M15
G01X3.2157Y-3.1138
M16
G05
G00X3.2157Y-3.2909
M15
G01X3.2157Y-3.2713
M16
G05
G00X3.2157Y-3.4091
M15
G01X3.2157Y-3.3894
M16
G05
G00X3.2213Y-2.6827
M15
G01X3.2213Y-2.7024
M16
G05
G00X3.385Y-3.0744
M15
G01X3.385Y-3.0547
M16
G05
G00X3.3906Y-2.348
M15
G01X3.3906Y-2.3677
M16
G05
G00X3.3906Y-2.4661
M15
G01X3.3906Y-2.4858
M16
G05
G00X3.3906Y-2.6236
M15
G01X3.3906Y-2.6433
M16
G05
M30
