%TF.GenerationSoftware,KiCad,Pcbnew,8.0.2*%
%TF.CreationDate,2024-05-06T22:35:11+09:00*%
%TF.ProjectId,daughterboard,64617567-6874-4657-9262-6f6172642e6b,rev?*%
%TF.SameCoordinates,Original*%
%TF.FileFunction,Soldermask,Top*%
%TF.FilePolarity,Negative*%
%FSLAX46Y46*%
G04 Gerber Fmt 4.6, Leading zero omitted, Abs format (unit mm)*
G04 Created by KiCad (PCBNEW 8.0.2) date 2024-05-06 22:35:11*
%MOMM*%
%LPD*%
G01*
G04 APERTURE LIST*
G04 Aperture macros list*
%AMRoundRect*
0 Rectangle with rounded corners*
0 $1 Rounding radius*
0 $2 $3 $4 $5 $6 $7 $8 $9 X,Y pos of 4 corners*
0 Add a 4 corners polygon primitive as box body*
4,1,4,$2,$3,$4,$5,$6,$7,$8,$9,$2,$3,0*
0 Add four circle primitives for the rounded corners*
1,1,$1+$1,$2,$3*
1,1,$1+$1,$4,$5*
1,1,$1+$1,$6,$7*
1,1,$1+$1,$8,$9*
0 Add four rect primitives between the rounded corners*
20,1,$1+$1,$2,$3,$4,$5,0*
20,1,$1+$1,$4,$5,$6,$7,0*
20,1,$1+$1,$6,$7,$8,$9,0*
20,1,$1+$1,$8,$9,$2,$3,0*%
G04 Aperture macros list end*
%ADD10RoundRect,0.150000X0.200000X-0.150000X0.200000X0.150000X-0.200000X0.150000X-0.200000X-0.150000X0*%
%ADD11RoundRect,0.250000X-0.625000X0.312500X-0.625000X-0.312500X0.625000X-0.312500X0.625000X0.312500X0*%
%ADD12C,2.200000*%
%ADD13C,0.650000*%
%ADD14R,0.600000X1.450000*%
%ADD15R,0.300000X1.450000*%
%ADD16O,1.000000X2.100000*%
%ADD17O,1.000000X1.600000*%
%ADD18C,0.600000*%
%ADD19RoundRect,0.250000X0.625000X-0.312500X0.625000X0.312500X-0.625000X0.312500X-0.625000X-0.312500X0*%
%ADD20RoundRect,0.150000X-0.200000X0.150000X-0.200000X-0.150000X0.200000X-0.150000X0.200000X0.150000X0*%
%ADD21C,1.200000*%
%ADD22O,1.500000X2.300000*%
%ADD23RoundRect,0.250000X0.650000X-0.325000X0.650000X0.325000X-0.650000X0.325000X-0.650000X-0.325000X0*%
%ADD24RoundRect,0.250000X-0.625000X0.375000X-0.625000X-0.375000X0.625000X-0.375000X0.625000X0.375000X0*%
%ADD25R,0.250000X0.609000*%
%ADD26R,0.380000X0.609000*%
%ADD27RoundRect,0.250000X-0.350000X-0.625000X0.350000X-0.625000X0.350000X0.625000X-0.350000X0.625000X0*%
%ADD28O,1.200000X1.750000*%
%ADD29RoundRect,0.250000X0.350000X0.625000X-0.350000X0.625000X-0.350000X-0.625000X0.350000X-0.625000X0*%
G04 APERTURE END LIST*
D10*
%TO.C,ESDDL1*%
X69430000Y-59640000D03*
X69430000Y-61040000D03*
%TD*%
D11*
%TO.C,RR3*%
X61930000Y-77347500D03*
X61930000Y-80272500D03*
%TD*%
D12*
%TO.C,HOLE04*%
X93600000Y-82880000D03*
%TD*%
D13*
%TO.C,USBR1*%
X56950000Y-84810000D03*
X62730000Y-84810000D03*
D14*
X56590000Y-83365000D03*
X57390000Y-83365000D03*
D15*
X58590000Y-83365000D03*
X59590000Y-83365000D03*
X60090000Y-83365000D03*
X61090000Y-83365000D03*
D14*
X62290000Y-83365000D03*
X63090000Y-83365000D03*
X63090000Y-83365000D03*
X62290000Y-83365000D03*
D15*
X61590000Y-83365000D03*
X60590000Y-83365000D03*
X59090000Y-83365000D03*
X58090000Y-83365000D03*
D14*
X57390000Y-83365000D03*
X56590000Y-83365000D03*
D16*
X55520000Y-84280000D03*
D17*
X55520000Y-88460000D03*
D16*
X64160000Y-84280000D03*
D17*
X64160000Y-88460000D03*
%TD*%
D18*
%TO.C,HOLE06*%
X69540000Y-75860000D03*
X70340000Y-75860000D03*
X71140000Y-75860000D03*
X71940000Y-75860000D03*
X72740000Y-75860000D03*
X73540000Y-75860000D03*
X74340000Y-75860000D03*
%TD*%
%TO.C,HOLE05*%
X69540000Y-70340000D03*
X70340000Y-70340000D03*
X71140000Y-70340000D03*
X71940000Y-70340000D03*
X72740000Y-70340000D03*
X73540000Y-70340000D03*
X74340000Y-70340000D03*
%TD*%
D19*
%TO.C,RL1*%
X62510000Y-68812500D03*
X62510000Y-65887500D03*
%TD*%
D20*
%TO.C,ESDDR1*%
X74180000Y-86530000D03*
X74180000Y-85130000D03*
%TD*%
D19*
%TO.C,RL2*%
X58780000Y-68852500D03*
X58780000Y-65927500D03*
%TD*%
D12*
%TO.C,HOLE03*%
X50100000Y-82890000D03*
%TD*%
D21*
%TO.C,JL1*%
X83970000Y-58090000D03*
X83970000Y-65090000D03*
D22*
X81820000Y-68390000D03*
X86120000Y-59890000D03*
X86120000Y-62890000D03*
X86120000Y-66890000D03*
%TD*%
D19*
%TO.C,RL3*%
X55080000Y-68852500D03*
X55080000Y-65927500D03*
%TD*%
D13*
%TO.C,USBL1*%
X62830000Y-61360000D03*
X57050000Y-61360000D03*
D14*
X63190000Y-62805000D03*
X62390000Y-62805000D03*
D15*
X61190000Y-62805000D03*
X60190000Y-62805000D03*
X59690000Y-62805000D03*
X58690000Y-62805000D03*
D14*
X57490000Y-62805000D03*
X56690000Y-62805000D03*
X56690000Y-62805000D03*
X57490000Y-62805000D03*
D15*
X58190000Y-62805000D03*
X59190000Y-62805000D03*
X60690000Y-62805000D03*
X61690000Y-62805000D03*
D14*
X62390000Y-62805000D03*
X63190000Y-62805000D03*
D16*
X64260000Y-61890000D03*
D17*
X64260000Y-57710000D03*
D16*
X55620000Y-61890000D03*
D17*
X55620000Y-57710000D03*
%TD*%
D23*
%TO.C,CR1*%
X89500000Y-88425000D03*
X89500000Y-85475000D03*
%TD*%
D24*
%TO.C,FR1*%
X89530000Y-77520000D03*
X89530000Y-80320000D03*
%TD*%
%TO.C,FL1*%
X89710000Y-65910000D03*
X89710000Y-68710000D03*
%TD*%
D11*
%TO.C,RR2*%
X58330000Y-77327500D03*
X58330000Y-80252500D03*
%TD*%
D12*
%TO.C,HOLE01*%
X50200000Y-63330000D03*
%TD*%
D25*
%TO.C,UR1*%
X69620000Y-85240000D03*
X69120000Y-85240000D03*
D26*
X68620000Y-85240000D03*
D25*
X68120000Y-85240000D03*
X67620000Y-85240000D03*
X67620000Y-86070000D03*
X68120000Y-86070000D03*
D26*
X68620000Y-86070000D03*
D25*
X69120000Y-86070000D03*
X69620000Y-86070000D03*
%TD*%
D27*
%TO.C,JL2*%
X67950000Y-63680000D03*
D28*
X69950000Y-63680000D03*
X71950000Y-63680000D03*
X73950000Y-63680000D03*
X75950000Y-63680000D03*
%TD*%
D25*
%TO.C,UL1*%
X73980000Y-60910000D03*
X74480000Y-60910000D03*
D26*
X74980000Y-60910000D03*
D25*
X75480000Y-60910000D03*
X75980000Y-60910000D03*
X75980000Y-60080000D03*
X75480000Y-60080000D03*
D26*
X74980000Y-60080000D03*
D25*
X74480000Y-60080000D03*
X73980000Y-60080000D03*
%TD*%
D23*
%TO.C,CL1*%
X89710000Y-60615000D03*
X89710000Y-57665000D03*
%TD*%
D11*
%TO.C,RR1*%
X54670000Y-77377500D03*
X54670000Y-80302500D03*
%TD*%
D12*
%TO.C,HOLE02*%
X93700000Y-63340000D03*
%TD*%
D21*
%TO.C,JR1*%
X83830000Y-88140000D03*
X83830000Y-81140000D03*
D22*
X85980000Y-77840000D03*
X81680000Y-86340000D03*
X81680000Y-83340000D03*
X81680000Y-79340000D03*
%TD*%
D29*
%TO.C,JR2*%
X75840000Y-82560000D03*
D28*
X73840000Y-82560000D03*
X71840000Y-82560000D03*
X69840000Y-82560000D03*
X67840000Y-82560000D03*
%TD*%
M02*
