999
"DXF R12 Output" (www.mydxf.blogspot.com)
 0 
SECTION
 2 
HEADER
 9 
$ACADVER
 1 
AC1009
 9 
$EXTMIN
 10 
 0 
 20 
 0 
 9 
$EXTMAX
 10 
 8.5 
 20 
 11 
 0 
ENDSEC
 0 
SECTION
 2 
ENTITIES
0
LINE
8
Layer 1
10
47.675000
20
71.200000
11
61.675000
21
71.200000
0
LINE
8
Layer 1
10
61.675000
20
71.200000
11
61.675000
21
57.200000
0
LINE
8
Layer 1
10
61.675000
20
57.200000
11
47.675000
21
57.200000
0
LINE
8
Layer 1
10
47.675000
20
57.200000
11
47.675000
21
71.200000
0
LINE
8
Layer 1
10
19.100000
20
90.250000
11
33.100000
21
90.250000
0
LINE
8
Layer 1
10
33.100000
20
90.250000
11
33.100000
21
76.250000
0
LINE
8
Layer 1
10
33.100000
20
76.250000
11
19.100000
21
76.250000
0
LINE
8
Layer 1
10
19.100000
20
76.250000
11
19.100000
21
90.250000
0
LINE
8
Layer 1
10
0.050000
20
90.250000
11
14.050000
21
90.250000
0
LINE
8
Layer 1
10
14.050000
20
90.250000
11
14.050000
21
76.250000
0
LINE
8
Layer 1
10
14.050000
20
76.250000
11
0.050000
21
76.250000
0
LINE
8
Layer 1
10
0.050000
20
76.250000
11
0.050000
21
90.250000
0
LINE
8
Layer 1
10
38.150000
20
90.250000
11
52.150000
21
90.250000
0
LINE
8
Layer 1
10
52.150000
20
90.250000
11
52.150000
21
76.250000
0
LINE
8
Layer 1
10
52.150000
20
76.250000
11
38.150000
21
76.250000
0
LINE
8
Layer 1
10
38.150000
20
76.250000
11
38.150000
21
90.250000
0
LINE
8
Layer 1
10
57.200000
20
90.250000
11
71.200000
21
90.250000
0
LINE
8
Layer 1
10
71.200000
20
90.250000
11
71.200000
21
76.250000
0
LINE
8
Layer 1
10
71.200000
20
76.250000
11
57.200000
21
76.250000
0
LINE
8
Layer 1
10
57.200000
20
76.250000
11
57.200000
21
90.250000
0
LINE
8
Layer 1
10
76.250000
20
90.250000
11
90.250000
21
90.250000
0
LINE
8
Layer 1
10
90.250000
20
90.250000
11
90.250000
21
76.250000
0
LINE
8
Layer 1
10
90.250000
20
76.250000
11
76.250000
21
76.250000
0
LINE
8
Layer 1
10
76.250000
20
76.250000
11
76.250000
21
90.250000
0
LINE
8
Layer 1
10
95.300000
20
90.250000
11
109.300000
21
90.250000
0
LINE
8
Layer 1
10
109.300000
20
90.250000
11
109.300000
21
76.250000
0
LINE
8
Layer 1
10
109.300000
20
76.250000
11
95.300000
21
76.250000
0
LINE
8
Layer 1
10
95.300000
20
76.250000
11
95.300000
21
90.250000
0
LINE
8
Layer 1
10
142.925000
20
90.250000
11
156.925000
21
90.250000
0
LINE
8
Layer 1
10
156.925000
20
90.250000
11
156.925000
21
76.250000
0
LINE
8
Layer 1
10
156.925000
20
76.250000
11
142.925000
21
76.250000
0
LINE
8
Layer 1
10
142.925000
20
76.250000
11
142.925000
21
90.250000
0
LINE
8
Layer 1
10
9.575000
20
71.200000
11
23.575000
21
71.200000
0
LINE
8
Layer 1
10
23.575000
20
71.200000
11
23.575000
21
57.200000
0
LINE
8
Layer 1
10
23.575000
20
57.200000
11
9.575000
21
57.200000
0
LINE
8
Layer 1
10
9.575000
20
57.200000
11
9.575000
21
71.200000
0
LINE
8
Layer 1
10
28.625000
20
71.200000
11
42.625000
21
71.200000
0
LINE
8
Layer 1
10
42.625000
20
71.200000
11
42.625000
21
57.200000
0
LINE
8
Layer 1
10
42.625000
20
57.200000
11
28.625000
21
57.200000
0
LINE
8
Layer 1
10
28.625000
20
57.200000
11
28.625000
21
71.200000
0
LINE
8
Layer 1
10
66.725000
20
71.200000
11
80.725000
21
71.200000
0
LINE
8
Layer 1
10
80.725000
20
71.200000
11
80.725000
21
57.200000
0
LINE
8
Layer 1
10
80.725000
20
57.200000
11
66.725000
21
57.200000
0
LINE
8
Layer 1
10
66.725000
20
57.200000
11
66.725000
21
71.200000
0
LINE
8
Layer 1
10
85.775000
20
71.200000
11
99.775000
21
71.200000
0
LINE
8
Layer 1
10
99.775000
20
71.200000
11
99.775000
21
57.200000
0
LINE
8
Layer 1
10
99.775000
20
57.200000
11
85.775000
21
57.200000
0
LINE
8
Layer 1
10
85.775000
20
57.200000
11
85.775000
21
71.200000
0
LINE
8
Layer 1
10
104.825000
20
71.200000
11
118.825000
21
71.200000
0
LINE
8
Layer 1
10
118.825000
20
71.200000
11
118.825000
21
57.200000
0
LINE
8
Layer 1
10
118.825000
20
57.200000
11
104.825000
21
57.200000
0
LINE
8
Layer 1
10
104.825000
20
57.200000
11
104.825000
21
71.200000
0
LINE
8
Layer 1
10
123.875000
20
71.200000
11
137.875000
21
71.200000
0
LINE
8
Layer 1
10
137.875000
20
71.200000
11
137.875000
21
57.200000
0
LINE
8
Layer 1
10
137.875000
20
57.200000
11
123.875000
21
57.200000
0
LINE
8
Layer 1
10
123.875000
20
57.200000
11
123.875000
21
71.200000
0
LINE
8
Layer 1
10
147.688000
20
71.200000
11
161.688000
21
71.200000
0
LINE
8
Layer 1
10
161.688000
20
71.200000
11
161.688000
21
57.200000
0
LINE
8
Layer 1
10
161.688000
20
57.200000
11
147.688000
21
57.200000
0
LINE
8
Layer 1
10
147.688000
20
57.200000
11
147.688000
21
71.200000
0
LINE
8
Layer 1
10
14.338000
20
52.150000
11
28.338000
21
52.150000
0
LINE
8
Layer 1
10
28.338000
20
52.150000
11
28.338000
21
38.150000
0
LINE
8
Layer 1
10
28.338000
20
38.150000
11
14.338000
21
38.150000
0
LINE
8
Layer 1
10
14.338000
20
38.150000
11
14.338000
21
52.150000
0
LINE
8
Layer 1
10
33.388000
20
52.150000
11
47.388000
21
52.150000
0
LINE
8
Layer 1
10
47.388000
20
52.150000
11
47.388000
21
38.150000
0
LINE
8
Layer 1
10
47.388000
20
38.150000
11
33.388000
21
38.150000
0
LINE
8
Layer 1
10
33.388000
20
38.150000
11
33.388000
21
52.150000
0
LINE
8
Layer 1
10
71.488000
20
52.150000
11
85.488000
21
52.150000
0
LINE
8
Layer 1
10
85.488000
20
52.150000
11
85.488000
21
38.150000
0
LINE
8
Layer 1
10
85.488000
20
38.150000
11
71.488000
21
38.150000
0
LINE
8
Layer 1
10
71.488000
20
38.150000
11
71.488000
21
52.150000
0
LINE
8
Layer 1
10
90.538000
20
52.150000
11
104.538000
21
52.150000
0
LINE
8
Layer 1
10
104.538000
20
52.150000
11
104.538000
21
38.150000
0
LINE
8
Layer 1
10
104.538000
20
38.150000
11
90.538000
21
38.150000
0
LINE
8
Layer 1
10
90.538000
20
38.150000
11
90.538000
21
52.150000
0
LINE
8
Layer 1
10
109.588000
20
52.150000
11
123.588000
21
52.150000
0
LINE
8
Layer 1
10
123.588000
20
52.150000
11
123.588000
21
38.150000
0
LINE
8
Layer 1
10
123.588000
20
38.150000
11
109.588000
21
38.150000
0
LINE
8
Layer 1
10
109.588000
20
38.150000
11
109.588000
21
52.150000
0
LINE
8
Layer 1
10
140.544000
20
52.150000
11
154.544000
21
52.150000
0
LINE
8
Layer 1
10
154.544000
20
52.150000
11
154.544000
21
38.150000
0
LINE
8
Layer 1
10
154.544000
20
38.150000
11
140.544000
21
38.150000
0
LINE
8
Layer 1
10
140.544000
20
38.150000
11
140.544000
21
52.150000
0
LINE
8
Layer 1
10
4.813000
20
33.100000
11
18.813000
21
33.100000
0
LINE
8
Layer 1
10
18.813000
20
33.100000
11
18.813000
21
19.100000
0
LINE
8
Layer 1
10
18.813000
20
19.100000
11
4.813000
21
19.100000
0
LINE
8
Layer 1
10
4.813000
20
19.100000
11
4.813000
21
33.100000
0
LINE
8
Layer 1
10
23.863000
20
33.100000
11
37.863000
21
33.100000
0
LINE
8
Layer 1
10
37.863000
20
33.100000
11
37.863000
21
19.100000
0
LINE
8
Layer 1
10
37.863000
20
19.100000
11
23.863000
21
19.100000
0
LINE
8
Layer 1
10
23.863000
20
19.100000
11
23.863000
21
33.100000
0
LINE
8
Layer 1
10
42.913000
20
33.100000
11
56.913000
21
33.100000
0
LINE
8
Layer 1
10
56.913000
20
33.100000
11
56.913000
21
19.100000
0
LINE
8
Layer 1
10
56.913000
20
19.100000
11
42.913000
21
19.100000
0
LINE
8
Layer 1
10
42.913000
20
19.100000
11
42.913000
21
33.100000
0
LINE
8
Layer 1
10
61.963000
20
33.100000
11
75.963000
21
33.100000
0
LINE
8
Layer 1
10
75.963000
20
33.100000
11
75.963000
21
19.100000
0
LINE
8
Layer 1
10
75.963000
20
19.100000
11
61.963000
21
19.100000
0
LINE
8
Layer 1
10
61.963000
20
19.100000
11
61.963000
21
33.100000
0
LINE
8
Layer 1
10
81.013000
20
33.100000
11
95.013000
21
33.100000
0
LINE
8
Layer 1
10
95.013000
20
33.100000
11
95.013000
21
19.100000
0
LINE
8
Layer 1
10
95.013000
20
19.100000
11
81.013000
21
19.100000
0
LINE
8
Layer 1
10
81.013000
20
19.100000
11
81.013000
21
33.100000
0
LINE
8
Layer 1
10
100.063000
20
33.100000
11
114.063000
21
33.100000
0
LINE
8
Layer 1
10
114.063000
20
33.100000
11
114.063000
21
19.100000
0
LINE
8
Layer 1
10
114.063000
20
19.100000
11
100.063000
21
19.100000
0
LINE
8
Layer 1
10
100.063000
20
19.100000
11
100.063000
21
33.100000
0
LINE
8
Layer 1
10
126.256000
20
33.100000
11
140.256000
21
33.100000
0
LINE
8
Layer 1
10
140.256000
20
33.100000
11
140.256000
21
19.100000
0
LINE
8
Layer 1
10
140.256000
20
19.100000
11
126.256000
21
19.100000
0
LINE
8
Layer 1
10
126.256000
20
19.100000
11
126.256000
21
33.100000
0
LINE
8
Layer 1
10
152.450000
20
33.100000
11
166.450000
21
33.100000
0
LINE
8
Layer 1
10
166.450000
20
33.100000
11
166.450000
21
19.100000
0
LINE
8
Layer 1
10
166.450000
20
19.100000
11
152.450000
21
19.100000
0
LINE
8
Layer 1
10
152.450000
20
19.100000
11
152.450000
21
33.100000
0
LINE
8
Layer 1
10
69.106000
20
14.050000
11
83.106000
21
14.050000
0
LINE
8
Layer 1
10
83.106000
20
14.050000
11
83.106000
21
0.050000
0
LINE
8
Layer 1
10
83.106000
20
0.050000
11
69.106000
21
0.050000
0
LINE
8
Layer 1
10
69.106000
20
0.050000
11
69.106000
21
14.050000
0
LINE
8
Layer 1
10
102.444000
20
14.050000
11
116.444000
21
14.050000
0
LINE
8
Layer 1
10
116.444000
20
14.050000
11
116.444000
21
0.050000
0
LINE
8
Layer 1
10
116.444000
20
0.050000
11
102.444000
21
0.050000
0
LINE
8
Layer 1
10
102.444000
20
0.050000
11
102.444000
21
14.050000
0
LINE
8
Layer 1
10
126.256000
20
14.050000
11
140.256000
21
14.050000
0
LINE
8
Layer 1
10
140.256000
20
14.050000
11
140.256000
21
0.050000
0
LINE
8
Layer 1
10
140.256000
20
0.050000
11
126.256000
21
0.050000
0
LINE
8
Layer 1
10
126.256000
20
0.050000
11
126.256000
21
14.050000
0
LINE
8
Layer 1
10
150.069000
20
14.050000
11
164.069000
21
14.050000
0
LINE
8
Layer 1
10
164.069000
20
14.050000
11
164.069000
21
0.050000
0
LINE
8
Layer 1
10
164.069000
20
0.050000
11
150.069000
21
0.050000
0
LINE
8
Layer 1
10
150.069000
20
0.050000
11
150.069000
21
14.050000
0
LINE
8
Layer 1
10
21.481000
20
14.050000
11
35.481000
21
14.050000
0
LINE
8
Layer 1
10
35.481000
20
14.050000
11
35.481000
21
0.050000
0
LINE
8
Layer 1
10
35.481000
20
0.050000
11
21.481000
21
0.050000
0
LINE
8
Layer 1
10
21.481000
20
0.050000
11
21.481000
21
14.050000
0
LINE
8
Layer 1
10
52.438000
20
52.150000
11
66.438000
21
52.150000
0
LINE
8
Layer 1
10
66.438000
20
52.150000
11
66.438000
21
38.150000
0
LINE
8
Layer 1
10
66.438000
20
38.150000
11
52.438000
21
38.150000
0
LINE
8
Layer 1
10
52.438000
20
38.150000
11
52.438000
21
52.150000
0
LINE
8
Layer 1
10
114.350000
20
90.250000
11
128.350000
21
90.250000
0
LINE
8
Layer 1
10
128.350000
20
90.250000
11
128.350000
21
76.250000
0
LINE
8
Layer 1
10
128.350000
20
76.250000
11
114.350000
21
76.250000
0
LINE
8
Layer 1
10
114.350000
20
76.250000
11
114.350000
21
90.250000
0
LINE
8
Layer 1
10
134.487000
20
89.250000
11
141.487000
21
89.250000
0
LINE
8
Layer 1
10
141.487000
20
89.250000
11
141.487000
21
74.250000
0
LINE
8
Layer 1
10
141.487000
20
74.250000
11
134.487000
21
74.250000
0
LINE
8
Layer 1
10
134.487000
20
74.250000
11
134.487000
21
89.250000
0
LINE
8
Layer 1
10
158.363000
20
89.250000
11
165.363000
21
89.250000
0
LINE
8
Layer 1
10
165.363000
20
89.250000
11
165.363000
21
74.250000
0
LINE
8
Layer 1
10
165.363000
20
74.250000
11
158.363000
21
74.250000
0
LINE
8
Layer 1
10
158.363000
20
74.250000
11
158.363000
21
89.250000
0
LINE
8
Layer 1
10
132.106000
20
51.150000
11
139.106000
21
51.150000
0
LINE
8
Layer 1
10
139.106000
20
51.150000
11
139.106000
21
36.150000
0
LINE
8
Layer 1
10
139.106000
20
36.150000
11
132.106000
21
36.150000
0
LINE
8
Layer 1
10
132.106000
20
36.150000
11
132.106000
21
51.150000
0
LINE
8
Layer 1
10
155.982000
20
51.150000
11
162.982000
21
51.150000
0
LINE
8
Layer 1
10
162.982000
20
51.150000
11
162.982000
21
36.150000
0
LINE
8
Layer 1
10
162.982000
20
36.150000
11
155.982000
21
36.150000
0
LINE
8
Layer 1
10
155.982000
20
36.150000
11
155.982000
21
51.150000
0
LINE
8
Layer 1
10
43.919000
20
1.050000
11
36.919000
21
1.050000
0
LINE
8
Layer 1
10
36.919000
20
1.050000
11
36.919000
21
16.050000
0
LINE
8
Layer 1
10
36.919000
20
16.050000
11
43.919000
21
16.050000
0
LINE
8
Layer 1
10
43.919000
20
16.050000
11
43.919000
21
1.050000
0
LINE
8
Layer 1
10
20.043000
20
1.050000
11
13.043000
21
1.050000
0
LINE
8
Layer 1
10
13.043000
20
1.050000
11
13.043000
21
16.050000
0
LINE
8
Layer 1
10
13.043000
20
16.050000
11
20.043000
21
16.050000
0
LINE
8
Layer 1
10
20.043000
20
16.050000
11
20.043000
21
1.050000
0
LINE
8
Layer 1
10
91.544000
20
1.050000
11
84.544000
21
1.050000
0
LINE
8
Layer 1
10
84.544000
20
1.050000
11
84.544000
21
16.050000
0
LINE
8
Layer 1
10
84.544000
20
16.050000
11
91.544000
21
16.050000
0
LINE
8
Layer 1
10
91.544000
20
16.050000
11
91.544000
21
1.050000
0
LINE
8
Layer 1
10
67.668000
20
1.050000
11
60.668000
21
1.050000
0
LINE
8
Layer 1
10
60.668000
20
1.050000
11
60.668000
21
16.050000
0
LINE
8
Layer 1
10
60.668000
20
16.050000
11
67.668000
21
16.050000
0
LINE
8
Layer 1
10
67.668000
20
16.050000
11
67.668000
21
1.050000
 0 
ENDSEC
 0 
EOF