<?xml version="1.0" encoding="UTF-8" standalone="no"?>
<svg
   width="166.5mm"
   height="90.300003mm"
   viewBox="0 0 166.5 90.300006"
   version="1.1"
   id="svg1"
   sodipodi:docname="plate-right.svg"
   inkscape:version="1.3.2 (091e20e, 2023-11-25, custom)"
   xmlns:inkscape="http://www.inkscape.org/namespaces/inkscape"
   xmlns:sodipodi="http://sodipodi.sourceforge.net/DTD/sodipodi-0.dtd"
   xmlns="http://www.w3.org/2000/svg"
   xmlns:svg="http://www.w3.org/2000/svg">
  <sodipodi:namedview
     id="namedview1"
     pagecolor="#ffffff"
     bordercolor="#000000"
     borderopacity="0.25"
     inkscape:showpageshadow="2"
     inkscape:pageopacity="0.0"
     inkscape:pagecheckerboard="0"
     inkscape:deskcolor="#d1d1d1"
     inkscape:document-units="mm"
     inkscape:zoom="1.9736486"
     inkscape:cx="314.64567"
     inkscape:cy="170.49641"
     inkscape:window-width="1920"
     inkscape:window-height="1009"
     inkscape:window-x="-8"
     inkscape:window-y="-8"
     inkscape:window-maximized="1"
     inkscape:current-layer="svg1" />
  <defs
     id="defs1" />
  <path
     d="m 47.675,19.1 h 14 v 14 h -14 z M 19.1,0.05 h 14 v 14 h -14 z m -19.05,0 h 14 v 14 h -14 z m 38.1,0 h 14 v 14 h -14 z m 19.05,0 h 14 v 14 h -14 z m 19.05,0 h 14 v 14 h -14 z m 19.05,0 h 14 v 14 h -14 z m 47.625,0 h 14 v 14 h -14 z M 9.575,19.1 h 14 v 14 h -14 z m 19.05,0 h 14 v 14 h -14 z m 38.1,0 h 14 v 14 h -14 z m 19.05,0 h 14 v 14 h -14 z m 19.05,0 h 14 v 14 h -14 z m 19.05,0 h 14 v 14 h -14 z m 23.813,0 h 14 v 14 h -14 z M 14.338,38.15 h 14 v 14 h -14 z m 19.05,0 h 14 v 14 h -14 z m 38.1,0 h 14 v 14 h -14 z m 19.05,0 h 14 v 14 h -14 z m 19.05,0 h 14 v 14 h -14 z m 30.956,0 h 14 v 14 h -14 z M 4.813,57.2 h 14 v 14 h -14 z m 19.05,0 h 14 v 14 h -14 z m 19.05,0 h 14 v 14 h -14 z m 19.05,0 h 14 v 14 h -14 z m 19.05,0 h 14 v 14 h -14 z m 19.05,0 h 14 v 14 h -14 z m 26.193,0 h 14 v 14 h -14 z m 26.194,0 h 14 v 14 h -14 z M 69.106,76.25 h 14 v 14 h -14 z m 33.338,0 h 14 v 14 h -14 z m 23.812,0 h 14 v 14 h -14 z m 23.813,0 h 14 v 14 h -14 z m -128.588,0 h 14 v 14 h -14 z m 30.957,-38.1 h 14 v 14 h -14 z M 114.35,0.05 h 14 v 14 h -14 z m 20.137,1 h 7 v 15 h -7 z m 23.876,0 h 7 v 15 h -7 z m -26.257,38.1 h 7 v 15 h -7 z m 23.876,0 h 7 v 15 h -7 z M 43.919,89.25 h -7 v -15 h 7 z m -23.876,0 h -7 v -15 h 7 z m 71.501,0 h -7 v -15 h 7 z m -23.876,0 h -7 v -15 h 7 z"
     style="fill:none;fill-opacity:1;stroke:#000000;stroke-width:0.1;stroke-linecap:butt;stroke-dasharray:none;stroke-opacity:1"
     id="path1" />
</svg>
