<?xml version="1.0" encoding="UTF-8" standalone="no"?>
<!-- Created with Inkscape (http://www.inkscape.org/) -->

<svg
   width="166.5mm"
   height="90.300003mm"
   viewBox="0 0 166.5 90.300003"
   version="1.1"
   id="svg1"
   sodipodi:docname="plate-left.svg"
   inkscape:version="1.3.2 (091e20e, 2023-11-25, custom)"
   xmlns:inkscape="http://www.inkscape.org/namespaces/inkscape"
   xmlns:sodipodi="http://sodipodi.sourceforge.net/DTD/sodipodi-0.dtd"
   xmlns="http://www.w3.org/2000/svg"
   xmlns:svg="http://www.w3.org/2000/svg">
  <sodipodi:namedview
     id="namedview1"
     pagecolor="#ffffff"
     bordercolor="#000000"
     borderopacity="0.25"
     inkscape:showpageshadow="2"
     inkscape:pageopacity="0.0"
     inkscape:pagecheckerboard="0"
     inkscape:deskcolor="#d1d1d1"
     inkscape:document-units="mm"
     inkscape:zoom="2.1849975"
     inkscape:cx="314.41684"
     inkscape:cy="170.48074"
     inkscape:window-width="1920"
     inkscape:window-height="1009"
     inkscape:window-x="-8"
     inkscape:window-y="-8"
     inkscape:window-maximized="1"
     inkscape:current-layer="svg1" />
  <defs
     id="defs1" />
  <path
     d="m 133.62939,100.54584 h 14 v 14 h -14 z m -83.343004,-76.2 h 14 v 14 h -14 z m 38.1,0 h 14.000004 v 14 H 88.386386 Z m 19.050004,0 h 14 v 14 h -14 z m 19.05,0 h 14 v 14 h -14 z m 19.05,0 h 14 v 14 h -14 z m 19.05,0 h 14 v 14 h -14 z m -147.638004,19.05 h 14 v 14 h -14 z m 38.1,0 h 14 v 14 h -14 z m 23.813,0 h 14 v 14 h -14 z m 19.05,0 h 14.000004 v 14 H 97.911386 Z m 19.050004,0 h 14 v 14 h -14 z m 19.05,0 h 14 v 14 h -14 z m 19.05,0 h 14 v 14 h -14 z m -138.113004,19.05 h 14 v 14 h -14 z m 40.481,0 h 14 v 14 h -14 z m 26.194,0 h 14 v 14 h -14 z m 19.050004,0 h 14 v 14 h -14 z m 19.05,0 h 14 v 14 h -14 z m 19.05,0 h 14 v 14 h -14 z m 19.05,0 h 14 v 14 h -14 z m -142.875004,19.05 h 14 v 14 h -14 z m 45.244,0 h 14 v 14 h -14 z m 30.956,0 h 14.000004 v 14 H 93.148386 Z m 19.050004,0 h 14 v 14 h -14 z m 38.1,0 h 14 v 14 h -14 z m 19.05,0 h 14 v 14 h -14 z m -152.400004,19.05 h 14 v 14 h -14 z m 35.719,0 h 14 v 14 h -14 z m 23.812,0 h 14 v 14 h -14 z m 23.813004,0 h 14 v 14 h -14 z m 66.675,0 h 14 v 14 h -14 z m -150.019004,-76.2 h 14 v 14 h -14 z m 52.388,0 h 14 v 14 h -14 z m 61.912004,57.15 h 14 v 14 h -14 z m -77.494004,1 h 7 v 15 h -7 z m 23.876,0 h 7 v 15 h -7 z m 78.437004,31.05 h -7 v -15 h 7 z m -23.876,0 h -7 v -15 h 7 z"
     style="fill:none;fill-opacity:1;stroke:#000000;stroke-width:0.1;stroke-dasharray:none;stroke-opacity:1"
     id="path1-5"
     transform="translate(-16.898386,-24.29584)" />
</svg>
