999
"DXF R12 Output" (www.mydxf.blogspot.com)
 0 
SECTION
 2 
HEADER
 9 
$ACADVER
 1 
AC1009
 9 
$EXTMIN
 10 
 0 
 20 
 0 
 9 
$EXTMAX
 10 
 8.5 
 20 
 11 
 0 
ENDSEC
 0 
SECTION
 2 
ENTITIES
0
LINE
8
Layer 1
10
116.730990
20
14.050160
11
130.730990
21
14.050160
0
LINE
8
Layer 1
10
130.730990
20
14.050160
11
130.730990
21
0.050160
0
LINE
8
Layer 1
10
130.730990
20
0.050160
11
116.730990
21
0.050160
0
LINE
8
Layer 1
10
116.730990
20
0.050160
11
116.730990
21
14.050160
0
LINE
8
Layer 1
10
33.387986
20
90.250160
11
47.387986
21
90.250160
0
LINE
8
Layer 1
10
47.387986
20
90.250160
11
47.387986
21
76.250160
0
LINE
8
Layer 1
10
47.387986
20
76.250160
11
33.387986
21
76.250160
0
LINE
8
Layer 1
10
33.387986
20
76.250160
11
33.387986
21
90.250160
0
LINE
8
Layer 1
10
71.487986
20
90.250160
11
85.487990
21
90.250160
0
LINE
8
Layer 1
10
85.487990
20
90.250160
11
85.487990
21
76.250160
0
LINE
8
Layer 1
10
85.487990
20
76.250160
11
71.487986
21
76.250160
0
LINE
8
Layer 1
10
71.487986
20
76.250160
11
71.487986
21
90.250160
0
LINE
8
Layer 1
10
90.537990
20
90.250160
11
104.537990
21
90.250160
0
LINE
8
Layer 1
10
104.537990
20
90.250160
11
104.537990
21
76.250160
0
LINE
8
Layer 1
10
104.537990
20
76.250160
11
90.537990
21
76.250160
0
LINE
8
Layer 1
10
90.537990
20
76.250160
11
90.537990
21
90.250160
0
LINE
8
Layer 1
10
109.587990
20
90.250160
11
123.587990
21
90.250160
0
LINE
8
Layer 1
10
123.587990
20
90.250160
11
123.587990
21
76.250160
0
LINE
8
Layer 1
10
123.587990
20
76.250160
11
109.587990
21
76.250160
0
LINE
8
Layer 1
10
109.587990
20
76.250160
11
109.587990
21
90.250160
0
LINE
8
Layer 1
10
128.637990
20
90.250160
11
142.637990
21
90.250160
0
LINE
8
Layer 1
10
142.637990
20
90.250160
11
142.637990
21
76.250160
0
LINE
8
Layer 1
10
142.637990
20
76.250160
11
128.637990
21
76.250160
0
LINE
8
Layer 1
10
128.637990
20
76.250160
11
128.637990
21
90.250160
0
LINE
8
Layer 1
10
147.687990
20
90.250160
11
161.687990
21
90.250160
0
LINE
8
Layer 1
10
161.687990
20
90.250160
11
161.687990
21
76.250160
0
LINE
8
Layer 1
10
161.687990
20
76.250160
11
147.687990
21
76.250160
0
LINE
8
Layer 1
10
147.687990
20
76.250160
11
147.687990
21
90.250160
0
LINE
8
Layer 1
10
0.049986
20
71.200160
11
14.049986
21
71.200160
0
LINE
8
Layer 1
10
14.049986
20
71.200160
11
14.049986
21
57.200160
0
LINE
8
Layer 1
10
14.049986
20
57.200160
11
0.049986
21
57.200160
0
LINE
8
Layer 1
10
0.049986
20
57.200160
11
0.049986
21
71.200160
0
LINE
8
Layer 1
10
38.149986
20
71.200160
11
52.149986
21
71.200160
0
LINE
8
Layer 1
10
52.149986
20
71.200160
11
52.149986
21
57.200160
0
LINE
8
Layer 1
10
52.149986
20
57.200160
11
38.149986
21
57.200160
0
LINE
8
Layer 1
10
38.149986
20
57.200160
11
38.149986
21
71.200160
0
LINE
8
Layer 1
10
61.962986
20
71.200160
11
75.962986
21
71.200160
0
LINE
8
Layer 1
10
75.962986
20
71.200160
11
75.962986
21
57.200160
0
LINE
8
Layer 1
10
75.962986
20
57.200160
11
61.962986
21
57.200160
0
LINE
8
Layer 1
10
61.962986
20
57.200160
11
61.962986
21
71.200160
0
LINE
8
Layer 1
10
81.012986
20
71.200160
11
95.012990
21
71.200160
0
LINE
8
Layer 1
10
95.012990
20
71.200160
11
95.012990
21
57.200160
0
LINE
8
Layer 1
10
95.012990
20
57.200160
11
81.012986
21
57.200160
0
LINE
8
Layer 1
10
81.012986
20
57.200160
11
81.012986
21
71.200160
0
LINE
8
Layer 1
10
100.062990
20
71.200160
11
114.062990
21
71.200160
0
LINE
8
Layer 1
10
114.062990
20
71.200160
11
114.062990
21
57.200160
0
LINE
8
Layer 1
10
114.062990
20
57.200160
11
100.062990
21
57.200160
0
LINE
8
Layer 1
10
100.062990
20
57.200160
11
100.062990
21
71.200160
0
LINE
8
Layer 1
10
119.112990
20
71.200160
11
133.112990
21
71.200160
0
LINE
8
Layer 1
10
133.112990
20
71.200160
11
133.112990
21
57.200160
0
LINE
8
Layer 1
10
133.112990
20
57.200160
11
119.112990
21
57.200160
0
LINE
8
Layer 1
10
119.112990
20
57.200160
11
119.112990
21
71.200160
0
LINE
8
Layer 1
10
138.162990
20
71.200160
11
152.162990
21
71.200160
0
LINE
8
Layer 1
10
152.162990
20
71.200160
11
152.162990
21
57.200160
0
LINE
8
Layer 1
10
152.162990
20
57.200160
11
138.162990
21
57.200160
0
LINE
8
Layer 1
10
138.162990
20
57.200160
11
138.162990
21
71.200160
0
LINE
8
Layer 1
10
0.049986
20
52.150160
11
14.049986
21
52.150160
0
LINE
8
Layer 1
10
14.049986
20
52.150160
11
14.049986
21
38.150160
0
LINE
8
Layer 1
10
14.049986
20
38.150160
11
0.049986
21
38.150160
0
LINE
8
Layer 1
10
0.049986
20
38.150160
11
0.049986
21
52.150160
0
LINE
8
Layer 1
10
40.530986
20
52.150160
11
54.530986
21
52.150160
0
LINE
8
Layer 1
10
54.530986
20
52.150160
11
54.530986
21
38.150160
0
LINE
8
Layer 1
10
54.530986
20
38.150160
11
40.530986
21
38.150160
0
LINE
8
Layer 1
10
40.530986
20
38.150160
11
40.530986
21
52.150160
0
LINE
8
Layer 1
10
66.724986
20
52.150160
11
80.724986
21
52.150160
0
LINE
8
Layer 1
10
80.724986
20
52.150160
11
80.724986
21
38.150160
0
LINE
8
Layer 1
10
80.724986
20
38.150160
11
66.724986
21
38.150160
0
LINE
8
Layer 1
10
66.724986
20
38.150160
11
66.724986
21
52.150160
0
LINE
8
Layer 1
10
85.774990
20
52.150160
11
99.774990
21
52.150160
0
LINE
8
Layer 1
10
99.774990
20
52.150160
11
99.774990
21
38.150160
0
LINE
8
Layer 1
10
99.774990
20
38.150160
11
85.774990
21
38.150160
0
LINE
8
Layer 1
10
85.774990
20
38.150160
11
85.774990
21
52.150160
0
LINE
8
Layer 1
10
104.824990
20
52.150160
11
118.824990
21
52.150160
0
LINE
8
Layer 1
10
118.824990
20
52.150160
11
118.824990
21
38.150160
0
LINE
8
Layer 1
10
118.824990
20
38.150160
11
104.824990
21
38.150160
0
LINE
8
Layer 1
10
104.824990
20
38.150160
11
104.824990
21
52.150160
0
LINE
8
Layer 1
10
123.874990
20
52.150160
11
137.874990
21
52.150160
0
LINE
8
Layer 1
10
137.874990
20
52.150160
11
137.874990
21
38.150160
0
LINE
8
Layer 1
10
137.874990
20
38.150160
11
123.874990
21
38.150160
0
LINE
8
Layer 1
10
123.874990
20
38.150160
11
123.874990
21
52.150160
0
LINE
8
Layer 1
10
142.924990
20
52.150160
11
156.924990
21
52.150160
0
LINE
8
Layer 1
10
156.924990
20
52.150160
11
156.924990
21
38.150160
0
LINE
8
Layer 1
10
156.924990
20
38.150160
11
142.924990
21
38.150160
0
LINE
8
Layer 1
10
142.924990
20
38.150160
11
142.924990
21
52.150160
0
LINE
8
Layer 1
10
0.049986
20
33.100160
11
14.049986
21
33.100160
0
LINE
8
Layer 1
10
14.049986
20
33.100160
11
14.049986
21
19.100160
0
LINE
8
Layer 1
10
14.049986
20
19.100160
11
0.049986
21
19.100160
0
LINE
8
Layer 1
10
0.049986
20
19.100160
11
0.049986
21
33.100160
0
LINE
8
Layer 1
10
45.293986
20
33.100160
11
59.293986
21
33.100160
0
LINE
8
Layer 1
10
59.293986
20
33.100160
11
59.293986
21
19.100160
0
LINE
8
Layer 1
10
59.293986
20
19.100160
11
45.293986
21
19.100160
0
LINE
8
Layer 1
10
45.293986
20
19.100160
11
45.293986
21
33.100160
0
LINE
8
Layer 1
10
76.249986
20
33.100160
11
90.249990
21
33.100160
0
LINE
8
Layer 1
10
90.249990
20
33.100160
11
90.249990
21
19.100160
0
LINE
8
Layer 1
10
90.249990
20
19.100160
11
76.249986
21
19.100160
0
LINE
8
Layer 1
10
76.249986
20
19.100160
11
76.249986
21
33.100160
0
LINE
8
Layer 1
10
95.299990
20
33.100160
11
109.299990
21
33.100160
0
LINE
8
Layer 1
10
109.299990
20
33.100160
11
109.299990
21
19.100160
0
LINE
8
Layer 1
10
109.299990
20
19.100160
11
95.299990
21
19.100160
0
LINE
8
Layer 1
10
95.299990
20
19.100160
11
95.299990
21
33.100160
0
LINE
8
Layer 1
10
133.399990
20
33.100160
11
147.399990
21
33.100160
0
LINE
8
Layer 1
10
147.399990
20
33.100160
11
147.399990
21
19.100160
0
LINE
8
Layer 1
10
147.399990
20
19.100160
11
133.399990
21
19.100160
0
LINE
8
Layer 1
10
133.399990
20
19.100160
11
133.399990
21
33.100160
0
LINE
8
Layer 1
10
152.449990
20
33.100160
11
166.449990
21
33.100160
0
LINE
8
Layer 1
10
166.449990
20
33.100160
11
166.449990
21
19.100160
0
LINE
8
Layer 1
10
166.449990
20
19.100160
11
152.449990
21
19.100160
0
LINE
8
Layer 1
10
152.449990
20
19.100160
11
152.449990
21
33.100160
0
LINE
8
Layer 1
10
0.049986
20
14.050160
11
14.049986
21
14.050160
0
LINE
8
Layer 1
10
14.049986
20
14.050160
11
14.049986
21
0.050160
0
LINE
8
Layer 1
10
14.049986
20
0.050160
11
0.049986
21
0.050160
0
LINE
8
Layer 1
10
0.049986
20
0.050160
11
0.049986
21
14.050160
0
LINE
8
Layer 1
10
35.768986
20
14.050160
11
49.768986
21
14.050160
0
LINE
8
Layer 1
10
49.768986
20
14.050160
11
49.768986
21
0.050160
0
LINE
8
Layer 1
10
49.768986
20
0.050160
11
35.768986
21
0.050160
0
LINE
8
Layer 1
10
35.768986
20
0.050160
11
35.768986
21
14.050160
0
LINE
8
Layer 1
10
59.580986
20
14.050160
11
73.580986
21
14.050160
0
LINE
8
Layer 1
10
73.580986
20
14.050160
11
73.580986
21
0.050160
0
LINE
8
Layer 1
10
73.580986
20
0.050160
11
59.580986
21
0.050160
0
LINE
8
Layer 1
10
59.580986
20
0.050160
11
59.580986
21
14.050160
0
LINE
8
Layer 1
10
83.393990
20
14.050160
11
97.393990
21
14.050160
0
LINE
8
Layer 1
10
97.393990
20
14.050160
11
97.393990
21
0.050160
0
LINE
8
Layer 1
10
97.393990
20
0.050160
11
83.393990
21
0.050160
0
LINE
8
Layer 1
10
83.393990
20
0.050160
11
83.393990
21
14.050160
0
LINE
8
Layer 1
10
150.068990
20
14.050160
11
164.068990
21
14.050160
0
LINE
8
Layer 1
10
164.068990
20
14.050160
11
164.068990
21
0.050160
0
LINE
8
Layer 1
10
164.068990
20
0.050160
11
150.068990
21
0.050160
0
LINE
8
Layer 1
10
150.068990
20
0.050160
11
150.068990
21
14.050160
0
LINE
8
Layer 1
10
0.049986
20
90.250160
11
14.049986
21
90.250160
0
LINE
8
Layer 1
10
14.049986
20
90.250160
11
14.049986
21
76.250160
0
LINE
8
Layer 1
10
14.049986
20
76.250160
11
0.049986
21
76.250160
0
LINE
8
Layer 1
10
0.049986
20
76.250160
11
0.049986
21
90.250160
0
LINE
8
Layer 1
10
52.437986
20
90.250160
11
66.437986
21
90.250160
0
LINE
8
Layer 1
10
66.437986
20
90.250160
11
66.437986
21
76.250160
0
LINE
8
Layer 1
10
66.437986
20
76.250160
11
52.437986
21
76.250160
0
LINE
8
Layer 1
10
52.437986
20
76.250160
11
52.437986
21
90.250160
0
LINE
8
Layer 1
10
114.349990
20
33.100160
11
128.349990
21
33.100160
0
LINE
8
Layer 1
10
128.349990
20
33.100160
11
128.349990
21
19.100160
0
LINE
8
Layer 1
10
128.349990
20
19.100160
11
114.349990
21
19.100160
0
LINE
8
Layer 1
10
114.349990
20
19.100160
11
114.349990
21
33.100160
0
LINE
8
Layer 1
10
36.855986
20
32.100160
11
43.855986
21
32.100160
0
LINE
8
Layer 1
10
43.855986
20
32.100160
11
43.855986
21
17.100160
0
LINE
8
Layer 1
10
43.855986
20
17.100160
11
36.855986
21
17.100160
0
LINE
8
Layer 1
10
36.855986
20
17.100160
11
36.855986
21
32.100160
0
LINE
8
Layer 1
10
60.731986
20
32.100160
11
67.731986
21
32.100160
0
LINE
8
Layer 1
10
67.731986
20
32.100160
11
67.731986
21
17.100160
0
LINE
8
Layer 1
10
67.731986
20
17.100160
11
60.731986
21
17.100160
0
LINE
8
Layer 1
10
60.731986
20
17.100160
11
60.731986
21
32.100160
0
LINE
8
Layer 1
10
139.168990
20
1.050160
11
132.168990
21
1.050160
0
LINE
8
Layer 1
10
132.168990
20
1.050160
11
132.168990
21
16.050160
0
LINE
8
Layer 1
10
132.168990
20
16.050160
11
139.168990
21
16.050160
0
LINE
8
Layer 1
10
139.168990
20
16.050160
11
139.168990
21
1.050160
0
LINE
8
Layer 1
10
115.292990
20
1.050160
11
108.292990
21
1.050160
0
LINE
8
Layer 1
10
108.292990
20
1.050160
11
108.292990
21
16.050160
0
LINE
8
Layer 1
10
108.292990
20
16.050160
11
115.292990
21
16.050160
0
LINE
8
Layer 1
10
115.292990
20
16.050160
11
115.292990
21
1.050160
 0 
ENDSEC
 0 
EOF