<?xml version="1.0" encoding="UTF-8" standalone="no"?>
<svg
   version="1.1"
   width="193.53101mm"
   height="117.33001mm"
   viewBox="0 0 193.53101 117.33001"
   id="svg6844"
   xmlns="http://www.w3.org/2000/svg"
   xmlns:svg="http://www.w3.org/2000/svg"
   xmlns:rdf="http://www.w3.org/1999/02/22-rdf-syntax-ns#"
   xmlns:cc="http://creativecommons.org/ns#"
   xmlns:dc="http://purl.org/dc/elements/1.1/">
  <defs
     id="defs6844" />
  <title
     id="title1">SVG Image created as accelerator-brd.svg date 2024/05/05 21:37:06 </title>
  <desc
     id="desc1">Image generated by PCBNEW </desc>
  <metadata
     id="metadata4">
    <rdf:RDF>
      <cc:Work
         rdf:about="">
        <dc:title>SVG Image created as accelerator-brd.svg date 2024/05/05 21:37:06 </dc:title>
      </cc:Work>
    </rdf:RDF>
  </metadata>
  <g
     id="layer20"
     transform="translate(-46.444978,-152.435)"
     style="display:inline">
    <g
       id="layer28"
       style="display:inline">
      <path
         id="rect39"
         style="fill:none;stroke:#000000;stroke-width:0.1"
         d="m 118.74499,263.81501 c 0,1.24264 -1.00736,2.25 -2.25,2.25 -1.24264,0 -2.25,-1.00736 -2.25,-2.25 0,-1.24264 1.00736,-2.25 2.25,-2.25 1.24264,0 2.25,1.00736 2.25,2.25 z m 0,-105.33002 c 0,1.24264 -1.00736,2.25 -2.25,2.25 -1.24264,0 -2.25,-1.00736 -2.25,-2.25 0,-1.24264 1.00736,-2.25 2.25,-2.25 1.24264,0 2.25,1.00736 2.25,2.25 z M 54.744989,263.81501 c 0,1.24264 -1.007359,2.25 -2.25,2.25 -1.242641,0 -2.25,-1.00736 -2.25,-2.25 0,-1.24264 1.007359,-2.25 2.25,-2.25 1.242641,0 2.25,1.00736 2.25,2.25 z m -0.04999,-52.715 c 0,1.24264 -1.00736,2.25 -2.25,2.25 -1.242641,0 -2.25,-1.00736 -2.25,-2.25 0,-1.24264 1.007359,-2.25 2.25,-2.25 1.24264,0 2.25,1.00736 2.25,2.25 z m 0.04999,-52.61502 c 0,1.24264 -1.007359,2.25 -2.25,2.25 -1.242641,0 -2.25,-1.00736 -2.25,-2.25 0,-1.24264 1.007359,-2.25 2.25,-2.25 1.242641,0 2.25,1.00736 2.25,2.25 z M 172.276,263.81501 c 0,1.24264 -1.00736,2.25 -2.25,2.25 -1.24264,0 -2.25,-1.00736 -2.25,-2.25 0,-1.24264 1.00736,-2.25 2.25,-2.25 1.24264,0 2.25,1.00736 2.25,2.25 z m 0,-105.33002 c 0,1.24264 -1.00736,2.25 -2.25,2.25 -1.24264,0 -2.25,-1.00736 -2.25,-2.25 0,-1.24264 1.00736,-2.25 2.25,-2.25 1.24264,0 2.25,1.00736 2.25,2.25 z m 64,105.33002 c 0,1.24264 -1.00736,2.25 -2.25,2.25 -1.24264,0 -2.25,-1.00736 -2.25,-2.25 0,-1.24264 1.00736,-2.25 2.25,-2.25 1.24264,0 2.25,1.00736 2.25,2.25 z m -0.05,-52.71499 c 0,1.24264 -1.00736,2.25 -2.25,2.25 -1.24264,0 -2.25,-1.00736 -2.25,-2.25 0,-1.24264 1.00736,-2.25 2.25,-2.25 1.24264,0 2.25,1.00736 2.25,2.25 z m 0.05,-52.61503 c 0,1.24264 -1.00736,2.25 -2.25,2.25 -1.24264,0 -2.25,-1.00736 -2.25,-2.25 0,-1.24264 1.00736,-2.25 2.25,-2.25 1.24264,0 2.25,1.00736 2.25,2.25 z m -90.16553,4 v -2.70001 c 1e-5,-1.60163 -1.29836,-2.9 -2.89999,-2.9 -1.60163,0 -2.9,1.29837 -2.9,2.9 v 2.70001 H 72.494999 v -2.70001 c 0,-1.60163 -1.29837,-2.9 -2.9,-2.9 -1.60163,0 -2.9,1.29837 -2.9,2.9 l -10e-6,2.70001 h -10.2 V 259.715 h 10.2 l 10e-6,2.69999 c 0,1.60163 1.29837,2.9 2.9,2.9 1.60163,0 2.9,-1.29837 2.9,-2.9 V 259.715 h 67.815481 v 2.69998 c 0,1.60164 1.29837,2.90001 2.9,2.90001 1.60163,0 2.9,-1.29837 2.89999,-2.90001 V 259.715 h 67.81551 l 1e-5,2.69999 c 0,1.60163 1.29837,2.9 2.9,2.9 1.60163,0 2.9,-1.29837 2.9,-2.9 V 259.715 h 10.2 v -97.23001 h -10.2 v -2.70001 c 0,-1.60163 -1.29837,-2.9 -2.9,-2.9 -1.60163,0 -2.9,1.29837 -2.9,2.9 l -1e-5,2.70001 z" />
    </g>
  </g>
</svg>
